<?xml version="1.0" standalone="no"?>
<!DOCTYPE svg PUBLIC "-//W3C//DTD SVG 20010904//EN"
 "http://www.w3.org/TR/2001/REC-SVG-20010904/DTD/svg10.dtd">
<svg version="1.0" xmlns="http://www.w3.org/2000/svg"
 width="256.000000pt" height="256.000000pt" viewBox="0 0 256.000000 256.000000"
 preserveAspectRatio="xMidYMid meet">
<metadata>
Created by potrace 1.11, written by Peter Selinger 2001-2013
</metadata>
<g transform="translate(0.000000,256.000000) scale(0.100000,-0.100000)"
fill="#000000" stroke="none">
<path d="M1235 2474 c-14 -14 -15 -29 -9 -93 3 -42 10 -83 14 -91 3 -8 8 -49
9 -90 1 -41 4 -83 7 -92 6 -22 47 -24 63 -4 14 17 20 238 8 308 -12 72 -54
100 -92 62z"/>
<path d="M1915 2054 c-71 -75 -131 -142 -133 -149 -3 -13 23 -45 37 -45 13 0
78 54 189 157 107 99 120 124 84 156 -10 10 -25 17 -33 17 -8 0 -72 -61 -144
-136z"/>
<path d="M452 2158 c-24 -24 -10 -48 83 -143 52 -53 95 -102 95 -109 0 -17 33
-46 52 -46 23 0 48 33 48 65 0 30 -50 85 -177 193 -64 54 -81 60 -101 40z"/>
<path d="M1152 2007 c-18 -7 -37 -18 -41 -25 -4 -8 -15 -10 -26 -6 -12 5 -16
4 -11 -4 3 -6 -3 -13 -16 -17 -13 -4 -65 -23 -117 -43 -83 -32 -99 -43 -148
-97 -30 -33 -63 -76 -73 -95 -9 -19 -25 -50 -35 -69 -28 -54 -40 -193 -28
-324 13 -141 38 -194 137 -293 89 -88 166 -222 175 -303 9 -83 32 -95 179 -97
116 -2 116 -2 29 5 -103 8 -116 18 -138 109 -11 46 -41 104 -84 160 -10 14
-110 115 -152 155 -48 45 -94 174 -100 282 -5 72 -1 94 32 205 48 163 61 183
190 296 102 88 148 105 309 110 136 4 188 -4 281 -46 22 -9 45 -19 52 -21 39
-13 151 -123 202 -199 94 -140 116 -223 86 -324 -8 -27 -15 -64 -15 -81 0 -46
-79 -192 -139 -257 -58 -62 -94 -121 -116 -189 -54 -166 -89 -199 -213 -200
-54 0 -71 -3 -55 -9 12 -5 70 -6 130 -3 122 6 108 -3 144 93 22 59 121 255
132 262 6 4 15 4 19 2 4 -3 8 -1 8 4 0 5 21 35 46 67 34 44 44 65 39 82 -3 15
6 46 29 91 52 102 59 133 54 236 -11 208 -107 339 -338 455 -47 24 -87 47 -90
50 -9 12 -68 33 -102 36 -151 13 -206 14 -236 2z"/>
<path d="M330 1438 c-19 -5 -73 -14 -119 -19 -99 -10 -128 -29 -117 -74 7 -27
8 -27 59 -19 29 4 79 8 112 9 116 3 260 18 273 28 15 12 16 59 0 75 -14 14
-157 15 -208 0z"/>
<path d="M2051 1411 c-33 -9 -49 -36 -35 -58 10 -16 30 -18 175 -19 90 0 190
-4 222 -8 56 -8 57 -7 57 17 0 13 -9 36 -21 51 l-20 26 -177 -1 c-97 -1 -188
-4 -201 -8z"/>
<path d="M1285 1178 c-2 -7 -6 -29 -9 -48 -4 -19 -11 -42 -16 -50 -11 -16 -17
-11 -63 55 -34 47 -47 33 -47 -50 0 -62 -3 -75 -16 -75 -9 0 -14 -6 -11 -12 2
-7 12 -13 23 -13 17 0 19 9 22 75 l3 75 22 -40 c18 -31 29 -41 53 -43 24 -2
33 2 42 23 7 14 12 34 13 43 0 10 8 2 17 -18 25 -53 59 -96 68 -87 5 5 1 20
-8 35 -9 15 -29 53 -44 85 -26 56 -41 69 -49 45z"/>
<path d="M557 769 c-97 -102 -117 -139 -81 -153 22 -8 42 6 147 107 85 82 101
109 75 135 -24 24 -47 10 -141 -89z"/>
<path d="M1804 845 c-10 -26 8 -48 47 -58 23 -6 62 -37 123 -98 88 -90 109
-100 130 -67 16 26 -15 74 -87 133 -79 65 -124 92 -169 100 -31 6 -39 4 -44
-10z"/>
<path d="M1021 556 c-7 -8 -11 -27 -9 -43 l3 -28 90 -1 c50 -1 170 -5 268 -9
170 -8 177 -7 177 11 -1 54 -38 66 -194 64 -254 -5 -265 -5 -278 8 -16 16 -43
15 -57 -2z"/>
<path d="M1095 400 l-70 -5 -3 -33 -3 -34 250 3 c249 4 251 4 251 25 0 12 -6
26 -12 32 -14 11 -303 20 -413 12z"/>
<path d="M1268 252 l-248 -2 0 -24 c0 -27 24 -51 61 -60 15 -3 114 -8 220 -11
188 -5 193 -5 216 17 25 23 32 73 11 79 -7 2 -124 3 -260 1z"/>
</g>
</svg>
