<?xml version="1.0" encoding="UTF-8" standalone="no"?>
<!DOCTYPE svg PUBLIC "-//W3C//DTD SVG 1.1//EN"
 "http://www.w3.org/Graphics/SVG/1.1/DTD/svg11.dtd">
<!-- Generated by graphviz version 2.38.0 (20140413.2041)
 -->
<!-- Title: d1e2227 Pages: 1 -->
<svg width="1288pt" height="197pt"
 viewBox="0.00 0.00 1288.00 197.00" xmlns="http://www.w3.org/2000/svg" xmlns:xlink="http://www.w3.org/1999/xlink">
<g id="graph0" class="graph" transform="scale(1 1) rotate(0) translate(4 193)">
<title>d1e2227</title>
<polygon fill="white" stroke="none" points="-4,4 -4,-193 1284,-193 1284,4 -4,4"/>
<text text-anchor="middle" x="640" y="-7.8" font-family="Times,serif" font-size="14.00">Powered by http://rhizomik.net</text>
<!-- http://www.semanticweb.org/simayguzel/ontologies/2019/10/crawci#Region -->
<g id="node1" class="node"><title>http://www.semanticweb.org/simayguzel/ontologies/2019/10/crawci#Region</title>
<polygon fill="none" stroke="black" points="1231.5,-42 689.5,-42 689.5,-23 1231.5,-23 1231.5,-42"/>
<text text-anchor="middle" x="960.5" y="-30" font-family="Times,serif" font-size="10.00">http://www.semanticweb.org/simayguzel/ontologies/2019/10/crawci#Region</text>
</g>
<!-- http://www.semanticweb.org/simayguzel/ontologies/2019/10/crawci#Theater -->
<g id="node2" class="node"><title>http://www.semanticweb.org/simayguzel/ontologies/2019/10/crawci#Theater</title>
<polygon fill="none" stroke="black" points="549,-74 0,-74 0,-55 549,-55 549,-74"/>
<text text-anchor="middle" x="274.5" y="-62" font-family="Times,serif" font-size="10.00">http://www.semanticweb.org/simayguzel/ontologies/2019/10/crawci#Theater</text>
</g>
<!-- http://www.semanticweb.org/simayguzel/ontologies/2019/10/crawci#CriminalReport -->
<g id="node3" class="node"><title>http://www.semanticweb.org/simayguzel/ontologies/2019/10/crawci#CriminalReport</title>
<polygon fill="none" stroke="black" points="1261.5,-147 659.5,-147 659.5,-128 1261.5,-128 1261.5,-147"/>
<text text-anchor="middle" x="960.5" y="-135" font-family="Times,serif" font-size="10.00">http://www.semanticweb.org/simayguzel/ontologies/2019/10/crawci#CriminalReport</text>
</g>
<!-- http://www.semanticweb.org/simayguzel/crawci#TotalTheater -->
<g id="node4" class="node"><title>http://www.semanticweb.org/simayguzel/crawci#TotalTheater</title>
<polygon fill="none" stroke="black" points="1182.5,-126 738.5,-126 738.5,-107 1182.5,-107 1182.5,-126"/>
<text text-anchor="middle" x="960.5" y="-114" font-family="Times,serif" font-size="10.00">http://www.semanticweb.org/simayguzel/crawci#TotalTheater</text>
</g>
<!-- http://www.semanticweb.org/simayguzel/ontologies/2019/10/crawci#AverageSalary -->
<g id="node5" class="node"><title>http://www.semanticweb.org/simayguzel/ontologies/2019/10/crawci#AverageSalary</title>
<polygon fill="none" stroke="black" points="1257.5,-105 663.5,-105 663.5,-86 1257.5,-86 1257.5,-105"/>
<text text-anchor="middle" x="960.5" y="-93" font-family="Times,serif" font-size="10.00">http://www.semanticweb.org/simayguzel/ontologies/2019/10/crawci#AverageSalary</text>
</g>
<!-- http://www.semanticweb.org/simayguzel/ontologies/2019/10/crawci#Country -->
<g id="node6" class="node"><title>http://www.semanticweb.org/simayguzel/ontologies/2019/10/crawci#Country</title>
<polygon fill="none" stroke="black" points="549,-42 0,-42 0,-23 549,-23 549,-42"/>
<text text-anchor="middle" x="274.5" y="-30" font-family="Times,serif" font-size="10.00">http://www.semanticweb.org/simayguzel/ontologies/2019/10/crawci#Country</text>
</g>
<!-- http://www.semanticweb.org/simayguzel/ontologies/2019/10/crawci#Country&#45;&gt;http://www.semanticweb.org/simayguzel/ontologies/2019/10/crawci#Region -->
<g id="edge1" class="edge"><title>http://www.semanticweb.org/simayguzel/ontologies/2019/10/crawci#Country&#45;&gt;http://www.semanticweb.org/simayguzel/ontologies/2019/10/crawci#Region</title>
<path fill="none" stroke="blue" d="M559.299,-32.5C602.295,-32.5 646.555,-32.5 689.253,-32.5"/>
<polygon fill="blue" stroke="blue" points="559.276,-29.0001 549.276,-32.5 559.276,-36.0001 559.276,-29.0001"/>
<text text-anchor="middle" x="595" y="-35.5" font-family="Times,serif" font-size="10.00">subClassOf</text>
</g>
<!-- http://www.semanticweb.org/simayguzel/crawci#PositiveCorrelation -->
<g id="node7" class="node"><title>http://www.semanticweb.org/simayguzel/crawci#PositiveCorrelation</title>
<polygon fill="none" stroke="black" points="1209,-189 712,-189 712,-170 1209,-170 1209,-189"/>
<text text-anchor="middle" x="960.5" y="-177" font-family="Times,serif" font-size="10.00">http://www.semanticweb.org/simayguzel/crawci#PositiveCorrelation</text>
</g>
<!-- http://www.semanticweb.org/simayguzel/crawci#Correlation -->
<g id="node8" class="node"><title>http://www.semanticweb.org/simayguzel/crawci#Correlation</title>
<polygon fill="none" stroke="black" points="493,-178 56,-178 56,-159 493,-159 493,-178"/>
<text text-anchor="middle" x="274.5" y="-166" font-family="Times,serif" font-size="10.00">http://www.semanticweb.org/simayguzel/crawci#Correlation</text>
</g>
<!-- http://www.semanticweb.org/simayguzel/crawci#Correlation&#45;&gt;http://www.semanticweb.org/simayguzel/crawci#PositiveCorrelation -->
<g id="edge2" class="edge"><title>http://www.semanticweb.org/simayguzel/crawci#Correlation&#45;&gt;http://www.semanticweb.org/simayguzel/crawci#PositiveCorrelation</title>
<path fill="none" stroke="blue" d="M503.42,-172.604C521.549,-172.913 539.578,-173.215 557,-173.5 607.049,-174.318 660.6,-175.147 711.775,-175.918"/>
<polygon fill="blue" stroke="blue" points="503.401,-169.103 493.342,-172.431 503.281,-176.102 503.401,-169.103"/>
<text text-anchor="middle" x="595" y="-177.5" font-family="Times,serif" font-size="10.00">subClassOf</text>
</g>
<!-- http://www.semanticweb.org/simayguzel/crawci#NegativeCorrelation -->
<g id="node9" class="node"><title>http://www.semanticweb.org/simayguzel/crawci#NegativeCorrelation</title>
<polygon fill="none" stroke="black" points="1209,-168 712,-168 712,-149 1209,-149 1209,-168"/>
<text text-anchor="middle" x="960.5" y="-156" font-family="Times,serif" font-size="10.00">http://www.semanticweb.org/simayguzel/crawci#NegativeCorrelation</text>
</g>
<!-- http://www.semanticweb.org/simayguzel/crawci#Correlation&#45;&gt;http://www.semanticweb.org/simayguzel/crawci#NegativeCorrelation -->
<g id="edge3" class="edge"><title>http://www.semanticweb.org/simayguzel/crawci#Correlation&#45;&gt;http://www.semanticweb.org/simayguzel/crawci#NegativeCorrelation</title>
<path fill="none" stroke="blue" d="M503.57,-165.166C570.394,-164.189 643.769,-163.116 711.755,-162.122"/>
<polygon fill="blue" stroke="blue" points="503.28,-161.669 493.332,-165.315 503.382,-168.669 503.28,-161.669"/>
<text text-anchor="middle" x="595" y="-166.5" font-family="Times,serif" font-size="10.00">subClassOf</text>
</g>
<!-- http://www.semanticweb.org/simayguzel/ontologies/2019/10/crawci#CulturalInstitution -->
<g id="node10" class="node"><title>http://www.semanticweb.org/simayguzel/ontologies/2019/10/crawci#CulturalInstitution</title>
<polygon fill="none" stroke="black" points="1280,-84 641,-84 641,-65 1280,-65 1280,-84"/>
<text text-anchor="middle" x="960.5" y="-72" font-family="Times,serif" font-size="10.00">http://www.semanticweb.org/simayguzel/ontologies/2019/10/crawci#CulturalInstitution</text>
</g>
<!-- http://www.semanticweb.org/simayguzel/crawci#Statistics -->
<g id="node11" class="node"><title>http://www.semanticweb.org/simayguzel/crawci#Statistics</title>
<polygon fill="none" stroke="black" points="489,-105 60,-105 60,-86 489,-86 489,-105"/>
<text text-anchor="middle" x="274.5" y="-93" font-family="Times,serif" font-size="10.00">http://www.semanticweb.org/simayguzel/crawci#Statistics</text>
</g>
<!-- http://www.semanticweb.org/simayguzel/crawci#Statistics&#45;&gt;http://www.semanticweb.org/simayguzel/ontologies/2019/10/crawci#CriminalReport -->
<g id="edge8" class="edge"><title>http://www.semanticweb.org/simayguzel/crawci#Statistics&#45;&gt;http://www.semanticweb.org/simayguzel/ontologies/2019/10/crawci#CriminalReport</title>
<path fill="none" stroke="blue" d="M398.871,-105.854C448.059,-109.911 505.199,-114.534 557,-118.5 594.319,-121.357 603.63,-122.403 641,-124.5 662.964,-125.732 685.785,-126.895 708.669,-127.981"/>
<polygon fill="blue" stroke="blue" points="399.076,-102.36 388.822,-105.024 398.5,-109.336 399.076,-102.36"/>
<text text-anchor="middle" x="595" y="-126.5" font-family="Times,serif" font-size="10.00">subClassOf</text>
</g>
<!-- http://www.semanticweb.org/simayguzel/crawci#Statistics&#45;&gt;http://www.semanticweb.org/simayguzel/crawci#TotalTheater -->
<g id="edge6" class="edge"><title>http://www.semanticweb.org/simayguzel/crawci#Statistics&#45;&gt;http://www.semanticweb.org/simayguzel/crawci#TotalTheater</title>
<path fill="none" stroke="blue" d="M499.334,-104.536C518.836,-105.235 538.268,-105.901 557,-106.5 615.773,-108.378 679.384,-110.102 738.306,-111.57"/>
<polygon fill="blue" stroke="blue" points="499.252,-101.031 489.132,-104.167 498.999,-108.026 499.252,-101.031"/>
<text text-anchor="middle" x="595" y="-110.5" font-family="Times,serif" font-size="10.00">subClassOf</text>
</g>
<!-- http://www.semanticweb.org/simayguzel/crawci#Statistics&#45;&gt;http://www.semanticweb.org/simayguzel/ontologies/2019/10/crawci#AverageSalary -->
<g id="edge5" class="edge"><title>http://www.semanticweb.org/simayguzel/crawci#Statistics&#45;&gt;http://www.semanticweb.org/simayguzel/ontologies/2019/10/crawci#AverageSalary</title>
<path fill="none" stroke="blue" d="M499.185,-95.5C551.585,-95.5 608.211,-95.5 663.229,-95.5"/>
<polygon fill="blue" stroke="blue" points="499.108,-92.0001 489.108,-95.5 499.108,-99.0001 499.108,-92.0001"/>
<text text-anchor="middle" x="595" y="-98.5" font-family="Times,serif" font-size="10.00">subClassOf</text>
</g>
<!-- http://www.semanticweb.org/simayguzel/crawci#Statistics&#45;&gt;http://www.semanticweb.org/simayguzel/ontologies/2019/10/crawci#CulturalInstitution -->
<g id="edge4" class="edge"><title>http://www.semanticweb.org/simayguzel/crawci#Statistics&#45;&gt;http://www.semanticweb.org/simayguzel/ontologies/2019/10/crawci#CulturalInstitution</title>
<path fill="none" stroke="blue" d="M499.334,-86.4642C518.836,-85.7646 538.268,-85.0987 557,-84.5 584.247,-83.6292 612.534,-82.7917 640.911,-81.9974"/>
<polygon fill="blue" stroke="blue" points="498.999,-82.9739 489.132,-86.8329 499.252,-89.9693 498.999,-82.9739"/>
<text text-anchor="middle" x="595" y="-87.5" font-family="Times,serif" font-size="10.00">subClassOf</text>
</g>
<!-- http://www.semanticweb.org/simayguzel/ontologies/2019/10/crawci#DifusionOfInternet -->
<g id="node12" class="node"><title>http://www.semanticweb.org/simayguzel/ontologies/2019/10/crawci#DifusionOfInternet</title>
<polygon fill="none" stroke="black" points="1276.5,-63 644.5,-63 644.5,-44 1276.5,-44 1276.5,-63"/>
<text text-anchor="middle" x="960.5" y="-51" font-family="Times,serif" font-size="10.00">http://www.semanticweb.org/simayguzel/ontologies/2019/10/crawci#DifusionOfInternet</text>
</g>
<!-- http://www.semanticweb.org/simayguzel/crawci#Statistics&#45;&gt;http://www.semanticweb.org/simayguzel/ontologies/2019/10/crawci#DifusionOfInternet -->
<g id="edge7" class="edge"><title>http://www.semanticweb.org/simayguzel/crawci#Statistics&#45;&gt;http://www.semanticweb.org/simayguzel/ontologies/2019/10/crawci#DifusionOfInternet</title>
<path fill="none" stroke="blue" d="M499.284,-86.3714C516.243,-83.4808 532.979,-79.9051 549,-75.5 552.833,-74.4461 553.154,-72.5051 557,-71.5 593.161,-62.0499 603.663,-69.2095 641,-67.5 673.207,-66.0253 707.247,-64.4969 740.619,-63.0156"/>
<polygon fill="blue" stroke="blue" points="498.588,-82.9386 489.277,-87.9953 499.709,-89.8482 498.588,-82.9386"/>
<text text-anchor="middle" x="595" y="-74.5" font-family="Times,serif" font-size="10.00">subClassOf</text>
</g>
</g>
</svg>
