<?xml version="1.0" encoding="UTF-8" standalone="no"?>
<!DOCTYPE svg PUBLIC "-//W3C//DTD SVG 1.1//EN"
 "http://www.w3.org/Graphics/SVG/1.1/DTD/svg11.dtd">
<!-- Generated by graphviz version 2.38.0 (20140413.2041)
 -->
<!-- Title: d1e1261 Pages: 1 -->
<svg width="748pt" height="648pt"
 viewBox="0.00 0.00 748.00 648.00" xmlns="http://www.w3.org/2000/svg" xmlns:xlink="http://www.w3.org/1999/xlink">
<g id="graph0" class="graph" transform="scale(1 1) rotate(0) translate(4 644)">
<title>d1e1261</title>
<polygon fill="white" stroke="none" points="-4,4 -4,-644 744,-644 744,4 -4,4"/>
<text text-anchor="middle" x="370" y="-7.8" font-family="Times,serif" font-size="14.00">Powered by http://rhizomik.net</text>
<!-- http://www.semanticweb.org/lisa/ontologies/2019/7/rap#Neutral -->
<g id="node1" class="node"><title>http://www.semanticweb.org/lisa/ontologies/2019/7/rap#Neutral</title>
<polygon fill="none" stroke="black" points="515,-105 446,-105 446,-86 515,-86 515,-105"/>
<text text-anchor="middle" x="480.5" y="-93" font-family="Times,serif" font-size="10.00">Neutral</text>
</g>
<!-- http://www.semanticweb.org/lisa/ontologies/2019/7/rap#Zeugma -->
<g id="node2" class="node"><title>http://www.semanticweb.org/lisa/ontologies/2019/7/rap#Zeugma</title>
<polygon fill="none" stroke="black" points="511.5,-420 449.5,-420 449.5,-401 511.5,-401 511.5,-420"/>
<text text-anchor="middle" x="480.5" y="-408" font-family="Times,serif" font-size="10.00">Zeugma</text>
</g>
<!-- http://www.semanticweb.org/lisa/ontologies/2019/7/rap#Polysyndeton -->
<g id="node3" class="node"><title>http://www.semanticweb.org/lisa/ontologies/2019/7/rap#Polysyndeton</title>
<polygon fill="none" stroke="black" points="534,-399 427,-399 427,-380 534,-380 534,-399"/>
<text text-anchor="middle" x="480.5" y="-387" font-family="Times,serif" font-size="10.00">Polysyndeton</text>
</g>
<!-- http://purl.org/ontology/mo/Genre -->
<g id="node4" class="node"><title>http://purl.org/ontology/mo/Genre</title>
<polygon fill="none" stroke="black" points="91.5,-368 37.5,-368 37.5,-349 91.5,-349 91.5,-368"/>
<text text-anchor="middle" x="64.5" y="-356" font-family="Times,serif" font-size="10.00">Genre</text>
</g>
<!-- http://www.semanticweb.org/lisa/ontologies/2019/7/rap#Music_Artist -->
<g id="node5" class="node"><title>http://www.semanticweb.org/lisa/ontologies/2019/7/rap#Music_Artist</title>
<polygon fill="none" stroke="black" points="534,-483 427,-483 427,-464 534,-464 534,-483"/>
<text text-anchor="middle" x="480.5" y="-471" font-family="Times,serif" font-size="10.00">Music_Artist</text>
</g>
<!-- http://www.semanticweb.org/lisa/ontologies/2019/7/rap#BMW -->
<g id="node6" class="node"><title>http://www.semanticweb.org/lisa/ontologies/2019/7/rap#BMW</title>
<polygon fill="none" stroke="black" points="500,-525 461,-525 461,-506 500,-506 500,-525"/>
<text text-anchor="middle" x="480.5" y="-513" font-family="Times,serif" font-size="10.00">BMW</text>
</g>
<!-- http://www.semanticweb.org/lisa/ontologies/2019/7/rap#Simile -->
<g id="node7" class="node"><title>http://www.semanticweb.org/lisa/ontologies/2019/7/rap#Simile</title>
<polygon fill="none" stroke="black" points="515,-378 446,-378 446,-359 515,-359 515,-378"/>
<text text-anchor="middle" x="480.5" y="-366" font-family="Times,serif" font-size="10.00">Similie</text>
</g>
<!-- http://www.semanticweb.org/lisa/ontologies/2019/7/rap#Car -->
<g id="node8" class="node"><title>http://www.semanticweb.org/lisa/ontologies/2019/7/rap#Car</title>
<polygon fill="none" stroke="black" points="84,-509 45,-509 45,-490 84,-490 84,-509"/>
<text text-anchor="middle" x="64.5" y="-497" font-family="Times,serif" font-size="10.00">Car</text>
</g>
<!-- http://www.semanticweb.org/lisa/ontologies/2019/7/rap#Car&#45;&gt;http://www.semanticweb.org/lisa/ontologies/2019/7/rap#BMW -->
<g id="edge1" class="edge"><title>http://www.semanticweb.org/lisa/ontologies/2019/7/rap#Car&#45;&gt;http://www.semanticweb.org/lisa/ontologies/2019/7/rap#BMW</title>
<path fill="none" stroke="blue" d="M94.4607,-504.365C107.432,-506.333 122.942,-508.398 137,-509.5 260.321,-519.168 409.349,-517.086 460.899,-515.966"/>
<polygon fill="blue" stroke="blue" points="94.6721,-500.855 84.2494,-502.757 93.5834,-507.77 94.6721,-500.855"/>
<text text-anchor="middle" x="175" y="-516.5" font-family="Times,serif" font-size="10.00">subClassOf</text>
</g>
<!-- http://www.semanticweb.org/lisa/ontologies/2019/7/rap#Mercedes_Benz -->
<g id="node9" class="node"><title>http://www.semanticweb.org/lisa/ontologies/2019/7/rap#Mercedes_Benz</title>
<polygon fill="none" stroke="black" points="537.5,-504 423.5,-504 423.5,-485 537.5,-485 537.5,-504"/>
<text text-anchor="middle" x="480.5" y="-492" font-family="Times,serif" font-size="10.00">Mercedes_Benz</text>
</g>
<!-- http://www.semanticweb.org/lisa/ontologies/2019/7/rap#Car&#45;&gt;http://www.semanticweb.org/lisa/ontologies/2019/7/rap#Mercedes_Benz -->
<g id="edge2" class="edge"><title>http://www.semanticweb.org/lisa/ontologies/2019/7/rap#Car&#45;&gt;http://www.semanticweb.org/lisa/ontologies/2019/7/rap#Mercedes_Benz</title>
<path fill="none" stroke="blue" d="M94.4744,-499.15C162.565,-498.328 333.744,-496.26 423.148,-495.181"/>
<polygon fill="blue" stroke="blue" points="94.05,-495.655 84.093,-499.275 94.1346,-502.654 94.05,-495.655"/>
<text text-anchor="middle" x="175" y="-501.5" font-family="Times,serif" font-size="10.00">subClassOf</text>
</g>
<!-- http://www.semanticweb.org/lisa/ontologies/2019/7/rap#Lyrics -->
<g id="node10" class="node"><title>http://www.semanticweb.org/lisa/ontologies/2019/7/rap#Lyrics</title>
<polygon fill="none" stroke="black" points="95.5,-535 33.5,-535 33.5,-516 95.5,-516 95.5,-535"/>
<text text-anchor="middle" x="64.5" y="-523" font-family="Times,serif" font-size="10.00">Lyrics</text>
</g>
<!-- http://www.semanticweb.org/lisa/ontologies/2019/7/rap#Music_Group -->
<g id="node11" class="node"><title>http://www.semanticweb.org/lisa/ontologies/2019/7/rap#Music_Group</title>
<polygon fill="none" stroke="black" points="530,-462 431,-462 431,-443 530,-443 530,-462"/>
<text text-anchor="middle" x="480.5" y="-450" font-family="Times,serif" font-size="10.00">Music_Group</text>
</g>
<!-- http://www.semanticweb.org/lisa/ontologies/2019/7/rap#Compound -->
<g id="node12" class="node"><title>http://www.semanticweb.org/lisa/ontologies/2019/7/rap#Compound</title>
<polygon fill="none" stroke="black" points="519,-84 442,-84 442,-65 519,-65 519,-84"/>
<text text-anchor="middle" x="480.5" y="-72" font-family="Times,serif" font-size="10.00">Compound</text>
</g>
<!-- http://www.semanticweb.org/lisa/ontologies/2019/7/rap#Sentiment -->
<g id="node13" class="node"><title>http://www.semanticweb.org/lisa/ontologies/2019/7/rap#Sentiment</title>
<polygon fill="none" stroke="black" points="106.5,-73 22.5,-73 22.5,-54 106.5,-54 106.5,-73"/>
<text text-anchor="middle" x="64.5" y="-61" font-family="Times,serif" font-size="10.00">Sentiment</text>
</g>
<!-- http://www.semanticweb.org/lisa/ontologies/2019/7/rap#Sentiment&#45;&gt;http://www.semanticweb.org/lisa/ontologies/2019/7/rap#Neutral -->
<g id="edge6" class="edge"><title>http://www.semanticweb.org/lisa/ontologies/2019/7/rap#Sentiment&#45;&gt;http://www.semanticweb.org/lisa/ontologies/2019/7/rap#Neutral</title>
<path fill="none" stroke="blue" d="M105.35,-75.7608C115.573,-78.4429 126.616,-80.943 137,-82.5 249.103,-99.3091 384.023,-98.3002 445.725,-96.6836"/>
<polygon fill="blue" stroke="blue" points="106.026,-72.3168 95.4561,-73.0462 104.174,-79.0674 106.026,-72.3168"/>
<text text-anchor="middle" x="175" y="-94.5" font-family="Times,serif" font-size="10.00">subClassOf</text>
</g>
<!-- http://www.semanticweb.org/lisa/ontologies/2019/7/rap#Sentiment&#45;&gt;http://www.semanticweb.org/lisa/ontologies/2019/7/rap#Compound -->
<g id="edge4" class="edge"><title>http://www.semanticweb.org/lisa/ontologies/2019/7/rap#Sentiment&#45;&gt;http://www.semanticweb.org/lisa/ontologies/2019/7/rap#Compound</title>
<path fill="none" stroke="blue" d="M117.094,-67.4306C123.788,-67.8458 130.555,-68.2184 137,-68.5 247.808,-73.3416 378.942,-74.3133 441.977,-74.484"/>
<polygon fill="blue" stroke="blue" points="116.898,-63.9104 106.691,-66.75 116.441,-70.8954 116.898,-63.9104"/>
<text text-anchor="middle" x="175" y="-74.5" font-family="Times,serif" font-size="10.00">subClassOf</text>
</g>
<!-- http://www.semanticweb.org/lisa/ontologies/2019/7/rap#Positive -->
<g id="node14" class="node"><title>http://www.semanticweb.org/lisa/ontologies/2019/7/rap#Positive</title>
<polygon fill="none" stroke="black" points="519,-63 442,-63 442,-44 519,-44 519,-63"/>
<text text-anchor="middle" x="480.5" y="-51" font-family="Times,serif" font-size="10.00">Positive</text>
</g>
<!-- http://www.semanticweb.org/lisa/ontologies/2019/7/rap#Sentiment&#45;&gt;http://www.semanticweb.org/lisa/ontologies/2019/7/rap#Positive -->
<g id="edge3" class="edge"><title>http://www.semanticweb.org/lisa/ontologies/2019/7/rap#Sentiment&#45;&gt;http://www.semanticweb.org/lisa/ontologies/2019/7/rap#Positive</title>
<path fill="none" stroke="blue" d="M117.111,-62.028C123.803,-61.8455 130.564,-61.6652 137,-61.5 247.89,-58.654 378.987,-55.7089 441.995,-54.3195"/>
<polygon fill="blue" stroke="blue" points="116.611,-58.5404 106.711,-62.3148 116.804,-65.5377 116.611,-58.5404"/>
<text text-anchor="middle" x="175" y="-64.5" font-family="Times,serif" font-size="10.00">subClassOf</text>
</g>
<!-- http://www.semanticweb.org/lisa/ontologies/2019/7/rap#Negative -->
<g id="node15" class="node"><title>http://www.semanticweb.org/lisa/ontologies/2019/7/rap#Negative</title>
<polygon fill="none" stroke="black" points="519,-42 442,-42 442,-23 519,-23 519,-42"/>
<text text-anchor="middle" x="480.5" y="-30" font-family="Times,serif" font-size="10.00">Negative</text>
</g>
<!-- http://www.semanticweb.org/lisa/ontologies/2019/7/rap#Sentiment&#45;&gt;http://www.semanticweb.org/lisa/ontologies/2019/7/rap#Negative -->
<g id="edge5" class="edge"><title>http://www.semanticweb.org/lisa/ontologies/2019/7/rap#Sentiment&#45;&gt;http://www.semanticweb.org/lisa/ontologies/2019/7/rap#Negative</title>
<path fill="none" stroke="blue" d="M116.492,-52.5895C123.361,-51.3916 130.336,-50.3136 137,-49.5 247.215,-36.0453 378.62,-33.172 441.846,-32.6036"/>
<polygon fill="blue" stroke="blue" points="115.755,-49.1662 106.55,-54.4134 117.018,-56.0513 115.755,-49.1662"/>
<text text-anchor="middle" x="175" y="-52.5" font-family="Times,serif" font-size="10.00">subClassOf</text>
</g>
<!-- http://www.semanticweb.org/lisa/ontologies/2019/7/rap#Public_Figure -->
<g id="node16" class="node"><title>http://www.semanticweb.org/lisa/ontologies/2019/7/rap#Public_Figure</title>
<polygon fill="none" stroke="black" points="740,-441 221,-441 221,-422 740,-422 740,-441"/>
<text text-anchor="middle" x="480.5" y="-429" font-family="Times,serif" font-size="10.00">http://www.semanticweb.org/lisa/ontologies/2019/7/rap#Public_Figure</text>
</g>
<!-- http://www.semanticweb.org/lisa/ontologies/2019/7/rap#Synesthesia -->
<g id="node17" class="node"><title>http://www.semanticweb.org/lisa/ontologies/2019/7/rap#Synesthesia</title>
<polygon fill="none" stroke="black" points="526.5,-357 434.5,-357 434.5,-338 526.5,-338 526.5,-357"/>
<text text-anchor="middle" x="480.5" y="-345" font-family="Times,serif" font-size="10.00">Synethesia</text>
</g>
<!-- http://www.semanticweb.org/lisa/ontologies/2019/7/rap#City -->
<g id="node18" class="node"><title>http://www.semanticweb.org/lisa/ontologies/2019/7/rap#City</title>
<polygon fill="none" stroke="black" points="504,-567 457,-567 457,-548 504,-548 504,-567"/>
<text text-anchor="middle" x="480.5" y="-555" font-family="Times,serif" font-size="10.00">City</text>
</g>
<!-- http://www.semanticweb.org/lisa/ontologies/2019/7/rap#Musical_Work -->
<g id="node19" class="node"><title>http://www.semanticweb.org/lisa/ontologies/2019/7/rap#Musical_Work</title>
<polygon fill="none" stroke="black" points="118,-577 11,-577 11,-558 118,-558 118,-577"/>
<text text-anchor="middle" x="64.5" y="-565" font-family="Times,serif" font-size="10.00">Musical_Work</text>
</g>
<!-- http://www.semanticweb.org/lisa/ontologies/2019/7/rap#Palindrom -->
<g id="node20" class="node"><title>http://www.semanticweb.org/lisa/ontologies/2019/7/rap#Palindrom</title>
<polygon fill="none" stroke="black" points="522.5,-336 438.5,-336 438.5,-317 522.5,-317 522.5,-336"/>
<text text-anchor="middle" x="480.5" y="-324" font-family="Times,serif" font-size="10.00">Palindrom</text>
</g>
<!-- http://www.semanticweb.org/lisa/ontologies/2019/7/rap#Country -->
<g id="node21" class="node"><title>http://www.semanticweb.org/lisa/ontologies/2019/7/rap#Country</title>
<polygon fill="none" stroke="black" points="515,-546 446,-546 446,-527 515,-527 515,-546"/>
<text text-anchor="middle" x="480.5" y="-534" font-family="Times,serif" font-size="10.00">Country</text>
</g>
<!-- http://www.semanticweb.org/lisa/ontologies/2019/7/rap#Spoonerism -->
<g id="node22" class="node"><title>http://www.semanticweb.org/lisa/ontologies/2019/7/rap#Spoonerism</title>
<polygon fill="none" stroke="black" points="526.5,-315 434.5,-315 434.5,-296 526.5,-296 526.5,-315"/>
<text text-anchor="middle" x="480.5" y="-303" font-family="Times,serif" font-size="10.00">Spoonerism</text>
</g>
<!-- http://www.semanticweb.org/lisa/ontologies/2019/7/rap#Pleonasm -->
<g id="node23" class="node"><title>http://www.semanticweb.org/lisa/ontologies/2019/7/rap#Pleonasm</title>
<polygon fill="none" stroke="black" points="519,-294 442,-294 442,-275 519,-275 519,-294"/>
<text text-anchor="middle" x="480.5" y="-282" font-family="Times,serif" font-size="10.00">Pleonasm</text>
</g>
<!-- http://www.semanticweb.org/lisa/ontologies/2019/7/rap#Imagery -->
<g id="node24" class="node"><title>http://www.semanticweb.org/lisa/ontologies/2019/7/rap#Imagery</title>
<polygon fill="none" stroke="black" points="515,-273 446,-273 446,-254 515,-254 515,-273"/>
<text text-anchor="middle" x="480.5" y="-261" font-family="Times,serif" font-size="10.00">Imagery</text>
</g>
<!-- http://www.semanticweb.org/lisa/ontologies/2019/7/rap#Metonymy -->
<g id="node25" class="node"><title>http://www.semanticweb.org/lisa/ontologies/2019/7/rap#Metonymy</title>
<polygon fill="none" stroke="black" points="519,-252 442,-252 442,-233 519,-233 519,-252"/>
<text text-anchor="middle" x="480.5" y="-240" font-family="Times,serif" font-size="10.00">Metonomy</text>
</g>
<!-- http://www.semanticweb.org/lisa/ontologies/2019/7/rap#Tmesis -->
<g id="node26" class="node"><title>http://www.semanticweb.org/lisa/ontologies/2019/7/rap#Tmesis</title>
<polygon fill="none" stroke="black" points="511.5,-231 449.5,-231 449.5,-212 511.5,-212 511.5,-231"/>
<text text-anchor="middle" x="480.5" y="-219" font-family="Times,serif" font-size="10.00">Tmesis</text>
</g>
<!-- http://www.semanticweb.org/lisa/ontologies/2019/7/rap#Place -->
<g id="node27" class="node"><title>http://www.semanticweb.org/lisa/ontologies/2019/7/rap#Place</title>
<polygon fill="none" stroke="black" points="91.5,-556 37.5,-556 37.5,-537 91.5,-537 91.5,-556"/>
<text text-anchor="middle" x="64.5" y="-544" font-family="Times,serif" font-size="10.00">Place</text>
</g>
<!-- http://www.semanticweb.org/lisa/ontologies/2019/7/rap#Place&#45;&gt;http://www.semanticweb.org/lisa/ontologies/2019/7/rap#City -->
<g id="edge7" class="edge"><title>http://www.semanticweb.org/lisa/ontologies/2019/7/rap#Place&#45;&gt;http://www.semanticweb.org/lisa/ontologies/2019/7/rap#City</title>
<path fill="none" stroke="blue" d="M101.618,-549.395C112.938,-550.203 125.483,-550.997 137,-551.5 257.314,-556.757 401.592,-557.452 456.641,-557.512"/>
<polygon fill="blue" stroke="blue" points="101.861,-545.903 91.6303,-548.657 101.345,-552.884 101.861,-545.903"/>
<text text-anchor="middle" x="175" y="-556.5" font-family="Times,serif" font-size="10.00">subClassOf</text>
</g>
<!-- http://www.semanticweb.org/lisa/ontologies/2019/7/rap#Place&#45;&gt;http://www.semanticweb.org/lisa/ontologies/2019/7/rap#Country -->
<g id="edge8" class="edge"><title>http://www.semanticweb.org/lisa/ontologies/2019/7/rap#Place&#45;&gt;http://www.semanticweb.org/lisa/ontologies/2019/7/rap#Country</title>
<path fill="none" stroke="blue" d="M101.985,-545.447C113.215,-545.132 125.617,-544.792 137,-544.5 250.268,-541.593 384.619,-538.582 445.954,-537.232"/>
<polygon fill="blue" stroke="blue" points="101.545,-541.958 91.6481,-545.74 101.743,-548.955 101.545,-541.958"/>
<text text-anchor="middle" x="175" y="-547.5" font-family="Times,serif" font-size="10.00">subClassOf</text>
</g>
<!-- http://www.semanticweb.org/lisa/ontologies/2019/7/rap#Portmanteau -->
<g id="node28" class="node"><title>http://www.semanticweb.org/lisa/ontologies/2019/7/rap#Portmanteau</title>
<polygon fill="none" stroke="black" points="530,-210 431,-210 431,-191 530,-191 530,-210"/>
<text text-anchor="middle" x="480.5" y="-198" font-family="Times,serif" font-size="10.00">Portmanteau</text>
</g>
<!-- http://www.semanticweb.org/lisa/ontologies/2019/7/rap#Topic -->
<g id="node29" class="node"><title>http://www.semanticweb.org/lisa/ontologies/2019/7/rap#Topic</title>
<polygon fill="none" stroke="black" points="91.5,-598 37.5,-598 37.5,-579 91.5,-579 91.5,-598"/>
<text text-anchor="middle" x="64.5" y="-586" font-family="Times,serif" font-size="10.00">Topic</text>
</g>
<!-- http://www.semanticweb.org/lisa/ontologies/2019/7/rap#Person -->
<g id="node30" class="node"><title>http://www.semanticweb.org/lisa/ontologies/2019/7/rap#Person</title>
<polygon fill="none" stroke="black" points="95.5,-462 33.5,-462 33.5,-443 95.5,-443 95.5,-462"/>
<text text-anchor="middle" x="64.5" y="-450" font-family="Times,serif" font-size="10.00">Person</text>
</g>
<!-- http://www.semanticweb.org/lisa/ontologies/2019/7/rap#Person&#45;&gt;http://www.semanticweb.org/lisa/ontologies/2019/7/rap#Music_Artist -->
<g id="edge10" class="edge"><title>http://www.semanticweb.org/lisa/ontologies/2019/7/rap#Person&#45;&gt;http://www.semanticweb.org/lisa/ontologies/2019/7/rap#Music_Artist</title>
<path fill="none" stroke="blue" d="M105.571,-459.556C115.789,-461.109 126.775,-462.568 137,-463.5 239.34,-472.83 359.522,-474.122 426.865,-473.975"/>
<polygon fill="blue" stroke="blue" points="106.09,-456.094 95.666,-457.986 104.995,-463.008 106.09,-456.094"/>
<text text-anchor="middle" x="175" y="-471.5" font-family="Times,serif" font-size="10.00">subClassOf</text>
</g>
<!-- http://www.semanticweb.org/lisa/ontologies/2019/7/rap#Person&#45;&gt;http://www.semanticweb.org/lisa/ontologies/2019/7/rap#Music_Group -->
<g id="edge11" class="edge"><title>http://www.semanticweb.org/lisa/ontologies/2019/7/rap#Person&#45;&gt;http://www.semanticweb.org/lisa/ontologies/2019/7/rap#Music_Group</title>
<path fill="none" stroke="blue" d="M105.791,-452.5C182.305,-452.5 348.346,-452.5 430.889,-452.5"/>
<polygon fill="blue" stroke="blue" points="105.607,-449 95.6073,-452.5 105.607,-456 105.607,-449"/>
<text text-anchor="middle" x="175" y="-455.5" font-family="Times,serif" font-size="10.00">subClassOf</text>
</g>
<!-- http://www.semanticweb.org/lisa/ontologies/2019/7/rap#Person&#45;&gt;http://www.semanticweb.org/lisa/ontologies/2019/7/rap#Public_Figure -->
<g id="edge9" class="edge"><title>http://www.semanticweb.org/lisa/ontologies/2019/7/rap#Person&#45;&gt;http://www.semanticweb.org/lisa/ontologies/2019/7/rap#Public_Figure</title>
<path fill="none" stroke="blue" d="M105.571,-445.444C115.789,-443.891 126.775,-442.432 137,-441.5 164.103,-439.029 192.457,-437.122 220.75,-435.656"/>
<polygon fill="blue" stroke="blue" points="104.995,-441.992 95.666,-447.014 106.09,-448.906 104.995,-441.992"/>
<text text-anchor="middle" x="175" y="-444.5" font-family="Times,serif" font-size="10.00">subClassOf</text>
</g>
<!-- http://www.semanticweb.org/lisa/ontologies/2019/7/rap#Album -->
<g id="node31" class="node"><title>http://www.semanticweb.org/lisa/ontologies/2019/7/rap#Album</title>
<polygon fill="none" stroke="black" points="91.5,-619 37.5,-619 37.5,-600 91.5,-600 91.5,-619"/>
<text text-anchor="middle" x="64.5" y="-607" font-family="Times,serif" font-size="10.00">Album</text>
</g>
<!-- http://www.semanticweb.org/lisa/ontologies/2019/7/rap#Irony -->
<g id="node32" class="node"><title>http://www.semanticweb.org/lisa/ontologies/2019/7/rap#Irony</title>
<polygon fill="none" stroke="black" points="507.5,-189 453.5,-189 453.5,-170 507.5,-170 507.5,-189"/>
<text text-anchor="middle" x="480.5" y="-177" font-family="Times,serif" font-size="10.00">Irony</text>
</g>
<!-- http://www.semanticweb.org/lisa/ontologies/2019/7/rap#Pangrammatic -->
<g id="node33" class="node"><title>http://www.semanticweb.org/lisa/ontologies/2019/7/rap#Pangrammatic</title>
<polygon fill="none" stroke="black" points="534,-168 427,-168 427,-149 534,-149 534,-168"/>
<text text-anchor="middle" x="480.5" y="-156" font-family="Times,serif" font-size="10.00">Pangrammatic</text>
</g>
<!-- http://www.semanticweb.org/lisa/ontologies/2019/7/rap#Literary_device -->
<g id="node34" class="node"><title>http://www.semanticweb.org/lisa/ontologies/2019/7/rap#Literary_device</title>
<polygon fill="none" stroke="black" points="129,-273 0,-273 0,-254 129,-254 129,-273"/>
<text text-anchor="middle" x="64.5" y="-261" font-family="Times,serif" font-size="10.00">Literary_Device</text>
</g>
<!-- http://www.semanticweb.org/lisa/ontologies/2019/7/rap#Literary_device&#45;&gt;http://www.semanticweb.org/lisa/ontologies/2019/7/rap#Zeugma -->
<g id="edge16" class="edge"><title>http://www.semanticweb.org/lisa/ontologies/2019/7/rap#Literary_device&#45;&gt;http://www.semanticweb.org/lisa/ontologies/2019/7/rap#Zeugma</title>
<path fill="none" stroke="blue" d="M82.7591,-280.968C97.5837,-297.085 118.22,-322.404 129,-348.5 133.8,-360.118 127.576,-396.181 137,-404.5 160.1,-424.892 370.274,-416.199 449.483,-412.149"/>
<polygon fill="blue" stroke="blue" points="85.0351,-278.282 75.6195,-273.424 79.9507,-283.093 85.0351,-278.282"/>
<text text-anchor="middle" x="175" y="-418.5" font-family="Times,serif" font-size="10.00">subClassOf</text>
</g>
<!-- http://www.semanticweb.org/lisa/ontologies/2019/7/rap#Literary_device&#45;&gt;http://www.semanticweb.org/lisa/ontologies/2019/7/rap#Polysyndeton -->
<g id="edge20" class="edge"><title>http://www.semanticweb.org/lisa/ontologies/2019/7/rap#Literary_device&#45;&gt;http://www.semanticweb.org/lisa/ontologies/2019/7/rap#Polysyndeton</title>
<path fill="none" stroke="blue" d="M81.7227,-280.674C96.2041,-296.927 116.934,-322.627 129,-348.5 135.561,-362.569 124.93,-372.738 137,-382.5 158.936,-400.242 336.521,-395.528 426.966,-391.901"/>
<polygon fill="blue" stroke="blue" points="84.1241,-278.113 74.7985,-273.085 78.953,-282.831 84.1241,-278.113"/>
<text text-anchor="middle" x="175" y="-396.5" font-family="Times,serif" font-size="10.00">subClassOf</text>
</g>
<!-- http://www.semanticweb.org/lisa/ontologies/2019/7/rap#Literary_device&#45;&gt;http://www.semanticweb.org/lisa/ontologies/2019/7/rap#Simile -->
<g id="edge15" class="edge"><title>http://www.semanticweb.org/lisa/ontologies/2019/7/rap#Literary_device&#45;&gt;http://www.semanticweb.org/lisa/ontologies/2019/7/rap#Simile</title>
<path fill="none" stroke="blue" d="M79.6095,-281.054C92.9324,-297.931 113.174,-324.364 129,-348.5 132.93,-354.493 130.833,-358.849 137,-362.5 163.067,-377.934 364.599,-372.601 445.779,-369.781"/>
<polygon fill="blue" stroke="blue" points="82.2971,-278.811 73.3331,-273.163 76.8186,-283.168 82.2971,-278.811"/>
<text text-anchor="middle" x="175" y="-374.5" font-family="Times,serif" font-size="10.00">subClassOf</text>
</g>
<!-- http://www.semanticweb.org/lisa/ontologies/2019/7/rap#Literary_device&#45;&gt;http://www.semanticweb.org/lisa/ontologies/2019/7/rap#Synesthesia -->
<g id="edge26" class="edge"><title>http://www.semanticweb.org/lisa/ontologies/2019/7/rap#Literary_device&#45;&gt;http://www.semanticweb.org/lisa/ontologies/2019/7/rap#Synesthesia</title>
<path fill="none" stroke="blue" d="M76.1219,-281.651C88.1944,-300.311 109.801,-328.307 137,-340.5 188.828,-363.734 353.974,-356.195 434.495,-350.869"/>
<polygon fill="blue" stroke="blue" points="79.0774,-279.776 70.8384,-273.115 73.1252,-283.46 79.0774,-279.776"/>
<text text-anchor="middle" x="175" y="-356.5" font-family="Times,serif" font-size="10.00">subClassOf</text>
</g>
<!-- http://www.semanticweb.org/lisa/ontologies/2019/7/rap#Literary_device&#45;&gt;http://www.semanticweb.org/lisa/ontologies/2019/7/rap#Palindrom -->
<g id="edge14" class="edge"><title>http://www.semanticweb.org/lisa/ontologies/2019/7/rap#Literary_device&#45;&gt;http://www.semanticweb.org/lisa/ontologies/2019/7/rap#Palindrom</title>
<path fill="none" stroke="blue" d="M83.2188,-279.882C96.8186,-291.334 116.659,-305.741 137,-312.5 241.055,-347.078 372.745,-339.135 438.389,-331.966"/>
<polygon fill="blue" stroke="blue" points="85.4409,-277.176 75.6088,-273.228 80.8333,-282.445 85.4409,-277.176"/>
<text text-anchor="middle" x="175" y="-332.5" font-family="Times,serif" font-size="10.00">subClassOf</text>
</g>
<!-- http://www.semanticweb.org/lisa/ontologies/2019/7/rap#Literary_device&#45;&gt;http://www.semanticweb.org/lisa/ontologies/2019/7/rap#Spoonerism -->
<g id="edge25" class="edge"><title>http://www.semanticweb.org/lisa/ontologies/2019/7/rap#Literary_device&#45;&gt;http://www.semanticweb.org/lisa/ontologies/2019/7/rap#Spoonerism</title>
<path fill="none" stroke="blue" d="M95.1751,-277.123C107.797,-282.277 122.847,-287.595 137,-290.5 241.801,-312.008 368.287,-310.708 434.338,-308.025"/>
<polygon fill="blue" stroke="blue" points="96.2089,-273.76 85.6362,-273.075 93.4741,-280.203 96.2089,-273.76"/>
<text text-anchor="middle" x="175" y="-304.5" font-family="Times,serif" font-size="10.00">subClassOf</text>
</g>
<!-- http://www.semanticweb.org/lisa/ontologies/2019/7/rap#Literary_device&#45;&gt;http://www.semanticweb.org/lisa/ontologies/2019/7/rap#Pleonasm -->
<g id="edge19" class="edge"><title>http://www.semanticweb.org/lisa/ontologies/2019/7/rap#Literary_device&#45;&gt;http://www.semanticweb.org/lisa/ontologies/2019/7/rap#Pleonasm</title>
<path fill="none" stroke="blue" d="M133.693,-274.183C134.802,-274.294 135.906,-274.4 137,-274.5 247.485,-284.573 378.767,-285.277 441.905,-284.916"/>
<polygon fill="blue" stroke="blue" points="133.897,-270.684 123.569,-273.047 133.116,-277.64 133.897,-270.684"/>
<text text-anchor="middle" x="175" y="-282.5" font-family="Times,serif" font-size="10.00">subClassOf</text>
</g>
<!-- http://www.semanticweb.org/lisa/ontologies/2019/7/rap#Literary_device&#45;&gt;http://www.semanticweb.org/lisa/ontologies/2019/7/rap#Imagery -->
<g id="edge12" class="edge"><title>http://www.semanticweb.org/lisa/ontologies/2019/7/rap#Literary_device&#45;&gt;http://www.semanticweb.org/lisa/ontologies/2019/7/rap#Imagery</title>
<path fill="none" stroke="blue" d="M139.483,-263.5C230.07,-263.5 379.615,-263.5 445.984,-263.5"/>
<polygon fill="blue" stroke="blue" points="139.28,-260 129.28,-263.5 139.28,-267 139.28,-260"/>
<text text-anchor="middle" x="175" y="-266.5" font-family="Times,serif" font-size="10.00">subClassOf</text>
</g>
<!-- http://www.semanticweb.org/lisa/ontologies/2019/7/rap#Literary_device&#45;&gt;http://www.semanticweb.org/lisa/ontologies/2019/7/rap#Metonymy -->
<g id="edge24" class="edge"><title>http://www.semanticweb.org/lisa/ontologies/2019/7/rap#Literary_device&#45;&gt;http://www.semanticweb.org/lisa/ontologies/2019/7/rap#Metonymy</title>
<path fill="none" stroke="blue" d="M133.693,-252.817C134.802,-252.706 135.906,-252.6 137,-252.5 247.485,-242.427 378.767,-241.723 441.905,-242.084"/>
<polygon fill="blue" stroke="blue" points="133.116,-249.36 123.569,-253.953 133.897,-256.316 133.116,-249.36"/>
<text text-anchor="middle" x="175" y="-255.5" font-family="Times,serif" font-size="10.00">subClassOf</text>
</g>
<!-- http://www.semanticweb.org/lisa/ontologies/2019/7/rap#Literary_device&#45;&gt;http://www.semanticweb.org/lisa/ontologies/2019/7/rap#Tmesis -->
<g id="edge22" class="edge"><title>http://www.semanticweb.org/lisa/ontologies/2019/7/rap#Literary_device&#45;&gt;http://www.semanticweb.org/lisa/ontologies/2019/7/rap#Tmesis</title>
<path fill="none" stroke="blue" d="M93.9249,-249.855C106.776,-244.349 122.341,-238.579 137,-235.5 250.278,-211.705 389.132,-215.986 449.31,-219.416"/>
<polygon fill="blue" stroke="blue" points="92.4003,-246.703 84.686,-253.965 95.2454,-253.098 92.4003,-246.703"/>
<text text-anchor="middle" x="175" y="-238.5" font-family="Times,serif" font-size="10.00">subClassOf</text>
</g>
<!-- http://www.semanticweb.org/lisa/ontologies/2019/7/rap#Literary_device&#45;&gt;http://www.semanticweb.org/lisa/ontologies/2019/7/rap#Portmanteau -->
<g id="edge13" class="edge"><title>http://www.semanticweb.org/lisa/ontologies/2019/7/rap#Literary_device&#45;&gt;http://www.semanticweb.org/lisa/ontologies/2019/7/rap#Portmanteau</title>
<path fill="none" stroke="blue" d="M82.617,-246.833C96.159,-234.833 116.196,-219.563 137,-212.5 189.889,-194.543 349.422,-196.471 430.727,-198.775"/>
<polygon fill="blue" stroke="blue" points="80.0595,-244.43 75.0756,-253.78 84.8021,-249.579 80.0595,-244.43"/>
<text text-anchor="middle" x="175" y="-215.5" font-family="Times,serif" font-size="10.00">subClassOf</text>
</g>
<!-- http://www.semanticweb.org/lisa/ontologies/2019/7/rap#Literary_device&#45;&gt;http://www.semanticweb.org/lisa/ontologies/2019/7/rap#Irony -->
<g id="edge18" class="edge"><title>http://www.semanticweb.org/lisa/ontologies/2019/7/rap#Literary_device&#45;&gt;http://www.semanticweb.org/lisa/ontologies/2019/7/rap#Irony</title>
<path fill="none" stroke="blue" d="M76.8741,-245.274C89.2077,-227.375 110.699,-201.116 137,-189.5 193.457,-164.566 383.41,-173.483 453.358,-177.756"/>
<polygon fill="blue" stroke="blue" points="73.8676,-243.475 71.2823,-253.75 79.7106,-247.33 73.8676,-243.475"/>
<text text-anchor="middle" x="175" y="-192.5" font-family="Times,serif" font-size="10.00">subClassOf</text>
</g>
<!-- http://www.semanticweb.org/lisa/ontologies/2019/7/rap#Literary_device&#45;&gt;http://www.semanticweb.org/lisa/ontologies/2019/7/rap#Pangrammatic -->
<g id="edge21" class="edge"><title>http://www.semanticweb.org/lisa/ontologies/2019/7/rap#Literary_device&#45;&gt;http://www.semanticweb.org/lisa/ontologies/2019/7/rap#Pangrammatic</title>
<path fill="none" stroke="blue" d="M72.8599,-244.526C83.1817,-220.882 104.425,-181.517 137,-164.5 185.824,-138.994 343.335,-147.26 426.668,-153.777"/>
<polygon fill="blue" stroke="blue" points="69.5843,-243.289 68.9938,-253.867 76.0521,-245.966 69.5843,-243.289"/>
<text text-anchor="middle" x="175" y="-167.5" font-family="Times,serif" font-size="10.00">subClassOf</text>
</g>
<!-- http://www.semanticweb.org/lisa/ontologies/2019/7/rap#Litote -->
<g id="node35" class="node"><title>http://www.semanticweb.org/lisa/ontologies/2019/7/rap#Litote</title>
<polygon fill="none" stroke="black" points="511.5,-147 449.5,-147 449.5,-128 511.5,-128 511.5,-147"/>
<text text-anchor="middle" x="480.5" y="-135" font-family="Times,serif" font-size="10.00">Litote</text>
</g>
<!-- http://www.semanticweb.org/lisa/ontologies/2019/7/rap#Literary_device&#45;&gt;http://www.semanticweb.org/lisa/ontologies/2019/7/rap#Litote -->
<g id="edge17" class="edge"><title>http://www.semanticweb.org/lisa/ontologies/2019/7/rap#Literary_device&#45;&gt;http://www.semanticweb.org/lisa/ontologies/2019/7/rap#Litote</title>
<path fill="none" stroke="blue" d="M70.1406,-243.835C78.174,-214.78 97.722,-161.359 137,-138.5 163.563,-123.04 370.615,-131.899 449.298,-135.88"/>
<polygon fill="blue" stroke="blue" points="66.7142,-243.106 67.6084,-253.663 73.4928,-244.853 66.7142,-243.106"/>
<text text-anchor="middle" x="175" y="-141.5" font-family="Times,serif" font-size="10.00">subClassOf</text>
</g>
<!-- http://www.semanticweb.org/lisa/ontologies/2019/7/rap#Synecdoche -->
<g id="node36" class="node"><title>http://www.semanticweb.org/lisa/ontologies/2019/7/rap#Synecdoche</title>
<polygon fill="none" stroke="black" points="526.5,-126 434.5,-126 434.5,-107 526.5,-107 526.5,-126"/>
<text text-anchor="middle" x="480.5" y="-114" font-family="Times,serif" font-size="10.00">Synecdoche</text>
</g>
<!-- http://www.semanticweb.org/lisa/ontologies/2019/7/rap#Literary_device&#45;&gt;http://www.semanticweb.org/lisa/ontologies/2019/7/rap#Synecdoche -->
<g id="edge23" class="edge"><title>http://www.semanticweb.org/lisa/ontologies/2019/7/rap#Literary_device&#45;&gt;http://www.semanticweb.org/lisa/ontologies/2019/7/rap#Synecdoche</title>
<path fill="none" stroke="blue" d="M68.5908,-243.623C74.8738,-210.852 92.52,-146.341 137,-118.5 161.54,-103.14 346.957,-109.992 434.278,-114.151"/>
<polygon fill="blue" stroke="blue" points="65.0898,-243.326 66.817,-253.779 71.9854,-244.531 65.0898,-243.326"/>
<text text-anchor="middle" x="175" y="-121.5" font-family="Times,serif" font-size="10.00">subClassOf</text>
</g>
<!-- http://www.semanticweb.org/lisa/ontologies/2019/7/rap#Release_date -->
<g id="node37" class="node"><title>http://www.semanticweb.org/lisa/ontologies/2019/7/rap#Release_date</title>
<polygon fill="none" stroke="black" points="118,-640 11,-640 11,-621 118,-621 118,-640"/>
<text text-anchor="middle" x="64.5" y="-628" font-family="Times,serif" font-size="10.00">Release_Date</text>
</g>
</g>
</svg>
