<?xml version="1.0" encoding="UTF-8" standalone="no"?>
<!DOCTYPE svg PUBLIC "-//W3C//DTD SVG 1.1//EN"
 "http://www.w3.org/Graphics/SVG/1.1/DTD/svg11.dtd">
<!-- Generated by graphviz version 2.38.0 (20140413.2041)
 -->
<!-- Title: d1e2313 Pages: 1 -->
<svg width="1204pt" height="197pt"
 viewBox="0.00 0.00 1204.00 197.00" xmlns="http://www.w3.org/2000/svg" xmlns:xlink="http://www.w3.org/1999/xlink">
<g id="graph0" class="graph" transform="scale(1 1) rotate(0) translate(4 193)">
<title>d1e2313</title>
<polygon fill="white" stroke="none" points="-4,4 -4,-193 1200,-193 1200,4 -4,4"/>
<text text-anchor="middle" x="598" y="-7.8" font-family="Times,serif" font-size="14.00">Powered by http://rhizomik.net</text>
<!-- http://www.semanticweb.org/simayguzel/ontologies/2019/10/crawci#Region -->
<g id="node1" class="node"><title>http://www.semanticweb.org/simayguzel/ontologies/2019/10/crawci#Region</title>
<polygon fill="none" stroke="black" points="1147.5,-42 605.5,-42 605.5,-23 1147.5,-23 1147.5,-42"/>
<text text-anchor="middle" x="876.5" y="-30" font-family="Times,serif" font-size="10.00">http://www.semanticweb.org/simayguzel/ontologies/2019/10/crawci#Region</text>
</g>
<!-- http://www.semanticweb.org/simayguzel/ontologies/2019/10/crawci#Theater -->
<g id="node2" class="node"><title>http://www.semanticweb.org/simayguzel/ontologies/2019/10/crawci#Theater</title>
<polygon fill="none" stroke="black" points="549,-73 0,-73 0,-54 549,-54 549,-73"/>
<text text-anchor="middle" x="274.5" y="-61" font-family="Times,serif" font-size="10.00">http://www.semanticweb.org/simayguzel/ontologies/2019/10/crawci#Theater</text>
</g>
<!-- http://www.semanticweb.org/simayguzel/ontologies/2019/10/crawci#CriminalReport -->
<g id="node3" class="node"><title>http://www.semanticweb.org/simayguzel/ontologies/2019/10/crawci#CriminalReport</title>
<polygon fill="none" stroke="black" points="1177.5,-147 575.5,-147 575.5,-128 1177.5,-128 1177.5,-147"/>
<text text-anchor="middle" x="876.5" y="-135" font-family="Times,serif" font-size="10.00">http://www.semanticweb.org/simayguzel/ontologies/2019/10/crawci#CriminalReport</text>
</g>
<!-- http://www.semanticweb.org/simayguzel/crawci#TotalTheater -->
<g id="node4" class="node"><title>http://www.semanticweb.org/simayguzel/crawci#TotalTheater</title>
<polygon fill="none" stroke="black" points="1098.5,-126 654.5,-126 654.5,-107 1098.5,-107 1098.5,-126"/>
<text text-anchor="middle" x="876.5" y="-114" font-family="Times,serif" font-size="10.00">http://www.semanticweb.org/simayguzel/crawci#TotalTheater</text>
</g>
<!-- http://www.semanticweb.org/simayguzel/ontologies/2019/10/crawci#AverageSalary -->
<g id="node5" class="node"><title>http://www.semanticweb.org/simayguzel/ontologies/2019/10/crawci#AverageSalary</title>
<polygon fill="none" stroke="black" points="1173.5,-105 579.5,-105 579.5,-86 1173.5,-86 1173.5,-105"/>
<text text-anchor="middle" x="876.5" y="-93" font-family="Times,serif" font-size="10.00">http://www.semanticweb.org/simayguzel/ontologies/2019/10/crawci#AverageSalary</text>
</g>
<!-- http://www.semanticweb.org/simayguzel/ontologies/2019/10/crawci#Country -->
<g id="node6" class="node"><title>http://www.semanticweb.org/simayguzel/ontologies/2019/10/crawci#Country</title>
<polygon fill="none" stroke="black" points="549,-42 0,-42 0,-23 549,-23 549,-42"/>
<text text-anchor="middle" x="274.5" y="-30" font-family="Times,serif" font-size="10.00">http://www.semanticweb.org/simayguzel/ontologies/2019/10/crawci#Country</text>
</g>
<!-- http://www.semanticweb.org/simayguzel/ontologies/2019/10/crawci#Country&#45;&gt;http://www.semanticweb.org/simayguzel/ontologies/2019/10/crawci#Region -->
<g id="edge1" class="edge"><title>http://www.semanticweb.org/simayguzel/ontologies/2019/10/crawci#Country&#45;&gt;http://www.semanticweb.org/simayguzel/ontologies/2019/10/crawci#Region</title>
<path fill="none" stroke="blue" d="M559.254,-32.5C574.626,-32.5 590.055,-32.5 605.378,-32.5"/>
<polygon fill="blue" stroke="blue" points="559.163,-29.0001 549.163,-32.5 559.163,-36.0001 559.163,-29.0001"/>
</g>
<!-- http://www.semanticweb.org/simayguzel/crawci#PositiveCorrelation -->
<g id="node7" class="node"><title>http://www.semanticweb.org/simayguzel/crawci#PositiveCorrelation</title>
<polygon fill="none" stroke="black" points="1125,-189 628,-189 628,-170 1125,-170 1125,-189"/>
<text text-anchor="middle" x="876.5" y="-177" font-family="Times,serif" font-size="10.00">http://www.semanticweb.org/simayguzel/crawci#PositiveCorrelation</text>
</g>
<!-- http://www.semanticweb.org/simayguzel/crawci#Correlation -->
<g id="node8" class="node"><title>http://www.semanticweb.org/simayguzel/crawci#Correlation</title>
<polygon fill="none" stroke="black" points="493,-178 56,-178 56,-159 493,-159 493,-178"/>
<text text-anchor="middle" x="274.5" y="-166" font-family="Times,serif" font-size="10.00">http://www.semanticweb.org/simayguzel/crawci#Correlation</text>
</g>
<!-- http://www.semanticweb.org/simayguzel/crawci#Correlation&#45;&gt;http://www.semanticweb.org/simayguzel/crawci#PositiveCorrelation -->
<g id="edge2" class="edge"><title>http://www.semanticweb.org/simayguzel/crawci#Correlation&#45;&gt;http://www.semanticweb.org/simayguzel/crawci#PositiveCorrelation</title>
<path fill="none" stroke="blue" d="M503.406,-172.678C544.074,-173.424 586.622,-174.204 627.811,-174.959"/>
<polygon fill="blue" stroke="blue" points="503.449,-169.179 493.387,-172.495 503.321,-176.177 503.449,-169.179"/>
</g>
<!-- http://www.semanticweb.org/simayguzel/crawci#NegativeCorrelation -->
<g id="node9" class="node"><title>http://www.semanticweb.org/simayguzel/crawci#NegativeCorrelation</title>
<polygon fill="none" stroke="black" points="1125,-168 628,-168 628,-149 1125,-149 1125,-168"/>
<text text-anchor="middle" x="876.5" y="-156" font-family="Times,serif" font-size="10.00">http://www.semanticweb.org/simayguzel/crawci#NegativeCorrelation</text>
</g>
<!-- http://www.semanticweb.org/simayguzel/crawci#Correlation&#45;&gt;http://www.semanticweb.org/simayguzel/crawci#NegativeCorrelation -->
<g id="edge3" class="edge"><title>http://www.semanticweb.org/simayguzel/crawci#Correlation&#45;&gt;http://www.semanticweb.org/simayguzel/crawci#NegativeCorrelation</title>
<path fill="none" stroke="blue" d="M503.406,-164.702C544.074,-164.024 586.622,-163.315 627.811,-162.628"/>
<polygon fill="blue" stroke="blue" points="503.327,-161.202 493.387,-164.869 503.443,-168.201 503.327,-161.202"/>
</g>
<!-- http://www.semanticweb.org/simayguzel/ontologies/2019/10/crawci#CulturalInstitution -->
<g id="node10" class="node"><title>http://www.semanticweb.org/simayguzel/ontologies/2019/10/crawci#CulturalInstitution</title>
<polygon fill="none" stroke="black" points="1196,-84 557,-84 557,-65 1196,-65 1196,-84"/>
<text text-anchor="middle" x="876.5" y="-72" font-family="Times,serif" font-size="10.00">http://www.semanticweb.org/simayguzel/ontologies/2019/10/crawci#CulturalInstitution</text>
</g>
<!-- http://www.semanticweb.org/simayguzel/crawci#Statistics -->
<g id="node11" class="node"><title>http://www.semanticweb.org/simayguzel/crawci#Statistics</title>
<polygon fill="none" stroke="black" points="489,-105 60,-105 60,-86 489,-86 489,-105"/>
<text text-anchor="middle" x="274.5" y="-93" font-family="Times,serif" font-size="10.00">http://www.semanticweb.org/simayguzel/crawci#Statistics</text>
</g>
<!-- http://www.semanticweb.org/simayguzel/crawci#Statistics&#45;&gt;http://www.semanticweb.org/simayguzel/ontologies/2019/10/crawci#CriminalReport -->
<g id="edge8" class="edge"><title>http://www.semanticweb.org/simayguzel/crawci#Statistics&#45;&gt;http://www.semanticweb.org/simayguzel/ontologies/2019/10/crawci#CriminalReport</title>
<path fill="none" stroke="blue" d="M365.272,-106.178C420.497,-112.392 492.76,-119.884 557,-124.5 574.802,-125.779 593.173,-126.942 611.687,-127.998"/>
<polygon fill="blue" stroke="blue" points="365.495,-102.681 355.164,-105.034 364.707,-109.637 365.495,-102.681"/>
</g>
<!-- http://www.semanticweb.org/simayguzel/crawci#Statistics&#45;&gt;http://www.semanticweb.org/simayguzel/crawci#TotalTheater -->
<g id="edge6" class="edge"><title>http://www.semanticweb.org/simayguzel/crawci#Statistics&#45;&gt;http://www.semanticweb.org/simayguzel/crawci#TotalTheater</title>
<path fill="none" stroke="blue" d="M499.248,-103.331C549.958,-105.106 603.781,-106.99 654.381,-108.761"/>
<polygon fill="blue" stroke="blue" points="499.266,-99.8298 489.15,-102.978 499.021,-106.825 499.266,-99.8298"/>
</g>
<!-- http://www.semanticweb.org/simayguzel/crawci#Statistics&#45;&gt;http://www.semanticweb.org/simayguzel/ontologies/2019/10/crawci#AverageSalary -->
<g id="edge5" class="edge"><title>http://www.semanticweb.org/simayguzel/crawci#Statistics&#45;&gt;http://www.semanticweb.org/simayguzel/ontologies/2019/10/crawci#AverageSalary</title>
<path fill="none" stroke="blue" d="M499.495,-95.5C525.588,-95.5 552.501,-95.5 579.373,-95.5"/>
<polygon fill="blue" stroke="blue" points="499.15,-92.0001 489.15,-95.5 499.15,-99.0001 499.15,-92.0001"/>
</g>
<!-- http://www.semanticweb.org/simayguzel/crawci#Statistics&#45;&gt;http://www.semanticweb.org/simayguzel/ontologies/2019/10/crawci#CulturalInstitution -->
<g id="edge4" class="edge"><title>http://www.semanticweb.org/simayguzel/crawci#Statistics&#45;&gt;http://www.semanticweb.org/simayguzel/ontologies/2019/10/crawci#CulturalInstitution</title>
<path fill="none" stroke="blue" d="M499.222,-87.6697C533.382,-86.4741 568.954,-85.2291 604.003,-84.0024"/>
<polygon fill="blue" stroke="blue" points="499.021,-84.1745 489.15,-88.0223 499.266,-91.1702 499.021,-84.1745"/>
</g>
<!-- http://www.semanticweb.org/simayguzel/ontologies/2019/10/crawci#DifusionOfInternet -->
<g id="node12" class="node"><title>http://www.semanticweb.org/simayguzel/ontologies/2019/10/crawci#DifusionOfInternet</title>
<polygon fill="none" stroke="black" points="1192.5,-63 560.5,-63 560.5,-44 1192.5,-44 1192.5,-63"/>
<text text-anchor="middle" x="876.5" y="-51" font-family="Times,serif" font-size="10.00">http://www.semanticweb.org/simayguzel/ontologies/2019/10/crawci#DifusionOfInternet</text>
</g>
<!-- http://www.semanticweb.org/simayguzel/crawci#Statistics&#45;&gt;http://www.semanticweb.org/simayguzel/ontologies/2019/10/crawci#DifusionOfInternet -->
<g id="edge7" class="edge"><title>http://www.semanticweb.org/simayguzel/crawci#Statistics&#45;&gt;http://www.semanticweb.org/simayguzel/ontologies/2019/10/crawci#DifusionOfInternet</title>
<path fill="none" stroke="blue" d="M499.371,-89.4444C516.489,-85.3849 533.226,-80.1608 549,-73.5 553.352,-71.6622 552.612,-68.2516 557,-66.5 560.084,-65.2689 563.578,-64.1247 567.438,-63.062"/>
<polygon fill="blue" stroke="blue" points="498.251,-86.1082 489.253,-91.702 499.775,-92.9402 498.251,-86.1082"/>
</g>
</g>
</svg>
