<?xml version="1.0" encoding="UTF-8" standalone="no"?>
<!DOCTYPE svg PUBLIC "-//W3C//DTD SVG 1.1//EN"
 "http://www.w3.org/Graphics/SVG/1.1/DTD/svg11.dtd">
<!-- Generated by graphviz version 2.38.0 (20140413.2041)
 -->
<!-- Title: d1e1242 Pages: 1 -->
<svg width="664pt" height="648pt"
 viewBox="0.00 0.00 664.00 648.00" xmlns="http://www.w3.org/2000/svg" xmlns:xlink="http://www.w3.org/1999/xlink">
<g id="graph0" class="graph" transform="scale(1 1) rotate(0) translate(4 644)">
<title>d1e1242</title>
<polygon fill="white" stroke="none" points="-4,4 -4,-644 660,-644 660,4 -4,4"/>
<text text-anchor="middle" x="328" y="-7.8" font-family="Times,serif" font-size="14.00">Powered by http://rhizomik.net</text>
<!-- http://www.semanticweb.org/lisa/ontologies/2019/7/rap#Neutral -->
<g id="node1" class="node"><title>http://www.semanticweb.org/lisa/ontologies/2019/7/rap#Neutral</title>
<polygon fill="none" stroke="black" points="431,-105 362,-105 362,-86 431,-86 431,-105"/>
<text text-anchor="middle" x="396.5" y="-93" font-family="Times,serif" font-size="10.00">Neutral</text>
</g>
<!-- http://www.semanticweb.org/lisa/ontologies/2019/7/rap#Zeugma -->
<g id="node2" class="node"><title>http://www.semanticweb.org/lisa/ontologies/2019/7/rap#Zeugma</title>
<polygon fill="none" stroke="black" points="427.5,-420 365.5,-420 365.5,-401 427.5,-401 427.5,-420"/>
<text text-anchor="middle" x="396.5" y="-408" font-family="Times,serif" font-size="10.00">Zeugma</text>
</g>
<!-- http://www.semanticweb.org/lisa/ontologies/2019/7/rap#Polysyndeton -->
<g id="node3" class="node"><title>http://www.semanticweb.org/lisa/ontologies/2019/7/rap#Polysyndeton</title>
<polygon fill="none" stroke="black" points="450,-399 343,-399 343,-380 450,-380 450,-399"/>
<text text-anchor="middle" x="396.5" y="-387" font-family="Times,serif" font-size="10.00">Polysyndeton</text>
</g>
<!-- http://purl.org/ontology/mo/Genre -->
<g id="node4" class="node"><title>http://purl.org/ontology/mo/Genre</title>
<polygon fill="none" stroke="black" points="91.5,-367 37.5,-367 37.5,-348 91.5,-348 91.5,-367"/>
<text text-anchor="middle" x="64.5" y="-355" font-family="Times,serif" font-size="10.00">Genre</text>
</g>
<!-- http://www.semanticweb.org/lisa/ontologies/2019/7/rap#Music_Artist -->
<g id="node5" class="node"><title>http://www.semanticweb.org/lisa/ontologies/2019/7/rap#Music_Artist</title>
<polygon fill="none" stroke="black" points="450,-483 343,-483 343,-464 450,-464 450,-483"/>
<text text-anchor="middle" x="396.5" y="-471" font-family="Times,serif" font-size="10.00">Music_Artist</text>
</g>
<!-- http://www.semanticweb.org/lisa/ontologies/2019/7/rap#BMW -->
<g id="node6" class="node"><title>http://www.semanticweb.org/lisa/ontologies/2019/7/rap#BMW</title>
<polygon fill="none" stroke="black" points="416,-525 377,-525 377,-506 416,-506 416,-525"/>
<text text-anchor="middle" x="396.5" y="-513" font-family="Times,serif" font-size="10.00">BMW</text>
</g>
<!-- http://www.semanticweb.org/lisa/ontologies/2019/7/rap#Simile -->
<g id="node7" class="node"><title>http://www.semanticweb.org/lisa/ontologies/2019/7/rap#Simile</title>
<polygon fill="none" stroke="black" points="431,-378 362,-378 362,-359 431,-359 431,-378"/>
<text text-anchor="middle" x="396.5" y="-366" font-family="Times,serif" font-size="10.00">Similie</text>
</g>
<!-- http://www.semanticweb.org/lisa/ontologies/2019/7/rap#Car -->
<g id="node8" class="node"><title>http://www.semanticweb.org/lisa/ontologies/2019/7/rap#Car</title>
<polygon fill="none" stroke="black" points="84,-506 45,-506 45,-487 84,-487 84,-506"/>
<text text-anchor="middle" x="64.5" y="-494" font-family="Times,serif" font-size="10.00">Car</text>
</g>
<!-- http://www.semanticweb.org/lisa/ontologies/2019/7/rap#Car&#45;&gt;http://www.semanticweb.org/lisa/ontologies/2019/7/rap#BMW -->
<g id="edge1" class="edge"><title>http://www.semanticweb.org/lisa/ontologies/2019/7/rap#Car&#45;&gt;http://www.semanticweb.org/lisa/ontologies/2019/7/rap#BMW</title>
<path fill="none" stroke="blue" d="M94.2613,-499.135C107.301,-500.272 122.92,-501.555 137,-502.5 226.893,-508.53 334.543,-513.089 376.994,-514.782"/>
<polygon fill="blue" stroke="blue" points="94.2756,-495.622 84.0053,-498.224 93.6566,-502.595 94.2756,-495.622"/>
</g>
<!-- http://www.semanticweb.org/lisa/ontologies/2019/7/rap#Mercedes_Benz -->
<g id="node9" class="node"><title>http://www.semanticweb.org/lisa/ontologies/2019/7/rap#Mercedes_Benz</title>
<polygon fill="none" stroke="black" points="453.5,-504 339.5,-504 339.5,-485 453.5,-485 453.5,-504"/>
<text text-anchor="middle" x="396.5" y="-492" font-family="Times,serif" font-size="10.00">Mercedes_Benz</text>
</g>
<!-- http://www.semanticweb.org/lisa/ontologies/2019/7/rap#Car&#45;&gt;http://www.semanticweb.org/lisa/ontologies/2019/7/rap#Mercedes_Benz -->
<g id="edge2" class="edge"><title>http://www.semanticweb.org/lisa/ontologies/2019/7/rap#Car&#45;&gt;http://www.semanticweb.org/lisa/ontologies/2019/7/rap#Mercedes_Benz</title>
<path fill="none" stroke="blue" d="M94.197,-496.326C148.743,-495.995 268.27,-495.271 339.289,-494.841"/>
<polygon fill="blue" stroke="blue" points="94.1663,-492.826 84.1877,-496.387 94.2088,-499.826 94.1663,-492.826"/>
</g>
<!-- http://www.semanticweb.org/lisa/ontologies/2019/7/rap#Lyrics -->
<g id="node10" class="node"><title>http://www.semanticweb.org/lisa/ontologies/2019/7/rap#Lyrics</title>
<polygon fill="none" stroke="black" points="95.5,-532 33.5,-532 33.5,-513 95.5,-513 95.5,-532"/>
<text text-anchor="middle" x="64.5" y="-520" font-family="Times,serif" font-size="10.00">Lyrics</text>
</g>
<!-- http://www.semanticweb.org/lisa/ontologies/2019/7/rap#Music_Group -->
<g id="node11" class="node"><title>http://www.semanticweb.org/lisa/ontologies/2019/7/rap#Music_Group</title>
<polygon fill="none" stroke="black" points="446,-462 347,-462 347,-443 446,-443 446,-462"/>
<text text-anchor="middle" x="396.5" y="-450" font-family="Times,serif" font-size="10.00">Music_Group</text>
</g>
<!-- http://www.semanticweb.org/lisa/ontologies/2019/7/rap#Compound -->
<g id="node12" class="node"><title>http://www.semanticweb.org/lisa/ontologies/2019/7/rap#Compound</title>
<polygon fill="none" stroke="black" points="435,-84 358,-84 358,-65 435,-65 435,-84"/>
<text text-anchor="middle" x="396.5" y="-72" font-family="Times,serif" font-size="10.00">Compound</text>
</g>
<!-- http://www.semanticweb.org/lisa/ontologies/2019/7/rap#Sentiment -->
<g id="node13" class="node"><title>http://www.semanticweb.org/lisa/ontologies/2019/7/rap#Sentiment</title>
<polygon fill="none" stroke="black" points="106.5,-73 22.5,-73 22.5,-54 106.5,-54 106.5,-73"/>
<text text-anchor="middle" x="64.5" y="-61" font-family="Times,serif" font-size="10.00">Sentiment</text>
</g>
<!-- http://www.semanticweb.org/lisa/ontologies/2019/7/rap#Sentiment&#45;&gt;http://www.semanticweb.org/lisa/ontologies/2019/7/rap#Neutral -->
<g id="edge6" class="edge"><title>http://www.semanticweb.org/lisa/ontologies/2019/7/rap#Sentiment&#45;&gt;http://www.semanticweb.org/lisa/ontologies/2019/7/rap#Neutral</title>
<path fill="none" stroke="blue" d="M107.683,-75.5487C117.252,-77.8813 127.419,-80.0484 137,-81.5 216.987,-93.6187 312.291,-95.6168 361.828,-95.7352"/>
<polygon fill="blue" stroke="blue" points="108.532,-72.1533 97.9781,-73.0811 106.807,-78.9374 108.532,-72.1533"/>
</g>
<!-- http://www.semanticweb.org/lisa/ontologies/2019/7/rap#Sentiment&#45;&gt;http://www.semanticweb.org/lisa/ontologies/2019/7/rap#Compound -->
<g id="edge4" class="edge"><title>http://www.semanticweb.org/lisa/ontologies/2019/7/rap#Sentiment&#45;&gt;http://www.semanticweb.org/lisa/ontologies/2019/7/rap#Compound</title>
<path fill="none" stroke="blue" d="M116.918,-65.2139C183.716,-67.4405 298.765,-71.2755 357.939,-73.248"/>
<polygon fill="blue" stroke="blue" points="116.739,-61.7061 106.627,-64.8709 116.505,-68.7022 116.739,-61.7061"/>
</g>
<!-- http://www.semanticweb.org/lisa/ontologies/2019/7/rap#Positive -->
<g id="node14" class="node"><title>http://www.semanticweb.org/lisa/ontologies/2019/7/rap#Positive</title>
<polygon fill="none" stroke="black" points="435,-63 358,-63 358,-44 435,-44 435,-63"/>
<text text-anchor="middle" x="396.5" y="-51" font-family="Times,serif" font-size="10.00">Positive</text>
</g>
<!-- http://www.semanticweb.org/lisa/ontologies/2019/7/rap#Sentiment&#45;&gt;http://www.semanticweb.org/lisa/ontologies/2019/7/rap#Positive -->
<g id="edge3" class="edge"><title>http://www.semanticweb.org/lisa/ontologies/2019/7/rap#Sentiment&#45;&gt;http://www.semanticweb.org/lisa/ontologies/2019/7/rap#Positive</title>
<path fill="none" stroke="blue" d="M116.918,-61.9419C183.716,-59.9177 298.765,-56.4314 357.939,-54.6382"/>
<polygon fill="blue" stroke="blue" points="116.517,-58.4523 106.627,-62.2537 116.729,-65.4491 116.517,-58.4523"/>
</g>
<!-- http://www.semanticweb.org/lisa/ontologies/2019/7/rap#Negative -->
<g id="node15" class="node"><title>http://www.semanticweb.org/lisa/ontologies/2019/7/rap#Negative</title>
<polygon fill="none" stroke="black" points="435,-42 358,-42 358,-23 435,-23 435,-42"/>
<text text-anchor="middle" x="396.5" y="-30" font-family="Times,serif" font-size="10.00">Negative</text>
</g>
<!-- http://www.semanticweb.org/lisa/ontologies/2019/7/rap#Sentiment&#45;&gt;http://www.semanticweb.org/lisa/ontologies/2019/7/rap#Negative -->
<g id="edge5" class="edge"><title>http://www.semanticweb.org/lisa/ontologies/2019/7/rap#Sentiment&#45;&gt;http://www.semanticweb.org/lisa/ontologies/2019/7/rap#Negative</title>
<path fill="none" stroke="blue" d="M107.398,-51.4924C117.049,-49.1351 127.322,-46.9472 137,-45.5 214.772,-33.8703 307.012,-32.0657 357.597,-32.088"/>
<polygon fill="blue" stroke="blue" points="106.443,-48.1239 97.6176,-53.9863 108.172,-54.9069 106.443,-48.1239"/>
</g>
<!-- http://www.semanticweb.org/lisa/ontologies/2019/7/rap#Public_Figure -->
<g id="node16" class="node"><title>http://www.semanticweb.org/lisa/ontologies/2019/7/rap#Public_Figure</title>
<polygon fill="none" stroke="black" points="656,-441 137,-441 137,-422 656,-422 656,-441"/>
<text text-anchor="middle" x="396.5" y="-429" font-family="Times,serif" font-size="10.00">http://www.semanticweb.org/lisa/ontologies/2019/7/rap#Public_Figure</text>
</g>
<!-- http://www.semanticweb.org/lisa/ontologies/2019/7/rap#Synesthesia -->
<g id="node17" class="node"><title>http://www.semanticweb.org/lisa/ontologies/2019/7/rap#Synesthesia</title>
<polygon fill="none" stroke="black" points="442.5,-357 350.5,-357 350.5,-338 442.5,-338 442.5,-357"/>
<text text-anchor="middle" x="396.5" y="-345" font-family="Times,serif" font-size="10.00">Synethesia</text>
</g>
<!-- http://www.semanticweb.org/lisa/ontologies/2019/7/rap#City -->
<g id="node18" class="node"><title>http://www.semanticweb.org/lisa/ontologies/2019/7/rap#City</title>
<polygon fill="none" stroke="black" points="420,-567 373,-567 373,-548 420,-548 420,-567"/>
<text text-anchor="middle" x="396.5" y="-555" font-family="Times,serif" font-size="10.00">City</text>
</g>
<!-- http://www.semanticweb.org/lisa/ontologies/2019/7/rap#Musical_Work -->
<g id="node19" class="node"><title>http://www.semanticweb.org/lisa/ontologies/2019/7/rap#Musical_Work</title>
<polygon fill="none" stroke="black" points="118,-577 11,-577 11,-558 118,-558 118,-577"/>
<text text-anchor="middle" x="64.5" y="-565" font-family="Times,serif" font-size="10.00">Musical_Work</text>
</g>
<!-- http://www.semanticweb.org/lisa/ontologies/2019/7/rap#Palindrom -->
<g id="node20" class="node"><title>http://www.semanticweb.org/lisa/ontologies/2019/7/rap#Palindrom</title>
<polygon fill="none" stroke="black" points="438.5,-336 354.5,-336 354.5,-317 438.5,-317 438.5,-336"/>
<text text-anchor="middle" x="396.5" y="-324" font-family="Times,serif" font-size="10.00">Palindrom</text>
</g>
<!-- http://www.semanticweb.org/lisa/ontologies/2019/7/rap#Country -->
<g id="node21" class="node"><title>http://www.semanticweb.org/lisa/ontologies/2019/7/rap#Country</title>
<polygon fill="none" stroke="black" points="431,-546 362,-546 362,-527 431,-527 431,-546"/>
<text text-anchor="middle" x="396.5" y="-534" font-family="Times,serif" font-size="10.00">Country</text>
</g>
<!-- http://www.semanticweb.org/lisa/ontologies/2019/7/rap#Spoonerism -->
<g id="node22" class="node"><title>http://www.semanticweb.org/lisa/ontologies/2019/7/rap#Spoonerism</title>
<polygon fill="none" stroke="black" points="442.5,-315 350.5,-315 350.5,-296 442.5,-296 442.5,-315"/>
<text text-anchor="middle" x="396.5" y="-303" font-family="Times,serif" font-size="10.00">Spoonerism</text>
</g>
<!-- http://www.semanticweb.org/lisa/ontologies/2019/7/rap#Pleonasm -->
<g id="node23" class="node"><title>http://www.semanticweb.org/lisa/ontologies/2019/7/rap#Pleonasm</title>
<polygon fill="none" stroke="black" points="435,-294 358,-294 358,-275 435,-275 435,-294"/>
<text text-anchor="middle" x="396.5" y="-282" font-family="Times,serif" font-size="10.00">Pleonasm</text>
</g>
<!-- http://www.semanticweb.org/lisa/ontologies/2019/7/rap#Imagery -->
<g id="node24" class="node"><title>http://www.semanticweb.org/lisa/ontologies/2019/7/rap#Imagery</title>
<polygon fill="none" stroke="black" points="431,-273 362,-273 362,-254 431,-254 431,-273"/>
<text text-anchor="middle" x="396.5" y="-261" font-family="Times,serif" font-size="10.00">Imagery</text>
</g>
<!-- http://www.semanticweb.org/lisa/ontologies/2019/7/rap#Metonymy -->
<g id="node25" class="node"><title>http://www.semanticweb.org/lisa/ontologies/2019/7/rap#Metonymy</title>
<polygon fill="none" stroke="black" points="435,-252 358,-252 358,-233 435,-233 435,-252"/>
<text text-anchor="middle" x="396.5" y="-240" font-family="Times,serif" font-size="10.00">Metonomy</text>
</g>
<!-- http://www.semanticweb.org/lisa/ontologies/2019/7/rap#Tmesis -->
<g id="node26" class="node"><title>http://www.semanticweb.org/lisa/ontologies/2019/7/rap#Tmesis</title>
<polygon fill="none" stroke="black" points="427.5,-231 365.5,-231 365.5,-212 427.5,-212 427.5,-231"/>
<text text-anchor="middle" x="396.5" y="-219" font-family="Times,serif" font-size="10.00">Tmesis</text>
</g>
<!-- http://www.semanticweb.org/lisa/ontologies/2019/7/rap#Place -->
<g id="node27" class="node"><title>http://www.semanticweb.org/lisa/ontologies/2019/7/rap#Place</title>
<polygon fill="none" stroke="black" points="91.5,-556 37.5,-556 37.5,-537 91.5,-537 91.5,-556"/>
<text text-anchor="middle" x="64.5" y="-544" font-family="Times,serif" font-size="10.00">Place</text>
</g>
<!-- http://www.semanticweb.org/lisa/ontologies/2019/7/rap#Place&#45;&gt;http://www.semanticweb.org/lisa/ontologies/2019/7/rap#City -->
<g id="edge7" class="edge"><title>http://www.semanticweb.org/lisa/ontologies/2019/7/rap#Place&#45;&gt;http://www.semanticweb.org/lisa/ontologies/2019/7/rap#City</title>
<path fill="none" stroke="blue" d="M101.98,-547.716C170.529,-550.001 316.715,-554.874 372.876,-556.746"/>
<polygon fill="blue" stroke="blue" points="101.781,-544.208 91.6704,-547.372 101.548,-551.204 101.781,-544.208"/>
</g>
<!-- http://www.semanticweb.org/lisa/ontologies/2019/7/rap#Place&#45;&gt;http://www.semanticweb.org/lisa/ontologies/2019/7/rap#Country -->
<g id="edge8" class="edge"><title>http://www.semanticweb.org/lisa/ontologies/2019/7/rap#Place&#45;&gt;http://www.semanticweb.org/lisa/ontologies/2019/7/rap#Country</title>
<path fill="none" stroke="blue" d="M101.753,-545.401C166.108,-543.451 299.395,-539.412 361.842,-537.52"/>
<polygon fill="blue" stroke="blue" points="101.56,-541.906 91.6704,-545.707 101.772,-548.902 101.56,-541.906"/>
</g>
<!-- http://www.semanticweb.org/lisa/ontologies/2019/7/rap#Portmanteau -->
<g id="node28" class="node"><title>http://www.semanticweb.org/lisa/ontologies/2019/7/rap#Portmanteau</title>
<polygon fill="none" stroke="black" points="446,-210 347,-210 347,-191 446,-191 446,-210"/>
<text text-anchor="middle" x="396.5" y="-198" font-family="Times,serif" font-size="10.00">Portmanteau</text>
</g>
<!-- http://www.semanticweb.org/lisa/ontologies/2019/7/rap#Topic -->
<g id="node29" class="node"><title>http://www.semanticweb.org/lisa/ontologies/2019/7/rap#Topic</title>
<polygon fill="none" stroke="black" points="91.5,-598 37.5,-598 37.5,-579 91.5,-579 91.5,-598"/>
<text text-anchor="middle" x="64.5" y="-586" font-family="Times,serif" font-size="10.00">Topic</text>
</g>
<!-- http://www.semanticweb.org/lisa/ontologies/2019/7/rap#Person -->
<g id="node30" class="node"><title>http://www.semanticweb.org/lisa/ontologies/2019/7/rap#Person</title>
<polygon fill="none" stroke="black" points="95.5,-462 33.5,-462 33.5,-443 95.5,-443 95.5,-462"/>
<text text-anchor="middle" x="64.5" y="-450" font-family="Times,serif" font-size="10.00">Person</text>
</g>
<!-- http://www.semanticweb.org/lisa/ontologies/2019/7/rap#Person&#45;&gt;http://www.semanticweb.org/lisa/ontologies/2019/7/rap#Music_Artist -->
<g id="edge10" class="edge"><title>http://www.semanticweb.org/lisa/ontologies/2019/7/rap#Person&#45;&gt;http://www.semanticweb.org/lisa/ontologies/2019/7/rap#Music_Artist</title>
<path fill="none" stroke="blue" d="M105.956,-457.463C116.082,-458.585 126.928,-459.684 137,-460.5 208.214,-466.269 290.685,-469.887 342.958,-471.8"/>
<polygon fill="blue" stroke="blue" points="106.06,-453.952 95.728,-456.297 105.267,-460.907 106.06,-453.952"/>
</g>
<!-- http://www.semanticweb.org/lisa/ontologies/2019/7/rap#Person&#45;&gt;http://www.semanticweb.org/lisa/ontologies/2019/7/rap#Music_Group -->
<g id="edge11" class="edge"><title>http://www.semanticweb.org/lisa/ontologies/2019/7/rap#Person&#45;&gt;http://www.semanticweb.org/lisa/ontologies/2019/7/rap#Music_Group</title>
<path fill="none" stroke="blue" d="M106.007,-452.5C166.808,-452.5 281.479,-452.5 346.768,-452.5"/>
<polygon fill="blue" stroke="blue" points="105.66,-449 95.6601,-452.5 105.66,-456 105.66,-449"/>
</g>
<!-- http://www.semanticweb.org/lisa/ontologies/2019/7/rap#Person&#45;&gt;http://www.semanticweb.org/lisa/ontologies/2019/7/rap#Public_Figure -->
<g id="edge9" class="edge"><title>http://www.semanticweb.org/lisa/ontologies/2019/7/rap#Person&#45;&gt;http://www.semanticweb.org/lisa/ontologies/2019/7/rap#Public_Figure</title>
<path fill="none" stroke="blue" d="M105.971,-448.228C116.096,-447.245 126.939,-446.265 137,-445.5 158.287,-443.882 180.574,-442.383 202.758,-441.014"/>
<polygon fill="blue" stroke="blue" points="105.347,-444.773 95.7422,-449.245 106.039,-451.739 105.347,-444.773"/>
</g>
<!-- http://www.semanticweb.org/lisa/ontologies/2019/7/rap#Album -->
<g id="node31" class="node"><title>http://www.semanticweb.org/lisa/ontologies/2019/7/rap#Album</title>
<polygon fill="none" stroke="black" points="91.5,-619 37.5,-619 37.5,-600 91.5,-600 91.5,-619"/>
<text text-anchor="middle" x="64.5" y="-607" font-family="Times,serif" font-size="10.00">Album</text>
</g>
<!-- http://www.semanticweb.org/lisa/ontologies/2019/7/rap#Irony -->
<g id="node32" class="node"><title>http://www.semanticweb.org/lisa/ontologies/2019/7/rap#Irony</title>
<polygon fill="none" stroke="black" points="423.5,-189 369.5,-189 369.5,-170 423.5,-170 423.5,-189"/>
<text text-anchor="middle" x="396.5" y="-177" font-family="Times,serif" font-size="10.00">Irony</text>
</g>
<!-- http://www.semanticweb.org/lisa/ontologies/2019/7/rap#Pangrammatic -->
<g id="node33" class="node"><title>http://www.semanticweb.org/lisa/ontologies/2019/7/rap#Pangrammatic</title>
<polygon fill="none" stroke="black" points="450,-168 343,-168 343,-149 450,-149 450,-168"/>
<text text-anchor="middle" x="396.5" y="-156" font-family="Times,serif" font-size="10.00">Pangrammatic</text>
</g>
<!-- http://www.semanticweb.org/lisa/ontologies/2019/7/rap#Literary_device -->
<g id="node34" class="node"><title>http://www.semanticweb.org/lisa/ontologies/2019/7/rap#Literary_device</title>
<polygon fill="none" stroke="black" points="129,-273 0,-273 0,-254 129,-254 129,-273"/>
<text text-anchor="middle" x="64.5" y="-261" font-family="Times,serif" font-size="10.00">Literary_Device</text>
</g>
<!-- http://www.semanticweb.org/lisa/ontologies/2019/7/rap#Literary_device&#45;&gt;http://www.semanticweb.org/lisa/ontologies/2019/7/rap#Zeugma -->
<g id="edge16" class="edge"><title>http://www.semanticweb.org/lisa/ontologies/2019/7/rap#Literary_device&#45;&gt;http://www.semanticweb.org/lisa/ontologies/2019/7/rap#Zeugma</title>
<path fill="none" stroke="blue" d="M82.6628,-280.524C97.4236,-296.24 118.02,-320.949 129,-346.5 137.885,-367.177 120.277,-381.44 137,-396.5 169.813,-426.05 304.555,-418.485 365.416,-413.372"/>
<polygon fill="blue" stroke="blue" points="85.0227,-277.929 75.5576,-273.169 79.9881,-282.793 85.0227,-277.929"/>
</g>
<!-- http://www.semanticweb.org/lisa/ontologies/2019/7/rap#Literary_device&#45;&gt;http://www.semanticweb.org/lisa/ontologies/2019/7/rap#Polysyndeton -->
<g id="edge20" class="edge"><title>http://www.semanticweb.org/lisa/ontologies/2019/7/rap#Literary_device&#45;&gt;http://www.semanticweb.org/lisa/ontologies/2019/7/rap#Polysyndeton</title>
<path fill="none" stroke="blue" d="M81.9893,-280.836C96.3047,-296.757 116.626,-321.595 129,-346.5 134.949,-358.474 126.586,-367.115 137,-375.5 167.544,-400.092 276.556,-397.663 342.87,-393.624"/>
<polygon fill="blue" stroke="blue" points="84.4694,-278.362 75.1246,-273.369 79.3163,-283.1 84.4694,-278.362"/>
</g>
<!-- http://www.semanticweb.org/lisa/ontologies/2019/7/rap#Literary_device&#45;&gt;http://www.semanticweb.org/lisa/ontologies/2019/7/rap#Simile -->
<g id="edge15" class="edge"><title>http://www.semanticweb.org/lisa/ontologies/2019/7/rap#Literary_device&#45;&gt;http://www.semanticweb.org/lisa/ontologies/2019/7/rap#Simile</title>
<path fill="none" stroke="blue" d="M79.085,-281.562C98.672,-307.49 132.954,-352.396 137,-354.5 175.182,-374.352 300.89,-372.338 361.811,-370.062"/>
<polygon fill="blue" stroke="blue" points="81.6584,-279.161 72.8433,-273.284 76.0691,-283.376 81.6584,-279.161"/>
</g>
<!-- http://www.semanticweb.org/lisa/ontologies/2019/7/rap#Literary_device&#45;&gt;http://www.semanticweb.org/lisa/ontologies/2019/7/rap#Synesthesia -->
<g id="edge26" class="edge"><title>http://www.semanticweb.org/lisa/ontologies/2019/7/rap#Literary_device&#45;&gt;http://www.semanticweb.org/lisa/ontologies/2019/7/rap#Synesthesia</title>
<path fill="none" stroke="blue" d="M77.9192,-281.631C90.5881,-298.44 111.911,-322.463 137,-333.5 206.525,-364.086 296.911,-360.391 350.316,-354.346"/>
<polygon fill="blue" stroke="blue" points="80.4953,-279.22 71.8023,-273.164 74.8209,-283.319 80.4953,-279.22"/>
</g>
<!-- http://www.semanticweb.org/lisa/ontologies/2019/7/rap#Literary_device&#45;&gt;http://www.semanticweb.org/lisa/ontologies/2019/7/rap#Palindrom -->
<g id="edge14" class="edge"><title>http://www.semanticweb.org/lisa/ontologies/2019/7/rap#Literary_device&#45;&gt;http://www.semanticweb.org/lisa/ontologies/2019/7/rap#Palindrom</title>
<path fill="none" stroke="blue" d="M83.2455,-279.802C96.8588,-291.214 116.704,-305.606 137,-312.5 210.409,-337.436 302.259,-335.123 354.366,-330.962"/>
<polygon fill="blue" stroke="blue" points="85.4688,-277.098 75.6264,-273.176 80.8749,-282.379 85.4688,-277.098"/>
</g>
<!-- http://www.semanticweb.org/lisa/ontologies/2019/7/rap#Literary_device&#45;&gt;http://www.semanticweb.org/lisa/ontologies/2019/7/rap#Spoonerism -->
<g id="edge25" class="edge"><title>http://www.semanticweb.org/lisa/ontologies/2019/7/rap#Literary_device&#45;&gt;http://www.semanticweb.org/lisa/ontologies/2019/7/rap#Spoonerism</title>
<path fill="none" stroke="blue" d="M94.2184,-277.17C107.02,-282.624 122.466,-288.346 137,-291.5 210.35,-307.416 298.006,-308.525 350.09,-307.371"/>
<polygon fill="blue" stroke="blue" points="95.5643,-273.938 85.0027,-273.099 92.7358,-280.341 95.5643,-273.938"/>
</g>
<!-- http://www.semanticweb.org/lisa/ontologies/2019/7/rap#Literary_device&#45;&gt;http://www.semanticweb.org/lisa/ontologies/2019/7/rap#Pleonasm -->
<g id="edge19" class="edge"><title>http://www.semanticweb.org/lisa/ontologies/2019/7/rap#Literary_device&#45;&gt;http://www.semanticweb.org/lisa/ontologies/2019/7/rap#Pleonasm</title>
<path fill="none" stroke="blue" d="M139.18,-270.627C222.55,-276.797 309.394,-280.898 357.794,-282.972"/>
<polygon fill="blue" stroke="blue" points="139.267,-267.124 129.033,-269.865 138.743,-274.104 139.267,-267.124"/>
</g>
<!-- http://www.semanticweb.org/lisa/ontologies/2019/7/rap#Literary_device&#45;&gt;http://www.semanticweb.org/lisa/ontologies/2019/7/rap#Imagery -->
<g id="edge12" class="edge"><title>http://www.semanticweb.org/lisa/ontologies/2019/7/rap#Literary_device&#45;&gt;http://www.semanticweb.org/lisa/ontologies/2019/7/rap#Imagery</title>
<path fill="none" stroke="blue" d="M139.147,-263.5C208.68,-263.5 309.818,-263.5 361.831,-263.5"/>
<polygon fill="blue" stroke="blue" points="139.127,-260 129.127,-263.5 139.127,-267 139.127,-260"/>
</g>
<!-- http://www.semanticweb.org/lisa/ontologies/2019/7/rap#Literary_device&#45;&gt;http://www.semanticweb.org/lisa/ontologies/2019/7/rap#Metonymy -->
<g id="edge24" class="edge"><title>http://www.semanticweb.org/lisa/ontologies/2019/7/rap#Literary_device&#45;&gt;http://www.semanticweb.org/lisa/ontologies/2019/7/rap#Metonymy</title>
<path fill="none" stroke="blue" d="M139.169,-255.378C222.505,-248.861 309.365,-245.339 357.78,-243.674"/>
<polygon fill="blue" stroke="blue" points="138.716,-251.903 129.026,-256.188 139.273,-258.881 138.716,-251.903"/>
</g>
<!-- http://www.semanticweb.org/lisa/ontologies/2019/7/rap#Literary_device&#45;&gt;http://www.semanticweb.org/lisa/ontologies/2019/7/rap#Tmesis -->
<g id="edge22" class="edge"><title>http://www.semanticweb.org/lisa/ontologies/2019/7/rap#Literary_device&#45;&gt;http://www.semanticweb.org/lisa/ontologies/2019/7/rap#Tmesis</title>
<path fill="none" stroke="blue" d="M93.3454,-249.669C106.294,-243.906 122.096,-237.798 137,-234.5 217.947,-216.587 316.485,-217.742 365.213,-219.784"/>
<polygon fill="blue" stroke="blue" points="91.6734,-246.586 84.0624,-253.956 94.6085,-252.941 91.6734,-246.586"/>
</g>
<!-- http://www.semanticweb.org/lisa/ontologies/2019/7/rap#Literary_device&#45;&gt;http://www.semanticweb.org/lisa/ontologies/2019/7/rap#Portmanteau -->
<g id="edge13" class="edge"><title>http://www.semanticweb.org/lisa/ontologies/2019/7/rap#Literary_device&#45;&gt;http://www.semanticweb.org/lisa/ontologies/2019/7/rap#Portmanteau</title>
<path fill="none" stroke="blue" d="M83.1784,-246.842C96.7578,-235.186 116.591,-220.496 137,-213.5 206.924,-189.53 293.721,-190.997 346.835,-195.108"/>
<polygon fill="blue" stroke="blue" points="80.7191,-244.346 75.5821,-253.612 85.3763,-249.572 80.7191,-244.346"/>
</g>
<!-- http://www.semanticweb.org/lisa/ontologies/2019/7/rap#Literary_device&#45;&gt;http://www.semanticweb.org/lisa/ontologies/2019/7/rap#Irony -->
<g id="edge18" class="edge"><title>http://www.semanticweb.org/lisa/ontologies/2019/7/rap#Literary_device&#45;&gt;http://www.semanticweb.org/lisa/ontologies/2019/7/rap#Irony</title>
<path fill="none" stroke="blue" d="M77.6477,-245.365C90.2392,-228.292 111.618,-203.715 137,-192.5 215.504,-157.812 320.761,-167.648 369.151,-174.88"/>
<polygon fill="blue" stroke="blue" points="74.4973,-243.759 71.5869,-253.946 80.2149,-247.798 74.4973,-243.759"/>
</g>
<!-- http://www.semanticweb.org/lisa/ontologies/2019/7/rap#Literary_device&#45;&gt;http://www.semanticweb.org/lisa/ontologies/2019/7/rap#Pangrammatic -->
<g id="edge21" class="edge"><title>http://www.semanticweb.org/lisa/ontologies/2019/7/rap#Literary_device&#45;&gt;http://www.semanticweb.org/lisa/ontologies/2019/7/rap#Pangrammatic</title>
<path fill="none" stroke="blue" d="M73.9658,-244.694C84.986,-222.73 106.506,-187.383 137,-171.5 171.523,-153.519 277.712,-153.921 342.754,-156.06"/>
<polygon fill="blue" stroke="blue" points="70.8035,-243.195 69.6469,-253.726 77.1186,-246.214 70.8035,-243.195"/>
</g>
<!-- http://www.semanticweb.org/lisa/ontologies/2019/7/rap#Litote -->
<g id="node35" class="node"><title>http://www.semanticweb.org/lisa/ontologies/2019/7/rap#Litote</title>
<polygon fill="none" stroke="black" points="427.5,-147 365.5,-147 365.5,-128 427.5,-128 427.5,-147"/>
<text text-anchor="middle" x="396.5" y="-135" font-family="Times,serif" font-size="10.00">Litote</text>
</g>
<!-- http://www.semanticweb.org/lisa/ontologies/2019/7/rap#Literary_device&#45;&gt;http://www.semanticweb.org/lisa/ontologies/2019/7/rap#Litote -->
<g id="edge17" class="edge"><title>http://www.semanticweb.org/lisa/ontologies/2019/7/rap#Literary_device&#45;&gt;http://www.semanticweb.org/lisa/ontologies/2019/7/rap#Litote</title>
<path fill="none" stroke="blue" d="M71.5015,-244.019C80.7931,-217.587 101.406,-171.281 137,-150.5 174.932,-128.354 305.685,-132.451 365.367,-135.624"/>
<polygon fill="blue" stroke="blue" points="68.1188,-243.1 68.2961,-253.694 74.7636,-245.302 68.1188,-243.1"/>
</g>
<!-- http://www.semanticweb.org/lisa/ontologies/2019/7/rap#Synecdoche -->
<g id="node36" class="node"><title>http://www.semanticweb.org/lisa/ontologies/2019/7/rap#Synecdoche</title>
<polygon fill="none" stroke="black" points="442.5,-126 350.5,-126 350.5,-107 442.5,-107 442.5,-126"/>
<text text-anchor="middle" x="396.5" y="-114" font-family="Times,serif" font-size="10.00">Synecdoche</text>
</g>
<!-- http://www.semanticweb.org/lisa/ontologies/2019/7/rap#Literary_device&#45;&gt;http://www.semanticweb.org/lisa/ontologies/2019/7/rap#Synecdoche -->
<g id="edge23" class="edge"><title>http://www.semanticweb.org/lisa/ontologies/2019/7/rap#Literary_device&#45;&gt;http://www.semanticweb.org/lisa/ontologies/2019/7/rap#Synecdoche</title>
<path fill="none" stroke="blue" d="M69.5209,-244.011C76.9454,-213.573 95.9539,-155.546 137,-129.5 171.242,-107.771 285.707,-110.221 350.245,-113.555"/>
<polygon fill="blue" stroke="blue" points="66.0843,-243.34 67.2904,-253.866 72.9116,-244.885 66.0843,-243.34"/>
</g>
<!-- http://www.semanticweb.org/lisa/ontologies/2019/7/rap#Release_date -->
<g id="node37" class="node"><title>http://www.semanticweb.org/lisa/ontologies/2019/7/rap#Release_date</title>
<polygon fill="none" stroke="black" points="118,-640 11,-640 11,-621 118,-621 118,-640"/>
<text text-anchor="middle" x="64.5" y="-628" font-family="Times,serif" font-size="10.00">Release_Date</text>
</g>
</g>
</svg>
