<?xml version="1.0" standalone="no"?>
<!DOCTYPE svg PUBLIC "-//W3C//DTD SVG 20010904//EN"
 "http://www.w3.org/TR/2001/REC-SVG-20010904/DTD/svg10.dtd">
<svg version="1.0" xmlns="http://www.w3.org/2000/svg"
 width="1600.000000pt" height="1600.000000pt" viewBox="0 0 1600.000000 1600.000000"
 preserveAspectRatio="xMidYMid meet">
<metadata>
Created by potrace 1.11, written by Peter Selinger 2001-2013
</metadata>
<g transform="translate(0.000000,1600.000000) scale(0.100000,-0.100000)"
fill="#000000" stroke="none">
<path d="M6860 14070 c-12 -8 -9 -10 12 -10 35 0 59 -10 52 -21 -3 -5 -17 -9
-31 -9 -33 0 -169 -59 -228 -100 -48 -33 -48 -33 -111 -21 -35 6 -76 8 -91 5
-16 -4 -57 -37 -93 -73 -36 -37 -83 -81 -105 -99 -22 -17 -34 -32 -26 -32 7 0
31 14 53 31 21 17 42 29 45 25 3 -3 -2 -26 -11 -50 -18 -46 -80 -108 -141
-139 -104 -53 -322 -107 -485 -122 -193 -17 -275 -41 -324 -96 -20 -21 -36
-41 -36 -44 0 -3 23 10 51 30 28 19 56 35 63 35 6 0 22 3 36 6 17 5 9 -4 -25
-27 -62 -41 -282 -260 -357 -354 -118 -148 -188 -307 -214 -483 -9 -59 -18
-113 -20 -120 -2 -7 -5 -70 -7 -140 -4 -115 -7 -134 -35 -202 -121 -292 -141
-362 -123 -442 14 -59 87 -183 124 -210 15 -11 27 -24 27 -29 0 -5 27 -41 60
-81 33 -39 60 -80 60 -91 0 -25 26 -58 133 -170 108 -114 141 -177 144 -276 1
-40 4 -76 7 -79 3 -3 15 3 26 13 28 25 45 8 57 -58 19 -100 17 -104 -81 -148
-48 -22 -122 -51 -164 -65 -69 -22 -190 -85 -233 -121 -15 -12 -14 -22 7 -111
33 -145 101 -401 119 -450 29 -82 116 -253 125 -247 5 3 11 1 15 -5 7 -12 197
-13 298 -1 38 4 70 4 72 1 2 -3 -5 -58 -17 -121 -16 -93 -20 -155 -20 -339 1
-413 45 -717 168 -1140 86 -297 198 -602 243 -660 28 -35 141 -231 130 -224
-15 9 -10 -6 10 -34 54 -78 351 -594 351 -611 0 -4 23 -46 51 -92 28 -46 60
-104 71 -129 10 -24 45 -76 76 -115 162 -201 178 -208 457 -209 158 -1 717 14
725 19 5 3 34 2 65 -1 55 -7 58 -9 76 -48 24 -54 24 -63 -5 -70 -79 -20 -252
-118 -540 -306 -200 -132 -619 -454 -733 -564 -62 -60 -113 -113 -113 -118 0
-5 33 19 73 54 66 58 153 125 342 263 39 29 124 92 190 140 205 152 563 383
689 446 106 53 122 59 132 45 6 -9 24 -66 39 -126 l27 -110 -32 -32 c-18 -18
-53 -45 -79 -61 -73 -46 -806 -790 -963 -977 -69 -82 -392 -502 -427 -554
l-26 -39 -8 39 c-13 58 1 811 17 942 7 49 3 52 -20 17 -24 -36 -34 -199 -42
-640 l-7 -370 -99 -67 c-55 -37 -140 -84 -189 -105 -49 -20 -100 -45 -114 -56
-13 -11 -66 -41 -116 -66 -156 -80 -309 -162 -380 -203 -94 -54 -311 -157
-632 -300 -253 -112 -801 -388 -890 -448 -22 -15 -83 -53 -136 -83 -161 -93
-418 -267 -483 -327 -34 -31 -93 -82 -133 -113 -39 -31 -100 -90 -135 -131
-34 -41 -69 -75 -75 -75 -7 -1 -13 -6 -13 -12 0 -7 -16 -30 -36 -53 -46 -52
-119 -177 -185 -314 -29 -59 -85 -161 -124 -227 -40 -66 -88 -151 -108 -190
-65 -130 -198 -459 -257 -635 -32 -97 -73 -203 -90 -238 -17 -34 -33 -75 -36
-92 l-6 -30 6916 0 6916 0 0 1063 -1 1062 -44 50 c-25 28 -74 108 -111 180
-91 178 -118 229 -125 235 -11 11 -99 161 -99 171 0 6 -4 8 -9 5 -5 -3 -12 5
-15 19 -4 14 -11 25 -16 25 -6 0 -10 9 -10 20 0 11 -4 20 -9 20 -6 0 -22 24
-36 53 -15 28 -34 61 -44 72 -10 11 -21 28 -24 38 -4 9 -11 17 -17 17 -5 0
-10 7 -10 15 0 8 -3 15 -8 15 -4 0 -13 14 -20 30 -8 17 -18 28 -23 24 -5 -3
-9 0 -9 6 0 6 -13 25 -30 43 -16 17 -42 45 -56 61 l-27 30 79 26 c114 38 146
56 203 110 46 44 51 47 65 31 13 -14 13 -24 5 -55 -13 -49 -5 -58 11 -12 12
36 23 45 35 26 14 -23 314 -210 337 -210 4 0 8 9 8 19 0 13 -25 34 -77 66
-180 109 -277 181 -267 197 23 37 64 336 64 467 0 69 -18 298 -27 341 -5 23
-6 23 -12 5 -6 -16 -9 -13 -14 15 -25 127 -168 552 -220 655 -81 157 -248 350
-462 534 -55 47 -105 92 -112 101 -18 23 -31 83 -58 267 -38 257 -52 326 -85
421 -36 102 -126 269 -152 283 -22 12 -38 4 -38 -19 0 -13 2 -14 9 -4 10 16
23 -2 75 -106 68 -134 103 -255 136 -457 42 -267 50 -306 68 -340 14 -28 14
-29 -1 -16 -15 12 -17 11 -17 -6 0 -11 19 -34 43 -54 61 -49 217 -200 217
-211 0 -5 -4 -7 -8 -4 -5 3 -21 -1 -36 -9 -24 -13 -84 -13 -123 0 -7 2 -10 -3
-7 -13 5 -16 5 -16 -5 0 -8 11 -8 25 -1 44 12 29 7 54 -10 54 -5 0 -10 -6 -10
-12 0 -7 -8 -23 -18 -36 -17 -21 -18 -22 -33 -4 -9 10 -15 25 -13 33 16 96 20
129 13 129 -5 0 -6 6 -3 14 3 8 0 17 -5 21 -6 3 -9 10 -6 15 3 4 -15 30 -39
57 -38 42 -56 53 -129 77 -85 28 -104 29 -194 10 -18 -3 -33 -10 -33 -15 0 -5
-6 -9 -14 -9 -15 0 -62 -44 -108 -101 -60 -74 -97 -109 -163 -149 -22 -13 -42
-27 -45 -30 -3 -3 -25 -21 -50 -40 -25 -19 -47 -37 -50 -41 -3 -3 -15 -9 -27
-13 -13 -4 -33 -16 -45 -27 -13 -10 -66 -50 -118 -89 -52 -38 -102 -75 -110
-82 -8 -7 -18 -12 -22 -11 -3 1 -17 -9 -30 -22 -13 -14 -26 -25 -30 -25 -7 0
-135 -82 -154 -98 -6 -5 -20 -13 -32 -16 -12 -4 -22 -11 -22 -16 0 -5 -17 -19
-37 -31 -21 -13 -54 -35 -73 -51 -19 -15 -39 -28 -44 -28 -5 0 -48 -18 -95
-39 -47 -22 -122 -47 -166 -56 -44 -8 -87 -18 -95 -22 -8 -3 -24 -7 -35 -9
-11 -1 -47 -10 -80 -19 -33 -9 -69 -18 -80 -19 -11 -2 -33 -9 -48 -15 -15 -6
-42 -13 -60 -17 -18 -3 -36 -9 -42 -15 -5 -5 -18 -9 -30 -9 -11 0 -72 -19
-135 -41 -63 -22 -119 -41 -125 -42 -5 -2 -14 -5 -20 -8 -5 -3 -30 -11 -55
-18 -25 -8 -58 -19 -75 -26 -69 -30 -91 -38 -100 -41 -5 -1 -23 -8 -40 -15
-16 -6 -37 -13 -45 -15 -8 -2 -23 -7 -35 -12 -11 -6 -36 -17 -55 -25 -19 -9
-69 -31 -110 -50 -41 -19 -104 -45 -140 -57 -36 -13 -69 -27 -75 -31 -15 -10
-245 -81 -284 -87 -24 -3 -30 -7 -20 -14 9 -6 -1 -7 -28 -3 -26 4 -43 3 -43
-3 0 -6 -22 -13 -50 -17 -27 -4 -50 -11 -50 -16 0 -4 -6 -6 -12 -4 -7 3 -44
-7 -83 -21 -38 -14 -74 -27 -80 -28 -5 -1 -16 -5 -23 -10 -29 -18 -19 2 26 52
46 52 51 55 327 166 154 62 300 122 325 133 25 11 77 30 115 43 103 33 391
149 540 217 122 56 271 144 340 200 58 48 147 158 178 221 17 34 34 62 38 62
4 0 9 -10 12 -21 4 -15 11 -20 21 -16 27 11 18 -15 -30 -86 -25 -38 -44 -70
-42 -72 2 -2 28 27 57 65 50 66 86 91 110 76 5 -4 12 -2 16 4 3 5 17 10 29 10
13 0 35 9 49 20 14 11 30 20 35 20 5 0 12 7 16 15 3 8 16 15 29 15 13 0 27 4
32 8 6 5 29 14 51 20 23 7 45 19 48 28 3 9 11 12 18 8 7 -5 9 -2 5 8 -3 10 6
27 24 44 16 15 29 34 29 42 0 7 7 20 15 28 8 9 15 25 15 38 0 12 6 31 14 41 8
11 11 25 9 33 -3 7 0 24 7 37 7 13 10 33 7 44 -3 12 -1 24 4 27 12 7 12 51 -1
59 -6 3 -5 15 2 31 8 18 9 28 1 32 -5 4 -13 27 -17 52 -15 102 -19 120 -26
115 -10 -6 -22 24 -15 36 4 5 -5 21 -19 36 -15 15 -26 34 -26 41 0 8 -14 27
-31 43 -17 16 -28 29 -23 29 4 0 -9 14 -29 31 -20 17 -34 35 -32 39 3 5 -4 11
-15 15 -23 7 -70 48 -70 60 0 4 -10 17 -23 29 -13 11 -36 53 -51 91 -65 167
-148 303 -134 219 3 -16 9 -38 13 -49 5 -11 -6 -2 -24 20 -84 104 -228 218
-385 305 -72 40 -276 126 -319 135 -18 4 -36 11 -42 15 -5 4 -31 13 -57 21
-27 7 -48 16 -48 20 0 4 -19 10 -42 14 -24 4 -50 10 -58 12 -8 3 -34 7 -57 10
-24 3 -43 8 -43 13 0 7 -46 11 -150 12 -85 1 -129 -5 -123 -16 4 -5 -8 -7 -30
-3 -29 4 -42 0 -74 -23 -33 -26 -68 -42 -50 -23 4 3 3 11 -2 17 -7 9 -32 111
-57 224 -5 23 2 27 24 14 7 -5 10 -16 6 -27 -7 -16 -3 -17 37 -11 311 47 1051
21 1434 -50 264 -50 628 -142 835 -212 381 -129 676 -256 915 -392 78 -45 18
-1 -75 54 -205 123 -410 218 -725 338 -207 79 -297 106 -595 179 -440 108
-764 144 -1280 143 -194 0 -355 -5 -420 -13 l-105 -13 -21 27 c-12 15 -26 25
-32 21 -13 -8 -14 -4 -46 149 -85 408 -143 776 -161 1025 -3 47 -13 115 -22
153 -8 37 -13 82 -9 100 3 17 11 67 18 109 13 75 15 80 80 151 220 243 325
538 298 837 -13 150 -33 280 -42 280 -15 0 -8 31 12 57 16 21 20 41 20 108 0
99 14 180 42 243 12 26 20 53 19 60 -4 22 84 195 140 278 61 89 57 59 44 334
-6 133 -4 173 14 284 36 219 96 427 161 560 26 55 30 74 36 197 6 125 5 141
-16 205 -22 64 -32 78 -145 194 -115 119 -122 128 -139 190 -22 85 -103 253
-154 322 -82 111 -224 215 -257 188 -8 -7 -13 -15 -11 -19 3 -4 7 -26 10 -49
l5 -42 -25 17 c-20 13 -24 22 -20 42 10 47 -23 194 -57 254 -33 58 -140 177
-159 177 -7 0 -24 15 -39 33 -15 17 -31 28 -35 24 -10 -10 32 -134 53 -159 19
-21 53 -150 53 -197 l0 -35 -56 54 c-30 30 -71 80 -91 109 -20 30 -38 50 -41
43 -7 -23 -28 -12 -82 44 -165 168 -266 226 -416 237 -44 3 -134 15 -200 26
-160 28 -425 63 -499 67 -237 13 -457 21 -495 17 -200 -16 -273 -28 -369 -59
l-105 -34 -120 11 c-162 13 -660 9 -706 -6 -19 -7 -85 -15 -146 -19 -99 -7
-120 -5 -185 14 -90 27 -230 97 -311 158 -113 83 -179 107 -218 82z m175 -120
c25 -7 21 -8 -25 -8 -93 0 -205 -48 -283 -121 -51 -46 -54 -42 -10 16 27 37
75 66 164 98 67 24 104 28 154 15z m2351 -144 c60 -8 130 -19 154 -25 25 -5
61 -13 80 -16 223 -38 488 -101 476 -112 -3 -3 -26 2 -53 10 -51 17 -129 33
-203 42 -25 3 -88 12 -140 21 -52 8 -108 17 -125 20 -16 3 -66 11 -110 19
-154 28 -343 41 -384 27 -36 -13 -44 3 -8 18 34 14 191 12 313 -4z m-3992
-652 c5 -13 4 -14 -7 -5 -17 13 -64 -3 -112 -40 -24 -18 -22 -14 10 19 30 32
47 42 71 42 20 0 34 -6 38 -16z m5939 -114 c35 -28 107 -174 106 -214 -2 -27
-2 -28 -6 -6 -14 81 -117 241 -144 224 -5 -3 -9 0 -9 5 0 17 25 13 53 -9z
m-6183 -85 c-96 -173 -166 -345 -206 -505 l-13 -55 5 50 c5 45 37 178 51 215
3 8 8 23 10 33 10 52 71 176 120 242 30 41 56 75 59 75 3 0 -9 -25 -26 -55z
m6297 -187 c-3 -8 -6 -5 -6 6 -1 11 2 17 5 13 3 -3 4 -12 1 -19z m-3210 -293
c5 0 33 -21 63 -46 98 -83 276 -181 550 -302 137 -61 304 -145 420 -213 79
-45 149 -112 292 -277 l85 -97 7 -108 c7 -117 40 -395 57 -482 15 -81 38 -147
75 -222 31 -61 48 -80 134 -147 l25 -20 -60 14 c-186 45 -670 137 -948 180
-114 18 -185 34 -223 52 -31 14 -79 31 -107 38 -29 7 -83 26 -122 41 -69 28
-72 28 -290 27 -347 -1 -872 -45 -1120 -94 -55 -11 -134 -24 -175 -29 -163
-19 -269 -54 -341 -112 -46 -37 -45 -24 -15 -190 17 -91 13 -123 -11 -114 -8
3 -35 6 -59 6 -32 0 -44 4 -44 15 0 21 -13 19 -28 -5 -7 -11 -18 -20 -25 -20
-6 0 -35 -11 -63 -24 l-51 -24 -12 37 c-6 21 -18 75 -27 122 -17 90 -38 149
-57 161 -6 4 -74 5 -151 2 -146 -4 -309 -27 -495 -69 -60 -14 -114 -25 -119
-25 -6 0 -13 17 -16 38 -4 20 -9 49 -12 64 -5 24 1 31 49 63 59 39 190 99 401
181 98 39 162 58 220 65 44 5 114 19 154 29 40 11 85 20 101 20 16 0 34 7 41
15 9 10 9 15 1 15 -6 0 -11 5 -11 11 0 7 11 9 30 5 23 -4 32 -2 37 10 6 16
-142 324 -156 324 -4 0 -7 -16 -8 -36 -1 -19 -8 -43 -17 -53 -15 -17 -19 -16
-73 11 -56 28 -103 37 -103 18 0 -5 -5 -10 -12 -10 -7 0 -24 -11 -38 -25 -17
-16 -46 -29 -83 -35 -54 -10 -134 -39 -112 -40 6 0 -47 -28 -116 -63 -69 -34
-149 -79 -177 -100 -29 -20 -54 -37 -57 -37 -11 0 -3 38 41 186 31 106 45 168
42 195 -3 38 -1 43 48 84 105 91 171 226 188 388 4 32 15 75 25 95 10 20 28
69 41 107 36 114 39 120 71 139 55 32 100 79 131 132 29 52 30 53 101 69 64
14 80 14 142 1 39 -8 97 -25 130 -39 38 -17 89 -28 140 -32 44 -3 116 -15 160
-27 52 -13 98 -19 134 -16 43 4 67 0 108 -18 85 -38 241 -89 343 -113 52 -13
121 -29 152 -37 35 -8 109 -14 191 -14 115 0 150 4 250 29 129 33 204 62 259
100 58 40 45 41 -32 3 -80 -40 -100 -38 -39 3 22 16 53 47 68 69 30 45 61 133
61 175 l1 26 14 -25 c7 -14 17 -25 22 -25z m3446 -112 c36 -92 33 -167 -15
-357 -20 -84 -62 -175 -97 -216 -19 -21 -19 -19 2 15 48 77 94 252 104 390 5
69 2 90 -21 156 -14 41 -26 80 -26 84 0 19 38 -32 53 -72z m-852 -265 c37 -22
94 -45 130 -53 35 -7 52 -14 38 -14 -56 -2 -182 54 -289 129 -29 20 56 -23
121 -62z m-5797 -20 c-55 -62 -75 -122 -84 -253 l-7 -90 -1 82 c-3 122 36 243
86 273 26 15 27 12 6 -12z m6136 -13 c-14 -8 -29 -14 -35 -14 -5 0 1 6 15 14
14 8 30 14 35 14 6 0 -1 -6 -15 -14z m-53 -21 c-3 -3 -12 -4 -19 -1 -8 3 -5 6
6 6 11 1 17 -2 13 -5z m-50 -10 c-3 -3 -12 -4 -19 -1 -8 3 -5 6 6 6 11 1 17
-2 13 -5z m297 -442 c3 -5 15 -72 26 -148 22 -140 48 -254 69 -293 7 -12 9
-21 7 -21 -23 0 -81 178 -101 310 -8 52 -17 110 -20 128 -5 29 6 44 19 24z
m-165 -294 c-40 -77 -135 -191 -201 -241 -78 -59 -136 -92 -146 -83 -3 3 -1 6
5 6 10 0 113 66 123 80 3 3 21 18 41 33 21 15 70 73 110 127 41 55 75 100 77
100 1 0 -3 -10 -9 -22z m237 -494 c-13 -32 -35 -86 -49 -119 -30 -72 -56 -190
-67 -300 l-7 -80 -1 80 c-2 129 19 219 84 359 62 132 80 160 40 60z m-3184
-132 c11 -11 58 -193 58 -225 0 -26 -7 -21 -90 62 -50 50 -102 97 -118 105
-48 25 -181 56 -238 56 -88 0 -244 -20 -314 -40 -36 -10 -92 -24 -125 -31
-192 -39 -367 -208 -383 -369 -3 -34 0 -49 12 -59 14 -12 18 -9 31 25 9 22 20
48 24 59 20 48 107 136 174 178 58 36 189 97 208 97 2 0 4 -47 5 -103 1 -93 4
-109 29 -155 52 -96 147 -152 270 -160 112 -7 174 13 242 75 43 41 54 58 72
119 26 88 27 139 2 187 -24 47 -17 43 109 -61 80 -65 96 -83 98 -110 3 -27 -2
-35 -29 -50 -17 -9 -43 -26 -58 -38 -14 -11 -59 -40 -98 -64 -40 -23 -73 -46
-73 -51 0 -5 26 3 58 17 31 14 64 29 72 32 8 3 37 18 63 34 26 15 51 28 54 28
7 0 -5 -201 -12 -208 -3 -3 -26 -9 -52 -13 -27 -4 -73 -12 -104 -18 -31 -5
-137 -17 -235 -25 -98 -9 -260 -25 -359 -36 -99 -10 -225 -22 -280 -25 -55 -4
-147 -13 -204 -21 -140 -19 -168 -18 -180 4 -27 50 -71 247 -81 357 -6 66 -19
159 -29 208 l-18 87 26 6 c14 3 51 14 81 25 34 13 110 26 200 34 80 7 244 26
365 40 121 15 301 31 400 35 193 8 415 4 427 -8z m2719 -171 c63 -30 134 -90
176 -147 48 -66 111 -202 163 -352 l43 -122 -5 -203 c-5 -186 -8 -209 -33
-287 -55 -171 -126 -276 -373 -558 -181 -206 -322 -337 -385 -358 -26 -9 -67
-30 -90 -48 -23 -18 -50 -35 -59 -39 -47 -18 -138 -296 -223 -681 -34 -153
-140 -461 -180 -522 -104 -158 -186 -241 -390 -393 -281 -209 -309 -228 -589
-388 -253 -145 -386 -227 -386 -239 0 -2 10 2 23 10 40 25 242 142 267 156 42
22 20 5 -92 -69 -120 -79 -193 -115 -210 -105 -6 4 -8 3 -5 -3 3 -5 -110 -67
-252 -137 -229 -114 -264 -129 -317 -131 -32 -2 -74 -8 -92 -14 -28 -8 -493
-16 -932 -16 -229 1 -225 -1 -348 118 -65 64 -113 120 -129 152 -14 28 -46 79
-71 115 -25 36 -86 139 -135 230 -49 91 -113 204 -143 251 -29 48 -89 158
-133 245 -44 88 -96 188 -116 224 -50 93 -134 281 -141 318 -4 18 -10 32 -15
32 -21 0 -57 106 -142 410 -107 387 -149 677 -151 1035 -1 237 10 344 46 462
l9 32 134 -6 c144 -7 324 9 382 33 18 8 33 10 33 5 0 -5 -46 -97 -102 -203
-56 -106 -133 -257 -170 -335 l-69 -142 22 -78 c40 -146 49 -165 114 -228 68
-65 179 -127 300 -165 55 -18 101 -23 213 -27 l144 -4 55 -35 55 -35 -27 35
c-15 19 -32 37 -38 40 -8 3 -8 8 3 15 16 12 17 12 -135 16 -155 4 -322 51
-445 125 -121 72 -181 155 -201 280 -9 58 -9 60 41 166 28 59 117 232 198 385
81 153 166 315 189 361 52 104 127 304 143 383 7 33 16 65 21 71 20 25 140 28
178 5 7 -5 19 -55 27 -112 14 -101 39 -214 52 -234 12 -18 32 -80 32 -100 1
-28 42 -55 87 -57 54 -1 315 20 463 37 69 9 179 20 245 26 143 13 380 42 560
69 72 11 195 25 275 31 92 7 153 16 165 25 12 9 21 34 27 71 13 93 37 395 32
408 -8 20 21 21 236 9 138 -8 362 -10 689 -7 415 5 483 4 478 -8 -3 -8 -15
-45 -27 -84 -12 -38 -31 -92 -42 -120 -11 -27 -21 -72 -22 -100 l-1 -50 45 0
c42 1 50 5 109 65 35 36 65 60 68 54 2 -6 -17 -69 -41 -140 -85 -244 -103
-335 -69 -348 9 -4 21 -2 27 4 5 5 17 10 27 10 9 0 32 25 52 58 35 54 36 55
31 22 -6 -34 -6 -34 12 -18 12 12 19 35 20 66 2 37 17 78 59 162 31 62 63 140
70 174 8 34 23 102 35 151 12 50 24 100 26 111 2 12 17 27 34 34 16 7 30 16
30 21 0 5 6 9 14 9 7 0 33 17 57 38 54 48 76 59 164 89 60 20 85 23 176 20 81
-4 116 -9 150 -26z m-3319 2 c25 -23 23 -69 -6 -98 -60 -59 -115 33 -58 98 19
21 40 22 64 0z m-1612 -99 c18 -47 14 -52 -57 -59 -38 -4 -72 -11 -78 -15 -5
-4 -41 -17 -79 -29 -38 -12 -90 -33 -115 -46 -52 -26 -134 -109 -146 -146 -7
-22 -32 -48 -47 -49 -3 0 -11 19 -16 43 -5 23 -21 84 -36 136 -14 52 -24 96
-22 99 11 10 345 72 394 73 31 0 80 4 107 9 81 12 85 12 95 -16z m-640 -105
c0 -16 -4 -19 -17 -14 -10 4 -26 10 -36 13 -24 6 -3 22 31 22 16 0 22 -6 22
-21z m2388 -1 c29 -29 -6 -83 -49 -76 -55 8 -47 88 9 88 15 0 33 -5 40 -12z
m-1969 -156 c-33 -150 145 -297 269 -222 40 25 40 25 39 -2 0 -13 3 -51 7 -85
l8 -62 -34 -5 c-18 -3 -71 -10 -118 -15 -47 -6 -146 -18 -220 -26 -74 -9 -145
-19 -157 -22 -28 -6 -29 -4 -46 130 -16 126 -13 133 54 113 50 -15 179 -32
179 -23 0 3 -39 18 -87 32 -49 15 -90 29 -92 31 -8 7 29 53 89 110 57 54 111
96 117 91 1 -1 -2 -22 -8 -45z m120 19 c7 -13 7 -29 0 -50 -14 -40 -54 -43
-71 -6 -22 49 46 103 71 56z m421 -56 c0 -9 -8 -46 -17 -83 -14 -56 -18 -63
-24 -42 -13 46 -10 103 8 122 20 22 33 23 33 3z m-375 -90 c0 -25 -4 -31 -27
-33 -19 -2 -30 3 -38 18 -15 28 4 52 39 48 22 -2 26 -8 26 -33z m-432 5 c-3
-11 -9 -17 -15 -14 -5 3 -4 12 3 20 16 19 18 18 12 -6z m-161 -31 l87 -13 27
-80 c15 -45 29 -106 31 -137 l4 -56 -32 -7 c-51 -10 -108 -7 -201 10 -99 18
-85 1 -138 172 -17 57 -34 111 -37 119 -6 14 4 15 83 10 49 -3 128 -11 176
-18z m5438 -1423 c78 -91 78 -91 96 -80 10 5 23 28 29 50 l11 39 7 -40 c4 -22
7 -68 7 -102 0 -130 74 -611 145 -946 37 -179 155 -675 184 -777 10 -36 16
-82 13 -103 -2 -22 0 -49 6 -60 5 -12 15 -49 22 -82 19 -99 67 -256 98 -326
19 -42 27 -70 21 -76 -6 -6 4 -24 26 -47 19 -21 35 -42 35 -47 0 -6 4 -8 8 -5
5 3 47 -36 93 -86 46 -51 159 -170 251 -265 187 -194 178 -175 136 -289 -25
-69 -64 -121 -134 -180 -80 -66 -270 -259 -365 -369 -42 -49 -146 -153 -230
-230 -83 -77 -208 -196 -277 -264 -121 -119 -130 -125 -235 -173 -60 -27 -144
-63 -186 -79 -42 -17 -151 -66 -243 -110 -91 -43 -171 -79 -177 -79 -6 0 -11
-4 -11 -8 0 -5 -35 -14 -77 -20 -351 -54 -653 -170 -1033 -398 -336 -201 -507
-336 -843 -665 -166 -163 -225 -215 -233 -206 -6 7 -21 59 -34 117 -13 58 -34
142 -47 187 -19 67 -24 111 -27 240 -4 194 24 495 59 638 13 55 31 131 39 168
9 37 39 134 67 215 28 81 66 190 84 242 18 52 51 136 74 186 22 51 44 106 47
123 5 25 12 32 42 37 26 5 38 3 47 -9 7 -9 14 -14 18 -11 6 6 9 -5 33 -111 14
-65 18 -132 18 -352 1 -150 2 -273 3 -273 7 0 35 162 42 243 11 131 -4 422
-25 479 -9 24 -21 62 -27 86 -7 28 -15 41 -24 38 -8 -3 -16 9 -24 37 -20 76
-69 166 -123 224 -95 105 -123 168 -171 393 -33 152 -46 205 -60 245 -7 20 -6
20 9 1 15 -19 16 -19 16 7 0 17 -7 30 -17 34 -24 9 -33 23 -33 56 0 21 5 27
21 27 11 0 33 6 47 14 15 8 47 19 72 26 57 15 261 112 405 192 60 34 116 61
125 61 8 0 36 15 62 33 26 18 78 49 115 68 75 39 111 62 81 52 -10 -3 -18 -4
-18 -2 0 11 357 216 436 251 32 14 72 36 88 49 17 13 74 49 126 82 52 32 113
74 135 94 22 20 63 50 91 68 28 18 66 47 85 66 19 18 61 57 94 85 90 79 154
215 285 611 56 167 132 424 165 555 12 50 30 112 39 139 9 27 14 56 11 64 -10
26 22 59 107 107 46 27 123 81 173 122 57 46 92 68 95 60 3 -7 16 -25 30 -41z
m679 -2486 c11 -24 11 -24 -3 -6 -9 11 -16 24 -16 30 0 12 5 7 19 -24z m-3662
-236 c-3 -3 -12 -4 -19 -1 -8 3 -5 6 6 6 11 1 17 -2 13 -5z m4407 -583 c55
-44 104 -81 110 -81 6 0 5 5 -2 12 -18 18 -15 34 7 34 11 0 17 -4 15 -8 -3 -4
8 -8 23 -8 16 0 45 -11 65 -25 20 -14 44 -25 52 -25 9 0 16 -4 16 -9 0 -5 27
-8 59 -8 l60 2 -22 -24 -22 -23 22 6 c22 7 22 7 7 -36 -20 -57 -37 -82 -108
-157 -132 -138 -407 -279 -891 -456 -128 -47 -364 -140 -470 -185 -50 -21
-115 -48 -145 -60 l-55 -21 116 113 c63 62 173 167 243 232 70 66 183 180 249
255 117 131 177 191 353 360 67 64 85 88 107 144 15 37 27 75 27 85 0 33 13
33 49 -1 20 -19 81 -71 135 -116z m-3924 -490 c0 -5 2 -16 5 -24 5 -10 -1 -13
-25 -9 -35 5 -37 10 -12 28 20 16 32 18 32 5z m-149 -158 c-10 -27 -31 -75
-46 -108 -72 -161 -191 -512 -231 -685 -45 -191 -68 -434 -61 -640 3 -85 3
-144 1 -130 -3 14 -18 81 -35 149 -57 235 -89 534 -89 837 l0 182 36 49 c50
67 174 192 264 267 79 66 160 125 172 126 4 0 -1 -21 -11 -47z m-335 -185
c-30 -35 -66 -76 -80 -93 l-26 -30 10 30 c8 23 133 154 148 155 2 0 -21 -28
-52 -62z m2949 -385 c-35 -48 -105 -116 -112 -109 -3 3 -20 -2 -37 -11 -17 -9
-40 -21 -51 -26 -110 -58 -165 -71 -255 -60 l-53 6 55 28 c31 16 142 64 248
109 106 44 200 85 209 90 25 15 25 12 -4 -27z m4875 -398 c-11 -67 -18 -85
-46 -114 l-33 -35 -10 27 c-7 18 -15 25 -26 21 -19 -8 -19 -43 0 -71 14 -20
12 -24 -37 -67 -51 -45 -156 -94 -235 -111 -27 -5 -33 -3 -33 10 0 8 7 18 15
21 8 4 13 10 10 14 -3 4 7 11 21 14 32 8 94 56 94 73 0 7 11 15 25 19 14 3 25
12 25 20 0 8 6 14 13 14 6 0 23 16 37 35 14 19 30 35 37 35 6 0 13 10 15 23 2
12 9 21 16 19 8 -1 11 2 8 7 -4 5 5 23 19 39 14 16 25 34 25 39 0 6 9 18 20
28 10 9 25 34 32 54 l13 36 4 -35 c2 -19 -2 -71 -9 -115z m-5860 69 c-19 -9
-42 -17 -50 -19 -8 -2 -16 -4 -17 -5 -2 -2 -6 -3 -10 -4 -5 -1 -14 -5 -20 -9
-7 -5 -17 -5 -23 -2 -5 3 -10 1 -10 -4 0 -6 -3 -10 -7 -9 -14 5 -53 -29 -45
-38 4 -4 0 -3 -10 4 -14 11 -19 9 -32 -10 -15 -21 -21 -18 -16 7 1 5 -1 8 -3
5 -3 -3 -5 -8 -4 -12 2 -8 -131 -78 -150 -78 -8 0 -26 -11 -40 -24 -14 -13
-32 -22 -39 -19 -8 3 -17 -2 -20 -12 -4 -9 -13 -14 -20 -11 -8 3 -11 0 -8 -8
3 -8 0 -17 -7 -22 -8 -4 -10 -3 -5 4 4 7 2 12 -3 12 -6 0 -11 -4 -11 -10 0 -5
-9 -10 -20 -10 -11 0 -20 -5 -20 -11 0 -6 -6 -9 -13 -6 -7 3 -19 -4 -26 -14
-6 -11 -15 -17 -20 -14 -5 2 -15 -3 -22 -12 -8 -9 -29 -22 -46 -30 -18 -7 -33
-17 -33 -22 0 -5 -18 -17 -40 -27 -22 -10 -40 -21 -40 -26 0 -4 -4 -8 -9 -8
-6 0 -25 -13 -43 -30 -18 -16 -38 -30 -45 -30 -7 0 -13 -4 -13 -10 0 -5 -5
-10 -10 -10 -14 0 -91 -50 -111 -72 -9 -10 -21 -18 -28 -18 -6 0 -11 -7 -11
-15 0 -9 -6 -12 -17 -8 -11 4 -14 3 -9 -5 5 -8 0 -12 -13 -12 -12 0 -21 -4
-21 -9 0 -5 -9 -13 -20 -16 -11 -4 -17 -11 -14 -17 4 -6 2 -8 -3 -5 -6 4 -16
0 -23 -8 -7 -8 -19 -15 -28 -15 -8 0 -12 -3 -9 -6 6 -6 -35 -44 -47 -44 -12 0
-44 -39 -38 -46 4 -4 2 -4 -4 -1 -6 4 -21 -5 -34 -18 -13 -13 -27 -22 -33 -18
-6 3 -7 1 -3 -6 4 -6 -1 -14 -13 -19 -11 -4 -21 -11 -23 -17 -2 -5 -6 -9 -10
-7 -5 1 -8 -2 -8 -8 0 -5 -7 -10 -15 -10 -8 0 -14 -4 -13 -8 4 -10 -43 -56
-97 -98 -68 -52 -72 -49 -15 10 30 31 60 54 67 52 7 -3 10 0 8 7 -3 12 207
212 320 305 201 164 540 378 788 497 173 83 329 147 364 149 12 0 23 4 23 8 0
8 26 15 55 16 13 1 7 -4 -15 -14z m-3437 -102 c-95 -137 -104 -151 -118 -184
-7 -18 -27 -42 -43 -52 -18 -12 -28 -26 -25 -36 3 -9 -2 -23 -9 -31 -33 -33
-58 -78 -52 -93 3 -9 1 -16 -6 -16 -6 0 -9 -4 -6 -8 6 -10 -37 -118 -56 -141
-7 -9 -44 -56 -82 -106 -80 -105 -85 -110 -124 -150 -37 -37 -114 -96 -127
-97 -5 0 -21 -5 -35 -10 -14 -5 -32 -11 -40 -13 -65 -16 -268 -84 -325 -110
-16 -7 -59 -23 -95 -36 -36 -12 -71 -26 -79 -32 -7 -6 -18 -12 -25 -13 -6 -1
-50 -20 -96 -42 -47 -22 -143 -67 -213 -101 -70 -33 -147 -73 -170 -89 -23
-15 -55 -34 -72 -42 -16 -8 -37 -19 -45 -26 -8 -7 -55 -29 -105 -49 -225 -94
-268 -114 -389 -183 -215 -122 -383 -247 -593 -437 -52 -47 -98 -83 -103 -80
-6 4 -7 -2 -3 -12 6 -16 5 -16 -10 -4 -16 13 -22 8 -17 -14 1 -5 -4 -4 -11 3
-7 6 -31 12 -53 12 -30 0 -37 -3 -26 -10 13 -8 12 -10 -2 -10 -10 0 -18 5 -18
11 0 9 -22 10 -77 4 -98 -9 -143 -7 -160 7 -10 8 -13 7 -13 -5 0 -8 -8 -21
-17 -28 -15 -11 -16 -11 -5 1 14 17 16 46 2 55 -5 3 -8 0 -5 -7 7 -20 -10 -39
-29 -32 -11 4 -13 10 -7 18 5 6 9 13 9 16 -2 39 77 213 111 244 12 11 21 24
21 31 0 16 215 234 330 334 99 86 373 273 520 356 47 26 92 53 100 60 15 13
346 193 425 232 22 10 87 44 145 75 58 31 128 65 155 76 28 11 151 66 275 122
124 56 269 122 323 146 55 23 151 72 215 108 116 64 179 97 382 203 58 30 112
60 120 68 8 7 63 34 121 60 60 26 140 71 185 104 71 52 80 56 86 39 6 -13 -5
-37 -39 -86z m9270 -121 c-6 -22 -12 -28 -22 -22 -11 7 -10 13 4 35 22 33 29
28 18 -13z m-12735 -1956 c-12 -24 -23 -43 -26 -41 -4 5 36 86 43 86 3 0 -5
-20 -17 -45z m157 -145 c-3 -5 -10 -10 -16 -10 -5 0 -9 5 -9 10 0 6 7 10 16
10 8 0 12 -4 9 -10z"/>
<path d="M7745 11698 c-134 -13 -369 -63 -492 -104 -59 -19 -159 -60 -220 -89
-86 -41 -113 -50 -113 -38 0 10 -11 4 -31 -18 -21 -23 -33 -29 -38 -21 -5 8
-14 -1 -26 -28 l-18 -41 -15 33 -14 33 -10 -35 c-15 -50 -4 -195 16 -225 9
-14 21 -23 26 -20 5 3 11 1 15 -5 4 -6 10 -8 15 -5 5 3 11 1 14 -3 9 -16 327
50 767 158 64 16 184 36 267 45 166 18 241 13 375 -26 37 -11 104 -26 148 -34
91 -16 197 -63 249 -110 19 -18 45 -35 57 -38 20 -4 22 -2 16 27 -6 28 -5 30
10 17 16 -12 16 -10 2 29 -28 78 -124 220 -217 317 -80 85 -288 160 -502 182
-122 12 -152 12 -281 -1z"/>
<path d="M10771 10238 c-30 -16 -43 -46 -15 -33 11 5 42 11 71 13 41 3 65 -2
109 -22 114 -52 189 -137 238 -267 28 -75 32 -47 -36 -292 -62 -228 -188 -498
-256 -550 -20 -15 -79 -59 -130 -98 -118 -87 -169 -129 -158 -129 5 0 23 11
40 24 45 34 226 156 232 156 3 0 -2 -10 -10 -22 -26 -36 -18 -46 9 -13 55 65
240 355 281 438 24 48 48 114 54 145 23 112 23 112 31 72 4 -19 6 37 4 125 -4
187 -2 168 -17 163 -8 -3 -26 24 -46 64 -41 85 -126 171 -202 207 -64 29 -162
39 -199 19z m446 -500 c-3 -8 -6 -5 -6 6 -1 11 2 17 5 13 3 -3 4 -12 1 -19z"/>
<path d="M11055 9946 c-95 -36 -200 -101 -270 -169 -41 -39 -75 -79 -75 -87 0
-8 20 5 48 31 26 25 65 59 87 75 l40 28 -31 -35 c-39 -43 -114 -144 -114 -153
0 -3 30 27 68 68 98 108 165 164 214 182 54 19 84 12 95 -23 9 -25 10 -26 15
-7 6 22 -20 91 -37 98 -6 2 -24 -2 -40 -8z"/>
<path d="M10367 9913 c-13 -13 -7 -21 13 -16 14 4 21 -1 26 -22 12 -50 0 -127
-68 -429 -44 -198 -35 -243 48 -230 74 11 101 -40 69 -131 -8 -21 -12 -41 -10
-44 8 -7 46 89 47 118 2 60 -50 98 -122 89 -36 -4 -37 24 -7 156 80 347 93
446 63 491 -16 24 -45 33 -59 18z"/>
<path d="M6598 9305 c12 -22 382 -408 382 -398 0 15 63 -55 87 -95 24 -40 25
-50 20 -128 -6 -90 3 -103 22 -30 16 63 14 122 -5 162 -20 41 -87 104 -112
104 -11 0 -47 33 -85 78 -77 90 -324 336 -309 307z"/>
<path d="M6591 8635 c-83 -24 -121 -46 -121 -71 0 -22 18 -25 49 -9 39 20 109
19 194 -1 55 -14 65 -19 56 -30 -9 -11 -7 -14 12 -16 75 -4 129 22 129 63 0
35 -23 53 -92 73 -74 21 -126 19 -227 -9z"/>
<path d="M8125 8100 c-16 -11 -55 -38 -85 -60 -71 -51 -99 -64 -192 -91 -46
-13 -75 -26 -71 -32 3 -6 2 -7 -4 -4 -6 4 -91 -21 -189 -54 -124 -42 -204 -64
-264 -70 -47 -5 -128 -14 -180 -20 -174 -18 -673 -105 -770 -133 -25 -8 -56
-14 -69 -14 -30 -1 -38 -9 -23 -24 9 -9 24 -9 64 0 136 30 535 105 553 103 11
-1 45 3 75 8 30 6 116 17 190 26 169 20 417 79 490 115 30 15 91 37 135 48
100 25 135 39 135 52 0 5 12 10 28 10 15 0 37 7 49 15 12 8 28 12 37 9 28 -11
146 85 146 118 0 23 -18 23 -55 -2z m-218 -156 c-3 -3 -12 -4 -19 -1 -8 3 -5
6 6 6 11 1 17 -2 13 -5z"/>
<path d="M6123 7563 c-7 -2 -13 -11 -13 -19 0 -20 38 -17 80 6 l35 19 -45 0
c-25 0 -51 -3 -57 -6z"/>
<path d="M6685 7161 c-128 -7 -148 -25 -32 -29 70 -3 305 22 316 34 5 5 -128
2 -284 -5z"/>
<path d="M9851 5445 c-137 -323 -428 -1264 -374 -1210 11 11 46 115 121 365
144 477 199 651 258 809 35 96 62 176 60 178 -2 2 -31 -62 -65 -142z"/>
<path d="M8422 5184 c-13 -27 -44 -84 -69 -127 -25 -43 -43 -80 -40 -83 10
-10 52 25 69 58 30 60 69 169 66 185 -2 8 -13 -6 -26 -33z"/>
</g>
</svg>
