<?xml version="1.0" standalone="no"?>
<!DOCTYPE svg PUBLIC "-//W3C//DTD SVG 20010904//EN"
 "http://www.w3.org/TR/2001/REC-SVG-20010904/DTD/svg10.dtd">
<svg version="1.0" xmlns="http://www.w3.org/2000/svg"
 width="304.000000pt" height="304.000000pt" viewBox="0 0 304.000000 304.000000"
 preserveAspectRatio="xMidYMid meet">
<metadata>
Created by potrace 1.11, written by Peter Selinger 2001-2013
</metadata>
<g transform="translate(0.000000,304.000000) scale(0.100000,-0.100000)"
fill="#000000" stroke="none">
<path d="M2633 2586 c-70 -41 -109 -89 -142 -177 -8 -23 -17 -28 -63 -34 -29
-4 -65 -9 -80 -11 -139 -22 -147 -22 -163 2 -28 43 -80 84 -130 103 -174 66
-356 -79 -357 -285 -1 -67 22 -149 53 -188 l20 -25 -32 -83 c-17 -46 -37 -96
-44 -113 -7 -16 -41 -102 -76 -190 -103 -266 -100 -260 -134 -263 -16 -2 -46
-11 -65 -19 l-35 -14 -77 83 c-73 79 -77 85 -71 118 33 173 -62 341 -212 376
-167 40 -330 -115 -324 -306 1 -36 6 -77 11 -92 9 -25 1 -37 -99 -155 -59 -70
-116 -137 -125 -148 -9 -11 -27 -31 -38 -45 -12 -14 -32 -37 -45 -52 -22 -26
-24 -26 -86 -16 -179 30 -323 -114 -315 -313 6 -170 120 -292 272 -292 145 -1
262 126 269 291 2 39 -3 85 -10 107 -16 45 -37 14 175 264 120 142 148 171
165 166 52 -17 137 -17 180 -1 l44 17 58 -62 c32 -34 67 -72 79 -83 16 -17 19
-28 13 -50 -15 -55 -4 -168 21 -221 85 -175 296 -219 424 -88 105 108 121 290
37 410 l-31 43 29 77 c59 159 213 538 221 547 5 5 24 10 42 11 49 4 62 8 112
40 53 33 109 109 127 173 7 26 18 42 28 43 36 2 68 6 101 12 19 4 57 10 85 13
27 3 53 8 57 10 4 3 14 -8 22 -24 20 -38 90 -100 135 -119 61 -26 148 -21 210
12 119 65 184 223 146 352 -7 23 -11 43 -10 45 10 10 -77 117 -115 143 -40 27
-55 30 -130 33 -75 2 -90 0 -127 -22z m169 -115 c89 -34 128 -160 77 -250 -60
-107 -209 -100 -260 13 -25 55 -24 102 4 156 37 74 110 107 179 81z m-772
-136 c16 -8 42 -31 57 -52 24 -31 28 -45 28 -103 0 -57 -4 -71 -28 -103 -100
-132 -279 -51 -265 119 10 114 117 186 208 139z m-975 -630 c58 -44 83 -136
56 -208 -13 -34 -62 -83 -91 -92 -97 -30 -184 35 -197 145 -16 138 128 235
232 155z m515 -533 c117 -45 122 -249 8 -308 -106 -55 -221 33 -214 163 7 115
104 184 206 145z m-1220 -274 c100 -68 96 -238 -7 -295 -45 -25 -107 -24 -146
2 -97 63 -95 234 4 294 43 27 109 26 149 -1z"/>
</g>
</svg>
