<?xml version="1.0" encoding="utf-8"?>
<!-- Generator: Adobe Illustrator 17.0.0, SVG Export Plug-In . SVG Version: 6.00 Build 0)  -->
<!DOCTYPE svg PUBLIC "-//W3C//DTD SVG 1.1 Tiny//EN" "http://www.w3.org/Graphics/SVG/1.1/DTD/svg11-tiny.dtd">
<svg version="1.1" baseProfile="tiny" id="Layer_1" xmlns="http://www.w3.org/2000/svg" xmlns:xlink="http://www.w3.org/1999/xlink"
	 x="0px" y="0px" width="513.421px" height="52.527px" viewBox="0 0 513.421 52.527" xml:space="preserve">
<g>
	<g>
		<g>
			<g>
				<g>
					<g>
						<path fill="#FFFFFF" d="M2.579,51.08c-0.18,0-0.356-0.081-0.473-0.23c-0.046-0.059-1.138-1.465-2.052-3.476
							c-0.07-0.154-0.072-0.331-0.005-0.486s0.196-0.275,0.356-0.33c8.725-3.004,15.364-10.417,15.726-17.436H1.964
							c-0.332,0-0.6-0.269-0.6-0.6v-3.354c0-0.332,0.269-0.6,0.6-0.6h17.289v-8.767h-1.907v7.845c0,0.332-0.269,0.6-0.6,0.6
							s-0.6-0.269-0.6-0.6v-8.445c0-0.332,0.269-0.6,0.6-0.6h3.107c0.332,0,0.6,0.269,0.6,0.6v9.367H35.31
							c0.332,0,0.6,0.269,0.6,0.6s-0.269,0.6-0.6,0.6H20.454v2.577c0,12.273-9.409,18.563-17.606,22.672
							C2.762,51.06,2.67,51.08,2.579,51.08z M1.428,47.466c0.502,1,1.023,1.8,1.336,2.248c7.777-3.958,16.489-9.976,16.489-21.37
							v-2.577H2.564v2.154h14.182c0.332,0,0.6,0.269,0.6,0.6C17.347,36.03,10.548,44.074,1.428,47.466z"/>
					</g>
				</g>
			</g>
		</g>
		<g>
			<g>
				<g>
					<g>
						<path fill="#FFFFFF" d="M32.391,50.611c-0.109,0-0.218-0.03-0.314-0.089c-0.249-0.153-6.146-3.836-11.135-11.983
							c-0.173-0.283-0.084-0.652,0.198-0.825c0.284-0.173,0.652-0.084,0.825,0.198c4.23,6.909,9.227,10.565,10.457,11.401
							c0.479-0.279,1.217-0.796,1.638-1.411c-12.367-9.688-13.176-18.944-13.205-19.337c-0.012-0.166,0.046-0.33,0.159-0.452
							c0.114-0.122,0.273-0.191,0.439-0.191H35.31c0.332,0,0.6,0.269,0.6,0.6s-0.269,0.6-0.6,0.6H22.15
							c0.43,2.262,2.621,10.132,13.044,18.142c0.214,0.165,0.292,0.453,0.189,0.703c-0.638,1.558-2.646,2.543-2.731,2.584
							C32.569,50.591,32.48,50.611,32.391,50.611z"/>
					</g>
				</g>
			</g>
		</g>
	</g>
	<g>
		<g>
			<g>
				<g>
					<path fill="#FFFFFF" d="M112.652,27.402c-0.332,0-0.6-0.269-0.6-0.6v-3.609h-6.849c-0.332,0-0.6-0.269-0.6-0.6v-1.988
						c0-0.332,0.269-0.6,0.6-0.6h9.126c0.332,0,0.6,0.269,0.6,0.6s-0.269,0.6-0.6,0.6h-8.526v0.788h6.849c0.332,0,0.6,0.269,0.6,0.6
						v4.209C113.252,27.134,112.984,27.402,112.652,27.402z"/>
				</g>
			</g>
		</g>
	</g>
	<g>
		<g>
			<g>
				<g>
					<g>
						<path fill="#FFFFFF" d="M112.652,31.423H83.714c-0.332,0-0.6-0.269-0.6-0.6v-8.229c0-0.332,0.269-0.6,0.6-0.6h10.139V15.55
							H91.49v2.252c0,0.332-0.269,0.6-0.6,0.6h-8.838v1.487h10.462c0.332,0,0.6,0.269,0.6,0.6s-0.269,0.6-0.6,0.6H81.451
							c-0.332,0-0.6-0.269-0.6-0.6v-2.688c0-0.332,0.269-0.6,0.6-0.6h8.838V14.95c0-0.332,0.269-0.6,0.6-0.6h3.563
							c0.332,0,0.6,0.269,0.6,0.6v7.644c0,0.332-0.269,0.6-0.6,0.6H84.314v7.029h27.738v-1.258H87.067c-0.332,0-0.6-0.269-0.6-0.6
							v-3.041c0-0.332,0.269-0.6,0.6-0.6h5.344c0.332,0,0.6,0.269,0.6,0.6v1.066h1.997v-1.066c0-0.332,0.269-0.6,0.6-0.6h5.344
							c0.332,0,0.6,0.269,0.6,0.6v1.066h1.998v-1.066c0-0.332,0.269-0.6,0.6-0.6h5.147c0.332,0,0.6,0.269,0.6,0.6v1.541
							c0,0.332-0.269,0.6-0.6,0.6s-0.6-0.269-0.6-0.6v-0.941h-3.947v1.066c0,0.332-0.269,0.6-0.6,0.6h-3.198
							c-0.332,0-0.6-0.269-0.6-0.6v-1.066h-4.144v1.066c0,0.332-0.269,0.6-0.6,0.6h-3.197c-0.332,0-0.6-0.269-0.6-0.6v-1.066h-4.144
							v1.841h24.985c0.332,0,0.6,0.269,0.6,0.6v2.458C113.252,31.154,112.984,31.423,112.652,31.423z"/>
					</g>
				</g>
			</g>
		</g>
		<g>
			<g>
				<g>
					<g>
						<path fill="#FFFFFF" d="M101.693,23.193h-5.367c-0.332,0-0.6-0.269-0.6-0.6s0.269-0.6,0.6-0.6h4.767V14.95
							c0-0.332,0.269-0.6,0.6-0.6h3.646c0.332,0,0.6,0.269,0.6,0.6v2.012h8.389c0.332,0,0.6,0.269,0.6,0.6s-0.269,0.6-0.6,0.6
							h-8.989c-0.332,0-0.6-0.269-0.6-0.6V15.55h-2.446v7.043C102.293,22.925,102.025,23.193,101.693,23.193z"/>
					</g>
				</g>
			</g>
		</g>
		<g>
			<g>
				<g>
					<g>
						<path fill="#FFFFFF" d="M114.798,40.394h-3.511c-0.332,0-0.6-0.269-0.6-0.6V35.83H85.093v3.963c0,0.332-0.269,0.6-0.6,0.6
							h-3.51c-0.332,0-0.6-0.269-0.6-0.6v-4.741c0-0.332,0.269-0.6,0.6-0.6s0.6,0.269,0.6,0.6v4.141h2.31V35.23
							c0-0.332,0.269-0.6,0.6-0.6h26.794c0.332,0,0.6,0.269,0.6,0.6v3.963h2.311v-6.405H80.983c-0.332,0-0.6-0.269-0.6-0.6
							c0-0.332,0.269-0.6,0.6-0.6h33.814c0.332,0,0.6,0.269,0.6,0.6v7.605C115.398,40.125,115.129,40.394,114.798,40.394z"/>
					</g>
				</g>
			</g>
		</g>
		<g>
			<g>
				<g>
					<g>
						<path fill="#FFFFFF" d="M95.326,44.402c-0.108,0-0.218-0.029-0.316-0.091l-2.839-1.767L91,44.155
							c-0.16,0.22-0.448,0.305-0.701,0.207l-2.587-0.998c-0.169-0.065-0.299-0.202-0.355-0.374s-0.031-0.36,0.067-0.512l3.293-5.088
							c0.111-0.171,0.3-0.274,0.504-0.274h16.368c0.332,0,0.6,0.269,0.6,0.6v3.043c0,0.332-0.269,0.6-0.6,0.6h-7.803
							c-0.332,0-0.6-0.269-0.6-0.6s0.269-0.6,0.6-0.6h7.203v-1.843H91.546l-2.714,4.194l1.468,0.566l1.229-1.69
							c0.186-0.255,0.535-0.325,0.802-0.156l3.313,2.063c0.282,0.175,0.368,0.545,0.192,0.826
							C95.722,44.302,95.526,44.402,95.326,44.402z"/>
					</g>
				</g>
			</g>
		</g>
		<g>
			<g>
				<g>
					<g>
						<path fill="#FFFFFF" d="M82.504,51.08c-0.308,0-0.566-0.233-0.597-0.54l-0.314-3.127c-0.018-0.176,0.043-0.351,0.167-0.478
							c0.123-0.127,0.298-0.189,0.473-0.181c0.087,0.007,8.865,0.578,14.542-2.395c0.293-0.153,0.656-0.04,0.81,0.253
							c0.153,0.293,0.04,0.656-0.253,0.81c-5.078,2.658-12.204,2.645-14.474,2.563l0.19,1.892c11.93-0.104,16.881-3.632,18.29-4.917
							l-7.598-5.162c-0.274-0.186-0.345-0.559-0.159-0.833c0.186-0.273,0.559-0.345,0.833-0.159l8.188,5.563
							c0.137,0.093,0.229,0.238,0.255,0.401c0.026,0.164-0.016,0.33-0.117,0.461C102.555,45.47,98.048,51.08,82.504,51.08z"/>
					</g>
				</g>
			</g>
		</g>
	</g>
	<g>
		<g>
			<g>
				<g>
					<g>
						<path fill="#FFFFFF" d="M163.824,28.381h-3.978c-0.332,0-0.6-0.269-0.6-0.6v-3.237c0-0.332,0.269-0.6,0.6-0.6h9.789
							c0.332,0,0.6,0.269,0.6,0.6s-0.269,0.6-0.6,0.6h-9.189v2.037h3.377c0.332,0,0.6,0.269,0.6,0.6S164.156,28.381,163.824,28.381z
							"/>
					</g>
				</g>
			</g>
		</g>
		<g>
			<g>
				<g>
					<g>
						<path fill="#FFFFFF" d="M160.33,43.465c-0.268,0-0.511-0.18-0.581-0.451c-0.083-0.321,0.111-0.648,0.432-0.73l9.236-2.369
							l-0.293-1.854l-1.943,0.529c-0.181,0.05-0.373,0.011-0.522-0.103c-0.148-0.113-0.236-0.29-0.236-0.477V15.822h-1.998v6.938
							c0,0.332-0.269,0.6-0.6,0.6s-0.6-0.269-0.6-0.6v-7.539c0-0.332,0.269-0.6,0.6-0.6h3.198c0.332,0,0.6,0.269,0.6,0.6v22.003
							l1.832-0.499c0.167-0.045,0.34-0.018,0.483,0.075c0.144,0.093,0.24,0.242,0.267,0.41l0.483,3.054
							c0.048,0.306-0.144,0.598-0.444,0.675l-9.765,2.504C160.429,43.459,160.379,43.465,160.33,43.465z"/>
					</g>
				</g>
			</g>
		</g>
		<g>
			<g>
				<g>
					<g>
						<path fill="#FFFFFF" d="M169.676,50.808c-0.09,0-0.182-0.021-0.268-0.063l-2.661-1.33c-0.151-0.076-0.264-0.211-0.31-0.375
							c-0.046-0.163-0.021-0.338,0.069-0.481c5.683-9.058,5.535-14.247,5.312-22.102c-0.047-1.644-0.095-3.343-0.095-5.228
							c0-0.332,0.269-0.6,0.6-0.6s0.6,0.269,0.6,0.6c0,1.868,0.048,3.559,0.095,5.193c0.217,7.627,0.375,13.181-5.146,22.212
							l1.582,0.791c5.372-8.79,5.366-13.86,5.355-23.792l-0.001-1.363c0-0.332,0.269-0.6,0.6-0.6h8.359l-0.145-8.438
							c-0.002-0.161,0.06-0.316,0.172-0.431s0.267-0.18,0.428-0.18h3.197c0.332,0,0.6,0.269,0.6,0.6c0,3.23,0,11.505,0.952,18.818
							c0.448-1.021,0.851-2.114,1.192-3.281c0.093-0.319,0.428-0.501,0.744-0.407c0.318,0.093,0.5,0.426,0.407,0.744
							c-0.549,1.88-1.246,3.574-2.03,5.092c0.24,1.476,0.527,2.884,0.868,4.169c0.622,2.346,1.477,3.745,2.408,3.939
							c1.019,0.206,2.032-1.021,2.042-1.033c0.126-0.159,0.325-0.239,0.525-0.225c0.202,0.019,0.381,0.138,0.476,0.317l1.875,3.542
							c0.128,0.243,0.076,0.542-0.128,0.727c-0.116,0.104-2.877,2.55-5.828,1.777c-1.793-0.472-3.215-2.009-4.233-4.573
							c-1.507,1.386-5.157,4.65-6.921,5.423c-0.222,0.096-0.482,0.052-0.656-0.117c-1.88-1.806-2.45-2.73-2.474-2.769
							c-0.089-0.146-0.11-0.325-0.06-0.489s0.169-0.298,0.326-0.369c0.077-0.035,6.454-3,10.525-10.535
							c-1.028-6.523-1.198-14.272-1.208-20.148h-1.987l0.145,8.438c0.002,0.161-0.06,0.316-0.172,0.431s-0.267,0.18-0.428,0.18
							h-8.369v0.762c0.011,10.008,0.017,15.521-5.824,24.892C170.072,50.706,169.877,50.808,169.676,50.808z M178.659,47.266
							c0.303,0.373,0.804,0.942,1.582,1.707c2.208-1.22,6.841-5.591,6.89-5.638c0.148-0.14,0.359-0.196,0.558-0.146
							s0.358,0.198,0.423,0.392c0.894,2.675,2.143,4.242,3.711,4.657c1.786,0.473,3.608-0.662,4.363-1.22l-1.263-2.386
							c-0.586,0.493-1.533,1.065-2.606,0.839c-1.458-0.304-2.545-1.876-3.323-4.806c-0.237-0.895-0.449-1.839-0.638-2.82
							C184.909,43.513,180.355,46.352,178.659,47.266z"/>
					</g>
				</g>
			</g>
		</g>
		<g>
			<g>
				<g>
					<g>
						<path fill="#FFFFFF" d="M177.242,44.371c-0.146,0-0.289-0.054-0.399-0.152c-0.127-0.113-0.201-0.276-0.201-0.446
							c0-0.015-0.012-1.502-0.63-2.987c-0.077-0.185-0.057-0.396,0.055-0.563s0.298-0.267,0.499-0.267
							c0.815,0,1.405-0.194,1.803-0.593c1.021-1.024,1.014-3.588,1.004-6.834v-0.416h-6.883c-0.332,0-0.6-0.269-0.6-0.6
							s0.269-0.6,0.6-0.6h7.482c0.332,0,0.6,0.269,0.6,0.6l0.002,1.013c0.01,3.662,0.018,6.308-1.355,7.685
							c-0.472,0.473-1.072,0.765-1.821,0.884c0.244,0.785,0.354,1.507,0.404,2.003c4.511-0.619,4.522-2.081,4.587-10.916
							c0.006-0.884,0.013-1.836,0.026-2.863c0.004-0.329,0.272-0.593,0.6-0.593c0.002,0,0.005,0,0.007,0
							c0.332,0.004,0.597,0.276,0.593,0.607c-0.013,1.025-0.02,1.975-0.026,2.857c-0.066,9.045-0.084,11.476-6.278,12.178
							C177.286,44.37,177.264,44.371,177.242,44.371z"/>
					</g>
				</g>
			</g>
		</g>
		<g>
			<g>
				<g>
					<g>
						<path fill="#FFFFFF" d="M191.281,38.694c-0.097,0-0.195-0.023-0.286-0.073c-0.291-0.158-0.399-0.523-0.241-0.814
							c1.577-2.901,2.555-6.792,2.911-8.374H177.75c-0.332,0-0.6-0.269-0.6-0.6s0.269-0.6,0.6-0.6h16.656
							c0.179,0,0.349,0.08,0.462,0.218c0.114,0.138,0.161,0.32,0.127,0.496c-0.043,0.225-1.083,5.563-3.187,9.434
							C191.7,38.581,191.494,38.694,191.281,38.694z"/>
					</g>
				</g>
			</g>
		</g>
		<g>
			<g>
				<g>
					<g>
						<path fill="#FFFFFF" d="M195.011,24.749h-5.104c-0.332,0-0.6-0.269-0.6-0.6s0.269-0.6,0.6-0.6h4.504v-1.72h-19.525
							c-0.332,0-0.6-0.269-0.6-0.6s0.269-0.6,0.6-0.6h20.125c0.332,0,0.6,0.269,0.6,0.6v2.92
							C195.611,24.48,195.342,24.749,195.011,24.749z"/>
					</g>
				</g>
			</g>
		</g>
		<g>
			<g>
				<g>
					<g>
						<path fill="#FFFFFF" d="M191.823,19.656c-1.388,0-2.517-1.129-2.517-2.517s1.129-2.517,2.517-2.517s2.517,1.129,2.517,2.517
							S193.211,19.656,191.823,19.656z M191.823,15.822c-0.726,0-1.316,0.591-1.316,1.317s0.59,1.316,1.316,1.316
							s1.317-0.59,1.317-1.316S192.549,15.822,191.823,15.822z"/>
					</g>
				</g>
			</g>
		</g>
	</g>
	<g>
		<g>
			<g>
				<g>
					<g>
						<path fill="#FFFFFF" d="M320.278,50.769c-0.236,0-0.461-0.141-0.556-0.374l-0.931-2.287c-0.064-0.159-0.058-0.339,0.019-0.493
							c0.076-0.154,0.216-0.268,0.382-0.313c1.26-0.339,3.124-1.211,3.124-2.01V38l-3.027,1.547
							c-0.164,0.083-0.354,0.086-0.521,0.012c-0.166-0.075-0.289-0.223-0.334-0.399l-0.82-3.252
							c-0.069-0.277,0.065-0.565,0.324-0.688l4.721-2.25c0.187-0.089,0.403-0.076,0.578,0.034c0.174,0.11,0.279,0.301,0.279,0.507
							v2.529l7.288-3.724l-0.878-1.72l-3.397,1.626c-0.187,0.089-0.405,0.076-0.578-0.033c-0.175-0.11-0.28-0.302-0.28-0.508V15.427
							c0-0.332,0.269-0.6,0.6-0.6s0.6,0.269,0.6,0.6v15.301l3.066-1.467c0.291-0.142,0.645-0.022,0.793,0.269l1.416,2.776
							c0.15,0.295,0.034,0.656-0.261,0.807l-8.368,4.275v7.905c0,1.607-2.171,2.566-3.365,2.971l0.684,1.679
							c0.125,0.307-0.022,0.657-0.329,0.782C320.43,50.755,320.353,50.769,320.278,50.769z M318.897,36.091l0.516,2.045l2.903-1.483
							v-2.192L318.897,36.091z"/>
					</g>
				</g>
			</g>
		</g>
		<g>
			<g>
				<g>
					<g>
						<path fill="#FFFFFF" d="M330.715,24.559h-7.8c-0.331,0-0.6-0.269-0.6-0.6s0.269-0.6,0.6-0.6h7.2V21.36h-12.192
							c-0.331,0-0.6-0.269-0.6-0.6s0.269-0.6,0.6-0.6h12.792c0.331,0,0.6,0.269,0.6,0.6v3.198
							C331.315,24.29,331.046,24.559,330.715,24.559z"/>
					</g>
				</g>
			</g>
		</g>
		<g>
			<g>
				<g>
					<g>
						<path fill="#FFFFFF" d="M322.916,32.111c-0.331,0-0.6-0.269-0.6-0.6V15.052c0-0.332,0.269-0.6,0.6-0.6s0.6,0.269,0.6,0.6
							V31.51C323.515,31.842,323.247,32.111,322.916,32.111z"/>
					</g>
				</g>
			</g>
		</g>
		<g>
			<g>
				<g>
					<g>
						<path fill="#FFFFFF" d="M326.269,45.652c-0.088,0-0.177-0.02-0.259-0.059c-0.209-0.1-0.341-0.31-0.341-0.541V37.49
							c0-0.332,0.269-0.6,0.6-0.6s0.6,0.269,0.6,0.6v6.309l8.408-6.776c0.257-0.208,0.635-0.168,0.844,0.091
							c0.208,0.258,0.168,0.636-0.09,0.844l-9.385,7.563C326.537,45.607,326.404,45.652,326.269,45.652z"/>
					</g>
				</g>
			</g>
		</g>
		<g>
			<g>
				<g>
					<g>
						<path fill="#FFFFFF" d="M332.237,51.08c-0.143,0-0.285-0.051-0.398-0.151l-2.77-2.457c-0.131-0.117-0.205-0.285-0.201-0.46
							c0.003-0.175,0.083-0.34,0.219-0.452c0.044-0.036,4.426-3.669,5.227-7.157c0.075-0.324,0.395-0.522,0.72-0.451
							c0.322,0.074,0.524,0.396,0.45,0.719c-0.723,3.148-3.842,6.218-5.106,7.357l1.888,1.674
							c5.859-4.639,6.549-11.486,6.549-16.274V15.55h-2.19l0.074,17.884c0.001,0.187-0.085,0.363-0.232,0.477l-6.791,5.246
							c-0.262,0.201-0.639,0.156-0.842-0.108c-0.203-0.262-0.154-0.639,0.107-0.841l6.557-5.065l-0.075-18.19
							c-0.001-0.16,0.062-0.313,0.175-0.426c0.112-0.113,0.266-0.177,0.425-0.177h3.393c0.331,0,0.6,0.269,0.6,0.6v18.478
							c0,5.15-0.769,12.571-7.416,17.533C332.489,51.041,332.363,51.08,332.237,51.08z"/>
					</g>
				</g>
			</g>
		</g>
		<g>
			<g>
				<g>
					<g>
						<path fill="#FFFFFF" d="M351.113,41.914c-0.151,0-0.302-0.057-0.417-0.168c-6.346-6.132-19.294-14.97-19.424-15.059
							c-0.273-0.187-0.345-0.56-0.158-0.834c0.187-0.273,0.558-0.345,0.834-0.158c0.128,0.087,12.663,8.644,19.201,14.824
							c1.489-1.213,1.673-1.723,1.68-1.745c0.018-0.332,0.302-0.531,0.623-0.523c0.331,0.017,0.579,0.345,0.563,0.676
							c-0.018,0.348-0.37,1.182-2.533,2.862C351.372,41.872,351.243,41.914,351.113,41.914z"/>
					</g>
				</g>
			</g>
		</g>
		<g>
			<g>
				<g>
					<g>
						<path fill="#FFFFFF" d="M354.985,50.528h-8.738c-1.879,0-4.118-0.907-4.118-5.226V15.427c0-0.332,0.269-0.6,0.6-0.6
							s0.6,0.269,0.6,0.6v29.875c0,3.568,1.561,4.026,2.919,4.026h8.738c0.331,0,0.6,0.269,0.6,0.6S355.316,50.528,354.985,50.528z"
							/>
					</g>
				</g>
			</g>
		</g>
		<g>
			<g>
				<g>
					<g>
						<path fill="#FFFFFF" d="M350.961,37.012c-0.149,0-0.299-0.056-0.415-0.167c-0.85-0.814-3.904-3.28-4.667-3.893
							c-0.231-0.083-0.397-0.305-0.397-0.565v-2.709c0-0.206,0.104-0.396,0.278-0.507l6.543-4.147l-1.305-1.36l-4.575,3.174
							c-0.185,0.126-0.423,0.14-0.62,0.039c-0.197-0.104-0.321-0.309-0.321-0.532V15.427c0-0.332,0.269-0.6,0.6-0.6
							s0.6,0.269,0.6,0.6v9.771l4.054-2.813c0.241-0.167,0.57-0.135,0.774,0.078l2.167,2.258c0.125,0.13,0.185,0.309,0.163,0.488
							s-0.122,0.338-0.274,0.435l-6.884,4.364v2.049c0.852,0.685,3.817,3.081,4.695,3.922c0.239,0.229,0.247,0.609,0.019,0.848
							C351.277,36.95,351.12,37.012,350.961,37.012z"/>
					</g>
				</g>
			</g>
		</g>
		<g>
			<g>
				<g>
					<g>
						<path fill="#FFFFFF" d="M348.027,47.359c-1.546,0-2.545-1.118-2.545-2.849v-4.167c0-0.332,0.269-0.6,0.6-0.6
							s0.6,0.269,0.6,0.6v4.167c0,0.616,0.175,1.648,1.346,1.648c0.966,0,1.406,0,2.381-2.338c0.063-0.15,0.184-0.269,0.335-0.328
							s0.32-0.054,0.47,0.014c0.788,0.362,2.399,0.978,2.416,0.984c0.31,0.118,0.465,0.465,0.347,0.774
							c-0.118,0.31-0.466,0.464-0.774,0.347c-0.055-0.021-1.094-0.418-1.929-0.77C350.379,46.802,349.617,47.359,348.027,47.359z"/>
					</g>
				</g>
			</g>
		</g>
	</g>
	<g>
		<g>
			<g>
				<g>
					<g>
						<path fill="#FFFFFF" d="M407.589,25.456h-9.282c-0.331,0-0.6-0.269-0.6-0.6v-8.658c0-0.332,0.269-0.6,0.6-0.6h9.282
							c0.331,0,0.6,0.269,0.6,0.6c0,0.331-0.269,0.6-0.6,0.6h-8.683v7.458h8.083v-5.599c0-0.332,0.269-0.6,0.6-0.6
							s0.6,0.269,0.6,0.6v6.199C408.189,25.187,407.92,25.456,407.589,25.456z"/>
					</g>
				</g>
			</g>
		</g>
		<g>
			<g>
				<g>
					<g>
						<path fill="#FFFFFF" d="M417.496,27.133H399.36c-0.331,0-0.6-0.269-0.6-0.6s0.269-0.6,0.6-0.6h18.136
							c0.331,0,0.6,0.269,0.6,0.6S417.827,27.133,417.496,27.133z"/>
					</g>
				</g>
			</g>
		</g>
		<g>
			<g>
				<g>
					<g>
						<path fill="#FFFFFF" d="M404.316,45.425h-6.633c-0.331,0-0.6-0.269-0.6-0.6v-2.772c0-0.332,0.269-0.6,0.6-0.6h20.943
							c0.331,0,0.6,0.269,0.6,0.6s-0.269,0.6-0.6,0.6h-20.344v1.572h6.033c0.331,0,0.6,0.269,0.6,0.6S404.647,45.425,404.316,45.425
							z"/>
					</g>
				</g>
			</g>
		</g>
		<g>
			<g>
				<g>
					<g>
						<path fill="#FFFFFF" d="M404.316,40.09h-4.956c-0.331,0-0.6-0.269-0.6-0.6V29.262c0-0.332,0.269-0.6,0.6-0.6h7.332
							c0.331,0,0.6,0.269,0.6,0.6v2.77c0,0.332-0.269,0.6-0.6,0.6h-4.134c-0.331,0-0.6-0.269-0.6-0.6c0-0.332,0.269-0.6,0.6-0.6
							h3.534v-1.57h-6.133v9.028h4.356c0.331,0,0.6,0.269,0.6,0.6S404.647,40.09,404.316,40.09z"/>
					</g>
				</g>
			</g>
		</g>
		<g>
			<g>
				<g>
					<g>
						<path fill="#FFFFFF" d="M406.692,37.642h-4.134c-0.331,0-0.6-0.269-0.6-0.6v-2.729c0-0.332,0.269-0.6,0.6-0.6h4.134
							c0.331,0,0.6,0.269,0.6,0.6v2.729C407.292,37.374,407.023,37.642,406.692,37.642z M403.158,36.442h2.935v-1.529h-2.935V36.442
							z"/>
					</g>
				</g>
			</g>
		</g>
		<g>
			<g>
				<g>
					<g>
						<path fill="#FFFFFF" d="M406.692,51.353c-0.331,0-0.6-0.269-0.6-0.6v-10.96c0-0.332,0.269-0.6,0.6-0.6h10.204v-9.932
							c0-0.264,0.173-0.498,0.425-0.574l14.508-4.406c0.159-0.047,0.329-0.029,0.472,0.053c0.144,0.082,0.247,0.219,0.286,0.379
							l0.742,3.042c0.078,0.322-0.119,0.646-0.44,0.725c-0.323,0.082-0.646-0.119-0.726-0.441l-0.592-2.426l-13.476,4.092v10.087
							c0,0.332-0.269,0.6-0.6,0.6h-10.204v10.359C407.292,51.084,407.023,51.353,406.692,51.353z"/>
					</g>
				</g>
			</g>
		</g>
		<g>
			<g>
				<g>
					<g>
						<path fill="#FFFFFF" d="M429.739,51.112c-0.253,0-0.497-0.021-0.728-0.07c-4.908-1.444-7.283-12.405-7.639-18.978
							c-0.293-5.423-0.278-10.689-0.268-14.921l0.005-2.323c0-0.332,0.269-0.6,0.6-0.6h3.194c0.331,0,0.6,0.269,0.6,0.6
							s-0.269,0.6-0.6,0.6h-2.596l-0.003,1.727c-0.011,4.216-0.025,9.464,0.267,14.853c0.419,7.769,3.112,16.813,6.731,17.879
							c1.173,0.245,3.233-0.617,4.332-1.173l-0.916-2.497c-2.726,1.234-3.275,0.922-3.468,0.814
							c-0.696-0.393-1.748-1.77-2.611-4.454c-0.052-0.161-0.033-0.337,0.052-0.484c0.033-0.058,3.197-5.55,4.33-8.665
							c-1.376-0.567-2.232-0.809-2.242-0.811c-0.319-0.089-0.506-0.42-0.417-0.739c0.089-0.319,0.41-0.508,0.739-0.417
							c0.046,0.013,1.152,0.323,2.906,1.081c0.281,0.122,0.426,0.437,0.334,0.73c-0.876,2.799-3.805,8.008-4.478,9.188
							c0.82,2.433,1.7,3.37,1.978,3.526c0.002,0,0.003,0,0.005,0c0.252,0,1.637-0.5,2.95-1.131c0.152-0.073,0.328-0.079,0.485-0.015
							s0.279,0.19,0.338,0.35l1.321,3.601c0.101,0.275-0.013,0.584-0.268,0.729C434.356,49.692,431.785,51.111,429.739,51.112z"/>
					</g>
				</g>
			</g>
		</g>
		<g>
			<g>
				<g>
					<g>
						<path fill="#FFFFFF" d="M416.614,47.671c-0.237,0-0.463-0.142-0.557-0.376c-0.124-0.308,0.025-0.657,0.333-0.78
							c5.515-2.216,8.493-7.677,9.018-8.712c-1.02-5.045-1.104-11.047-1.104-17.792c0-0.332,0.269-0.6,0.6-0.6s0.6,0.269,0.6,0.6
							c0,6.768,0.085,12.774,1.121,17.749c0.025,0.126,0.011,0.256-0.043,0.373c-0.128,0.279-3.217,6.872-9.744,9.495
							C416.764,47.658,416.688,47.671,416.614,47.671z"/>
					</g>
				</g>
			</g>
		</g>
		<g>
			<g>
				<g>
					<g>
						<path fill="#FFFFFF" d="M429.983,23.069c-1.687,0-3.059-1.372-3.059-3.059s1.372-3.059,3.059-3.059s3.058,1.372,3.058,3.059
							S431.669,23.069,429.983,23.069z M429.983,18.152c-1.025,0-1.859,0.833-1.859,1.858s0.834,1.858,1.859,1.858
							c1.024,0,1.858-0.833,1.858-1.858S431.007,18.152,429.983,18.152z"/>
					</g>
				</g>
			</g>
		</g>
		<g>
			<g>
				<g>
					<g>
						<path fill="#FFFFFF" d="M414.311,37.642h-4.265c-0.331,0-0.6-0.269-0.6-0.6v-2.729c0-0.332,0.269-0.6,0.6-0.6h3.665v-1.081
							h-3.665c-0.331,0-0.6-0.269-0.6-0.6v-2.77c0-0.332,0.269-0.6,0.6-0.6h4.265c0.331,0,0.6,0.269,0.6,0.6s-0.269,0.6-0.6,0.6
							h-3.665v1.57h3.665c0.331,0,0.6,0.269,0.6,0.6v2.281c0,0.332-0.269,0.6-0.6,0.6h-3.665v1.529h3.665c0.331,0,0.6,0.269,0.6,0.6
							S414.642,37.642,414.311,37.642z"/>
					</g>
				</g>
			</g>
		</g>
		<g>
			<g>
				<g>
					<g>
						<path fill="#FFFFFF" d="M410.046,51.353c-0.331,0-0.6-0.269-0.6-0.6v-5.928c0-0.332,0.269-0.6,0.6-0.6h5.691
							c0.271,0,0.51,0.183,0.58,0.445c1.077,4.03,2.839,5.251,2.856,5.263c0.272,0.184,0.35,0.555,0.169,0.83
							s-0.547,0.354-0.824,0.176c-0.084-0.054-2.013-1.337-3.236-5.513h-4.637v5.328C410.646,51.084,410.377,51.353,410.046,51.353z
							"/>
					</g>
				</g>
			</g>
		</g>
		<g>
			<g>
				<g>
					<g>
						
							<path fill="#FFFFFF" stroke="#FFFFFF" stroke-width="1.2" stroke-linecap="round" stroke-linejoin="round" stroke-miterlimit="10" d="
							M402.558,29.434"/>
					</g>
				</g>
			</g>
		</g>
		<g>
			<g>
				<g>
					<g>
						<path fill="#FFFFFF" d="M418.626,25.456h-8.264c-0.331,0-0.6-0.269-0.6-0.6s0.269-0.6,0.6-0.6h7.664v-7.458h-7.664
							c-0.331,0-0.6-0.269-0.6-0.6s0.269-0.6,0.6-0.6h8.264c0.331,0,0.6,0.269,0.6,0.6v8.658
							C419.226,25.187,418.958,25.456,418.626,25.456z"/>
					</g>
				</g>
			</g>
		</g>
		<g>
			<g>
				<g>
					<g>
						<path fill="#FFFFFF" d="M415.779,22.95h-2.708c-0.331,0-0.6-0.269-0.6-0.6s0.269-0.6,0.6-0.6h2.108v-2.493h-4.217v3.093
							c0,0.332-0.269,0.6-0.6,0.6h-8.959c-0.331,0-0.6-0.269-0.6-0.6v-3.693c0-0.332,0.269-0.6,0.6-0.6h2.912
							c0.331,0,0.6,0.269,0.6,0.6s-0.269,0.6-0.6,0.6h-2.313v2.493h7.76v-3.093c0-0.332,0.269-0.6,0.6-0.6h5.416
							c0.331,0,0.6,0.269,0.6,0.6v3.693C416.378,22.682,416.11,22.95,415.779,22.95z"/>
					</g>
				</g>
			</g>
		</g>
	</g>
	<g>
		<g>
			<g>
				<g>
					<g>
						<path fill="#FFFFFF" d="M508.253,27.18c-0.331,0-0.6-0.269-0.6-0.6v-1.135h-3.5c-0.331,0-0.6-0.269-0.6-0.6v-1.51
							c0-0.332,0.269-0.6,0.6-0.6h6.497v-5.196h-32.414v5.796c0,0.332-0.269,0.6-0.6,0.6s-0.6-0.269-0.6-0.6v-6.396
							c0-0.332,0.269-0.6,0.6-0.6h33.613c0.331,0,0.6,0.269,0.6,0.6v6.396c0,0.332-0.269,0.6-0.6,0.6h-6.497v0.31h3.5
							c0.331,0,0.6,0.269,0.6,0.6v1.735C508.853,26.911,508.585,27.18,508.253,27.18z"/>
					</g>
				</g>
			</g>
		</g>
		<g>
			<g>
				<g>
					<g>
						<path fill="#FFFFFF" d="M479.063,52.527c-0.21,0-0.412-0.111-0.521-0.303c-0.022-0.041-0.577-1.018-1.449-2.917
							c-0.07-0.153-0.073-0.328-0.008-0.483c0.065-0.155,0.192-0.275,0.351-0.332c1.22-0.436,3.054-1.115,4.628-1.702h-0.331
							c-0.331,0-0.6-0.269-0.6-0.6v-8.726l-2.013,1.156c-0.215,0.125-0.486,0.103-0.679-0.056c-0.043-0.035-1.055-0.875-1.915-2.594
							c-0.144-0.288-0.035-0.638,0.246-0.793c1.732-0.958,6.998-4.035,7.051-4.066c0.286-0.167,0.654-0.07,0.82,0.215
							c0.168,0.286,0.071,0.653-0.215,0.821c-0.049,0.028-4.469,2.611-6.557,3.79c0.393,0.675,0.786,1.146,1.042,1.418l2.52-1.448
							c0.186-0.106,0.414-0.107,0.6,0s0.299,0.305,0.299,0.52v9.163h3.044c0.29,0,0.538,0.208,0.59,0.493
							c0.053,0.285-0.107,0.566-0.378,0.669c-0.048,0.018-4.46,1.68-7.129,2.647c0.385,0.817,0.69,1.416,0.886,1.787
							c1.485-0.545,6.018-2.221,8.656-3.313c0.304-0.128,0.657,0.018,0.784,0.325c0.126,0.306-0.019,0.657-0.325,0.784
							c-3.196,1.323-9.132,3.488-9.191,3.51C479.201,52.516,479.131,52.527,479.063,52.527z"/>
					</g>
				</g>
			</g>
		</g>
		<g>
			<g>
				<g>
					<g>
						<path fill="#FFFFFF" d="M502.001,44.371h-17.016c-0.331,0-0.6-0.269-0.6-0.6v-8.853c0-0.332,0.269-0.6,0.6-0.6
							s0.6,0.269,0.6,0.6v8.252h16.416c0.331,0,0.6,0.269,0.6,0.6S502.332,44.371,502.001,44.371z"/>
					</g>
				</g>
			</g>
		</g>
		<g>
			<g>
				<g>
					<g>
						<path fill="#FFFFFF" d="M502.001,37.305h-17.016c-0.331,0-0.6-0.269-0.6-0.6s0.269-0.6,0.6-0.6h17.016
							c0.331,0,0.6,0.269,0.6,0.6S502.332,37.305,502.001,37.305z"/>
					</g>
				</g>
			</g>
		</g>
		<g>
			<g>
				<g>
					<g>
						<path fill="#FFFFFF" d="M502.001,40.965h-17.016c-0.331,0-0.6-0.269-0.6-0.6s0.269-0.6,0.6-0.6h17.016
							c0.331,0,0.6,0.269,0.6,0.6S502.332,40.965,502.001,40.965z"/>
					</g>
				</g>
			</g>
		</g>
		<g>
			<g>
				<g>
					<g>
						<path fill="#FFFFFF" d="M504.154,44.371c-0.331,0-0.6-0.269-0.6-0.6v-8.252h-15.929c-0.331,0-0.6-0.269-0.6-0.6
							s0.269-0.6,0.6-0.6h16.528c0.331,0,0.6,0.269,0.6,0.6v8.853C504.753,44.103,504.485,44.371,504.154,44.371z"/>
					</g>
				</g>
			</g>
		</g>
		<g>
			<g>
				<g>
					<g>
						<path fill="#FFFFFF" d="M504.154,42.617h-16.528c-0.331,0-0.6-0.269-0.6-0.6s0.269-0.6,0.6-0.6h16.528
							c0.331,0,0.6,0.269,0.6,0.6S504.485,42.617,504.154,42.617z"/>
					</g>
				</g>
			</g>
		</g>
		<g>
			<g>
				<g>
					<g>
						<path fill="#FFFFFF" d="M504.154,39.185h-16.528c-0.331,0-0.6-0.269-0.6-0.6s0.269-0.6,0.6-0.6h16.528
							c0.331,0,0.6,0.269,0.6,0.6S504.485,39.185,504.154,39.185z"/>
					</g>
				</g>
			</g>
		</g>
		<g>
			<g>
				<g>
					<g>
						<path fill="#FFFFFF" d="M506.813,46.59c-0.331,0-0.6-0.269-0.6-0.6V35.6c0-0.215,0.115-0.414,0.302-0.521
							s0.417-0.105,0.602,0.003l3.789,2.225l1.031-1.412l-3.283-1.831c-0.29-0.161-0.394-0.527-0.232-0.816
							c0.162-0.29,0.525-0.394,0.816-0.232l3.875,2.161c0.15,0.083,0.257,0.228,0.294,0.396c0.037,0.167,0,0.343-0.102,0.482
							l-1.75,2.398c-0.182,0.25-0.523,0.319-0.788,0.164l-3.354-1.97v9.342C507.413,46.321,507.144,46.59,506.813,46.59z"/>
					</g>
				</g>
			</g>
		</g>
		<g>
			<g>
				<g>
					<g>
						<path fill="#FFFFFF" d="M500.938,33.101h-13.303c-0.253,0-0.479-0.159-0.564-0.398c-0.086-0.238-0.012-0.505,0.184-0.666
							l1.853-1.521c0.107-0.088,0.242-0.136,0.381-0.136h20.983v-1.413h-32.391v1.413h3.139c0.331,0,0.6,0.269,0.6,0.6
							s-0.269,0.6-0.6,0.6h-3.738c-0.331,0-0.6-0.269-0.6-0.6v-2.613c0-0.332,0.269-0.6,0.6-0.6h33.59c0.331,0,0.6,0.269,0.6,0.6
							v2.613c0,0.332-0.269,0.6-0.6,0.6h-21.368l-0.392,0.321h11.627c0.331,0,0.6,0.269,0.6,0.6S501.269,33.101,500.938,33.101z"/>
					</g>
				</g>
			</g>
		</g>
		<g>
			<g>
				<g>
					<g>
						<path fill="#FFFFFF" d="M492.855,17.538c-0.331,0-0.6-0.269-0.6-0.6V9.746c0-0.213,0.112-0.41,0.296-0.518
							c0.185-0.107,0.412-0.11,0.597-0.006l5.333,2.984c0.188,0.105,0.305,0.303,0.307,0.518c0.002,0.215-0.111,0.415-0.297,0.524
							l-3.375,1.974c-0.285,0.168-0.653,0.07-0.82-0.215c-0.168-0.286-0.071-0.653,0.215-0.821l2.47-1.444l-3.525-1.973v6.168
							C493.455,17.27,493.186,17.538,492.855,17.538z"/>
					</g>
				</g>
			</g>
		</g>
		<g>
			<g>
				<g>
					<g>
						<path fill="#FFFFFF" d="M508.821,52.527c-0.099,0-0.198-0.024-0.289-0.075l-10.417-5.737c-0.291-0.16-0.396-0.524-0.236-0.815
							c0.159-0.29,0.523-0.397,0.814-0.236l10.004,5.509l1.723-1.887c0.226-0.245,0.604-0.261,0.848-0.038
							c0.245,0.223,0.262,0.603,0.039,0.848l-2.042,2.236C509.147,52.46,508.985,52.527,508.821,52.527z"/>
					</g>
				</g>
			</g>
		</g>
		<g>
			<g>
				<g>
					<g>
						<path fill="#FFFFFF" d="M498.502,25.444h-8.229c-0.331,0-0.6-0.269-0.6-0.6v-1.51c0-0.332,0.269-0.6,0.6-0.6h8.229
							c0.331,0,0.6,0.269,0.6,0.6v1.51C499.102,25.176,498.834,25.444,498.502,25.444z M490.874,24.244h7.029v-0.31h-7.029V24.244z"
							/>
					</g>
				</g>
			</g>
		</g>
		<g>
			<g>
				<g>
					<g>
						<path fill="#FFFFFF" d="M484.985,25.444h-3.993c-0.331,0-0.6-0.269-0.6-0.6s0.269-0.6,0.6-0.6h3.394v-0.31h-3.394
							c-0.331,0-0.6-0.269-0.6-0.6s0.269-0.6,0.6-0.6h3.993c0.331,0,0.6,0.269,0.6,0.6v1.51
							C485.585,25.176,485.316,25.444,484.985,25.444z"/>
					</g>
				</g>
			</g>
		</g>
		<g>
			<g>
				<g>
					<g>
						<path fill="#FFFFFF" d="M498.502,23.935c-0.331,0-0.6-0.269-0.6-0.6v-3.183h-7.629c-0.331,0-0.6-0.269-0.6-0.6
							s0.269-0.6,0.6-0.6h8.229c0.331,0,0.6,0.269,0.6,0.6v3.783C499.102,23.666,498.834,23.935,498.502,23.935z"/>
					</g>
				</g>
			</g>
		</g>
		<g>
			<g>
				<g>
					<g>
						<path fill="#FFFFFF" d="M498.502,21.715h-10.994c-0.331,0-0.6-0.269-0.6-0.6s0.269-0.6,0.6-0.6h10.994
							c0.331,0,0.6,0.269,0.6,0.6S498.834,21.715,498.502,21.715z"/>
					</g>
				</g>
			</g>
		</g>
		<g>
			<g>
				<g>
					<g>
						<path fill="#FFFFFF" d="M501.446,28.7c-0.331,0-0.6-0.269-0.6-0.6v-8.548c0-0.332,0.269-0.6,0.6-0.6h6.808
							c0.331,0,0.6,0.269,0.6,0.6v1.563c0,0.332-0.269,0.6-0.6,0.6h-6.208V28.1C502.045,28.431,501.777,28.7,501.446,28.7z
							 M502.045,20.515h5.608v-0.363h-5.608V20.515z"/>
					</g>
				</g>
			</g>
		</g>
		<g>
			<g>
				<g>
					<g>
						<path fill="#FFFFFF" d="M498.502,28.966c-0.331,0-0.6-0.269-0.6-0.6v-0.765h-16.911c-0.331,0-0.6-0.269-0.6-0.6
							s0.269-0.6,0.6-0.6h17.511c0.331,0,0.6,0.269,0.6,0.6v1.365C499.102,28.697,498.834,28.966,498.502,28.966z"/>
					</g>
				</g>
			</g>
		</g>
		<g>
			<g>
				<g>
					<g>
						<path fill="#FFFFFF" d="M504.154,46.79h-14.103c-0.331,0-0.6-0.269-0.6-0.6s0.269-0.6,0.6-0.6h14.103
							c0.331,0,0.6,0.269,0.6,0.6S504.485,46.79,504.154,46.79z"/>
					</g>
				</g>
			</g>
		</g>
		<g>
			<g>
				<g>
					<g>
						<path fill="#FFFFFF" d="M487.446,28.7c-0.331,0-0.6-0.269-0.6-0.6v-7.948h-5.255v0.363h3.394c0.331,0,0.6,0.269,0.6,0.6
							s-0.269,0.6-0.6,0.6h-3.993c-0.331,0-0.6-0.269-0.6-0.6v-1.563c0-0.332,0.269-0.6,0.6-0.6h6.454c0.331,0,0.6,0.269,0.6,0.6
							V28.1C488.045,28.431,487.777,28.7,487.446,28.7z"/>
					</g>
				</g>
			</g>
		</g>
	</g>
	<g>
		<g>
			<g>
				<g>
					<g>
						<path fill="#FFFFFF" d="M251.654,20.893h-12.633c-0.332,0-0.6-0.269-0.6-0.6s0.269-0.6,0.6-0.6h12.633
							c0.332,0,0.6,0.269,0.6,0.6S251.986,20.893,251.654,20.893z"/>
					</g>
				</g>
			</g>
		</g>
		<g>
			<g>
				<g>
					<g>
						<path fill="#FFFFFF" d="M246.042,48.623h-3.667c-0.332,0-0.6-0.269-0.6-0.6V28.678c0-0.332,0.269-0.6,0.6-0.6
							s0.6,0.269,0.6,0.6v18.745h2.467V32.032c0-0.332,0.269-0.6,0.6-0.6s0.6,0.269,0.6,0.6v15.991
							C246.642,48.354,246.373,48.623,246.042,48.623z"/>
					</g>
				</g>
			</g>
		</g>
		<g>
			<g>
				<g>
					<g>
						<path fill="#FFFFFF" d="M258.21,50.768h-3.451c-0.332,0-0.6-0.269-0.6-0.6V23.647c0-0.332,0.269-0.6,0.6-0.6
							s0.6,0.269,0.6,0.6v25.92h2.251V34.716c0-0.332,0.269-0.6,0.6-0.6s0.6,0.269,0.6,0.6v15.451
							C258.81,50.499,258.541,50.768,258.21,50.768z"/>
					</g>
				</g>
			</g>
		</g>
		<g>
			<g>
				<g>
					<g>
						<path fill="#FFFFFF" d="M258.512,29.027h-16.138c-0.332,0-0.6-0.269-0.6-0.6s0.269-0.6,0.6-0.6h15.538v-1.483
							c0-0.332,0.269-0.6,0.6-0.6s0.6,0.269,0.6,0.6v2.083C259.112,28.759,258.844,29.027,258.512,29.027z"/>
					</g>
				</g>
			</g>
		</g>
		<g>
			<g>
				<g>
					<g>
						<path fill="#FFFFFF" d="M262.196,48.34c-0.147,0-0.29-0.054-0.4-0.153c-0.121-0.109-0.193-0.262-0.199-0.425l-0.129-3.433
							c-0.012-0.313,0.219-0.582,0.53-0.619c4.778-0.557,4.778-1.437,4.778-1.909v-9.17h-17.142c-0.332,0-0.6-0.269-0.6-0.6
							c0-0.332,0.269-0.6,0.6-0.6h17.741c0.331,0,0.6,0.269,0.6,0.6v9.771c0,1.91-2.008,2.607-5.288,3.033l0.085,2.25
							c1.914-0.202,5.586-0.813,7.052-2.035l0.09-0.18c0.498-0.987,0.528-1.046,0.528-2.631V28.427c0-0.332,0.269-0.6,0.6-0.6
							s0.6,0.269,0.6,0.6V42.24c0,1.819-0.093,2.056-0.656,3.171l-0.142,0.283c-0.034,0.067-0.079,0.127-0.135,0.177
							c-2.205,1.989-8.214,2.448-8.469,2.467C262.225,48.339,262.21,48.34,262.196,48.34z"/>
					</g>
				</g>
			</g>
		</g>
		<g>
			<g>
				<g>
					<g>
						
							<path fill="#FFFFFF" stroke="#FFFFFF" stroke-width="1.2" stroke-linecap="round" stroke-linejoin="round" stroke-miterlimit="10" d="
							M254.583,20.293"/>
					</g>
				</g>
			</g>
		</g>
		<g>
			<g>
				<g>
					<g>
						<path fill="#FFFFFF" d="M256.484,9.617c-1.709,0-3.1-1.391-3.1-3.1s1.391-3.1,3.1-3.1c1.709,0,3.1,1.391,3.1,3.1
							S258.193,9.617,256.484,9.617z M256.484,4.617c-1.048,0-1.9,0.852-1.9,1.9s0.852,1.9,1.9,1.9c1.048,0,1.9-0.852,1.9-1.9
							S257.532,4.617,256.484,4.617z"/>
					</g>
				</g>
			</g>
		</g>
		<g>
			<g>
				<g>
					<g>
						<path fill="#FFFFFF" d="M273.927,24.247h-34.906c-0.332,0-0.6-0.269-0.6-0.6v-3.354c0-0.332,0.269-0.6,0.6-0.6
							s0.6,0.269,0.6,0.6v2.754h33.707v-2.154h-16.844c-0.198,0-0.382-0.097-0.495-0.26c-0.246-0.358-6.022-8.823-6.022-14.115
							c0-3.593,2.923-6.517,6.517-6.517s6.517,2.924,6.517,6.517c0,3.585-2.622,9.295-3.818,11.349
							c-0.167,0.286-0.535,0.384-0.82,0.217c-0.287-0.167-0.383-0.534-0.217-0.82c1.274-2.189,3.655-7.588,3.655-10.746
							c0-2.932-2.385-5.317-5.317-5.317s-5.316,2.385-5.316,5.317c0,4.435,4.667,11.713,5.637,13.175h17.123
							c0.331,0,0.6,0.269,0.6,0.6v3.354C274.527,23.979,274.258,24.247,273.927,24.247z"/>
					</g>
				</g>
			</g>
		</g>
	</g>
</g>
</svg>
