<?xml version="1.0" encoding="utf-8"?>
<!-- Generator: Adobe Illustrator 17.0.0, SVG Export Plug-In . SVG Version: 6.00 Build 0)  -->
<!DOCTYPE svg PUBLIC "-//W3C//DTD SVG 1.1 Tiny//EN" "http://www.w3.org/Graphics/SVG/1.1/DTD/svg11-tiny.dtd">
<svg version="1.1" baseProfile="tiny" id="Layer_1" xmlns="http://www.w3.org/2000/svg" xmlns:xlink="http://www.w3.org/1999/xlink"
	 x="0px" y="0px" width="200.681px" height="59.729px" viewBox="0 0 200.681 59.729" overflow="scroll" xml:space="preserve">
<path fill="#FFFFFF" d="M102.869,19.053v4.492c0,0.276,0.224,0.5,0.5,0.5s0.5-0.224,0.5-0.5v-4.492c0-0.276-0.224-0.5-0.5-0.5
	S102.869,18.776,102.869,19.053z M131.93,18.488h-0.963c-0.276,0-0.5,0.224-0.5,0.5s0.224,0.5,0.5,0.5h0.963
	c0.276,0,0.5-0.224,0.5-0.5S132.207,18.488,131.93,18.488z M160.759,22.902h13.936c0.202,0,0.385-0.122,0.462-0.309
	c0.078-0.187,0.035-0.402-0.108-0.545l-3.289-3.289c-0.195-0.195-0.512-0.195-0.707,0s-0.195,0.512,0,0.707l2.436,2.435h-11.522
	l1.458-1.458l0.544,0.544c0.195,0.195,0.512,0.195,0.707,0l2.554-2.554l2.086,2.085c0.195,0.195,0.512,0.195,0.707,0
	s0.195-0.512,0-0.707l-2.439-2.439c-0.195-0.195-0.512-0.195-0.707,0l-2.554,2.554l-0.544-0.544c-0.195-0.195-0.512-0.195-0.707,0
	l-2.665,2.665c-0.143,0.143-0.186,0.358-0.108,0.545C160.374,22.781,160.557,22.902,160.759,22.902z M105.185,16.385
	c0.276,0,0.5-0.224,0.5-0.5c0-0.179-0.095-0.337-0.236-0.425l-1.705-1.739c-0.093-0.095-0.221-0.149-0.354-0.15
	c-0.163-0.017-0.262,0.052-0.356,0.146l-1.813,1.813c-0.143,0.143-0.186,0.358-0.108,0.545c0.077,0.187,0.26,0.309,0.462,0.309
	h3.591C105.172,16.384,105.178,16.385,105.185,16.385z M102.78,15.385l0.603-0.603l0.591,0.603H102.78z M194.315,20.517
	c0.068,0.211,0.265,0.346,0.476,0.346c0.051,0,0.103-0.008,0.154-0.024c0.263-0.085,0.406-0.367,0.321-0.63l-0.815-2.513h4.65
	l-0.686,2.537c-0.072,0.267,0.086,0.541,0.353,0.613c0.261,0.07,0.541-0.085,0.613-0.353l0.856-3.167
	c0.041-0.15,0.009-0.311-0.086-0.434c-0.095-0.124-0.241-0.196-0.397-0.196h-5.991c-0.16,0-0.311,0.077-0.404,0.206
	c-0.094,0.129-0.121,0.296-0.071,0.448L194.315,20.517z M94.536,23.284c0.276,0,0.5-0.224,0.5-0.5s-0.224-0.5-0.5-0.5H83.402
	c-0.276,0-0.5,0.224-0.5,0.5v2.426c0,0.276,0.224,0.5,0.5,0.5h8.588v4.634c0,0.276,0.224,0.5,0.5,0.5s0.5-0.224,0.5-0.5v-5.134
	c0-0.276-0.224-0.5-0.5-0.5h-8.588v-1.426H94.536z M131.93,20.114h-0.963c-0.276,0-0.5,0.224-0.5,0.5s0.224,0.5,0.5,0.5h0.963
	c0.276,0,0.5-0.224,0.5-0.5S132.207,20.114,131.93,20.114z M131.93,16.862h-0.963c-0.276,0-0.5,0.224-0.5,0.5s0.224,0.5,0.5,0.5
	h0.963c0.276,0,0.5-0.224,0.5-0.5S132.207,16.862,131.93,16.862z M194.315,15.809c0.068,0.211,0.265,0.346,0.476,0.346
	c0.051,0,0.103-0.008,0.154-0.024c0.263-0.085,0.406-0.367,0.321-0.63l-0.815-2.513h4.65l-0.686,2.537
	c-0.072,0.267,0.086,0.541,0.353,0.613c0.261,0.07,0.541-0.085,0.613-0.353l0.856-3.167c0.041-0.15,0.009-0.311-0.086-0.434
	c-0.095-0.124-0.241-0.196-0.397-0.196h-5.991c-0.16,0-0.311,0.077-0.404,0.206c-0.094,0.129-0.121,0.296-0.071,0.448
	L194.315,15.809z M39.743,23.558h0.463v2.934c0,0.276,0.224,0.5,0.5,0.5s0.5-0.224,0.5-0.5v-3.434c0-0.276-0.224-0.5-0.5-0.5h-0.963
	c-0.276,0-0.5,0.224-0.5,0.5S39.467,23.558,39.743,23.558z M194.315,11.102c0.068,0.211,0.265,0.346,0.476,0.346
	c0.051,0,0.103-0.008,0.154-0.024c0.263-0.085,0.406-0.367,0.321-0.63l-0.815-2.513h4.65l-0.686,2.537
	c-0.072,0.267,0.086,0.541,0.353,0.613c0.261,0.069,0.541-0.085,0.613-0.353l0.856-3.167c0.041-0.15,0.009-0.311-0.086-0.434
	c-0.095-0.124-0.241-0.196-0.397-0.196h-2.595V4.261c0-0.276-0.224-0.5-0.5-0.5s-0.5,0.224-0.5,0.5V7.28h-2.396
	c-0.16,0-0.311,0.077-0.404,0.206c-0.094,0.129-0.121,0.296-0.071,0.448L194.315,11.102z M126.982,12.132h0.963
	c0.276,0,0.5-0.224,0.5-0.5s-0.224-0.5-0.5-0.5h-0.963c-0.276,0-0.5,0.224-0.5,0.5S126.706,12.132,126.982,12.132z M126.982,8.879
	h0.963c0.276,0,0.5-0.224,0.5-0.5s-0.224-0.5-0.5-0.5h-0.963c-0.276,0-0.5,0.224-0.5,0.5S126.706,8.879,126.982,8.879z
	 M126.982,10.506h0.963c0.276,0,0.5-0.224,0.5-0.5s-0.224-0.5-0.5-0.5h-0.963c-0.276,0-0.5,0.224-0.5,0.5
	S126.706,10.506,126.982,10.506z M27.646,26.992h4.008c0.276,0,0.5-0.224,0.5-0.5s-0.224-0.5-0.5-0.5h-1.554V22.05h2.324
	c0.276,0,0.5-0.224,0.5-0.5s-0.224-0.5-0.5-0.5h-2.824c-0.276,0-0.5,0.224-0.5,0.5v4.442h-1.455c-0.276,0-0.5,0.224-0.5,0.5
	S27.37,26.992,27.646,26.992z M123.755,18.488h-0.963c-0.276,0-0.5,0.224-0.5,0.5s0.224,0.5,0.5,0.5h0.963
	c0.276,0,0.5-0.224,0.5-0.5S124.032,18.488,123.755,18.488z M128.758,21.799c0.276,0,0.5-0.224,0.5-0.5v-4.622
	c0-0.276-0.224-0.5-0.5-0.5h-2.589c-0.276,0-0.5,0.224-0.5,0.5v4.622c0,0.276,0.224,0.5,0.5,0.5s0.5-0.224,0.5-0.5v-4.122h1.589
	v4.122C128.258,21.575,128.481,21.799,128.758,21.799z M72.573,25.709h6.547c0.276,0,0.5-0.224,0.5-0.5v-8.825h3.449v2.687
	c0,0.276,0.224,0.5,0.5,0.5h14.153c0.276,0,0.5-0.224,0.5-0.5v-2.979l5.186-5.186l3.676,3.676c0.195,0.195,0.512,0.195,0.707,0
	s0.195-0.512,0-0.707l-4.03-4.03c-0.195-0.195-0.512-0.195-0.707,0l-5.686,5.686c-0.094,0.094-0.146,0.221-0.146,0.354v2.687H84.07
	v-2.687c0-0.276-0.224-0.5-0.5-0.5h-4.449c-0.276,0-0.5,0.224-0.5,0.5v8.825h-6.047c-0.276,0-0.5,0.224-0.5,0.5
	S72.297,25.709,72.573,25.709z M123.755,20.114h-0.963c-0.276,0-0.5,0.224-0.5,0.5s0.224,0.5,0.5,0.5h0.963
	c0.276,0,0.5-0.224,0.5-0.5S124.032,20.114,123.755,20.114z M120.35,21.799c0.276,0,0.5-0.224,0.5-0.5v-7.578l1.139,0.292v0.965
	c0,0.276,0.224,0.5,0.5,0.5h2.439c0.276,0,0.5-0.224,0.5-0.5V5.962c0.421,0.143,1.019,0.264,1.833,0.264
	c0.966,0,1.727-0.169,2.239-0.334v9.086c0,0.276,0.224,0.5,0.5,0.5h2.482c0.276,0,0.5-0.224,0.5-0.5v-0.963l1.184-0.297v1.261
	c0,0.276,0.224,0.5,0.5,0.5s0.5-0.224,0.5-0.5v-1.902c0-0.154-0.071-0.299-0.192-0.394c-0.122-0.095-0.282-0.129-0.429-0.091
	l-2.184,0.548c-0.223,0.056-0.378,0.256-0.378,0.485v0.854h-1.482v-9.33c0-0.178-0.095-0.343-0.25-0.433
	c-0.156-0.09-0.346-0.091-0.5-0.001c-0.002,0.001-0.061,0.033-0.167,0.079V3.531c0-0.218-0.141-0.41-0.348-0.476l-1.161-0.371V0.5
	c0-0.276-0.224-0.5-0.5-0.5s-0.5,0.224-0.5,0.5v2.205l-1.334,0.507c-0.194,0.074-0.322,0.26-0.322,0.467v1.195
	c-0.094-0.05-0.142-0.086-0.142-0.086v0c-0.145-0.14-0.357-0.179-0.542-0.1c-0.185,0.078-0.304,0.259-0.304,0.46v9.33h-1.439v-0.854
	c0-0.229-0.155-0.428-0.376-0.484l-2.139-0.548c-0.149-0.037-0.308-0.005-0.431,0.089c-0.122,0.095-0.193,0.241-0.193,0.395v8.223
	C119.85,21.575,120.073,21.799,120.35,21.799z M126.416,4.024l1.171-0.445l0.995,0.318v1.197c-0.367,0.075-0.806,0.132-1.322,0.132
	c-0.329,0-0.605-0.024-0.844-0.059V4.024z M109.779,25.914c0.276,0,0.5-0.224,0.5-0.5v-8.697h2.902v10.372h-5.743
	c-0.276,0-0.5,0.224-0.5,0.5s0.224,0.5,0.5,0.5h5.743v15.929c0,0.156,0.073,0.303,0.196,0.397c0.125,0.095,0.286,0.127,0.435,0.085
	l2.621-0.713l0.431,2.726l-11.472,2.942c-0.268,0.068-0.429,0.341-0.36,0.608c0.058,0.226,0.261,0.376,0.484,0.376
	c0.041,0,0.083-0.005,0.125-0.016l11.913-3.056c0.25-0.064,0.41-0.308,0.37-0.563l-0.589-3.726
	c-0.022-0.141-0.103-0.265-0.222-0.342c-0.119-0.077-0.265-0.1-0.403-0.063l-2.527,0.688V28.089h2.688c0.276,0,0.5-0.224,0.5-0.5
	s-0.224-0.5-0.5-0.5h-2.688V16.217c0-0.276-0.224-0.5-0.5-0.5h-3.902c-0.276,0-0.5,0.224-0.5,0.5v9.197
	C109.279,25.69,109.503,25.914,109.779,25.914z M123.755,16.862h-0.963c-0.276,0-0.5,0.224-0.5,0.5s0.224,0.5,0.5,0.5h0.963
	c0.276,0,0.5-0.224,0.5-0.5S124.032,16.862,123.755,16.862z M109.779,32.038c0.276,0,0.5-0.224,0.5-0.5s-0.224-0.5-0.5-0.5h-4.352
	v-5.161c0-0.276-0.224-0.5-0.5-0.5h-5.089c-0.276,0-0.5,0.224-0.5,0.5v2.331h-1.864c-0.276,0-0.5,0.224-0.5,0.5v2.83
	c0,0.276,0.224,0.5,0.5,0.5s0.5-0.224,0.5-0.5v-2.33h1.364v2.33c0,0.276,0.224,0.5,0.5,0.5s0.5-0.224,0.5-0.5v-5.161h4.089v5.161
	c0,0.276,0.224,0.5,0.5,0.5H109.779z M148.343,50.645c-0.079-0.148-0.228-0.247-0.396-0.263c-0.172-0.022-0.333,0.054-0.438,0.186
	c-0.014,0.017-1.333,1.638-2.724,1.344c-1.242-0.262-2.318-1.981-3.111-4.973c-0.426-1.604-0.782-3.365-1.08-5.211
	c0.971-1.854,1.83-3.92,2.5-6.212c0.078-0.266-0.075-0.543-0.34-0.62c-0.266-0.076-0.542,0.074-0.62,0.339
	c-0.502,1.719-1.113,3.305-1.798,4.767c-0.304-2.179-0.533-4.442-0.709-6.68h6.845c-0.375,1.719-1.598,6.808-3.636,10.559
	c-0.132,0.242-0.042,0.546,0.201,0.678c0.076,0.041,0.158,0.061,0.238,0.061c0.177,0,0.349-0.095,0.44-0.262
	c2.549-4.69,3.811-11.168,3.864-11.441c0.028-0.146-0.011-0.297-0.106-0.412c-0.095-0.115-0.236-0.182-0.385-0.182h-7.535
	c-0.209-2.914-0.329-5.749-0.397-8.277h8.169v2.563h-5.727c-0.276,0-0.5,0.224-0.5,0.5s0.224,0.5,0.5,0.5h6.227
	c0.276,0,0.5-0.224,0.5-0.5v-3.563c0-0.276-0.224-0.5-0.5-0.5h-8.695c-0.065-2.904-0.066-5.318-0.066-6.828
	c0-0.276-0.224-0.5-0.5-0.5h-3.9c-0.276,0-0.5,0.224-0.5,0.5v6.828h-10.891c-0.276,0-0.5,0.224-0.5,0.5s0.224,0.5,0.5,0.5h10.891
	v2.711h-10.253c-0.276,0-0.5,0.224-0.5,0.5l0.001,1.663c0.003,2.437,0.003,4.628-0.048,6.671h-2.568V23.545
	c0-0.276-0.224-0.5-0.5-0.5s-0.5,0.224-0.5,0.5v14.28c0,6.704-1.53,11.186-6.547,19.184c-0.075,0.119-0.096,0.265-0.058,0.4
	s0.132,0.249,0.258,0.313l3.247,1.623c0.072,0.036,0.148,0.053,0.223,0.053c0.168,0,0.331-0.084,0.425-0.235
	c5.452-8.749,6.703-14.741,6.986-22.572h4.649l0.001,0.739c0.012,4.171,0.021,7.184-1.293,8.502
	c-0.531,0.532-1.304,0.791-2.364,0.791c-0.167,0-0.323,0.084-0.416,0.223s-0.11,0.315-0.045,0.47
	c0.772,1.856,0.787,3.713,0.787,3.731c0,0.142,0.062,0.277,0.167,0.372c0.092,0.082,0.21,0.127,0.333,0.127
	c0.019,0,0.038-0.001,0.056-0.003c7.352-0.834,7.371-3.481,7.453-14.626c0.008-1.077,0.016-2.237,0.032-3.489
	c0-0.037-0.013-0.07-0.02-0.104h4.952c0.218,2.822,0.511,5.619,0.928,8.247c-5.005,9.318-12.89,12.979-12.985,13.022
	c-0.13,0.06-0.229,0.171-0.272,0.308s-0.024,0.285,0.05,0.408c0.028,0.046,0.708,1.148,2.98,3.33
	c0.146,0.141,0.363,0.18,0.547,0.098c2.226-0.975,6.989-5.286,8.629-6.805c1.222,3.246,2.945,5.182,5.13,5.757
	c3.484,0.916,6.758-1.991,6.896-2.116c0.17-0.153,0.214-0.402,0.107-0.605L148.343,50.645z M116.734,58.246l-2.347-1.173
	c4.902-7.896,6.408-12.456,6.408-19.248V36.59h2.538C123.063,44.274,121.876,49.885,116.734,58.246z M135.165,16.717h2.901
	c0.002,1.957,0.022,4.098,0.07,6.328h-2.97V16.717z M126.769,32.322c-0.276,0-0.5,0.224-0.5,0.5s0.224,0.5,0.5,0.5h5.939
	c-0.006,0.031-0.019,0.06-0.02,0.093c-0.016,1.253-0.024,2.415-0.032,3.494c-0.08,10.872-0.094,12.802-6.037,13.574
	c-0.05-0.63-0.191-1.72-0.589-2.897c0.992-0.107,1.77-0.454,2.363-1.049c1.607-1.612,1.598-4.799,1.585-9.211l-0.002-1.236
	c0-0.276-0.224-0.5-0.5-0.5h-5.116c0.053-2.063,0.053-4.257,0.051-6.672l0-1.162h10.253c0.276,0,0.5-0.224,0.5-0.5v-3.211h2.996
	c0.069,2.687,0.184,5.481,0.38,8.277H126.769z M143.882,56.72c-1.997-0.525-3.576-2.487-4.694-5.833
	c-0.054-0.162-0.187-0.285-0.353-0.327c-0.167-0.04-0.34,0.005-0.465,0.122c-0.061,0.058-5.937,5.602-8.605,6.994
	c-1.199-1.17-1.891-1.986-2.249-2.446c1.833-0.977,7.915-4.631,12.298-12.095c0.259,1.421,0.555,2.783,0.894,4.061
	c0.911,3.434,2.215,5.35,3.876,5.696c1.366,0.284,2.554-0.564,3.2-1.164l1.771,3.346C148.727,55.714,146.301,57.359,143.882,56.72z
	 M95.607,46.192v-9.278c0-0.276-0.224-0.5-0.5-0.5h-6.941v-0.665h4.324c0.276,0,0.5-0.224,0.5-0.5V32.25c0-0.276-0.224-0.5-0.5-0.5
	H61.778v-2.71h5.519v1.533c0,0.276,0.224,0.5,0.5,0.5h3.901c0.276,0,0.5-0.224,0.5-0.5V29.04h5.519v1.533c0,0.276,0.224,0.5,0.5,0.5
	h3.901c0.276,0,0.5-0.224,0.5-0.5V29.04h5.28v1.38c0,0.276,0.224,0.5,0.5,0.5s0.5-0.224,0.5-0.5v-1.88c0-0.276-0.224-0.5-0.5-0.5
	h-6.28c-0.276,0-0.5,0.224-0.5,0.5v1.533h-2.901V28.54c0-0.276-0.224-0.5-0.5-0.5h-6.519c-0.276,0-0.5,0.224-0.5,0.5v1.533h-2.901
	V28.54c0-0.276-0.224-0.5-0.5-0.5h-6.519c-0.276,0-0.5,0.224-0.5,0.5v3.71c0,0.276,0.224,0.5,0.5,0.5H91.99v1.999H57.687v-9.04
	h12.602c0.276,0,0.5-0.224,0.5-0.5v-9.325c0-0.276-0.224-0.5-0.5-0.5h-4.348c-0.276,0-0.5,0.224-0.5,0.5v2.98h-8.453
	c-0.276,0-0.5,0.224-0.5,0.5s0.224,0.5,0.5,0.5h8.953c0.276,0,0.5-0.224,0.5-0.5v-2.98h3.348v8.325H57.187
	c-0.276,0-0.5,0.224-0.5,0.5v10.04c0,0.276,0.224,0.5,0.5,0.5h3.729v0.665h-7.061c-0.276,0-0.5,0.224-0.5,0.5s0.224,0.5,0.5,0.5
	h40.751v8.278h-3.283v-5.067c0-0.276-0.224-0.5-0.5-0.5H58.138c-0.276,0-0.5,0.224-0.5,0.5v5.067h-3.282v-5.284
	c0-0.276-0.224-0.5-0.5-0.5s-0.5,0.224-0.5,0.5v5.784c0,0.276,0.224,0.5,0.5,0.5h4.282c0.276,0,0.5-0.224,0.5-0.5v-5.067h31.687
	v5.067c0,0.276,0.224,0.5,0.5,0.5h4.283C95.384,46.692,95.607,46.469,95.607,46.192z M63.833,36.414h-1.917v-0.665h1.917V36.414z
	 M66.75,36.414h-1.917v-0.665h1.917V36.414z M69.666,36.414H67.75v-0.665h1.917V36.414z M72.583,36.414h-1.917v-0.665h1.917V36.414z
	 M75.5,36.414h-1.917v-0.665H75.5V36.414z M78.416,36.414H76.5v-0.665h1.917V36.414z M81.333,36.414h-1.917v-0.665h1.917V36.414z
	 M84.25,36.414h-1.917v-0.665h1.917V36.414z M87.166,36.414H85.25v-0.665h1.917V36.414z M76.792,46.87c-0.276,0-0.5,0.224-0.5,0.5
	s0.224,0.5,0.5,0.5h9.519c0.276,0,0.5-0.224,0.5-0.5v-3.712c0-0.276-0.224-0.5-0.5-0.5H66.344c-0.169,0-0.328,0.086-0.42,0.229
	l-4.018,6.207c-0.082,0.126-0.102,0.283-0.056,0.426c0.046,0.144,0.155,0.258,0.295,0.313l3.156,1.218
	c0.21,0.08,0.451,0.011,0.584-0.173l1.556-2.14l3.646,2.271c0.082,0.051,0.173,0.075,0.264,0.075c0.167,0,0.33-0.084,0.425-0.235
	c0.146-0.234,0.074-0.543-0.16-0.689l-4.041-2.517c-0.223-0.138-0.515-0.08-0.668,0.131l-1.604,2.206l-2.223-0.858l3.536-5.462
	h19.195v2.712H76.792z M70.109,45.18c-0.227-0.151-0.538-0.094-0.694,0.133c-0.155,0.229-0.096,0.54,0.133,0.695l9.503,6.455
	c-1.468,1.413-7.55,6.173-22.887,6.266l-0.28-2.784c2.403,0.106,11.444,0.241,17.807-3.09c0.245-0.129,0.339-0.431,0.211-0.675
	c-0.128-0.245-0.429-0.338-0.675-0.212c-6.985,3.658-17.756,2.954-17.864,2.947c-0.144-0.015-0.291,0.045-0.394,0.151
	c-0.103,0.105-0.153,0.251-0.139,0.397l0.383,3.815c0.026,0.256,0.241,0.45,0.498,0.45c18.85,0,24.279-6.758,24.501-7.045
	c0.084-0.109,0.12-0.248,0.098-0.385c-0.021-0.136-0.099-0.257-0.213-0.335L70.109,45.18z M54.178,35.143
	c0.211-0.178,0.239-0.493,0.061-0.704c-0.6-0.715-1.982-1.515-3.598-1.585c-1.486-0.055-2.875,0.509-4.021,1.654
	c-1.153,1.152-2.673,1.796-4.198,1.778c-1.379-0.006-2.718-0.525-3.583-1.391c-0.195-0.195-0.512-0.195-0.707,0
	s-0.195,0.512,0,0.707c1.063,1.063,2.625,1.677,4.287,1.684h0.026c1.813,0,3.547-0.735,4.883-2.071
	c0.957-0.956,2.057-1.4,3.27-1.362c1.393,0.061,2.503,0.786,2.875,1.229C53.65,35.292,53.965,35.321,54.178,35.143z M180.958,13.824
	c0-1.134-0.922-2.057-2.057-2.057s-2.057,0.922-2.057,2.057s0.923,2.057,2.057,2.057S180.958,14.958,180.958,13.824z
	 M178.901,14.881c-0.583,0-1.057-0.474-1.057-1.057c0-0.583,0.474-1.057,1.057-1.057c0.583,0,1.057,0.474,1.057,1.057
	C179.958,14.407,179.483,14.881,178.901,14.881z M2.472,16.829c0.128,0,0.256-0.049,0.354-0.146l4.406-4.406l4.374,4.374
	c0.195,0.195,0.512,0.195,0.707,0s0.195-0.512,0-0.707l-4.727-4.727c-0.195-0.195-0.512-0.195-0.707,0l-4.76,4.76
	c-0.195,0.195-0.195,0.512,0,0.707C2.216,16.78,2.344,16.829,2.472,16.829z M47.375,37.57c-1.965,1.558-6.469,1.845-8.561,0.016
	c-0.208-0.183-0.523-0.163-0.706,0.047c-0.182,0.208-0.161,0.523,0.047,0.705c1.21,1.06,2.987,1.529,4.766,1.529
	c1.933,0,3.867-0.556,5.074-1.514c0.216-0.172,0.253-0.486,0.081-0.702C47.905,37.434,47.59,37.397,47.375,37.57z M152.143,18.055
	h-5.418c-0.238-1.326-1.394-2.338-2.788-2.338c-1.565,0-2.838,1.273-2.838,2.838s1.273,2.838,2.838,2.838
	c1.394,0,2.55-1.012,2.788-2.338h4.918v22.499c0,0.276,0.224,0.5,0.5,0.5s0.5-0.224,0.5-0.5V18.555
	C152.643,18.279,152.419,18.055,152.143,18.055z M143.937,20.394c-1.014,0-1.838-0.825-1.838-1.838s0.825-1.838,1.838-1.838
	s1.838,0.825,1.838,1.838S144.95,20.394,143.937,20.394z M154.735,13.124h-2.593c-0.276,0-0.5,0.224-0.5,0.5v2.592
	c0,0.276,0.224,0.5,0.5,0.5h2.593c0.276,0,0.5-0.224,0.5-0.5v-2.592C155.235,13.348,155.012,13.124,154.735,13.124z M154.235,15.717
	h-1.593v-1.592h1.593V15.717z M200.181,21.902h-21.122c-0.651-1.02-3.342-5.4-3.342-8.079c0-1.756,1.429-3.185,3.185-3.185
	s3.185,1.429,3.185,3.185c0,1.667-1.37,4.613-2.542,6.628c-0.139,0.239-0.058,0.545,0.181,0.684
	c0.238,0.138,0.544,0.058,0.684-0.181c0.447-0.769,2.678-4.724,2.678-7.131c0-2.308-1.877-4.185-4.185-4.185
	s-4.185,1.877-4.185,4.185c0,3.331,3.504,8.632,3.654,8.856c0.096,0.145,0.255,0.223,0.417,0.223c0.016,0,0.03-0.012,0.046-0.014
	c0.023,0.003,0.044,0.014,0.069,0.014h20.78v3.093h-41.583V10.259c0-0.276-0.224-0.5-0.5-0.5h-1.6V7.76h1.33
	c0.276,0,0.5-0.224,0.5-0.5s-0.224-0.5-0.5-0.5h-1.33V6.097h0.491c0.276,0,0.5-0.224,0.5-0.5s-0.224-0.5-0.5-0.5h-0.491V4.261
	c0-0.276-0.224-0.5-0.5-0.5s-0.5,0.224-0.5,0.5v0.836h-0.491c-0.276,0-0.5,0.224-0.5,0.5s0.224,0.5,0.5,0.5h0.491V6.76h-1.33
	c-0.276,0-0.5,0.224-0.5,0.5s0.224,0.5,0.5,0.5h1.33v1.999h-5.789c-0.276,0-0.5,0.224-0.5,0.5v5.958c0,0.276,0.224,0.5,0.5,0.5
	s0.5-0.224,0.5-0.5v-5.458h7.388v15.736c0,0.276,0.224,0.5,0.5,0.5h18.698v4.831h-14.607c-0.276,0-0.5,0.224-0.5,0.5
	c0,0.054,0.015,0.104,0.031,0.153c-0.016,0.049-0.031,0.099-0.031,0.153v23.6c0,0.276,0.224,0.5,0.5,0.5h4.474
	c0.276,0,0.5-0.224,0.5-0.5V36.724c0-0.276-0.224-0.5-0.5-0.5s-0.5,0.224-0.5,0.5v19.009h-3.474V32.826h14.107v3.397h-5.752
	c-0.276,0-0.5,0.224-0.5,0.5s0.224,0.5,0.5,0.5h5.752v21.625c0,0.276,0.224,0.5,0.5,0.5h4.21c0.276,0,0.5-0.224,0.5-0.5V39.998
	c0-0.276-0.224-0.5-0.5-0.5s-0.5,0.224-0.5,0.5v18.351h-3.21V37.224h14.391v11.42c0,0.897-0.466,1.909-6.034,2.559
	c-0.259,0.03-0.452,0.255-0.441,0.516l0.159,4.188c0.005,0.136,0.065,0.264,0.166,0.354c0.092,0.082,0.211,0.127,0.333,0.127
	c0.012,0,0.024,0,0.037-0.001c0.307-0.022,7.561-0.577,10.192-2.951c0.046-0.042,0.084-0.092,0.112-0.147l0.175-0.349
	c0.687-1.362,0.775-1.619,0.775-3.762V32.326c0-0.276-0.224-0.5-0.5-0.5s-0.5,0.224-0.5,0.5v16.851c0,1.987-0.05,2.087-0.668,3.312
	l-0.132,0.264c-2.053,1.762-7.337,2.421-9.011,2.589l-0.121-3.201c4.698-0.593,6.459-1.557,6.459-3.496v-11.92
	c0-0.276-0.224-0.5-0.5-0.5h-14.891v-3.397h4.08c0.276,0,0.5-0.224,0.5-0.5v-2.541c0-0.276-0.224-0.5-0.5-0.5s-0.5,0.224-0.5,0.5
	v2.041h-3.58v-4.831h22.885c0.276,0,0.5-0.224,0.5-0.5v-4.093C200.681,22.126,200.457,21.902,200.181,21.902z M2.472,19.605
	c-0.276,0-0.5,0.224-0.5,0.5v2.054c0,0.276,0.224,0.5,0.5,0.5h2.054c0.276,0,0.5-0.224,0.5-0.5v-2.054c0-0.276-0.224-0.5-0.5-0.5
	H2.472z M4.026,21.66H2.972v-1.054h1.054V21.66z M47.375,40.389c-1.873,1.479-6.379,1.468-8.613-0.023
	c-0.23-0.153-0.54-0.092-0.693,0.139c-0.153,0.229-0.091,0.54,0.139,0.693c1.279,0.854,3.167,1.279,5.01,1.279
	c1.862,0,3.68-0.435,4.778-1.303c0.217-0.172,0.253-0.486,0.082-0.703C47.907,40.257,47.593,40.219,47.375,40.389z M43.776,28.35
	V15.588h6.49v7.055c0,0.276,0.224,0.5,0.5,0.5s0.5-0.224,0.5-0.5v-7.555c0-0.276-0.224-0.5-0.5-0.5h-2.327v-3.889h5.487v11.944
	c0,0.276,0.224,0.5,0.5,0.5h13.496c0.276,0,0.5-0.224,0.5-0.5s-0.224-0.5-0.5-0.5H54.927V10.199c0-0.276-0.224-0.5-0.5-0.5h-6.487
	c-0.276,0-0.5,0.224-0.5,0.5v4.389h-4.163c-0.276,0-0.5,0.224-0.5,0.5V27.85H36.97v-2.524l1.58-0.331
	c0.169-0.035,0.309-0.156,0.368-0.319c0.059-0.163,0.029-0.345-0.078-0.48l-0.522-0.659l0.265,0.02
	c0.013,0.001,0.025,0.001,0.038,0.001c0.183,0,0.353-0.1,0.44-0.263c0.093-0.174,0.076-0.386-0.045-0.542l-1.578-2.041l0.571-0.215
	c0.155-0.058,0.271-0.189,0.31-0.349c0.039-0.161-0.003-0.33-0.114-0.453l-1.777-1.978c-0.104-0.116-0.261-0.176-0.412-0.165
	c-0.155,0.013-0.296,0.097-0.38,0.228l-2.259,3.5c-0.117,0.181-0.104,0.417,0.031,0.585c0.097,0.12,0.241,0.186,0.389,0.186
	c0.059,0,0.119-0.01,0.176-0.032l0.307-0.116l-0.375,0.552c-0.1,0.148-0.114,0.337-0.036,0.498s0.235,0.268,0.413,0.281l0.428,0.032
	l-1.325,1.93c-0.116,0.168-0.117,0.39-0.004,0.56c0.094,0.141,0.251,0.223,0.416,0.223c0.034,0,0.068-0.003,0.103-0.011l2.071-0.433
	v2.315h-11.05V16.19c0-0.276-0.224-0.5-0.5-0.5h-3.791c-0.276,0-0.5,0.224-0.5,0.5v10.303c0,0.276,0.224,0.5,0.5,0.5
	s0.5-0.224,0.5-0.5V16.69h2.791V27.85H4.526c-0.276,0-0.5,0.224-0.5,0.5s0.224,0.5,0.5,0.5h19.394v3.375
	c0,14.113-10.83,21.512-20.423,26.368c-0.382-0.536-1.157-1.688-1.877-3.169c11.16-4.053,19.51-13.85,19.51-22.981
	c0-0.276-0.224-0.5-0.5-0.5H1V18.204h12.694v7.363c0,0.276,0.224,0.5,0.5,0.5s0.5-0.224,0.5-0.5v-7.863c0-0.276-0.224-0.5-0.5-0.5
	H0.5c-0.276,0-0.5,0.224-0.5,0.5v14.738c0,0.276,0.224,0.5,0.5,0.5h19.62c-0.304,8.725-8.521,17.993-19.352,21.722
	c-0.133,0.046-0.241,0.146-0.297,0.275c-0.056,0.129-0.054,0.276,0.004,0.404c1.104,2.428,2.419,4.123,2.475,4.193
	c0.098,0.125,0.244,0.192,0.394,0.192c0.076,0,0.153-0.018,0.224-0.053c9.94-4.983,21.351-12.606,21.351-27.452V28.85h18.357
	C43.553,28.85,43.776,28.626,43.776,28.35z M37.538,22.476l-2.32-0.174l0.686-1.011l0.58-0.219c0.016,0.039,0.029,0.078,0.056,0.113
	L37.538,22.476z M36.121,18.871l0.851,0.947l-1.933,0.729L36.121,18.871z M34.914,24.734l0.948-1.382l1.098,0.082l0.592,0.747
	L34.914,24.734z M10.169,19.605c-0.276,0-0.5,0.224-0.5,0.5v2.054c0,0.276,0.224,0.5,0.5,0.5h2.054c0.276,0,0.5-0.224,0.5-0.5
	v-2.054c0-0.276-0.224-0.5-0.5-0.5H10.169z M11.723,21.66h-1.054v-1.054h1.054V21.66z M48.439,21.677c0-0.276-0.224-0.5-0.5-0.5
	h-1.931c-0.276,0-0.5,0.224-0.5,0.5v1.932c0,0.276,0.224,0.5,0.5,0.5h1.931c0.276,0,0.5-0.224,0.5-0.5V21.677z M47.439,23.109
	h-0.931v-0.932h0.931V23.109z M6.32,19.605c-0.276,0-0.5,0.224-0.5,0.5v2.054c0,0.276,0.224,0.5,0.5,0.5h2.054
	c0.276,0,0.5-0.224,0.5-0.5v-2.054c0-0.276-0.224-0.5-0.5-0.5H6.32z M7.874,21.66H6.82v-1.054h1.054V21.66z M48.439,17.477
	c0-0.276-0.224-0.5-0.5-0.5h-1.931c-0.276,0-0.5,0.224-0.5,0.5v1.932c0,0.276,0.224,0.5,0.5,0.5h1.931c0.276,0,0.5-0.224,0.5-0.5
	V17.477z M47.439,18.909h-0.931v-0.932h0.931V18.909z M47.939,25.377h-1.931c-0.276,0-0.5,0.224-0.5,0.5v1.932
	c0,0.276,0.224,0.5,0.5,0.5h1.931c0.276,0,0.5-0.224,0.5-0.5v-1.932C48.439,25.601,48.216,25.377,47.939,25.377z M47.439,27.31
	h-0.931v-0.933h0.931V27.31z M26.944,32.942h16.333c0.276,0,0.5-0.224,0.5-0.5s-0.224-0.5-0.5-0.5H26.371
	c-0.139,0-0.271,0.058-0.366,0.159c-0.095,0.102-0.143,0.238-0.132,0.377c0.035,0.478,1.018,11.75,16.186,23.554
	c-0.583,0.999-1.799,1.755-2.319,2.045c-1.291-0.861-7.616-5.36-12.942-14.058c-0.144-0.235-0.451-0.311-0.688-0.166
	c-0.235,0.145-0.31,0.452-0.165,0.688c6.058,9.893,13.207,14.357,13.508,14.542c0.08,0.05,0.171,0.074,0.262,0.074
	c0.074,0,0.149-0.017,0.218-0.05c0.101-0.049,2.473-1.213,3.219-3.031c0.085-0.208,0.021-0.448-0.158-0.586
	C29.766,45.326,27.346,35.333,26.944,32.942z M89.323,52.74h-3.042c-0.122,0-0.224,0.041-0.305,0.124
	c-0.081,0.083-0.121,0.184-0.121,0.302c0,0.118,0.04,0.218,0.121,0.301c0.081,0.083,0.183,0.124,0.305,0.124h3.042v2.075h-2.585
	c-0.234,0-0.434,0.085-0.601,0.253c-0.168,0.169-0.251,0.372-0.251,0.609v2.941h3.875c0.114,0,0.214-0.042,0.299-0.125
	c0.085-0.083,0.127-0.183,0.127-0.301s-0.042-0.219-0.127-0.302c-0.085-0.082-0.185-0.124-0.299-0.124h-3.022v-2.089h2.585
	c0.237,0,0.44-0.084,0.609-0.251s0.253-0.371,0.253-0.611v-2.075c0-0.233-0.084-0.433-0.253-0.601
	C89.762,52.824,89.56,52.74,89.323,52.74z M102.274,56.417c-0.118,0-0.218,0.042-0.301,0.127c-0.083,0.085-0.124,0.184-0.124,0.299
	v1.775h-0.852V52.74h-2.14c-0.119,0-0.219,0.041-0.302,0.124c-0.083,0.083-0.124,0.184-0.124,0.302c0,0.118,0.041,0.218,0.124,0.301
	c0.083,0.083,0.184,0.124,0.302,0.124h1.288v5.026h-1.309c-0.119,0-0.219,0.041-0.301,0.122c-0.083,0.081-0.125,0.179-0.125,0.293
	c0,0.119,0.042,0.221,0.125,0.308c0.082,0.086,0.183,0.129,0.301,0.129h3.438c0.119,0,0.219-0.042,0.302-0.125
	c0.083-0.083,0.124-0.183,0.124-0.301v-2.201c0-0.118-0.041-0.218-0.124-0.301C102.493,56.458,102.393,56.417,102.274,56.417z
	 M95.627,52.729h-2.658c-0.223,0-0.415,0.081-0.578,0.243c-0.162,0.162-0.243,0.356-0.243,0.579v5.096
	c0,0.226,0.079,0.42,0.238,0.58c0.159,0.161,0.353,0.242,0.583,0.242h2.647c0.226,0,0.42-0.08,0.58-0.242
	c0.16-0.161,0.242-0.354,0.242-0.58v-5.096c0-0.223-0.081-0.416-0.242-0.579C96.036,52.81,95.846,52.729,95.627,52.729z
	 M95.596,58.617h-2.596v-5.026h2.596V58.617z M108.578,56.406h-3.003v-2.815c0.119,0,0.219-0.041,0.302-0.124
	c0.083-0.083,0.124-0.184,0.124-0.301c0-0.115-0.041-0.215-0.124-0.299c-0.083-0.085-0.184-0.127-0.302-0.127h-0.425
	c-0.122,0-0.226,0.041-0.309,0.124c-0.085,0.083-0.128,0.184-0.128,0.302v5.877c0,0.115,0.044,0.215,0.129,0.299
	c0.086,0.085,0.189,0.128,0.308,0.128h3.417c0.119,0,0.221-0.042,0.307-0.125c0.086-0.083,0.129-0.183,0.129-0.301v-2.201
	c0-0.118-0.042-0.22-0.127-0.307C108.792,56.449,108.692,56.406,108.578,56.406z M108.141,58.617h-2.576v-1.349h2.576V58.617z"/>
</svg>
