<svg data-name="Layer 1" xmlns="http://www.w3.org/2000/svg" viewBox="0 0 425.2 167.17"><title>1_Logo_RGB_Pos</title><path fill="#006567" d="M42.98 93.82l17.29-32.18c.82-1.64 1.56-2.8 3.66-2.8h18.35a1.83 1.83 0 0 1 2 1.87 2.52 2.52 0 0 1-.28 1.12l-26.92 49a.11.11 0 0 0 0 .05.11.11 0 0 0 0 .05l28.42 51.43a2.53 2.53 0 0 1 .28 1.12 1.83 1.83 0 0 1-2 1.87H65.44c-2.1 0-2.84-1.16-3.66-2.79l-18.8-34.59a.11.11 0 0 0-.1-.06.12.12 0 0 0-.1.06l-18.8 34.59c-.82 1.64-1.56 2.8-3.66 2.8H1.98a1.9 1.9 0 0 1-1.7-.86 2.19 2.19 0 0 1 0-2.14l28.37-51.39a.11.11 0 0 0 0-.11l-26.92-49a2.19 2.19 0 0 1 0-2.13 1.91 1.91 0 0 1 1.7-.86h18.35c2.26 0 3 1.42 3.66 2.79l17.3 32.19a.12.12 0 0 0 .24-.03zM185.76 122.6a.11.11 0 0 0 .09-.11v-60.9a2.65 2.65 0 0 1 2.74-2.74h14.59a2.65 2.65 0 0 1 2.74 2.74v101.06a2.65 2.65 0 0 1-2.74 2.74h-15.19c-2 0-3-1.49-3.66-2.79l-31.58-60.91a.11.11 0 0 0-.21.05v60.91a2.65 2.65 0 0 1-2.74 2.74h-14.59a2.65 2.65 0 0 1-2.74-2.74V61.59a2.65 2.65 0 0 1 2.74-2.74h15.19c2.26 0 3 1.42 3.66 2.79l31.59 60.9a.11.11 0 0 0 .11.06z"/><rect fill="#006567" x="96.02" y="58.84" width="20.08" height="106.54" rx="2.74" ry="2.74"/><path fill="#006567" d="M266.28 76.06c-8.06 0-14.28 1.76-19.37 8.67-4.82 6.55-7.4 14.84-7.4 26.86 0 11.37.5 20.81 4.42 27a20.48 20.48 0 0 0 18 10 49.76 49.76 0 0 0 15.37-2.36.11.11 0 0 0 .07-.11v-22.5a.11.11 0 0 0-.11-.11h-15.22a2.66 2.66 0 0 1-2.75-2.75v-13.1a2.66 2.66 0 0 1 2.75-2.75h32.68a2.66 2.66 0 0 1 2.75 2.75v51.27a89.56 89.56 0 0 1-36.64 8.24c-16.34 0-25.56-6.17-32.08-14.71-7.52-9.85-10.16-25.86-10.16-40.87 0-10.47 1.41-20.36 5.07-28.82a41.46 41.46 0 0 1 16.7-19.5c7.38-4.33 16.37-5.81 24.79-5.81h2.43c13.28 0 21.37 3.15 24.07 4.51 2.12 1.06 2.8 1.86 2.8 3.28v12.58a2.44 2.44 0 0 1-.81 2 2.17 2.17 0 0 1-2.06.32 73.37 73.37 0 0 0-23.61-4.06h-1.7z"/><path fill="#b0d400" d="M405.97 0c-2.47 0-3.54 1.56-4.43 3.15l-36.8 65.26 23.5 43.11c.82 1.47 2.08 3.15 4.62 3.15h16.52a2.45 2.45 0 0 0 2.2-1.06 2.59 2.59 0 0 0 0-2.56l-23.32-42.6a.11.11 0 0 1 0-.11l36.62-64.75a2.6 2.6 0 0 0 0-2.55 2.45 2.45 0 0 0-2.2-1.06h-16.71z"/><path fill="#006567" d="M336.48 22.63a2.45 2.45 0 0 0-2.2 1.06 2.6 2.6 0 0 0 0 2.56l11.24 19.3a.13.13 0 0 1 0 .11l-17.62 31a2.6 2.6 0 0 0 0 2.55 2.45 2.45 0 0 0 2.2 1.06h16.55c2.47 0 3.59-1.63 4.43-3.15L369 45.57l-11.35-19.79c-.82-1.47-2.08-3.16-4.62-3.16h-16.55z"/></svg>