<?xml version="1.0" encoding="UTF-8" standalone="no"?>
<svg
   xmlns:dc="http://purl.org/dc/elements/1.1/"
   xmlns:cc="http://creativecommons.org/ns#"
   xmlns:rdf="http://www.w3.org/1999/02/22-rdf-syntax-ns#"
   xmlns:svg="http://www.w3.org/2000/svg"
   xmlns="http://www.w3.org/2000/svg"
   xmlns:sodipodi="http://sodipodi.sourceforge.net/DTD/sodipodi-0.dtd"
   xmlns:inkscape="http://www.inkscape.org/namespaces/inkscape"
   viewBox="0 0 228.66 39.08"
   version="1.1"
   id="svg32"
   sodipodi:docname="navbar-logo.svg"
   inkscape:version="0.92.3 (2405546, 2018-03-11)">
  <metadata
     id="metadata38">
    <rdf:RDF>
      <cc:Work
         rdf:about="">
        <dc:format>image/svg+xml</dc:format>
        <dc:type
           rdf:resource="http://purl.org/dc/dcmitype/StillImage" />
      </cc:Work>
    </rdf:RDF>
  </metadata>
  <defs
     id="defs36">
    <filter
       inkscape:collect="always"
       style="color-interpolation-filters:sRGB"
       id="filter1245"
       x="-0.27437332"
       width="1.5487466"
       y="-0.13085619"
       height="1.2617124">
      <feGaussianBlur
         inkscape:collect="always"
         stdDeviation="1.1141728"
         id="feGaussianBlur1247" />
    </filter>
    <filter
       inkscape:collect="always"
       style="color-interpolation-filters:sRGB"
       id="filter1249"
       x="-0.10113057"
       width="1.2022611"
       y="-0.23493384"
       height="1.4698677">
      <feGaussianBlur
         inkscape:collect="always"
         stdDeviation="1.1141728"
         id="feGaussianBlur1251" />
    </filter>
    <filter
       inkscape:collect="always"
       style="color-interpolation-filters:sRGB"
       id="filter1253"
       x="-0.30415794"
       width="1.6083159"
       y="-0.20727555"
       height="1.4145511">
      <feGaussianBlur
         inkscape:collect="always"
         stdDeviation="1.1141728"
         id="feGaussianBlur1255" />
    </filter>
    <filter
       inkscape:collect="always"
       style="color-interpolation-filters:sRGB"
       id="filter1257"
       x="-0.31864125"
       width="1.6372825"
       y="-0.18118884"
       height="1.3623776">
      <feGaussianBlur
         inkscape:collect="always"
         stdDeviation="1.1141728"
         id="feGaussianBlur1259" />
    </filter>
    <filter
       inkscape:collect="always"
       style="color-interpolation-filters:sRGB"
       id="filter1017"
       x="-0.012554534"
       width="1.0251091"
       y="-0.077279188"
       height="1.1545584">
      <feGaussianBlur
         inkscape:collect="always"
         stdDeviation="0.84218452"
         id="feGaussianBlur1019" />
    </filter>
  </defs>
  <sodipodi:namedview
     pagecolor="#ffffff"
     bordercolor="#666666"
     borderopacity="1"
     objecttolerance="10"
     gridtolerance="10"
     guidetolerance="10"
     inkscape:pageopacity="0"
     inkscape:pageshadow="2"
     inkscape:window-width="1850"
     inkscape:window-height="1016"
     id="namedview34"
     showgrid="false"
     inkscape:zoom="6.5063966"
     inkscape:cx="118.75126"
     inkscape:cy="14.656065"
     inkscape:window-x="70"
     inkscape:window-y="877"
     inkscape:window-maximized="1"
     inkscape:current-layer="svg32" />
  <style
     id="style2">.cls-1{fill:#fed136;}</style>
  <g
     transform="matrix(1.051543,0,0,1.051543,-20.108887,8.7419148)"
     id="g54"
     style="font-style:normal;font-weight:normal;font-size:35.05601501px;line-height:1.25;font-family:sans-serif;letter-spacing:0px;word-spacing:0px;fill:#000000;fill-opacity:1;stroke:none;stroke-width:0.87640035;filter:url(#filter1017)"
     aria-label="RENOVO">
    <path
       inkscape:connector-curvature="0"
       id="path42"
       style="font-style:normal;font-variant:normal;font-weight:normal;font-stretch:normal;font-family:Sawasdee;-inkscape-font-specification:Sawasdee;fill:#000000;fill-opacity:1;stroke:none;stroke-width:0.87640035"
       d="m 34.028097,27.59589 h 1.540548 V 15.596736 h 7.206339 l 6.573003,11.999154 h 1.728836 L 44.452469,15.494033 c 2.978392,-0.616219 5.237862,-3.372087 5.237862,-6.6243541 0,-3.7657829 -2.892806,-6.8297607 -6.59012,-6.8297607 H 34.028097 Z M 35.568645,14.073306 V 3.5804657 h 7.531566 c 2.755868,0 5.015338,2.3621729 5.015338,5.2892132 0,2.8928061 -2.25947,5.2036271 -4.963987,5.2036271 z" />
    <path
       inkscape:connector-curvature="0"
       id="path44"
       style="font-style:normal;font-variant:normal;font-weight:normal;font-stretch:normal;font-family:Sawasdee;-inkscape-font-specification:Sawasdee;fill:#000000;fill-opacity:1;stroke:none;stroke-width:0.87640035"
       d="M 72.433659,11.985008 H 60.177747 V 3.5804657 H 73.494925 V 2.0399182 H 58.6372 V 27.59589 H 73.426456 V 26.055343 H 60.177747 V 13.525556 h 12.255912 z" />
    <path
       inkscape:connector-curvature="0"
       id="path46"
       style="font-style:normal;font-variant:normal;font-weight:normal;font-stretch:normal;font-family:Sawasdee;-inkscape-font-specification:Sawasdee;fill:#000000;fill-opacity:1;stroke:none;stroke-width:0.87640035"
       d="M 81.397642,27.59589 H 82.93819 V 5.5147087 L 104.42027,27.886882 V 2.0399182 h -1.52343 V 24.138217 L 81.397642,1.7318087 Z" />
    <path
       inkscape:connector-curvature="0"
       id="path48"
       style="font-style:normal;font-variant:normal;font-weight:normal;font-stretch:normal;font-family:Sawasdee;-inkscape-font-specification:Sawasdee;fill:#000000;fill-opacity:1;stroke:none;stroke-width:0.87640035"
       d="m 124.34197,1.8173946 c -7.13787,0 -12.94059,5.8198463 -12.94059,13.0261854 0,7.189222 5.80272,13.009068 12.94059,13.009068 7.15499,0 12.97484,-5.819846 12.97484,-13.009068 0,-7.2063391 -5.81985,-13.0261854 -12.97484,-13.0261854 z M 112.92481,14.84358 c 0,-6.3675966 5.0838,-11.502755 11.41716,-11.502755 6.35048,0 11.45141,5.1351584 11.45141,11.502755 0,6.316245 -5.10093,11.485638 -11.45141,11.485638 -6.33336,0 -11.41716,-5.169393 -11.41716,-11.485638 z" />
    <path
       inkscape:connector-curvature="0"
       id="path50"
       style="font-style:normal;font-variant:normal;font-weight:normal;font-stretch:normal;font-family:Sawasdee;-inkscape-font-specification:Sawasdee;fill:#000000;fill-opacity:1;stroke:none;stroke-width:0.87640035"
       d="M 161.94303,2.0399182 153.31597,23.761638 144.43214,2.0399182 h -1.64325 L 153.36732,27.886882 163.63763,2.0399182 Z" />
    <path
       inkscape:connector-curvature="0"
       id="path52"
       style="font-style:normal;font-variant:normal;font-weight:normal;font-stretch:normal;font-family:Sawasdee;-inkscape-font-specification:Sawasdee;fill:#000000;fill-opacity:1;stroke:none;stroke-width:0.87640035"
       d="m 182.05031,1.8173946 c -7.13787,0 -12.9406,5.8198463 -12.9406,13.0261854 0,7.189222 5.80273,13.009068 12.9406,13.009068 7.15499,0 12.97483,-5.819846 12.97483,-13.009068 0,-7.2063391 -5.81984,-13.0261854 -12.97483,-13.0261854 z M 170.63314,14.84358 c 0,-6.3675966 5.08381,-11.502755 11.41717,-11.502755 6.35048,0 11.4514,5.1351584 11.4514,11.502755 0,6.316245 -5.10092,11.485638 -11.4514,11.485638 -6.33336,0 -11.41717,-5.169393 -11.41717,-11.485638 z" />
  </g>
  <path
     sodipodi:nodetypes="ccccc"
     inkscape:connector-curvature="0"
     id="path56"
     d="m 180.62111,17.432178 c 0.60615,-2.783964 0.70696,-5.877994 -0.0776,-8.0656012 -1.3031,-3.3375747 -3.99797,-5.305225 -7.28237,-6.692562 -0.47577,2.7437614 -1.07187,5.7453641 0.28713,8.8080752 1.39582,3.157547 4.7461,5.049966 7.07283,5.95009 z"
     style="fill:#000000;fill-opacity:1;stroke:none;stroke-width:0.18603511px;stroke-linecap:butt;stroke-linejoin:miter;stroke-opacity:1;filter:url(#filter1257)"
     transform="matrix(0.98106449,0,0,0.98106449,13.547674,-1.765444)" />
  <path
     style="fill:#000000;fill-opacity:1;stroke:none;stroke-width:0.17180562px;stroke-linecap:butt;stroke-linejoin:miter;stroke-opacity:1;filter:url(#filter1253)"
     d="m 182.15169,17.144828 c 2.50423,-0.847599 5.02846,-2.245095 6.4264,-3.913705 2.08484,-2.630191 2.44319,-5.7127975 2.07021,-8.987068 -2.4131,0.9320592 -5.08711,1.8915956 -6.9265,4.434924 -1.89869,2.617927 -1.90058,6.185777 -1.57011,8.465849 z"
     id="path58"
     inkscape:connector-curvature="0"
     sodipodi:nodetypes="ccccc"
     transform="matrix(0.98106449,0,0,0.98106449,13.547674,-1.765444)" />
  <path
     sodipodi:nodetypes="ccccc"
     inkscape:connector-curvature="0"
     id="path60"
     d="m 182.39129,18.894751 c 3.32486,3.192349 7.49763,6.007909 11.16154,6.904588 5.67842,1.232344 10.63246,-0.504075 15.27967,-3.498073 -3.37828,-2.990748 -7.01094,-6.359186 -12.35777,-7.281448 -5.50802,-0.957472 -10.90505,1.682133 -14.08344,3.874933 z"
     style="fill:#000000;fill-opacity:1;stroke:none;stroke-width:0.29313472px;stroke-linecap:butt;stroke-linejoin:miter;stroke-opacity:1;filter:url(#filter1249)"
     transform="matrix(0.98106449,0,0,0.98106449,13.547674,-1.765444)" />
  <path
     style="fill:#000000;fill-opacity:1;stroke:none;stroke-width:0.2351578px;stroke-linecap:butt;stroke-linejoin:miter;stroke-opacity:1;filter:url(#filter1245)"
     d="m 181.34676,20.396877 c -1.11456,3.418089 -1.64859,7.342294 -0.97357,10.304244 1.16047,4.542236 4.21437,7.641891 8.07037,10.130515 0.94883,-3.395359 2.0798,-7.093235 0.8142,-11.297123 -1.29838,-4.332907 -5.16843,-7.48013 -7.911,-9.137636 z"
     id="path62"
     inkscape:connector-curvature="0"
     sodipodi:nodetypes="ccccc"
     transform="matrix(0.98106449,0,0,0.98106449,13.547674,-1.765444)" />
  <g
     aria-label="RENOVO"
     style="font-style:normal;font-weight:normal;font-size:35.05601501px;line-height:1.25;font-family:sans-serif;letter-spacing:0px;word-spacing:0px;fill:#ffffff;fill-opacity:1;stroke:none;stroke-width:0.87640035"
     id="text114-3"
     transform="matrix(1.051543,0,0,1.051543,-21.728865,7.1219442)">
    <path
       d="m 34.028097,27.59589 h 1.540548 V 15.596736 h 7.206339 l 6.573003,11.999154 h 1.728836 L 44.452469,15.494033 c 2.978392,-0.616219 5.237862,-3.372087 5.237862,-6.6243541 0,-3.7657829 -2.892806,-6.8297607 -6.59012,-6.8297607 H 34.028097 Z M 35.568645,14.073306 V 3.5804657 h 7.531566 c 2.755868,0 5.015338,2.3621729 5.015338,5.2892132 0,2.8928061 -2.25947,5.2036271 -4.963987,5.2036271 z"
       style="font-style:normal;font-variant:normal;font-weight:normal;font-stretch:normal;font-family:Sawasdee;-inkscape-font-specification:Sawasdee;fill:#ffffff;fill-opacity:1;stroke:none;stroke-width:0.87640035"
       id="path120-6"
       inkscape:connector-curvature="0" />
    <path
       d="M 72.433659,11.985008 H 60.177747 V 3.5804657 H 73.494925 V 2.0399182 H 58.6372 V 27.59589 H 73.426456 V 26.055343 H 60.177747 V 13.525556 h 12.255912 z"
       style="font-style:normal;font-variant:normal;font-weight:normal;font-stretch:normal;font-family:Sawasdee;-inkscape-font-specification:Sawasdee;fill:#ffffff;fill-opacity:1;stroke:none;stroke-width:0.87640035"
       id="path122-7"
       inkscape:connector-curvature="0" />
    <path
       d="M 81.397642,27.59589 H 82.93819 V 5.5147087 L 104.42027,27.886882 V 2.0399182 h -1.52343 V 24.138217 L 81.397642,1.7318087 Z"
       style="font-style:normal;font-variant:normal;font-weight:normal;font-stretch:normal;font-family:Sawasdee;-inkscape-font-specification:Sawasdee;fill:#ffffff;fill-opacity:1;stroke:none;stroke-width:0.87640035"
       id="path124-5"
       inkscape:connector-curvature="0" />
    <path
       d="m 124.34197,1.8173946 c -7.13787,0 -12.94059,5.8198463 -12.94059,13.0261854 0,7.189222 5.80272,13.009068 12.94059,13.009068 7.15499,0 12.97484,-5.819846 12.97484,-13.009068 0,-7.2063391 -5.81985,-13.0261854 -12.97484,-13.0261854 z M 112.92481,14.84358 c 0,-6.3675966 5.0838,-11.502755 11.41716,-11.502755 6.35048,0 11.45141,5.1351584 11.45141,11.502755 0,6.316245 -5.10093,11.485638 -11.45141,11.485638 -6.33336,0 -11.41716,-5.169393 -11.41716,-11.485638 z"
       style="font-style:normal;font-variant:normal;font-weight:normal;font-stretch:normal;font-family:Sawasdee;-inkscape-font-specification:Sawasdee;fill:#ffffff;fill-opacity:1;stroke:none;stroke-width:0.87640035"
       id="path126-3"
       inkscape:connector-curvature="0" />
    <path
       d="M 161.94303,2.0399182 153.31597,23.761638 144.43214,2.0399182 h -1.64325 L 153.36732,27.886882 163.63763,2.0399182 Z"
       style="font-style:normal;font-variant:normal;font-weight:normal;font-stretch:normal;font-family:Sawasdee;-inkscape-font-specification:Sawasdee;fill:#ffffff;fill-opacity:1;stroke:none;stroke-width:0.87640035"
       id="path128-5"
       inkscape:connector-curvature="0" />
    <path
       d="m 182.05031,1.8173946 c -7.13787,0 -12.9406,5.8198463 -12.9406,13.0261854 0,7.189222 5.80273,13.009068 12.9406,13.009068 7.15499,0 12.97483,-5.819846 12.97483,-13.009068 0,-7.2063391 -5.81984,-13.0261854 -12.97483,-13.0261854 z M 170.63314,14.84358 c 0,-6.3675966 5.08381,-11.502755 11.41717,-11.502755 6.35048,0 11.4514,5.1351584 11.4514,11.502755 0,6.316245 -5.10092,11.485638 -11.4514,11.485638 -6.33336,0 -11.41717,-5.169393 -11.41717,-11.485638 z"
       style="font-style:normal;font-variant:normal;font-weight:normal;font-stretch:normal;font-family:Sawasdee;-inkscape-font-specification:Sawasdee;fill:#ffffff;fill-opacity:1;stroke:none;stroke-width:0.87640035"
       id="path130-6"
       inkscape:connector-curvature="0" />
  </g>
  <path
     style="fill:#fdbf0c;fill-opacity:1;stroke:#fdbf0c;stroke-width:0.18251245px;stroke-linecap:butt;stroke-linejoin:miter;stroke-opacity:1"
     d="m 188.78647,15.336627 c 0.59468,-2.73124 0.69357,-5.766689 -0.076,-7.9128622 -1.2784,-3.2743854 -3.92226,-5.2047856 -7.14446,-6.56583038 -0.46677,2.69179168 -1.0516,5.63654798 0.28179,8.64129198 1.36939,3.0977356 4.65622,4.9543186 6.93889,5.8374006 z"
     id="path3728-2"
     inkscape:connector-curvature="0"
     sodipodi:nodetypes="ccccc" />
  <path
     sodipodi:nodetypes="ccccc"
     inkscape:connector-curvature="0"
     id="path3730-9"
     d="m 190.28808,15.054714 c 2.45683,-0.831546 4.93326,-2.202564 6.30472,-3.839594 2.04535,-2.5803673 2.39691,-5.604619 2.03101,-8.8168935 -2.36743,0.9144124 -4.99077,1.8557924 -6.79538,4.3509523 -1.86271,2.568353 -1.86457,6.0686362 -1.54035,8.3055352 z"
     style="fill:#63bc46;fill-opacity:1;stroke:#63bc46;stroke-width:0.16855237px;stroke-linecap:butt;stroke-linejoin:miter;stroke-opacity:1" />
  <path
     style="fill:#91c73e;fill-opacity:1;stroke:#91c73e;stroke-width:0.2875841px;stroke-linecap:butt;stroke-linejoin:miter;stroke-opacity:1"
     d="m 190.52312,16.771498 c 3.26194,3.13193 7.35568,5.894175 10.95021,6.773844 5.57092,1.209022 10.43113,-0.494523 14.99035,-3.431828 -3.31431,-2.934107 -6.87818,-6.238749 -12.12377,-7.143561 -5.40371,-0.939349 -10.69858,1.650293 -13.81679,3.801545 z"
     id="path3732-1"
     inkscape:connector-curvature="0"
     sodipodi:nodetypes="ccccc" />
  <path
     sodipodi:nodetypes="ccccc"
     inkscape:connector-curvature="0"
     id="path3734-2"
     d="m 189.49839,18.245192 c -1.09347,3.353364 -1.61737,7.203266 -0.95513,10.109123 1.1385,4.456233 4.13456,7.497195 7.91754,9.938703 0.93088,-3.331085 2.04041,-6.95891 0.79881,-11.0832 -1.2738,-4.250884 -5.07057,-7.338504 -7.76122,-8.964626 z"
     style="fill:#bbd631;fill-opacity:1;stroke:#bbd631;stroke-width:0.23070495px;stroke-linecap:butt;stroke-linejoin:miter;stroke-opacity:1" />
</svg>
