<?xml version="1.0" encoding="UTF-8" standalone="no"?>
<svg
   xmlns:dc="http://purl.org/dc/elements/1.1/"
   xmlns:cc="http://creativecommons.org/ns#"
   xmlns:rdf="http://www.w3.org/1999/02/22-rdf-syntax-ns#"
   xmlns:svg="http://www.w3.org/2000/svg"
   xmlns="http://www.w3.org/2000/svg"
   xmlns:sodipodi="http://sodipodi.sourceforge.net/DTD/sodipodi-0.dtd"
   xmlns:inkscape="http://www.inkscape.org/namespaces/inkscape"
   viewBox="0 0 228.66 39.08"
   version="1.1"
   id="svg32"
   sodipodi:docname="navbar-logo.svg"
   inkscape:version="0.92.3 (2405546, 2018-03-11)">
  <metadata
     id="metadata38">
    <rdf:RDF>
      <cc:Work
         rdf:about="">
        <dc:format>image/svg+xml</dc:format>
        <dc:type
           rdf:resource="http://purl.org/dc/dcmitype/StillImage" />
        <dc:title />
      </cc:Work>
    </rdf:RDF>
  </metadata>
  <defs
     id="defs36">
    <filter
       inkscape:collect="always"
       style="color-interpolation-filters:sRGB"
       id="filter1017"
       x="-0.012554534"
       width="1.0251091"
       y="-0.077279189"
       height="1.1545584">
      <feGaussianBlur
         inkscape:collect="always"
         stdDeviation="0.84218452"
         id="feGaussianBlur1019" />
    </filter>
    <filter
       inkscape:collect="always"
       style="color-interpolation-filters:sRGB"
       id="filter1245"
       x="-0.27437332"
       width="1.5487466"
       y="-0.13085619"
       height="1.2617124">
      <feGaussianBlur
         inkscape:collect="always"
         stdDeviation="1.1141728"
         id="feGaussianBlur1247" />
    </filter>
    <filter
       inkscape:collect="always"
       style="color-interpolation-filters:sRGB"
       id="filter1249"
       x="-0.10113057"
       width="1.2022611"
       y="-0.23493384"
       height="1.4698677">
      <feGaussianBlur
         inkscape:collect="always"
         stdDeviation="1.1141728"
         id="feGaussianBlur1251" />
    </filter>
    <filter
       inkscape:collect="always"
       style="color-interpolation-filters:sRGB"
       id="filter1253"
       x="-0.30415794"
       width="1.6083159"
       y="-0.20727555"
       height="1.4145511">
      <feGaussianBlur
         inkscape:collect="always"
         stdDeviation="1.1141728"
         id="feGaussianBlur1255" />
    </filter>
    <filter
       inkscape:collect="always"
       style="color-interpolation-filters:sRGB"
       id="filter1257"
       x="-0.31864124"
       width="1.6372825"
       y="-0.18118884"
       height="1.3623777">
      <feGaussianBlur
         inkscape:collect="always"
         stdDeviation="1.1141728"
         id="feGaussianBlur1259" />
    </filter>
  </defs>
  <sodipodi:namedview
     pagecolor="#ffffff"
     bordercolor="#666666"
     borderopacity="1"
     objecttolerance="10"
     gridtolerance="10"
     guidetolerance="10"
     inkscape:pageopacity="0"
     inkscape:pageshadow="2"
     inkscape:window-width="1850"
     inkscape:window-height="1016"
     id="namedview34"
     showgrid="false"
     inkscape:zoom="4.6007172"
     inkscape:cx="109.26001"
     inkscape:cy="35.887013"
     inkscape:window-x="70"
     inkscape:window-y="877"
     inkscape:window-maximized="1"
     inkscape:current-layer="svg32"
     showguides="true"
     inkscape:guide-bbox="true" />
  <style
     id="style2">.cls-1{fill:#fed136;}</style>
  <g
     transform="matrix(1.0718387,0,0,1.0718387,-23.772595,8.3136225)"
     id="g54"
     style="font-style:normal;font-weight:normal;font-size:35.05601501px;line-height:1.25;font-family:sans-serif;letter-spacing:0px;word-spacing:0px;fill:#000000;fill-opacity:1;stroke:none;stroke-width:0.87640035;filter:url(#filter1017)"
     aria-label="RENOVO">
    <path
       inkscape:connector-curvature="0"
       id="path42"
       style="font-style:normal;font-variant:normal;font-weight:normal;font-stretch:normal;font-family:Sawasdee;-inkscape-font-specification:Sawasdee;fill:#000000;fill-opacity:1;stroke:none;stroke-width:0.87640035"
       d="m 34.028097,27.59589 h 1.540548 V 15.596736 h 7.206339 l 6.573003,11.999154 h 1.728836 L 44.452469,15.494033 c 2.978392,-0.616219 5.237862,-3.372087 5.237862,-6.6243541 0,-3.7657829 -2.892806,-6.8297607 -6.59012,-6.8297607 H 34.028097 Z M 35.568645,14.073306 V 3.5804657 h 7.531566 c 2.755868,0 5.015338,2.3621729 5.015338,5.2892132 0,2.8928061 -2.25947,5.2036271 -4.963987,5.2036271 z" />
    <path
       inkscape:connector-curvature="0"
       id="path44"
       style="font-style:normal;font-variant:normal;font-weight:normal;font-stretch:normal;font-family:Sawasdee;-inkscape-font-specification:Sawasdee;fill:#000000;fill-opacity:1;stroke:none;stroke-width:0.87640035"
       d="M 72.433659,11.985008 H 60.177747 V 3.5804657 H 73.494925 V 2.0399182 H 58.6372 V 27.59589 H 73.426456 V 26.055343 H 60.177747 V 13.525556 h 12.255912 z" />
    <path
       inkscape:connector-curvature="0"
       id="path46"
       style="font-style:normal;font-variant:normal;font-weight:normal;font-stretch:normal;font-family:Sawasdee;-inkscape-font-specification:Sawasdee;fill:#000000;fill-opacity:1;stroke:none;stroke-width:0.87640035"
       d="M 81.397642,27.59589 H 82.93819 V 5.5147087 L 104.42027,27.886882 V 2.0399182 h -1.52343 V 24.138217 L 81.397642,1.7318087 Z" />
    <path
       inkscape:connector-curvature="0"
       id="path48"
       style="font-style:normal;font-variant:normal;font-weight:normal;font-stretch:normal;font-family:Sawasdee;-inkscape-font-specification:Sawasdee;fill:#000000;fill-opacity:1;stroke:none;stroke-width:0.87640035"
       d="m 124.34197,1.8173946 c -7.13787,0 -12.94059,5.8198463 -12.94059,13.0261854 0,7.189222 5.80272,13.009068 12.94059,13.009068 7.15499,0 12.97484,-5.819846 12.97484,-13.009068 0,-7.2063391 -5.81985,-13.0261854 -12.97484,-13.0261854 z M 112.92481,14.84358 c 0,-6.3675966 5.0838,-11.502755 11.41716,-11.502755 6.35048,0 11.45141,5.1351584 11.45141,11.502755 0,6.316245 -5.10093,11.485638 -11.45141,11.485638 -6.33336,0 -11.41716,-5.169393 -11.41716,-11.485638 z" />
    <path
       inkscape:connector-curvature="0"
       id="path50"
       style="font-style:normal;font-variant:normal;font-weight:normal;font-stretch:normal;font-family:Sawasdee;-inkscape-font-specification:Sawasdee;fill:#000000;fill-opacity:1;stroke:none;stroke-width:0.87640035"
       d="M 161.94303,2.0399182 153.31597,23.761638 144.43214,2.0399182 h -1.64325 L 153.36732,27.886882 163.63763,2.0399182 Z" />
    <path
       inkscape:connector-curvature="0"
       id="path52"
       style="font-style:normal;font-variant:normal;font-weight:normal;font-stretch:normal;font-family:Sawasdee;-inkscape-font-specification:Sawasdee;fill:#000000;fill-opacity:1;stroke:none;stroke-width:0.87640035"
       d="m 182.05031,1.8173946 c -7.13787,0 -12.9406,5.8198463 -12.9406,13.0261854 0,7.189222 5.80273,13.009068 12.9406,13.009068 7.15499,0 12.97483,-5.819846 12.97483,-13.009068 0,-7.2063391 -5.81984,-13.0261854 -12.97483,-13.0261854 z M 170.63314,14.84358 c 0,-6.3675966 5.08381,-11.502755 11.41717,-11.502755 6.35048,0 11.4514,5.1351584 11.4514,11.502755 0,6.316245 -5.10092,11.485638 -11.4514,11.485638 -6.33336,0 -11.41717,-5.169393 -11.41717,-11.485638 z" />
  </g>
  <path
     sodipodi:nodetypes="ccccc"
     inkscape:connector-curvature="0"
     id="path56"
     d="m 191.1547,15.035647 c 0.60615,-2.783964 0.70696,-5.8779935 -0.0776,-8.0656011 -1.3031,-3.3375747 -3.99797,-5.305225 -7.28237,-6.69256203 -0.47577,2.74376143 -1.07187,5.74536413 0.28713,8.80807503 1.39582,3.1575471 4.7461,5.0499661 7.07283,5.9500901 z"
     style="fill:#000000;fill-opacity:1;stroke:none;stroke-width:0.18603511px;stroke-linecap:butt;stroke-linejoin:miter;stroke-opacity:1;filter:url(#filter1257)" />
  <path
     style="fill:#000000;fill-opacity:1;stroke:none;stroke-width:0.17180562px;stroke-linecap:butt;stroke-linejoin:miter;stroke-opacity:1;filter:url(#filter1253)"
     d="m 192.68528,14.748297 c 2.50423,-0.847599 5.02846,-2.245095 6.4264,-3.913705 2.08484,-2.6301906 2.44319,-5.7127974 2.07021,-8.9870679 -2.4131,0.9320592 -5.08711,1.8915956 -6.9265,4.434924 -1.89869,2.6179271 -1.90058,6.1857769 -1.57011,8.4658489 z"
     id="path58"
     inkscape:connector-curvature="0"
     sodipodi:nodetypes="ccccc" />
  <path
     sodipodi:nodetypes="ccccc"
     inkscape:connector-curvature="0"
     id="path60"
     d="m 192.92488,16.49822 c 3.32486,3.192349 7.49763,6.007909 11.16154,6.904588 5.67842,1.232344 10.63246,-0.504075 15.27967,-3.498073 -3.37828,-2.990748 -7.01094,-6.359186 -12.35777,-7.281448 -5.50802,-0.957472 -10.90505,1.682133 -14.08344,3.874933 z"
     style="fill:#000000;fill-opacity:1;stroke:none;stroke-width:0.29313472px;stroke-linecap:butt;stroke-linejoin:miter;stroke-opacity:1;filter:url(#filter1249)" />
  <path
     style="fill:#000000;fill-opacity:1;stroke:none;stroke-width:0.2351578px;stroke-linecap:butt;stroke-linejoin:miter;stroke-opacity:1;filter:url(#filter1245)"
     d="m 191.88035,18.000346 c -1.11456,3.418089 -1.64859,7.342294 -0.97357,10.304244 1.16047,4.542236 4.21437,7.641891 8.07037,10.130515 0.94883,-3.395359 2.0798,-7.093235 0.8142,-11.297123 -1.29838,-4.332907 -5.16843,-7.48013 -7.911,-9.137636 z"
     id="path62"
     inkscape:connector-curvature="0"
     sodipodi:nodetypes="ccccc" />
  <g
     aria-label="RENOVo"
     style="font-style:normal;font-variant:normal;font-weight:normal;font-stretch:normal;font-size:33.21548462px;line-height:1.25;font-family:Merhique;-inkscape-font-specification:Merhique;letter-spacing:0px;word-spacing:0px;fill:#4d4d4d;fill-opacity:1;stroke:#000000;stroke-width:0.83038718"
     id="text3763"
     transform="translate(196.92061,157.91436)">
    <path
       d="m 46.800934,7.8181702 v 0 q 0,-1.8577295 -1.152481,-2.7521918 l -0.03439,-0.017201 Q 44.719592,4.3951319 42.947868,4.3951319 h -3.853066 v 9.8390861 h 3.853068 q 1.754523,0 2.683386,-0.670848 1.169683,-0.842858 1.169683,-2.769392 z m 1.530908,-4.3519035 v 0 q 2.150148,1.5137056 2.150148,4.3519035 v 2.9758078 q 0,2.889801 -2.150148,4.386305 l -0.03441,0.03441 q -0.292417,0.223614 -0.670844,0.412828 l -0.688048,0.361225 3.096216,11.76562 H 46.3193 L 43.395097,16.625184 H 39.094799 V 27.754361 H 35.396538 V 1.9869637 h 7.551326 q 3.302632,0 5.366777,1.479303 z"
       style="font-style:normal;font-variant:normal;font-weight:normal;font-stretch:normal;font-family:Merhique;-inkscape-font-specification:Merhique;fill:#000000;fill-opacity:1;stroke:#000000;stroke-width:0.88070142"
       id="path99"
       inkscape:connector-curvature="0" />
    <path
       d="m 70.803081,25.363393 v 0 2.390968 H 57.867779 V 1.9869637 h 12.935302 v 2.4081679 h -9.237042 v 8.9274224 h 6.364444 v 2.390969 h -6.364444 v 9.64987 z"
       style="font-style:normal;font-variant:normal;font-weight:normal;font-stretch:normal;font-family:Merhique;-inkscape-font-specification:Merhique;fill:#000000;fill-opacity:1;stroke:#000000;stroke-width:0.88070142"
       id="path101"
       inkscape:connector-curvature="0" />
    <path
       d="m 81.904336,11.206807 v 0 16.547554 H 78.206077 V 1.9869637 h 1.754514 L 90.126502,18.500116 V 1.9869637 h 3.681055 V 27.754361 H 92.05304 Z"
       style="font-style:normal;font-variant:normal;font-weight:normal;font-stretch:normal;font-family:Merhique;-inkscape-font-specification:Merhique;fill:#000000;fill-opacity:1;stroke:#000000;stroke-width:0.88070142"
       id="path103"
       inkscape:connector-curvature="0" />
    <path
       d="m 104.9088,7.5085488 v 0 14.7414262 q 0,1.909334 1.18689,2.769395 0.89448,0.653645 2.66618,0.653645 1.80613,0 2.6834,-0.653645 v 0 q 1.16967,-0.825658 1.16967,-2.769395 V 7.5085488 q 0,-1.9609368 -1.16967,-2.7693933 v -0.0172 q -0.87727,-0.6536456 -2.6834,-0.6536456 -1.7717,0 -2.68338,0.6708467 -1.16969,0.86006 -1.16969,2.7693922 z m 11.4044,14.7414262 v 0 q 0,2.803797 -2.16735,4.386308 -2.01254,1.444901 -5.38398,1.444901 -3.35421,0 -5.36677,-1.427701 -2.16735,-1.599711 -2.16735,-4.403508 V 7.5085488 q 0,-2.8209968 2.15014,-4.4035071 2.02976,-1.4276996 5.38398,-1.4276996 3.35424,0 5.38398,1.4276996 2.16735,1.5825103 2.16735,4.4035071 z"
       style="font-style:normal;font-variant:normal;font-weight:normal;font-stretch:normal;font-family:Merhique;-inkscape-font-specification:Merhique;fill:#000000;fill-opacity:1;stroke:#000000;stroke-width:0.88070142"
       id="path105"
       inkscape:connector-curvature="0" />
    <path
       d="m 133.34885,27.754361 v 0 h -4.14548 L 122.5293,1.9869637 h 3.71546 l 5.03996,22.1723453 5.03996,-22.1723453 h 3.69825 z"
       style="font-style:normal;font-variant:normal;font-weight:normal;font-stretch:normal;font-family:Merhique;-inkscape-font-specification:Merhique;fill:#000000;fill-opacity:1;stroke:#000000;stroke-width:0.88070142"
       id="path107"
       inkscape:connector-curvature="0" />
    <path
       d="m 149.9373,7.5085488 v 0 14.7414262 q 0,1.909334 1.16968,2.769395 0.91167,0.653645 2.6834,0.653645 1.80611,0 2.66617,-0.653645 h 0.0172 q 1.16968,-0.825658 1.16968,-2.769395 V 7.5085488 q 0,-1.9609368 -1.16968,-2.7693933 l -0.0172,-0.0172 q -0.86006,-0.6536456 -2.66617,-0.6536456 -1.77173,0 -2.6834,0.6708467 -1.16968,0.86006 -1.16968,2.7693922 z m 11.38719,14.7414262 v 0 q 0,2.803797 -2.15014,4.386308 -2.02975,1.444901 -5.38397,1.444901 -3.37144,0 -5.38398,-1.427701 -2.16735,-1.599711 -2.16735,-4.403508 V 7.5085488 q 0,-2.8209968 2.16735,-4.4035071 2.02975,-1.4276996 5.38398,-1.4276996 3.35422,0 5.36677,1.4276996 2.16734,1.5825103 2.16734,4.4035071 z"
       style="font-style:normal;font-variant:normal;font-weight:normal;font-stretch:normal;font-family:Merhique;-inkscape-font-specification:Merhique;fill:#000000;fill-opacity:1;stroke:#000000;stroke-width:0.88070142"
       id="path109"
       inkscape:connector-curvature="0" />
  </g>
  <path
     style="fill:#63bc47;fill-opacity:1;stroke:#63bc47;stroke-width:0.25559315px;stroke-linecap:butt;stroke-linejoin:miter;stroke-opacity:1"
     d="m -96.414549,199.79563 c 3.00183,-5.09813 5.821298,-10.33955 6.454694,-17.2986 0.61812,-6.70178 -2.256604,-13.07624 -5.551049,-18.97683 -3.710065,4.90402 -6.699556,10.39643 -7.100176,17.55679 -0.0699,8.48383 3.670265,15.70301 6.196531,18.71864 z"
     id="path3769"
     inkscape:connector-curvature="0"
     sodipodi:nodetypes="ccccc" />
  <path
     style="fill:#bbd537;fill-opacity:1;stroke:#bbd537;stroke-width:0.25559315px;stroke-linecap:butt;stroke-linejoin:miter;stroke-opacity:1"
     d="m -104.09567,186.3053 c -0.51078,-4.06046 -0.74891,-8.61267 1.30061,-13.86794 -3.36902,-4.11032 -7.13227,-6.36526 -11.1763,-8.78808 -0.0771,7.11204 -0.52412,14.01866 4.90558,21.946 z"
     id="path3771"
     inkscape:connector-curvature="0"
     sodipodi:nodetypes="ccccc" />
  <path
     style="fill:#91c73e;fill-opacity:1;stroke:#91c73e;stroke-width:0.25559315px;stroke-linecap:butt;stroke-linejoin:miter;stroke-opacity:1"
     d="m -116.35959,187.33806 c 4.28162,0.14324 8.39756,-0.21676 12.67918,1.06071 1.25873,5.23748 2.86344,8.81069 6.464353,12.96952 -9.596153,-1.14373 -15.327903,-7.13133 -19.143533,-14.03023 z"
     id="path3773"
     inkscape:connector-curvature="0"
     sodipodi:nodetypes="cccc" />
  <g
     aria-label="RENOVO"
     style="font-style:normal;font-weight:normal;font-size:35.05601501px;line-height:1.25;font-family:sans-serif;letter-spacing:0px;word-spacing:0px;fill:#ffffff;fill-opacity:1;stroke:none;stroke-width:0.87640035"
     id="text114"
     transform="matrix(1.0718387,0,0,1.0718387,-25.423813,6.6624041)">
    <path
       d="m 34.028097,27.59589 h 1.540548 V 15.596736 h 7.206339 l 6.573003,11.999154 h 1.728836 L 44.452469,15.494033 c 2.978392,-0.616219 5.237862,-3.372087 5.237862,-6.6243541 0,-3.7657829 -2.892806,-6.8297607 -6.59012,-6.8297607 H 34.028097 Z M 35.568645,14.073306 V 3.5804657 h 7.531566 c 2.755868,0 5.015338,2.3621729 5.015338,5.2892132 0,2.8928061 -2.25947,5.2036271 -4.963987,5.2036271 z"
       style="font-style:normal;font-variant:normal;font-weight:normal;font-stretch:normal;font-family:Sawasdee;-inkscape-font-specification:Sawasdee;fill:#ffffff;fill-opacity:1;stroke:none;stroke-width:0.87640035"
       id="path120"
       inkscape:connector-curvature="0" />
    <path
       d="M 72.433659,11.985008 H 60.177747 V 3.5804657 H 73.494925 V 2.0399182 H 58.6372 V 27.59589 H 73.426456 V 26.055343 H 60.177747 V 13.525556 h 12.255912 z"
       style="font-style:normal;font-variant:normal;font-weight:normal;font-stretch:normal;font-family:Sawasdee;-inkscape-font-specification:Sawasdee;fill:#ffffff;fill-opacity:1;stroke:none;stroke-width:0.87640035"
       id="path122"
       inkscape:connector-curvature="0" />
    <path
       d="M 81.397642,27.59589 H 82.93819 V 5.5147087 L 104.42027,27.886882 V 2.0399182 h -1.52343 V 24.138217 L 81.397642,1.7318087 Z"
       style="font-style:normal;font-variant:normal;font-weight:normal;font-stretch:normal;font-family:Sawasdee;-inkscape-font-specification:Sawasdee;fill:#ffffff;fill-opacity:1;stroke:none;stroke-width:0.87640035"
       id="path124"
       inkscape:connector-curvature="0" />
    <path
       d="m 124.34197,1.8173946 c -7.13787,0 -12.94059,5.8198463 -12.94059,13.0261854 0,7.189222 5.80272,13.009068 12.94059,13.009068 7.15499,0 12.97484,-5.819846 12.97484,-13.009068 0,-7.2063391 -5.81985,-13.0261854 -12.97484,-13.0261854 z M 112.92481,14.84358 c 0,-6.3675966 5.0838,-11.502755 11.41716,-11.502755 6.35048,0 11.45141,5.1351584 11.45141,11.502755 0,6.316245 -5.10093,11.485638 -11.45141,11.485638 -6.33336,0 -11.41716,-5.169393 -11.41716,-11.485638 z"
       style="font-style:normal;font-variant:normal;font-weight:normal;font-stretch:normal;font-family:Sawasdee;-inkscape-font-specification:Sawasdee;fill:#ffffff;fill-opacity:1;stroke:none;stroke-width:0.87640035"
       id="path126"
       inkscape:connector-curvature="0" />
    <path
       d="M 161.94303,2.0399182 153.31597,23.761638 144.43214,2.0399182 h -1.64325 L 153.36732,27.886882 163.63763,2.0399182 Z"
       style="font-style:normal;font-variant:normal;font-weight:normal;font-stretch:normal;font-family:Sawasdee;-inkscape-font-specification:Sawasdee;fill:#ffffff;fill-opacity:1;stroke:none;stroke-width:0.87640035"
       id="path128"
       inkscape:connector-curvature="0" />
    <path
       d="m 182.05031,1.8173946 c -7.13787,0 -12.9406,5.8198463 -12.9406,13.0261854 0,7.189222 5.80273,13.009068 12.9406,13.009068 7.15499,0 12.97483,-5.819846 12.97483,-13.009068 0,-7.2063391 -5.81984,-13.0261854 -12.97483,-13.0261854 z M 170.63314,14.84358 c 0,-6.3675966 5.08381,-11.502755 11.41717,-11.502755 6.35048,0 11.4514,5.1351584 11.4514,11.502755 0,6.316245 -5.10092,11.485638 -11.4514,11.485638 -6.33336,0 -11.41717,-5.169393 -11.41717,-11.485638 z"
       style="font-style:normal;font-variant:normal;font-weight:normal;font-stretch:normal;font-family:Sawasdee;-inkscape-font-specification:Sawasdee;fill:#ffffff;fill-opacity:1;stroke:none;stroke-width:0.87640035"
       id="path130"
       inkscape:connector-curvature="0" />
  </g>
  <text
     id="text118"
     y="220.79953"
     x="218.01646"
     style="font-style:normal;font-weight:normal;font-size:40px;line-height:1.25;font-family:sans-serif;letter-spacing:0px;word-spacing:0px;fill:#000000;fill-opacity:1;stroke:none"
     xml:space="preserve"><tspan
       style="font-style:normal;font-variant:normal;font-weight:normal;font-stretch:normal;font-family:Sawasdee;-inkscape-font-specification:Sawasdee;stroke:#000000"
       y="220.79953"
       x="218.01646"
       id="tspan116"
       sodipodi:role="line">RENOVO</tspan></text>
  <text
     xml:space="preserve"
     style="font-style:normal;font-weight:normal;font-size:9.35369015px;line-height:1.25;font-family:sans-serif;letter-spacing:0px;word-spacing:0px;fill:#000000;fill-opacity:1;stroke:none;stroke-width:0.23384227"
     x="-65.221718"
     y="201.6992"
     id="text177"><tspan
       sodipodi:role="line"
       id="tspan175"
       x="-65.221718"
       y="201.6992"
       style="font-style:normal;font-variant:normal;font-weight:normal;font-stretch:normal;font-family:Roboto;-inkscape-font-specification:Roboto;letter-spacing:0.73000002px;stroke-width:0.23384227">Consultoria Ambiental Inteligente</tspan></text>
  <text
     id="text181"
     y="181.80299"
     x="-62.935837"
     style="font-style:normal;font-weight:normal;font-size:9.66673565px;line-height:1.25;font-family:sans-serif;letter-spacing:0px;word-spacing:0px;fill:#000000;fill-opacity:1;stroke:none;stroke-width:0.2416684"
     xml:space="preserve"><tspan
       style="font-style:normal;font-variant:normal;font-weight:normal;font-stretch:normal;font-family:Sawasdee;-inkscape-font-specification:Sawasdee;stroke-width:0.2416684"
       y="181.80299"
       x="-62.935837"
       id="tspan179"
       sodipodi:role="line">Consultoria Ambiental Inteligente</tspan></text>
  <text
     id="text185"
     y="172.34346"
     x="-62.918259"
     style="font-style:normal;font-weight:normal;font-size:9.35369015px;line-height:1.25;font-family:sans-serif;letter-spacing:0px;word-spacing:0px;fill:#000000;fill-opacity:1;stroke:none;stroke-width:0.23384227"
     xml:space="preserve"><tspan
       style="font-style:normal;font-variant:normal;font-weight:normal;font-stretch:normal;font-family:serif;-inkscape-font-specification:serif;stroke-width:0.23384227"
       y="172.34346"
       x="-62.918259"
       id="tspan183"
       sodipodi:role="line">Consultoria Ambiental Inteligente</tspan></text>
  <text
     id="text193"
     y="192.32381"
     x="-62.455208"
     style="font-style:normal;font-weight:normal;font-size:9.35369015px;line-height:1.25;font-family:sans-serif;letter-spacing:0px;word-spacing:0px;fill:#000000;fill-opacity:1;stroke:none;stroke-width:0.23384227"
     xml:space="preserve"><tspan
       style="font-style:normal;font-variant:normal;font-weight:normal;font-stretch:normal;font-family:Roboto;-inkscape-font-specification:Roboto;letter-spacing:0.73000002px;stroke-width:0.23384227"
       y="192.32381"
       x="-62.455208"
       id="tspan191"
       sodipodi:role="line">Consultoria Ambiental Inteligente</tspan></text>
  <text
     xml:space="preserve"
     style="font-style:normal;font-variant:normal;font-weight:normal;font-stretch:normal;font-size:15.85355854px;line-height:1.25;font-family:Merhique;-inkscape-font-specification:Merhique;letter-spacing:0px;word-spacing:0px;fill:#4d4d4d;fill-opacity:1;stroke:none;stroke-width:0.396339"
     x="-198.50294"
     y="198.69539"
     id="text3715"><tspan
       sodipodi:role="line"
       id="tspan3713"
       x="-198.50294"
       y="198.69539"
       style="font-style:normal;font-variant:normal;font-weight:normal;font-stretch:normal;font-family:Merhique;-inkscape-font-specification:Merhique;fill:#4d4d4d;fill-opacity:1;stroke-width:0.396339">RENOVo</tspan></text>
  <path
     style="fill:#fdbf0c;fill-opacity:1;stroke:#fdbf0c;stroke-width:0.18603511px;stroke-linecap:butt;stroke-linejoin:miter;stroke-opacity:1"
     d="m 189.1547,15.035647 c 0.60615,-2.783964 0.70696,-5.8779935 -0.0776,-8.0656011 -1.3031,-3.3375747 -3.99797,-5.305225 -7.28237,-6.69256203 -0.47577,2.74376143 -1.07187,5.74536413 0.28713,8.80807503 1.39582,3.1575471 4.7461,5.0499661 7.07283,5.9500901 z"
     id="path3728"
     inkscape:connector-curvature="0"
     sodipodi:nodetypes="ccccc" />
  <path
     sodipodi:nodetypes="ccccc"
     inkscape:connector-curvature="0"
     id="path3730"
     d="m 190.68528,14.748297 c 2.50423,-0.847599 5.02846,-2.245095 6.4264,-3.913705 2.08484,-2.6301906 2.44319,-5.7127974 2.07021,-8.9870679 -2.4131,0.9320592 -5.08711,1.8915956 -6.9265,4.434924 -1.89869,2.6179271 -1.90058,6.1857769 -1.57011,8.4658489 z"
     style="fill:#63bc46;fill-opacity:1;stroke:#63bc46;stroke-width:0.17180562px;stroke-linecap:butt;stroke-linejoin:miter;stroke-opacity:1" />
  <path
     style="fill:#91c73e;fill-opacity:1;stroke:#91c73e;stroke-width:0.29313472px;stroke-linecap:butt;stroke-linejoin:miter;stroke-opacity:1"
     d="m 190.92488,16.49822 c 3.32486,3.192349 7.49763,6.007909 11.16154,6.904588 5.67842,1.232344 10.63246,-0.504075 15.27967,-3.498073 -3.37828,-2.990748 -7.01094,-6.359186 -12.35777,-7.281448 -5.50802,-0.957472 -10.90505,1.682133 -14.08344,3.874933 z"
     id="path3732"
     inkscape:connector-curvature="0"
     sodipodi:nodetypes="ccccc" />
  <path
     sodipodi:nodetypes="ccccc"
     inkscape:connector-curvature="0"
     id="path3734"
     d="m 189.88035,18.000346 c -1.11456,3.418089 -1.64859,7.342294 -0.97357,10.304244 1.16047,4.542236 4.21437,7.641891 8.07037,10.130515 0.94883,-3.395359 2.0798,-7.093235 0.8142,-11.297123 -1.29838,-4.332907 -5.16843,-7.48013 -7.911,-9.137636 z"
     style="fill:#bbd631;fill-opacity:1;stroke:#bbd631;stroke-width:0.2351578px;stroke-linecap:butt;stroke-linejoin:miter;stroke-opacity:1" />
  <text
     xml:space="preserve"
     style="font-style:normal;font-weight:normal;font-size:4.9377346px;line-height:1.25;font-family:sans-serif;letter-spacing:0px;word-spacing:0px;fill:#000000;fill-opacity:1;stroke:none;stroke-width:0.12344337"
     x="-198.37695"
     y="204.17355"
     id="text3738"><tspan
       sodipodi:role="line"
       id="tspan3736"
       x="-198.37695"
       y="204.17355"
       style="font-style:normal;font-variant:normal;font-weight:normal;font-stretch:normal;font-family:Sawasdee;-inkscape-font-specification:Sawasdee;stroke-width:0.12344337">Consultoria Ambiental</tspan></text>
</svg>
