<?xml version="1.0" encoding="UTF-8" standalone="no"?>
<!-- Created with Inkscape (http://www.inkscape.org/) -->

<svg
   xmlns:dc="http://purl.org/dc/elements/1.1/"
   xmlns:cc="http://creativecommons.org/ns#"
   xmlns:rdf="http://www.w3.org/1999/02/22-rdf-syntax-ns#"
   xmlns:svg="http://www.w3.org/2000/svg"
   xmlns="http://www.w3.org/2000/svg"
   xmlns:sodipodi="http://sodipodi.sourceforge.net/DTD/sodipodi-0.dtd"
   xmlns:inkscape="http://www.inkscape.org/namespaces/inkscape"
   width="105.1313"
   height="56.43029"
   viewBox="0 0 105.13129 56.43029"
   id="svg4507"
   version="1.1"
   inkscape:version="0.91 r13725"
   sodipodi:docname="simple_bus.svg"
   inkscape:export-filename="C:\Users\dchentsov\simple_bus.png"
   inkscape:export-xdpi="90"
   inkscape:export-ydpi="90">
  <defs
     id="defs4509" />
  <sodipodi:namedview
     id="base"
     pagecolor="#ffffff"
     bordercolor="#666666"
     borderopacity="1.0"
     inkscape:pageopacity="0.0"
     inkscape:pageshadow="2"
     inkscape:zoom="0.98994949"
     inkscape:cx="379.10232"
     inkscape:cy="221.66979"
     inkscape:document-units="px"
     inkscape:current-layer="layer1"
     showgrid="false"
     inkscape:window-width="1366"
     inkscape:window-height="706"
     inkscape:window-x="1672"
     inkscape:window-y="511"
     inkscape:window-maximized="1"
     showborder="true"
     fit-margin-top="0"
     fit-margin-left="0"
     fit-margin-right="0"
     fit-margin-bottom="0"
     units="px" />
  <metadata
     id="metadata4512">
    <rdf:RDF>
      <cc:Work
         rdf:about="">
        <dc:format>image/svg+xml</dc:format>
        <dc:type
           rdf:resource="http://purl.org/dc/dcmitype/StillImage" />
        <dc:title></dc:title>
      </cc:Work>
    </rdf:RDF>
  </metadata>
  <g
     inkscape:label="Layer 1"
     inkscape:groupmode="layer"
     id="layer1"
     transform="translate(-3.4229534,-249.57446)">
    <g
       id="g4839"
       transform="matrix(0.19093655,0,0,0.19093655,2.7693803,247.57726)">
      <path
         id="path126"
         style="fill:#fed136;fill-opacity:1;fill-rule:nonzero;stroke:#000000;stroke-width:1.25;stroke-linecap:butt;stroke-linejoin:miter;stroke-miterlimit:4;stroke-dasharray:none;stroke-opacity:1"
         d="m 63.13202,88.39706 c 0.16725,-0.41875 18.55713,-37.09963 32.39013,-54.87188 14.83888,-18.94525 20.53837,-18.61075 43.17262,-19.78387 83.16038,-4.2761302 169.58987,-2.51463 245.45837,-0.75438 24.309,0.3345 45.3515,3.269 61.53075,10.227 l 12.65863,13.07625 14.75588,30.6005 0.30275,6.753 46.35988,58.26163 c 7.627,9.64113 6.45512,1.76025 11.65037,8.88675 l 16.85063,23.13725 c 1.42575,1.92875 -1.42338,25.56888 -2.51463,38.39475 0,1.09013 -2.09475,-0.0843 -2.18025,1.00588 l -2.17775,17.85637 -25.48575,0 -1.76025,18.35825 c -14.6705,2.68313 -30.26375,4.69475 -45.52,5.11475 -2.01175,-7.461 -3.10313,-15.09162 -5.95225,-22.46712 0,0 -8.12987,-17.09225 -25.90326,-17.09225 l -28.92338,-0.26125 c -13.7475,0 -19.44825,6.45512 -23.55462,15.00612 -9.38975,19.5325 -7.6295,27.66363 -9.05525,27.66363 l -188.70174,0 c -1.93,-10.73 -5.61888,-20.45413 -12.57688,-31.687 l -0.083,0 0,0 c -0.6715,-0.6715 -1.59312,-11.067 -20.95825,-11.067 l -32.3585,0 c -6.20362,0 -15.42475,4.02475 -19.36525,10.98275 -11.73575,21.04125 -7.04212,24.3945 -8.551,24.309 l -31.01675,-1.67475 -2.18025,-18.27513 -16.597874,-0.23075 c -3.52175,-27.99925 -6.37213,-35.481 -6.37213,-46.88237 0,-1.42575 1.84575,-1.3415 1.84575,-2.43163 l -0.33687,-9.22112 c 0,-0.75438 -1.76025,-0.92163 -1.76025,-2.096 0,-4.94625 1.25725,-6.87375 3.27025,-13.58025 L 63.13202,88.39706 Z"
         inkscape:connector-curvature="0" />
      <path
         id="path130"
         style="fill:none;stroke:#000000;stroke-width:1.10887504;stroke-linecap:butt;stroke-linejoin:miter;stroke-miterlimit:4;stroke-dasharray:none;stroke-opacity:1"
         d="m 508.02277,179.77406 0,37.37788 -45.7715,0.01 c -5.36375,-6.11938 -10.813,-11.903 -19.19676,-13.7475 -11.14987,-3.01888 -22.38287,-1.42588 -33.11287,-1.8445 l -14.58738,0 -24.56049,-8.38375 0,-19.24325 137.229,0 0,5.83137"
         inkscape:connector-curvature="0" />
      <path
         id="path132"
         style="fill:none;stroke:#000000;stroke-width:1.10887504;stroke-linecap:square;stroke-linejoin:miter;stroke-miterlimit:4;stroke-dasharray:none;stroke-opacity:1"
         d="m 507.85677,223.61681 0,10.05975 c -12.65875,2.26325 -25.82037,3.68775 -38.81349,4.94638 -1.00838,-4.94638 -2.09713,-14.336 -6.958,-21.377 l 45.77149,0 0,6.37087"
         inkscape:connector-curvature="0" />
      <path
         id="path136"
         style="fill:none;stroke:#000000;stroke-width:1.10887504;stroke-linecap:square;stroke-linejoin:miter;stroke-miterlimit:4;stroke-dasharray:none;stroke-opacity:1"
         d="m 370.79377,192.68294 0,-105.37476"
         inkscape:connector-curvature="0" />
      <path
         id="path138"
         style="fill:none;stroke:#000000;stroke-width:1.10887504;stroke-linecap:butt;stroke-linejoin:miter;stroke-miterlimit:4;stroke-dasharray:none;stroke-opacity:1"
         d="m 370.79377,172.94544 0,-91.67363"
         inkscape:connector-curvature="0" />
      <path
         id="path140"
         style="fill:none;stroke:#000000;stroke-width:1.10887504;stroke-linecap:butt;stroke-linejoin:miter;stroke-miterlimit:4;stroke-dasharray:none;stroke-opacity:1"
         d="m 463.42552,219.42606 77.627,0"
         inkscape:connector-curvature="0" />
      <path
         id="path142"
         style="fill:none;stroke:#000000;stroke-width:1.10887504;stroke-linecap:butt;stroke-linejoin:miter;stroke-miterlimit:4;stroke-dasharray:none;stroke-opacity:1"
         d="m 543.23277,202.82694 -27.07775,-0.12563 -8.63525,14.54463"
         inkscape:connector-curvature="0" />
      <path
         id="path144"
         style="fill:none;stroke:#000000;stroke-width:1.10887504;stroke-linecap:butt;stroke-linejoin:miter;stroke-miterlimit:4;stroke-dasharray:none;stroke-opacity:1"
         d="m 173.62152,216.50981 212.24425,0.25513"
         inkscape:connector-curvature="0" />
      <path
         id="path146"
         style="fill:none;stroke:#000000;stroke-width:1.10887504;stroke-linecap:butt;stroke-linejoin:miter;stroke-miterlimit:4;stroke-dasharray:none;stroke-opacity:1"
         d="m 174.9619,218.67169 209.80399,0.24175"
         inkscape:connector-curvature="0" />
      <path
         id="path148"
         style="fill:none;stroke:#000000;stroke-width:1.10887504;stroke-linecap:butt;stroke-linejoin:miter;stroke-miterlimit:4;stroke-dasharray:none;stroke-opacity:1"
         d="m 512.46615,137.77331 c 8.63525,6.372 12.57562,0.58713 14.58737,-0.3345"
         inkscape:connector-curvature="0" />
      <path
         id="path150"
         style="fill:none;stroke:#000000;stroke-width:1.10887504;stroke-linecap:butt;stroke-linejoin:miter;stroke-miterlimit:4;stroke-dasharray:none;stroke-opacity:1"
         d="m 547.84452,163.25906 c -5.78612,-1.17425 -9.97799,-1.84437 -18.69624,-3.52162 -7.124,-1.17313 -7.2925,-3.35338 -9.22126,-5.53225 L 471.3064,77.41443"
         inkscape:connector-curvature="0" />
      <path
         id="path152"
         style="fill:#c4eef2;fill-opacity:1;fill-rule:nonzero;stroke:#000000;stroke-width:1.10887504;stroke-linecap:butt;stroke-linejoin:miter;stroke-miterlimit:4;stroke-dasharray:none;stroke-opacity:1"
         d="m 473.23277,73.55943 c -1.08887,0.83863 -2.42925,3.35325 -1.67487,4.10763 l 41.07662,60.10625 c 2.01175,2.01288 7.378,-0.75437 8.96975,-3.43625 l -48.3715,-60.77763 z"
         inkscape:connector-curvature="0" />
      <path
         id="path156"
         style="fill:none;stroke:#000000;stroke-width:1.10887504;stroke-linecap:butt;stroke-linejoin:miter;stroke-miterlimit:4;stroke-dasharray:none;stroke-opacity:1"
         d="m 92.2214,239.88019 c 2.34737,-10.4785 5.19775,-20.874 11.73575,-27.32913 4.78038,-4.77775 7.461,-6.958 15.59325,-7.71237 l 38.22638,0 c 8.88674,0.503 12.74287,5.282 15.34175,9.89137 6.28662,10.061 10.8155,20.94975 13.74762,32.85275"
         inkscape:connector-curvature="0" />
      <path
         id="path158"
         style="fill:none;stroke:#000000;stroke-width:1.10887504;stroke-linecap:butt;stroke-linejoin:miter;stroke-miterlimit:4;stroke-dasharray:none;stroke-opacity:1"
         d="m 92.2214,239.88019 c 2.34737,-10.4785 5.19775,-20.874 11.73575,-27.32913 4.78038,-4.77775 7.461,-6.958 15.59325,-7.71237 l 38.22638,0 c 8.88674,0.503 12.74287,5.282 15.34175,9.89137 6.28662,10.061 10.8155,20.94975 13.74762,32.85275"
         inkscape:connector-curvature="0" />
      <path
         id="path160"
         style="fill:#ef940e;fill-opacity:1;fill-rule:nonzero;stroke:#000000;stroke-width:1.10887504;stroke-linecap:butt;stroke-linejoin:miter;stroke-miterlimit:4;stroke-dasharray:none;stroke-opacity:1"
         d="m 524.2874,204.92294 c 2.26313,0 4.69487,0 6.958,0 2.26325,0 4.60937,0 6.958,0 1.50875,0 2.18025,1.3415 1.34037,3.01762 -0.503,1.173 -1.08887,2.51463 -1.67725,3.68888 -0.50299,1.17312 -1.08887,2.4305 -1.59187,3.5205 -0.67138,1.50887 -2.26313,2.59887 -3.68888,2.59887 0.61763,0 -0.50537,0.32475 -5.62262,0.32475 -2.18013,0 -5.10738,-0.1575 -7.20213,-0.1575 -1.42575,0 -2.26562,-1.173 -1.84575,-2.59762 0.42,-1.17425 0.83988,-2.43163 1.17438,-3.606 0.3345,-1.173 0.83737,-2.59888 1.25737,-3.85613 0.50288,-1.59187 2.26313,-2.93337 3.94038,-2.93337 z"
         inkscape:connector-curvature="0" />
      <path
         id="path162"
         style="fill:#001310;fill-opacity:1;fill-rule:nonzero;stroke:#000000;stroke-width:1.10887504;stroke-linecap:butt;stroke-linejoin:miter;stroke-miterlimit:4;stroke-dasharray:none;stroke-opacity:1"
         d="m 553.45977,223.19806 c -0.2515,-1.17425 -0.586,-1.51 -2.93462,-1.8445 l -34.28712,0 -2.26313,23.30575 c 18.10787,-0.42 23.30563,-1.7615 34.20412,-4.19187 6.20363,-0.83863 5.19775,-9.72413 5.28075,-17.26938 z"
         inkscape:connector-curvature="0" />
      <path
         id="path164"
         style="fill:#001310;fill-opacity:1;fill-rule:nonzero;stroke:#000000;stroke-width:1.10887504;stroke-linecap:butt;stroke-linejoin:miter;stroke-miterlimit:4;stroke-dasharray:none;stroke-opacity:1"
         d="m 57.43127,220.42219 -28.332504,0 c -2.68312,1.01562 -4.69475,11.0755 -1.25725,16.35625 2.76613,3.4375 22.211884,1.5075 33.745134,2.34612 L 60.1804,223.02969 c -0.719,-1.25613 -1.49175,-1.76025 -2.74913,-2.6075 z"
         inkscape:connector-curvature="0" />
      <path
         id="path166"
         style="fill:none;stroke:#000000;stroke-width:1.10887504;stroke-linecap:butt;stroke-linejoin:miter;stroke-miterlimit:4;stroke-dasharray:none;stroke-opacity:1"
         d="m 548.6819,167.11531 -8.21525,0 c -2.18025,0.083 -3.689,0.75438 -3.689,3.01763 l -0.83737,21.37687 c -0.2515,2.76613 0.92037,3.85625 3.68887,4.192 l 6.62113,0.75438 2.43162,-29.34088 z"
         inkscape:connector-curvature="0" />
      <path
         id="path168"
         style="fill:none;stroke:#000000;stroke-width:1.10887504;stroke-linecap:butt;stroke-linejoin:miter;stroke-miterlimit:4;stroke-dasharray:none;stroke-opacity:1"
         d="m 100.93965,216.15581 -58.347254,0"
         inkscape:connector-curvature="0" />
      <path
         id="path170"
         style="fill:none;stroke:#000000;stroke-width:1.10887504;stroke-linecap:butt;stroke-linejoin:miter;stroke-miterlimit:4;stroke-dasharray:none;stroke-opacity:1"
         d="m 99.2624,218.75469 -56.585754,0"
         inkscape:connector-curvature="0" />
      <path
         id="path172"
         style="fill:#f8f8f8;fill-opacity:1;fill-rule:nonzero;stroke:#000000;stroke-width:0.93062496;stroke-linecap:butt;stroke-linejoin:miter;stroke-miterlimit:4;stroke-dasharray:none;stroke-opacity:1"
         d="m 539.88065,168.28844 c -1.34275,0 -2.43162,5.95212 -2.43162,13.32887 0,7.37788 1.08887,13.33 2.43162,13.33 1.34037,0 2.42925,-5.95212 2.42925,-13.33 0,-7.37675 -1.08888,-13.32887 -2.42925,-13.32887 z"
         inkscape:connector-curvature="0" />
      <path
         id="path174"
         style="fill:none;stroke:#000000;stroke-width:1.10887504;stroke-linecap:butt;stroke-linejoin:miter;stroke-miterlimit:4;stroke-dasharray:none;stroke-opacity:1"
         d="m 553.62827,224.20394 -37.30475,0"
         inkscape:connector-curvature="0" />
      <path
         id="path190"
         style="fill:#c4eef2;fill-opacity:1;fill-rule:nonzero;stroke:#000000;stroke-width:1.10887504;stroke-linecap:butt;stroke-linejoin:miter;stroke-miterlimit:4;stroke-dasharray:none;stroke-opacity:1"
         d="m 380.62776,87.13968 71.65764,0 c 0.3345,0 1.00588,0.503 1.00588,1.17438 l 0.0732,48.55963 c 0,0.16712 0.46875,3.0895 -0.91062,3.0895 l -70.76413,-0.01 c -3.01513,0 -4.43113,-1.25725 -4.76563,-3.94038 l -0.23687,-46.94463 c 0,-0.50287 1.09137,-1.593 1.51125,-1.76025 0.503,0 1.59175,-0.1685 2.42925,-0.1685 z"
         inkscape:connector-curvature="0" />
      <path
         id="path192"
         style="fill:#c4eef2;fill-opacity:1;fill-rule:nonzero;stroke:#000000;stroke-width:1.10887504;stroke-linecap:butt;stroke-linejoin:miter;stroke-miterlimit:4;stroke-dasharray:none;stroke-opacity:1"
         d="m 473.14965,139.86919 -15.17325,0 0,-49.04051 c 0.083,-0.50287 -0.83737,-4.61175 1.59175,-2.76737 0.503,0 0.83987,0 1.42575,0.25275 1.59425,0.83737 3.4375,2.09475 4.77787,3.68775 l 0.2515,0.58712 0.67138,0.92163 c 8.80125,10.98275 20.957,29.34213 27.915,41.58088 0,0.16725 3.2715,4.69475 -2.76613,4.862 l -18.69387,-0.0842 z"
         inkscape:connector-curvature="0" />
      <path
         id="path194"
         style="fill:none;stroke:#000000;stroke-width:1.10887504;stroke-linecap:butt;stroke-linejoin:miter;stroke-miterlimit:4;stroke-dasharray:none;stroke-opacity:1"
         d="m 370.79377,81.27181 90.78851,-0.094 c 10.56162,11.73712 43.40337,53.24338 46.58699,77.3865 l -0.16599,0.16725 0.0195,12.84425"
         inkscape:connector-curvature="0" />
      <path
         id="path200"
         style="fill:#000000;fill-opacity:1;fill-rule:nonzero;stroke:#000000;stroke-width:1.10887504;stroke-linecap:butt;stroke-linejoin:miter;stroke-miterlimit:4;stroke-dasharray:none;stroke-opacity:1"
         d="m 422.64927,215.14994 c 24.86325,0 45.15251,20.19287 45.15251,45.15025 0,24.86075 -20.28926,45.15012 -45.15251,45.15012 -24.85726,0 -45.24176,-20.28937 -45.24176,-45.15012 0,-24.95738 20.3845,-45.15025 45.24176,-45.15025 z"
         inkscape:connector-curvature="0" />
      <path
         id="path202"
         style="fill:#ffffff;fill-opacity:1;fill-rule:nonzero;stroke:#000000;stroke-width:1.10887504;stroke-linecap:butt;stroke-linejoin:miter;stroke-miterlimit:4;stroke-dasharray:none;stroke-opacity:1"
         d="m 422.17551,233.05769 c 15.05138,0 27.33775,12.19 27.33775,27.2425 0,15.05125 -12.28637,27.33762 -27.33775,27.33762 -15.05,0 -27.33512,-12.28637 -27.33512,-27.33762 0,-15.0525 12.28513,-27.2425 27.33513,-27.2425 z"
         inkscape:connector-curvature="0" />
      <path
         id="path204"
         style="fill:#ffffff;fill-opacity:1;fill-rule:nonzero;stroke:#000000;stroke-width:3.32662487;stroke-linecap:butt;stroke-linejoin:miter;stroke-miterlimit:4;stroke-dasharray:none;stroke-opacity:1"
         d="m 422.27202,239.53481 c 11.52337,0 20.95574,9.33588 20.95574,20.8605 0,11.61988 -9.43237,21.05113 -20.95574,21.05113 -11.52588,0 -20.95826,-9.43125 -20.95826,-21.05113 0,-11.52462 9.43238,-20.8605 20.95826,-20.8605 z"
         inkscape:connector-curvature="0" />
      <path
         id="path206"
         style="fill:#000000;fill-opacity:1;fill-rule:nonzero;stroke:#000000;stroke-width:0.99237502;stroke-linecap:butt;stroke-linejoin:miter;stroke-miterlimit:4;stroke-dasharray:none;stroke-opacity:1"
         d="m 422.25489,267.48519 c -3.91112,0 -7.01287,-3.03463 -7.01287,-6.94463 0,-3.84275 3.10175,-6.87862 7.01287,-6.87862 3.84525,0 6.94587,3.03587 6.94587,6.87862 0,3.91 -3.10062,6.94463 -6.94587,6.94463 z"
         inkscape:connector-curvature="0" />
      <path
         id="path208"
         style="fill:#ffffff;fill-opacity:1;fill-rule:nonzero;stroke:none"
         d="m 422.26714,267.03969 c -3.64013,0 -6.54175,-2.90038 -6.54175,-6.47463 0,-3.64012 2.90162,-6.47337 6.54175,-6.47337 3.57537,0 6.47337,2.83325 6.47337,6.47337 0,3.57425 -2.898,6.47463 -6.47337,6.47463 z"
         inkscape:connector-curvature="0" />
      <path
         id="path210"
         style="fill:#000000;fill-opacity:1;fill-rule:nonzero;stroke:none"
         d="m 421.59214,260.49794 1.41837,0 1.95438,-4.45075 c 0.6055,0.33687 0.94362,0.74225 1.48562,1.21337 l -2.43162,5.93388 -1.00838,-2.2925 -1.41837,0 -1.00963,2.2925 -2.49625,-5.73125 c 0.2685,-0.404 1.079,-1.14738 1.61988,-1.416 l 1.886,4.45075 z"
         inkscape:connector-curvature="0" />
      <path
         id="path212"
         style="fill:#000000;fill-opacity:1;fill-rule:nonzero;stroke:none"
         d="m 422.33551,259.08306 -1.34762,-3.57412 c 0.47112,-0.20388 2.22525,-0.20388 2.8295,0.13425 l -1.48188,3.43987 z"
         inkscape:connector-curvature="0" />
      <path
         id="path214"
         style="fill:#000000;fill-opacity:1;fill-rule:nonzero;stroke:none"
         d="m 420.04176,265.48694 c -2.29125,-1.21338 -3.43987,-3.573 -2.76612,-6.40388 l 2.76612,6.40388 z"
         inkscape:connector-curvature="0" />
      <path
         id="path216"
         style="fill:#000000;fill-opacity:1;fill-rule:nonzero;stroke:none"
         d="m 423.68439,265.82506 c -1.01325,0.20263 -2.02275,0.26975 -2.832,-0.066 l 1.48313,-3.37275 1.34887,3.43875 z"
         inkscape:connector-curvature="0" />
      <path
         id="path218"
         style="fill:#000000;fill-opacity:1;fill-rule:nonzero;stroke:none"
         d="m 424.42539,265.48694 2.83075,-6.8775 c 1.14625,2.76612 -0.2685,5.7325 -2.83075,6.8775 z"
         inkscape:connector-curvature="0" />
      <path
         id="path220"
         style="fill:none;stroke:#ffffff;stroke-width:0.625;stroke-linecap:butt;stroke-linejoin:miter;stroke-miterlimit:4;stroke-dasharray:none;stroke-opacity:1"
         d="m 391.99614,260.56256 c 0,16.64063 13.49,30.13063 30.12812,30.13063"
         inkscape:connector-curvature="0" />
      <path
         id="path222"
         style="fill:none;stroke:#000000;stroke-width:0.625;stroke-linecap:butt;stroke-linejoin:miter;stroke-miterlimit:4;stroke-dasharray:none;stroke-opacity:1"
         d="m 447.27202,260.56256 c 0,-13.75612 -11.15238,-24.90962 -24.91088,-24.90962"
         inkscape:connector-curvature="0" />
      <path
         id="path224"
         style="fill:none;stroke:#000000;stroke-width:0.625;stroke-linecap:butt;stroke-linejoin:miter;stroke-miterlimit:4;stroke-dasharray:none;stroke-opacity:1"
         d="m 439.50952,260.56256 c 0,-9.56787 -7.75876,-17.32425 -17.32663,-17.32425"
         inkscape:connector-curvature="0" />
      <path
         id="path228"
         style="fill:none;stroke:#000000;stroke-width:1.10887504;stroke-linecap:square;stroke-linejoin:miter;stroke-miterlimit:4;stroke-dasharray:none;stroke-opacity:1"
         d="m 471.15015,75.42218 -106.95801,0 -0.01,-31.75287 -145.83799,0 -0.094,31.75287 -145.44675,0 -30.648254,72.83088 c -3.10175,9.63988 -2.85025,15.8435 -2.43163,25.31738 l 6.036384,44.59587"
         inkscape:connector-curvature="0" />
      <path
         id="path230"
         style="fill:none;stroke:#000000;stroke-width:1.10887504;stroke-linecap:butt;stroke-linejoin:miter;stroke-miterlimit:4;stroke-dasharray:none;stroke-opacity:1"
         d="m 92.67177,37.80018 366.62788,0"
         inkscape:connector-curvature="0" />
      <path
         id="path232"
         style="fill:none;stroke:#000000;stroke-width:1.10887504;stroke-linecap:butt;stroke-linejoin:miter;stroke-miterlimit:4;stroke-dasharray:none;stroke-opacity:1"
         d="m 133.32978,14.49568 0,23.28863"
         inkscape:connector-curvature="0" />
      <path
         id="path234"
         style="fill:none;stroke:#000000;stroke-width:1.10887504;stroke-linecap:butt;stroke-linejoin:miter;stroke-miterlimit:4;stroke-dasharray:none;stroke-opacity:1"
         d="m 224.9569,11.47806 0,26.30737"
         inkscape:connector-curvature="0" />
      <path
         id="path236"
         style="fill:none;stroke:#000000;stroke-width:1.10887504;stroke-linecap:butt;stroke-linejoin:miter;stroke-miterlimit:4;stroke-dasharray:none;stroke-opacity:1"
         d="m 319.35089,11.89681 0,25.73612"
         inkscape:connector-curvature="0" />
      <path
         id="path238"
         style="fill:none;stroke:#000000;stroke-width:1.10887504;stroke-linecap:butt;stroke-linejoin:miter;stroke-miterlimit:4;stroke-dasharray:none;stroke-opacity:1"
         d="m 319.35089,11.89681 0,25.73612"
         inkscape:connector-curvature="0" />
      <path
         id="path240"
         style="fill:none;stroke:#000000;stroke-width:1.10887504;stroke-linecap:butt;stroke-linejoin:miter;stroke-miterlimit:4;stroke-dasharray:none;stroke-opacity:1"
         d="m 178.26265,12.25206 0,25.49562"
         inkscape:connector-curvature="0" />
      <path
         id="path242"
         style="fill:none;stroke:#000000;stroke-width:1.10887504;stroke-linecap:butt;stroke-linejoin:miter;stroke-miterlimit:4;stroke-dasharray:none;stroke-opacity:1"
         d="m 271.98701,11.81131 0,25.82162"
         inkscape:connector-curvature="0" />
      <path
         id="path244"
         style="fill:none;stroke:#000000;stroke-width:1.10887504;stroke-linecap:butt;stroke-linejoin:miter;stroke-miterlimit:4;stroke-dasharray:none;stroke-opacity:1"
         d="m 271.98701,11.81131 0,25.82162"
         inkscape:connector-curvature="0" />
      <path
         id="path246"
         style="fill:none;stroke:#000000;stroke-width:1.10887504;stroke-linecap:butt;stroke-linejoin:miter;stroke-miterlimit:4;stroke-dasharray:none;stroke-opacity:1"
         d="m 368.30839,12.48881 0,25.29062"
         inkscape:connector-curvature="0" />
      <path
         id="path248"
         style="fill:none;stroke:#000000;stroke-width:1.10887504;stroke-linecap:butt;stroke-linejoin:miter;stroke-miterlimit:4;stroke-dasharray:none;stroke-opacity:1"
         d="m 140.03627,14.49568 0,23.28863"
         inkscape:connector-curvature="0" />
      <path
         id="path250"
         style="fill:none;stroke:#000000;stroke-width:1.10887504;stroke-linecap:butt;stroke-linejoin:miter;stroke-miterlimit:4;stroke-dasharray:none;stroke-opacity:1"
         d="m 231.66352,11.47806 0,26.26225"
         inkscape:connector-curvature="0" />
      <path
         id="path252"
         style="fill:none;stroke:#000000;stroke-width:1.10887504;stroke-linecap:butt;stroke-linejoin:miter;stroke-miterlimit:4;stroke-dasharray:none;stroke-opacity:1"
         d="m 326.05739,11.81131 0,25.82162"
         inkscape:connector-curvature="0" />
      <path
         id="path254"
         style="fill:none;stroke:#000000;stroke-width:1.10887504;stroke-linecap:butt;stroke-linejoin:miter;stroke-miterlimit:4;stroke-dasharray:none;stroke-opacity:1"
         d="m 326.05739,11.81131 0,25.82162"
         inkscape:connector-curvature="0" />
      <path
         id="path256"
         style="fill:none;stroke:#000000;stroke-width:1.10887504;stroke-linecap:butt;stroke-linejoin:miter;stroke-miterlimit:4;stroke-dasharray:none;stroke-opacity:1"
         d="m 184.96915,12.23256 0,25.537"
         inkscape:connector-curvature="0" />
      <path
         id="path258"
         style="fill:none;stroke:#000000;stroke-width:1.10887504;stroke-linecap:butt;stroke-linejoin:miter;stroke-miterlimit:4;stroke-dasharray:none;stroke-opacity:1"
         d="m 278.69227,11.47806 0,26.15487"
         inkscape:connector-curvature="0" />
      <path
         id="path260"
         style="fill:none;stroke:#000000;stroke-width:1.10887504;stroke-linecap:butt;stroke-linejoin:miter;stroke-miterlimit:4;stroke-dasharray:none;stroke-opacity:1"
         d="m 278.69227,11.47806 0,26.15487"
         inkscape:connector-curvature="0" />
      <path
         id="path262"
         style="fill:none;stroke:#000000;stroke-width:1.10887504;stroke-linecap:butt;stroke-linejoin:miter;stroke-miterlimit:4;stroke-dasharray:none;stroke-opacity:1"
         d="m 375.01489,12.73543 0,24.88888"
         inkscape:connector-curvature="0" />
      <path
         id="path264"
         style="fill:none;stroke:#000000;stroke-width:1.10887504;stroke-linecap:butt;stroke-linejoin:miter;stroke-miterlimit:4;stroke-dasharray:none;stroke-opacity:1"
         d="m 91.4694,40.48318 368.69938,0"
         inkscape:connector-curvature="0" />
      <path
         id="path268"
         style="fill:none;stroke:#000000;stroke-width:1.10887504;stroke-linecap:butt;stroke-linejoin:miter;stroke-miterlimit:4;stroke-dasharray:none;stroke-opacity:1"
         d="m 221.4364,46.85406 139.66249,0"
         inkscape:connector-curvature="0" />
      <path
         id="path270"
         style="fill:#040404;fill-opacity:1;fill-rule:nonzero;stroke:#000000;stroke-width:1.10887504;stroke-linecap:butt;stroke-linejoin:miter;stroke-miterlimit:4;stroke-dasharray:none;stroke-opacity:1"
         d="m 374.02377,168.43369 0,-3.92825 21.25,0 0,3.92825 -21.25,0 z"
         inkscape:connector-curvature="0" />
      <path
         id="path426"
         style="fill:#000000;fill-opacity:1;fill-rule:nonzero;stroke:#000000;stroke-width:1.10887504;stroke-linecap:butt;stroke-linejoin:miter;stroke-miterlimit:4;stroke-dasharray:none;stroke-opacity:1"
         d="m 381.55301,205.56381 c 0,4.31513 -3.49737,7.8125 -7.8125,7.8125 -4.31512,0 -7.8125,-3.49737 -7.8125,-7.8125 0,-4.31512 3.49738,-7.8125 7.8125,-7.8125 4.31513,0 7.8125,3.49738 7.8125,7.8125 z"
         inkscape:connector-curvature="0" />
      <path
         id="path428"
         style="fill:#000000;fill-opacity:1;fill-rule:nonzero;stroke:#000000;stroke-width:1.10887504;stroke-linecap:butt;stroke-linejoin:miter;stroke-miterlimit:4;stroke-dasharray:none;stroke-opacity:1"
         d="m 138.45728,214.64344 c 24.86274,0 45.15325,20.19287 45.15325,45.15137 0,24.86075 -20.2905,45.14888 -45.15325,45.14888 -24.85713,0 -45.24163,-20.28813 -45.24163,-45.14888 0,-24.9585 20.3845,-45.15137 45.24163,-45.15137 z"
         inkscape:connector-curvature="0" />
      <path
         id="path430"
         style="fill:#ffffff;fill-opacity:1;fill-rule:nonzero;stroke:#000000;stroke-width:1.10887504;stroke-linecap:butt;stroke-linejoin:miter;stroke-miterlimit:4;stroke-dasharray:none;stroke-opacity:1"
         d="m 137.98365,232.55106 c 15.05125,0 27.33825,12.19 27.33825,27.24375 0,15.05125 -12.287,27.33638 -27.33825,27.33638 -15.05,0 -27.33513,-12.28513 -27.33513,-27.33638 0,-15.05375 12.28513,-27.24375 27.33513,-27.24375 z"
         inkscape:connector-curvature="0" />
      <path
         id="path432"
         style="fill:#ffffff;fill-opacity:1;fill-rule:nonzero;stroke:#000000;stroke-width:3.32662487;stroke-linecap:butt;stroke-linejoin:miter;stroke-miterlimit:4;stroke-dasharray:none;stroke-opacity:1"
         d="m 138.08015,239.02819 c 11.52338,0 20.95512,9.33587 20.95512,20.86175 0,11.61875 -9.43175,21.04987 -20.95512,21.04987 -11.52588,0 -20.95825,-9.43112 -20.95825,-21.04987 0,-11.52588 9.43237,-20.86175 20.95825,-20.86175 z"
         inkscape:connector-curvature="0" />
      <path
         id="path434"
         style="fill:#000000;fill-opacity:1;fill-rule:nonzero;stroke:#000000;stroke-width:0.99237502;stroke-linecap:butt;stroke-linejoin:miter;stroke-miterlimit:4;stroke-dasharray:none;stroke-opacity:1"
         d="m 138.06302,266.97981 c -3.91112,0 -7.01287,-3.03462 -7.01287,-6.94575 0,-3.84275 3.10175,-6.8775 7.01287,-6.8775 3.84525,0 6.94575,3.03475 6.94575,6.8775 0,3.91113 -3.1005,6.94575 -6.94575,6.94575 z"
         inkscape:connector-curvature="0" />
      <path
         id="path436"
         style="fill:#ffffff;fill-opacity:1;fill-rule:nonzero;stroke:none"
         d="m 138.07527,266.53306 c -3.64012,0 -6.54174,-2.90037 -6.54174,-6.47462 0,-3.64013 2.90162,-6.47213 6.54174,-6.47213 3.57538,0 6.47338,2.832 6.47338,6.47213 0,3.57425 -2.898,6.47462 -6.47338,6.47462 z"
         inkscape:connector-curvature="0" />
      <path
         id="path438"
         style="fill:#000000;fill-opacity:1;fill-rule:nonzero;stroke:none"
         d="m 137.40015,259.99256 1.4185,0 1.95437,-4.45075 c 0.6055,0.337 0.94363,0.74225 1.48563,1.21338 l -2.43175,5.93262 -1.00825,-2.2925 -1.4185,0 -1.0095,2.2925 -2.49638,-5.73 c 0.26863,-0.40525 1.07913,-1.14737 1.61988,-1.416 l 1.886,4.45075 z"
         inkscape:connector-curvature="0" />
      <path
         id="path440"
         style="fill:#000000;fill-opacity:1;fill-rule:nonzero;stroke:none"
         d="m 138.14365,258.57656 -1.34775,-3.57425 c 0.47125,-0.20262 2.22537,-0.20262 2.82962,0.13425 l -1.48187,3.44 z"
         inkscape:connector-curvature="0" />
      <path
         id="path442"
         style="fill:#000000;fill-opacity:1;fill-rule:nonzero;stroke:none"
         d="m 135.8499,264.98031 c -2.29125,-1.21337 -3.44,-3.57175 -2.76613,-6.40375 l 2.76613,6.40375 z"
         inkscape:connector-curvature="0" />
      <path
         id="path444"
         style="fill:#000000;fill-opacity:1;fill-rule:nonzero;stroke:none"
         d="m 139.49252,265.31969 c -1.01325,0.20262 -2.02275,0.2685 -2.83212,-0.0659 l 1.48325,-3.37412 1.34887,3.44 z"
         inkscape:connector-curvature="0" />
      <path
         id="path446"
         style="fill:#000000;fill-opacity:1;fill-rule:nonzero;stroke:none"
         d="m 140.2334,264.98031 2.83087,-6.8775 c 1.14625,2.76613 -0.26862,5.7325 -2.83087,6.8775 z"
         inkscape:connector-curvature="0" />
      <path
         id="path448"
         style="fill:none;stroke:#ffffff;stroke-width:0.625;stroke-linecap:butt;stroke-linejoin:miter;stroke-miterlimit:4;stroke-dasharray:none;stroke-opacity:1"
         d="m 107.80427,260.05594 c 0,16.64062 13.49001,30.13187 30.12813,30.13187"
         inkscape:connector-curvature="0" />
      <path
         id="path450"
         style="fill:none;stroke:#000000;stroke-width:0.625;stroke-linecap:butt;stroke-linejoin:miter;stroke-miterlimit:4;stroke-dasharray:none;stroke-opacity:1"
         d="m 163.08077,260.05594 c 0,-13.75488 -11.153,-24.90963 -24.9115,-24.90963"
         inkscape:connector-curvature="0" />
      <path
         id="path452"
         style="fill:none;stroke:#000000;stroke-width:0.625;stroke-linecap:butt;stroke-linejoin:miter;stroke-miterlimit:4;stroke-dasharray:none;stroke-opacity:1"
         d="m 155.31765,260.05594 c 0,-9.56775 -7.75875,-17.32413 -17.32663,-17.32413"
         inkscape:connector-curvature="0" />
      <path
         id="path556"
         style="fill:#000000;fill-opacity:1;fill-rule:nonzero;stroke:none"
         d="m 33.923016,157.51819 0.004,-50.94976 c -0.11962,-2.29737 -2.33887,-4.15037 -5.3815,-4.19925 l -20.0927502,0 c -2.77707,0.0489 -4.9932,1.90188 -5.02982,6.17188 l 0,30.90088 0.003,-0.82275 0,49.79987 c 0.11962,2.29738 2.33887,4.15038 5.3815,4.19925 l 20.0927502,0 c 2.77712,-0.0489 4.99337,-1.90187 5.02262,-4.19925 l 0,-30.90087 z"
         inkscape:connector-curvature="0" />
      <path
         id="path558"
         style="fill:#ffffff;fill-opacity:1;fill-rule:nonzero;stroke:#ffffff;stroke-width:1.25;stroke-linecap:butt;stroke-linejoin:miter;stroke-miterlimit:4;stroke-dasharray:none;stroke-opacity:1"
         d="m 29.002396,189.89606 0.0409,-85.07075 m -20.1935002,85.26363 0.10075,-85.26363"
         inkscape:connector-curvature="0" />
    </g>
  </g>
</svg>
