<?xml version="1.0" encoding="UTF-8" standalone="no"?>
<!-- Created with Inkscape (http://www.inkscape.org/) -->

<svg
   xmlns:dc="http://purl.org/dc/elements/1.1/"
   xmlns:cc="http://creativecommons.org/ns#"
   xmlns:rdf="http://www.w3.org/1999/02/22-rdf-syntax-ns#"
   xmlns:svg="http://www.w3.org/2000/svg"
   xmlns="http://www.w3.org/2000/svg"
   xmlns:sodipodi="http://sodipodi.sourceforge.net/DTD/sodipodi-0.dtd"
   xmlns:inkscape="http://www.inkscape.org/namespaces/inkscape"
   width="210mm"
   height="297mm"
   viewBox="0 0 744.09448819 1052.3622047"
   id="svg4507"
   version="1.1"
   inkscape:version="0.91 r13725"
   sodipodi:docname="simple_bus.svg"
   inkscape:export-filename="C:\Users\dchentsov\simple_bux.png"
   inkscape:export-xdpi="90"
   inkscape:export-ydpi="90">
  <defs
     id="defs4509" />
  <sodipodi:namedview
     id="base"
     pagecolor="#ffffff"
     bordercolor="#666666"
     borderopacity="1.0"
     inkscape:pageopacity="0.0"
     inkscape:pageshadow="2"
     inkscape:zoom="0.98994949"
     inkscape:cx="272.73869"
     inkscape:cy="786.31423"
     inkscape:document-units="px"
     inkscape:current-layer="layer1"
     showgrid="false"
     inkscape:window-width="1366"
     inkscape:window-height="706"
     inkscape:window-x="1672"
     inkscape:window-y="511"
     inkscape:window-maximized="1" />
  <metadata
     id="metadata4512">
    <rdf:RDF>
      <cc:Work
         rdf:about="">
        <dc:format>image/svg+xml</dc:format>
        <dc:type
           rdf:resource="http://purl.org/dc/dcmitype/StillImage" />
        <dc:title />
      </cc:Work>
    </rdf:RDF>
  </metadata>
  <g
     inkscape:label="Layer 1"
     inkscape:groupmode="layer"
     id="layer1">
    <path
       inkscape:connector-curvature="0"
       d="m 118.69041,193.95545 c 0.16725,-0.41875 18.55713,-37.09963 32.39013,-54.87188 14.83888,-18.94525 20.53837,-18.61075 43.17262,-19.78387 83.16038,-4.27613 169.58987,-2.51463 245.45837,-0.75438 24.309,0.3345 45.3515,3.269 61.53075,10.227 l 12.65863,13.07625 14.75588,30.6005 0.30275,6.753 46.35988,58.26163 c 7.627,9.64113 6.45512,1.76025 11.65037,8.88675 l 16.85063,23.13725 c 1.42575,1.92875 -1.42338,25.56888 -2.51463,38.39475 0,1.09013 -2.09475,-0.0843 -2.18025,1.00588 l -2.17775,17.85637 -25.48575,0 -1.76025,18.35825 c -14.6705,2.68313 -30.26375,4.69475 -45.52,5.11475 -2.01175,-7.461 -3.10313,-15.09162 -5.95225,-22.46712 0,0 -8.12987,-17.09225 -25.90326,-17.09225 l -28.92338,-0.26125 c -13.7475,0 -19.44825,6.45512 -23.55462,15.00612 -9.38975,19.5325 -7.6295,27.66363 -9.05525,27.66363 l -188.70174,0 c -1.93,-10.73 -5.61888,-20.45413 -12.57688,-31.687 l -0.083,0 0,0 c -0.6715,-0.6715 -1.59312,-11.067 -20.95825,-11.067 l -32.3585,0 c -6.20362,0 -15.42475,4.02475 -19.36525,10.98275 -11.73575,21.04125 -7.04212,24.3945 -8.551,24.309 l -31.01675,-1.67475 -2.18025,-18.27513 -16.597874,-0.23075 c -3.52175,-27.99925 -6.37213,-35.481 -6.37213,-46.88237 0,-1.42575 1.84575,-1.3415 1.84575,-2.43163 l -0.33687,-9.22112 c 0,-0.75438 -1.76025,-0.92163 -1.76025,-2.096 0,-4.94625 1.25725,-6.87375 3.27025,-13.58025 l 23.640124,-57.25713 z"
       style="fill:#fed136;fill-opacity:1;fill-rule:nonzero;stroke:#000000;stroke-width:1.25;stroke-linecap:butt;stroke-linejoin:miter;stroke-miterlimit:4;stroke-dasharray:none;stroke-opacity:1"
       id="path126" />
    <path
       inkscape:connector-curvature="0"
       d="m 563.58116,285.33245 0,37.37788 -45.7715,0.01 c -5.36375,-6.11938 -10.813,-11.903 -19.19676,-13.7475 -11.14987,-3.01888 -22.38287,-1.42588 -33.11287,-1.8445 l -14.58738,0 -24.56049,-8.38375 0,-19.24325 137.229,0 0,5.83137"
       style="fill:none;stroke:#000000;stroke-width:1.10887504;stroke-linecap:butt;stroke-linejoin:miter;stroke-miterlimit:4;stroke-dasharray:none;stroke-opacity:1"
       id="path130" />
    <path
       inkscape:connector-curvature="0"
       d="m 563.41516,329.1752 0,10.05975 c -12.65875,2.26325 -25.82037,3.68775 -38.81349,4.94638 -1.00838,-4.94638 -2.09713,-14.336 -6.958,-21.377 l 45.77149,0 0,6.37087"
       style="fill:none;stroke:#000000;stroke-width:1.10887504;stroke-linecap:square;stroke-linejoin:miter;stroke-miterlimit:4;stroke-dasharray:none;stroke-opacity:1"
       id="path132" />
    <path
       inkscape:connector-curvature="0"
       d="m 426.35216,298.24133 0,-105.37476"
       style="fill:none;stroke:#000000;stroke-width:1.10887504;stroke-linecap:square;stroke-linejoin:miter;stroke-miterlimit:4;stroke-dasharray:none;stroke-opacity:1"
       id="path136" />
    <path
       inkscape:connector-curvature="0"
       d="m 426.35216,278.50383 0,-91.67363"
       style="fill:none;stroke:#000000;stroke-width:1.10887504;stroke-linecap:butt;stroke-linejoin:miter;stroke-miterlimit:4;stroke-dasharray:none;stroke-opacity:1"
       id="path138" />
    <path
       inkscape:connector-curvature="0"
       d="m 518.98391,324.98445 77.627,0"
       style="fill:none;stroke:#000000;stroke-width:1.10887504;stroke-linecap:butt;stroke-linejoin:miter;stroke-miterlimit:4;stroke-dasharray:none;stroke-opacity:1"
       id="path140" />
    <path
       inkscape:connector-curvature="0"
       d="m 598.79116,308.38533 -27.07775,-0.12563 -8.63525,14.54463"
       style="fill:none;stroke:#000000;stroke-width:1.10887504;stroke-linecap:butt;stroke-linejoin:miter;stroke-miterlimit:4;stroke-dasharray:none;stroke-opacity:1"
       id="path142" />
    <path
       inkscape:connector-curvature="0"
       d="m 229.17991,322.0682 212.24425,0.25513"
       style="fill:none;stroke:#000000;stroke-width:1.10887504;stroke-linecap:butt;stroke-linejoin:miter;stroke-miterlimit:4;stroke-dasharray:none;stroke-opacity:1"
       id="path144" />
    <path
       inkscape:connector-curvature="0"
       d="m 230.52029,324.23008 209.80399,0.24175"
       style="fill:none;stroke:#000000;stroke-width:1.10887504;stroke-linecap:butt;stroke-linejoin:miter;stroke-miterlimit:4;stroke-dasharray:none;stroke-opacity:1"
       id="path146" />
    <path
       inkscape:connector-curvature="0"
       d="m 568.02454,243.3317 c 8.63525,6.372 12.57562,0.58713 14.58737,-0.3345"
       style="fill:none;stroke:#000000;stroke-width:1.10887504;stroke-linecap:butt;stroke-linejoin:miter;stroke-miterlimit:4;stroke-dasharray:none;stroke-opacity:1"
       id="path148" />
    <path
       inkscape:connector-curvature="0"
       d="m 603.40291,268.81745 c -5.78612,-1.17425 -9.97799,-1.84437 -18.69624,-3.52162 -7.124,-1.17313 -7.2925,-3.35338 -9.22126,-5.53225 l -48.62062,-76.79076"
       style="fill:none;stroke:#000000;stroke-width:1.10887504;stroke-linecap:butt;stroke-linejoin:miter;stroke-miterlimit:4;stroke-dasharray:none;stroke-opacity:1"
       id="path150" />
    <path
       inkscape:connector-curvature="0"
       d="m 528.79116,179.11782 c -1.08887,0.83863 -2.42925,3.35325 -1.67487,4.10763 l 41.07662,60.10625 c 2.01175,2.01288 7.378,-0.75437 8.96975,-3.43625 l -48.3715,-60.77763 z"
       style="fill:#c4eef2;fill-opacity:1;fill-rule:nonzero;stroke:#000000;stroke-width:1.10887504;stroke-linecap:butt;stroke-linejoin:miter;stroke-miterlimit:4;stroke-dasharray:none;stroke-opacity:1"
       id="path152" />
    <path
       inkscape:connector-curvature="0"
       d="m 147.77979,345.43858 c 2.34737,-10.4785 5.19775,-20.874 11.73575,-27.32913 4.78038,-4.77775 7.461,-6.958 15.59325,-7.71237 l 38.22638,0 c 8.88674,0.503 12.74287,5.282 15.34175,9.89137 6.28662,10.061 10.8155,20.94975 13.74762,32.85275"
       style="fill:none;stroke:#000000;stroke-width:1.10887504;stroke-linecap:butt;stroke-linejoin:miter;stroke-miterlimit:4;stroke-dasharray:none;stroke-opacity:1"
       id="path156" />
    <path
       inkscape:connector-curvature="0"
       d="m 147.77979,345.43858 c 2.34737,-10.4785 5.19775,-20.874 11.73575,-27.32913 4.78038,-4.77775 7.461,-6.958 15.59325,-7.71237 l 38.22638,0 c 8.88674,0.503 12.74287,5.282 15.34175,9.89137 6.28662,10.061 10.8155,20.94975 13.74762,32.85275"
       style="fill:none;stroke:#000000;stroke-width:1.10887504;stroke-linecap:butt;stroke-linejoin:miter;stroke-miterlimit:4;stroke-dasharray:none;stroke-opacity:1"
       id="path158" />
    <path
       inkscape:connector-curvature="0"
       d="m 579.84579,310.48133 c 2.26313,0 4.69487,0 6.958,0 2.26325,0 4.60937,0 6.958,0 1.50875,0 2.18025,1.3415 1.34037,3.01762 -0.503,1.173 -1.08887,2.51463 -1.67725,3.68888 -0.50299,1.17312 -1.08887,2.4305 -1.59187,3.5205 -0.67138,1.50887 -2.26313,2.59887 -3.68888,2.59887 0.61763,0 -0.50537,0.32475 -5.62262,0.32475 -2.18013,0 -5.10738,-0.1575 -7.20213,-0.1575 -1.42575,0 -2.26562,-1.173 -1.84575,-2.59762 0.42,-1.17425 0.83988,-2.43163 1.17438,-3.606 0.3345,-1.173 0.83737,-2.59888 1.25737,-3.85613 0.50288,-1.59187 2.26313,-2.93337 3.94038,-2.93337 z"
       style="fill:#ef940e;fill-opacity:1;fill-rule:nonzero;stroke:#000000;stroke-width:1.10887504;stroke-linecap:butt;stroke-linejoin:miter;stroke-miterlimit:4;stroke-dasharray:none;stroke-opacity:1"
       id="path160" />
    <path
       inkscape:connector-curvature="0"
       d="m 609.01816,328.75645 c -0.2515,-1.17425 -0.586,-1.51 -2.93462,-1.8445 l -34.28712,0 -2.26313,23.30575 c 18.10787,-0.42 23.30563,-1.7615 34.20412,-4.19187 6.20363,-0.83863 5.19775,-9.72413 5.28075,-17.26938 z"
       style="fill:#001310;fill-opacity:1;fill-rule:nonzero;stroke:#000000;stroke-width:1.10887504;stroke-linecap:butt;stroke-linejoin:miter;stroke-miterlimit:4;stroke-dasharray:none;stroke-opacity:1"
       id="path162" />
    <path
       inkscape:connector-curvature="0"
       d="m 112.98966,325.98058 -28.332504,0 c -2.68312,1.01562 -4.69475,11.0755 -1.25725,16.35625 2.76613,3.4375 22.211884,1.5075 33.745134,2.34612 l -1.40625,-16.09487 c -0.719,-1.25613 -1.49175,-1.76025 -2.74913,-2.6075 z"
       style="fill:#001310;fill-opacity:1;fill-rule:nonzero;stroke:#000000;stroke-width:1.10887504;stroke-linecap:butt;stroke-linejoin:miter;stroke-miterlimit:4;stroke-dasharray:none;stroke-opacity:1"
       id="path164" />
    <path
       inkscape:connector-curvature="0"
       d="m 604.24029,272.6737 -8.21525,0 c -2.18025,0.083 -3.689,0.75438 -3.689,3.01763 l -0.83737,21.37687 c -0.2515,2.76613 0.92037,3.85625 3.68887,4.192 l 6.62113,0.75438 2.43162,-29.34088 z"
       style="fill:none;stroke:#000000;stroke-width:1.10887504;stroke-linecap:butt;stroke-linejoin:miter;stroke-miterlimit:4;stroke-dasharray:none;stroke-opacity:1"
       id="path166" />
    <path
       inkscape:connector-curvature="0"
       d="m 156.49804,321.7142 -58.347254,0"
       style="fill:none;stroke:#000000;stroke-width:1.10887504;stroke-linecap:butt;stroke-linejoin:miter;stroke-miterlimit:4;stroke-dasharray:none;stroke-opacity:1"
       id="path168" />
    <path
       inkscape:connector-curvature="0"
       d="m 154.82079,324.31308 -56.585754,0"
       style="fill:none;stroke:#000000;stroke-width:1.10887504;stroke-linecap:butt;stroke-linejoin:miter;stroke-miterlimit:4;stroke-dasharray:none;stroke-opacity:1"
       id="path170" />
    <path
       inkscape:connector-curvature="0"
       d="m 595.43904,273.84683 c -1.34275,0 -2.43162,5.95212 -2.43162,13.32887 0,7.37788 1.08887,13.33 2.43162,13.33 1.34037,0 2.42925,-5.95212 2.42925,-13.33 0,-7.37675 -1.08888,-13.32887 -2.42925,-13.32887 z"
       style="fill:#f8f8f8;fill-opacity:1;fill-rule:nonzero;stroke:#000000;stroke-width:0.93062496;stroke-linecap:butt;stroke-linejoin:miter;stroke-miterlimit:4;stroke-dasharray:none;stroke-opacity:1"
       id="path172" />
    <path
       inkscape:connector-curvature="0"
       d="m 609.18666,329.76233 -37.30475,0"
       style="fill:none;stroke:#000000;stroke-width:1.10887504;stroke-linecap:butt;stroke-linejoin:miter;stroke-miterlimit:4;stroke-dasharray:none;stroke-opacity:1"
       id="path174" />
    <path
       inkscape:connector-curvature="0"
       d="m 436.18615,192.69807 71.65764,0 c 0.3345,0 1.00588,0.503 1.00588,1.17438 l 0.0732,48.55963 c 0,0.16712 0.46875,3.0895 -0.91062,3.0895 l -70.76413,-0.01 c -3.01513,0 -4.43113,-1.25725 -4.76563,-3.94038 l -0.23687,-46.94463 c 0,-0.50287 1.09137,-1.593 1.51125,-1.76025 0.503,0 1.59175,-0.1685 2.42925,-0.1685 z"
       style="fill:#c4eef2;fill-opacity:1;fill-rule:nonzero;stroke:#000000;stroke-width:1.10887504;stroke-linecap:butt;stroke-linejoin:miter;stroke-miterlimit:4;stroke-dasharray:none;stroke-opacity:1"
       id="path190" />
    <path
       inkscape:connector-curvature="0"
       d="m 528.70804,245.42758 -15.17325,0 0,-49.04051 c 0.083,-0.50287 -0.83737,-4.61175 1.59175,-2.76737 0.503,0 0.83987,0 1.42575,0.25275 1.59425,0.83737 3.4375,2.09475 4.77787,3.68775 l 0.2515,0.58712 0.67138,0.92163 c 8.80125,10.98275 20.957,29.34213 27.915,41.58088 0,0.16725 3.2715,4.69475 -2.76613,4.862 l -18.69387,-0.0842 z"
       style="fill:#c4eef2;fill-opacity:1;fill-rule:nonzero;stroke:#000000;stroke-width:1.10887504;stroke-linecap:butt;stroke-linejoin:miter;stroke-miterlimit:4;stroke-dasharray:none;stroke-opacity:1"
       id="path192" />
    <path
       inkscape:connector-curvature="0"
       d="m 426.35216,186.8302 90.78851,-0.094 c 10.56162,11.73712 43.40337,53.24338 46.58699,77.3865 l -0.16599,0.16725 0.0195,12.84425"
       style="fill:none;stroke:#000000;stroke-width:1.10887504;stroke-linecap:butt;stroke-linejoin:miter;stroke-miterlimit:4;stroke-dasharray:none;stroke-opacity:1"
       id="path194" />
    <path
       inkscape:connector-curvature="0"
       d="m 478.20766,320.70833 c 24.86325,0 45.15251,20.19287 45.15251,45.15025 0,24.86075 -20.28926,45.15012 -45.15251,45.15012 -24.85726,0 -45.24176,-20.28937 -45.24176,-45.15012 0,-24.95738 20.3845,-45.15025 45.24176,-45.15025 z"
       style="fill:#000000;fill-opacity:1;fill-rule:nonzero;stroke:#000000;stroke-width:1.10887504;stroke-linecap:butt;stroke-linejoin:miter;stroke-miterlimit:4;stroke-dasharray:none;stroke-opacity:1"
       id="path200" />
    <path
       inkscape:connector-curvature="0"
       d="m 477.7339,338.61608 c 15.05138,0 27.33775,12.19 27.33775,27.2425 0,15.05125 -12.28637,27.33762 -27.33775,27.33762 -15.05,0 -27.33512,-12.28637 -27.33512,-27.33762 0,-15.0525 12.28513,-27.2425 27.33513,-27.2425 z"
       style="fill:#ffffff;fill-opacity:1;fill-rule:nonzero;stroke:#000000;stroke-width:1.10887504;stroke-linecap:butt;stroke-linejoin:miter;stroke-miterlimit:4;stroke-dasharray:none;stroke-opacity:1"
       id="path202" />
    <path
       inkscape:connector-curvature="0"
       d="m 477.83041,345.0932 c 11.52337,0 20.95574,9.33588 20.95574,20.8605 0,11.61988 -9.43237,21.05113 -20.95574,21.05113 -11.52588,0 -20.95826,-9.43125 -20.95826,-21.05113 0,-11.52462 9.43238,-20.8605 20.95826,-20.8605 z"
       style="fill:#ffffff;fill-opacity:1;fill-rule:nonzero;stroke:#000000;stroke-width:3.32662487;stroke-linecap:butt;stroke-linejoin:miter;stroke-miterlimit:4;stroke-dasharray:none;stroke-opacity:1"
       id="path204" />
    <path
       inkscape:connector-curvature="0"
       d="m 477.81328,373.04358 c -3.91112,0 -7.01287,-3.03463 -7.01287,-6.94463 0,-3.84275 3.10175,-6.87862 7.01287,-6.87862 3.84525,0 6.94587,3.03587 6.94587,6.87862 0,3.91 -3.10062,6.94463 -6.94587,6.94463 z"
       style="fill:#000000;fill-opacity:1;fill-rule:nonzero;stroke:#000000;stroke-width:0.99237502;stroke-linecap:butt;stroke-linejoin:miter;stroke-miterlimit:4;stroke-dasharray:none;stroke-opacity:1"
       id="path206" />
    <path
       inkscape:connector-curvature="0"
       d="m 477.82553,372.59808 c -3.64013,0 -6.54175,-2.90038 -6.54175,-6.47463 0,-3.64012 2.90162,-6.47337 6.54175,-6.47337 3.57537,0 6.47337,2.83325 6.47337,6.47337 0,3.57425 -2.898,6.47463 -6.47337,6.47463 z"
       style="fill:#ffffff;fill-opacity:1;fill-rule:nonzero;stroke:none"
       id="path208" />
    <path
       inkscape:connector-curvature="0"
       d="m 477.15053,366.05633 1.41837,0 1.95438,-4.45075 c 0.6055,0.33687 0.94362,0.74225 1.48562,1.21337 l -2.43162,5.93388 -1.00838,-2.2925 -1.41837,0 -1.00963,2.2925 -2.49625,-5.73125 c 0.2685,-0.404 1.079,-1.14738 1.61988,-1.416 l 1.886,4.45075 z"
       style="fill:#000000;fill-opacity:1;fill-rule:nonzero;stroke:none"
       id="path210" />
    <path
       inkscape:connector-curvature="0"
       d="m 477.8939,364.64145 -1.34762,-3.57412 c 0.47112,-0.20388 2.22525,-0.20388 2.8295,0.13425 l -1.48188,3.43987 z"
       style="fill:#000000;fill-opacity:1;fill-rule:nonzero;stroke:none"
       id="path212" />
    <path
       inkscape:connector-curvature="0"
       d="m 475.60015,371.04533 c -2.29125,-1.21338 -3.43987,-3.573 -2.76612,-6.40388 l 2.76612,6.40388 z"
       style="fill:#000000;fill-opacity:1;fill-rule:nonzero;stroke:none"
       id="path214" />
    <path
       inkscape:connector-curvature="0"
       d="m 479.24278,371.38345 c -1.01325,0.20263 -2.02275,0.26975 -2.832,-0.066 l 1.48313,-3.37275 1.34887,3.43875 z"
       style="fill:#000000;fill-opacity:1;fill-rule:nonzero;stroke:none"
       id="path216" />
    <path
       inkscape:connector-curvature="0"
       d="m 479.98378,371.04533 2.83075,-6.8775 c 1.14625,2.76612 -0.2685,5.7325 -2.83075,6.8775 z"
       style="fill:#000000;fill-opacity:1;fill-rule:nonzero;stroke:none"
       id="path218" />
    <path
       inkscape:connector-curvature="0"
       d="m 447.55453,366.12095 c 0,16.64063 13.49,30.13063 30.12812,30.13063"
       style="fill:none;stroke:#ffffff;stroke-width:0.625;stroke-linecap:butt;stroke-linejoin:miter;stroke-miterlimit:4;stroke-dasharray:none;stroke-opacity:1"
       id="path220" />
    <path
       inkscape:connector-curvature="0"
       d="m 502.83041,366.12095 c 0,-13.75612 -11.15238,-24.90962 -24.91088,-24.90962"
       style="fill:none;stroke:#000000;stroke-width:0.625;stroke-linecap:butt;stroke-linejoin:miter;stroke-miterlimit:4;stroke-dasharray:none;stroke-opacity:1"
       id="path222" />
    <path
       inkscape:connector-curvature="0"
       d="m 495.06791,366.12095 c 0,-9.56787 -7.75876,-17.32425 -17.32663,-17.32425"
       style="fill:none;stroke:#000000;stroke-width:0.625;stroke-linecap:butt;stroke-linejoin:miter;stroke-miterlimit:4;stroke-dasharray:none;stroke-opacity:1"
       id="path224" />
    <path
       inkscape:connector-curvature="0"
       d="m 526.70854,180.98057 -106.95801,0 -0.01,-31.75287 -145.83799,0 -0.094,31.75287 -145.44675,0 -30.648254,72.83088 c -3.10175,9.63988 -2.85025,15.8435 -2.43163,25.31738 l 6.036384,44.59587"
       style="fill:none;stroke:#000000;stroke-width:1.10887504;stroke-linecap:square;stroke-linejoin:miter;stroke-miterlimit:4;stroke-dasharray:none;stroke-opacity:1"
       id="path228" />
    <path
       inkscape:connector-curvature="0"
       d="m 148.23016,143.35857 366.62788,0"
       style="fill:none;stroke:#000000;stroke-width:1.10887504;stroke-linecap:butt;stroke-linejoin:miter;stroke-miterlimit:4;stroke-dasharray:none;stroke-opacity:1"
       id="path230" />
    <path
       inkscape:connector-curvature="0"
       d="m 188.88817,120.05407 0,23.28863"
       style="fill:none;stroke:#000000;stroke-width:1.10887504;stroke-linecap:butt;stroke-linejoin:miter;stroke-miterlimit:4;stroke-dasharray:none;stroke-opacity:1"
       id="path232" />
    <path
       inkscape:connector-curvature="0"
       d="m 280.51529,117.03645 0,26.30737"
       style="fill:none;stroke:#000000;stroke-width:1.10887504;stroke-linecap:butt;stroke-linejoin:miter;stroke-miterlimit:4;stroke-dasharray:none;stroke-opacity:1"
       id="path234" />
    <path
       inkscape:connector-curvature="0"
       d="m 374.90928,117.4552 0,25.73612"
       style="fill:none;stroke:#000000;stroke-width:1.10887504;stroke-linecap:butt;stroke-linejoin:miter;stroke-miterlimit:4;stroke-dasharray:none;stroke-opacity:1"
       id="path236" />
    <path
       inkscape:connector-curvature="0"
       d="m 374.90928,117.4552 0,25.73612"
       style="fill:none;stroke:#000000;stroke-width:1.10887504;stroke-linecap:butt;stroke-linejoin:miter;stroke-miterlimit:4;stroke-dasharray:none;stroke-opacity:1"
       id="path238" />
    <path
       inkscape:connector-curvature="0"
       d="m 233.82104,117.81045 0,25.49562"
       style="fill:none;stroke:#000000;stroke-width:1.10887504;stroke-linecap:butt;stroke-linejoin:miter;stroke-miterlimit:4;stroke-dasharray:none;stroke-opacity:1"
       id="path240" />
    <path
       inkscape:connector-curvature="0"
       d="m 327.5454,117.3697 0,25.82162"
       style="fill:none;stroke:#000000;stroke-width:1.10887504;stroke-linecap:butt;stroke-linejoin:miter;stroke-miterlimit:4;stroke-dasharray:none;stroke-opacity:1"
       id="path242" />
    <path
       inkscape:connector-curvature="0"
       d="m 327.5454,117.3697 0,25.82162"
       style="fill:none;stroke:#000000;stroke-width:1.10887504;stroke-linecap:butt;stroke-linejoin:miter;stroke-miterlimit:4;stroke-dasharray:none;stroke-opacity:1"
       id="path244" />
    <path
       inkscape:connector-curvature="0"
       d="m 423.86678,118.0472 0,25.29062"
       style="fill:none;stroke:#000000;stroke-width:1.10887504;stroke-linecap:butt;stroke-linejoin:miter;stroke-miterlimit:4;stroke-dasharray:none;stroke-opacity:1"
       id="path246" />
    <path
       inkscape:connector-curvature="0"
       d="m 195.59466,120.05407 0,23.28863"
       style="fill:none;stroke:#000000;stroke-width:1.10887504;stroke-linecap:butt;stroke-linejoin:miter;stroke-miterlimit:4;stroke-dasharray:none;stroke-opacity:1"
       id="path248" />
    <path
       inkscape:connector-curvature="0"
       d="m 287.22191,117.03645 0,26.26225"
       style="fill:none;stroke:#000000;stroke-width:1.10887504;stroke-linecap:butt;stroke-linejoin:miter;stroke-miterlimit:4;stroke-dasharray:none;stroke-opacity:1"
       id="path250" />
    <path
       inkscape:connector-curvature="0"
       d="m 381.61578,117.3697 0,25.82162"
       style="fill:none;stroke:#000000;stroke-width:1.10887504;stroke-linecap:butt;stroke-linejoin:miter;stroke-miterlimit:4;stroke-dasharray:none;stroke-opacity:1"
       id="path252" />
    <path
       inkscape:connector-curvature="0"
       d="m 381.61578,117.3697 0,25.82162"
       style="fill:none;stroke:#000000;stroke-width:1.10887504;stroke-linecap:butt;stroke-linejoin:miter;stroke-miterlimit:4;stroke-dasharray:none;stroke-opacity:1"
       id="path254" />
    <path
       inkscape:connector-curvature="0"
       d="m 240.52754,117.79095 0,25.537"
       style="fill:none;stroke:#000000;stroke-width:1.10887504;stroke-linecap:butt;stroke-linejoin:miter;stroke-miterlimit:4;stroke-dasharray:none;stroke-opacity:1"
       id="path256" />
    <path
       inkscape:connector-curvature="0"
       d="m 334.25066,117.03645 0,26.15487"
       style="fill:none;stroke:#000000;stroke-width:1.10887504;stroke-linecap:butt;stroke-linejoin:miter;stroke-miterlimit:4;stroke-dasharray:none;stroke-opacity:1"
       id="path258" />
    <path
       inkscape:connector-curvature="0"
       d="m 334.25066,117.03645 0,26.15487"
       style="fill:none;stroke:#000000;stroke-width:1.10887504;stroke-linecap:butt;stroke-linejoin:miter;stroke-miterlimit:4;stroke-dasharray:none;stroke-opacity:1"
       id="path260" />
    <path
       inkscape:connector-curvature="0"
       d="m 430.57328,118.29382 0,24.88888"
       style="fill:none;stroke:#000000;stroke-width:1.10887504;stroke-linecap:butt;stroke-linejoin:miter;stroke-miterlimit:4;stroke-dasharray:none;stroke-opacity:1"
       id="path262" />
    <path
       inkscape:connector-curvature="0"
       d="m 147.02779,146.04157 368.69938,0"
       style="fill:none;stroke:#000000;stroke-width:1.10887504;stroke-linecap:butt;stroke-linejoin:miter;stroke-miterlimit:4;stroke-dasharray:none;stroke-opacity:1"
       id="path264" />
    <path
       inkscape:connector-curvature="0"
       d="m 276.99479,152.41245 139.66249,0"
       style="fill:none;stroke:#000000;stroke-width:1.10887504;stroke-linecap:butt;stroke-linejoin:miter;stroke-miterlimit:4;stroke-dasharray:none;stroke-opacity:1"
       id="path268" />
    <path
       inkscape:connector-curvature="0"
       d="m 429.58216,273.99208 0,-3.92825 21.25,0 0,3.92825 -21.25,0 z"
       style="fill:#040404;fill-opacity:1;fill-rule:nonzero;stroke:#000000;stroke-width:1.10887504;stroke-linecap:butt;stroke-linejoin:miter;stroke-miterlimit:4;stroke-dasharray:none;stroke-opacity:1"
       id="path270" />
    <path
       inkscape:connector-curvature="0"
       d="m 437.1114,311.1222 c 0,4.31513 -3.49737,7.8125 -7.8125,7.8125 -4.31512,0 -7.8125,-3.49737 -7.8125,-7.8125 0,-4.31512 3.49738,-7.8125 7.8125,-7.8125 4.31513,0 7.8125,3.49738 7.8125,7.8125 z"
       style="fill:#000000;fill-opacity:1;fill-rule:nonzero;stroke:#000000;stroke-width:1.10887504;stroke-linecap:butt;stroke-linejoin:miter;stroke-miterlimit:4;stroke-dasharray:none;stroke-opacity:1"
       id="path426" />
    <path
       inkscape:connector-curvature="0"
       d="m 194.01567,320.20183 c 24.86274,0 45.15325,20.19287 45.15325,45.15137 0,24.86075 -20.2905,45.14888 -45.15325,45.14888 -24.85713,0 -45.24163,-20.28813 -45.24163,-45.14888 0,-24.9585 20.3845,-45.15137 45.24163,-45.15137 z"
       style="fill:#000000;fill-opacity:1;fill-rule:nonzero;stroke:#000000;stroke-width:1.10887504;stroke-linecap:butt;stroke-linejoin:miter;stroke-miterlimit:4;stroke-dasharray:none;stroke-opacity:1"
       id="path428" />
    <path
       inkscape:connector-curvature="0"
       d="m 193.54204,338.10945 c 15.05125,0 27.33825,12.19 27.33825,27.24375 0,15.05125 -12.287,27.33638 -27.33825,27.33638 -15.05,0 -27.33513,-12.28513 -27.33513,-27.33638 0,-15.05375 12.28513,-27.24375 27.33513,-27.24375 z"
       style="fill:#ffffff;fill-opacity:1;fill-rule:nonzero;stroke:#000000;stroke-width:1.10887504;stroke-linecap:butt;stroke-linejoin:miter;stroke-miterlimit:4;stroke-dasharray:none;stroke-opacity:1"
       id="path430" />
    <path
       inkscape:connector-curvature="0"
       d="m 193.63854,344.58658 c 11.52338,0 20.95512,9.33587 20.95512,20.86175 0,11.61875 -9.43175,21.04987 -20.95512,21.04987 -11.52588,0 -20.95825,-9.43112 -20.95825,-21.04987 0,-11.52588 9.43237,-20.86175 20.95825,-20.86175 z"
       style="fill:#ffffff;fill-opacity:1;fill-rule:nonzero;stroke:#000000;stroke-width:3.32662487;stroke-linecap:butt;stroke-linejoin:miter;stroke-miterlimit:4;stroke-dasharray:none;stroke-opacity:1"
       id="path432" />
    <path
       inkscape:connector-curvature="0"
       d="m 193.62141,372.5382 c -3.91112,0 -7.01287,-3.03462 -7.01287,-6.94575 0,-3.84275 3.10175,-6.8775 7.01287,-6.8775 3.84525,0 6.94575,3.03475 6.94575,6.8775 0,3.91113 -3.1005,6.94575 -6.94575,6.94575 z"
       style="fill:#000000;fill-opacity:1;fill-rule:nonzero;stroke:#000000;stroke-width:0.99237502;stroke-linecap:butt;stroke-linejoin:miter;stroke-miterlimit:4;stroke-dasharray:none;stroke-opacity:1"
       id="path434" />
    <path
       inkscape:connector-curvature="0"
       d="m 193.63366,372.09145 c -3.64012,0 -6.54174,-2.90037 -6.54174,-6.47462 0,-3.64013 2.90162,-6.47213 6.54174,-6.47213 3.57538,0 6.47338,2.832 6.47338,6.47213 0,3.57425 -2.898,6.47462 -6.47338,6.47462 z"
       style="fill:#ffffff;fill-opacity:1;fill-rule:nonzero;stroke:none"
       id="path436" />
    <path
       inkscape:connector-curvature="0"
       d="m 192.95854,365.55095 1.4185,0 1.95437,-4.45075 c 0.6055,0.337 0.94363,0.74225 1.48563,1.21338 l -2.43175,5.93262 -1.00825,-2.2925 -1.4185,0 -1.0095,2.2925 -2.49638,-5.73 c 0.26863,-0.40525 1.07913,-1.14737 1.61988,-1.416 l 1.886,4.45075 z"
       style="fill:#000000;fill-opacity:1;fill-rule:nonzero;stroke:none"
       id="path438" />
    <path
       inkscape:connector-curvature="0"
       d="m 193.70204,364.13495 -1.34775,-3.57425 c 0.47125,-0.20262 2.22537,-0.20262 2.82962,0.13425 l -1.48187,3.44 z"
       style="fill:#000000;fill-opacity:1;fill-rule:nonzero;stroke:none"
       id="path440" />
    <path
       inkscape:connector-curvature="0"
       d="m 191.40829,370.5387 c -2.29125,-1.21337 -3.44,-3.57175 -2.76613,-6.40375 l 2.76613,6.40375 z"
       style="fill:#000000;fill-opacity:1;fill-rule:nonzero;stroke:none"
       id="path442" />
    <path
       inkscape:connector-curvature="0"
       d="m 195.05091,370.87808 c -1.01325,0.20262 -2.02275,0.2685 -2.83212,-0.0659 l 1.48325,-3.37412 1.34887,3.44 z"
       style="fill:#000000;fill-opacity:1;fill-rule:nonzero;stroke:none"
       id="path444" />
    <path
       inkscape:connector-curvature="0"
       d="m 195.79179,370.5387 2.83087,-6.8775 c 1.14625,2.76613 -0.26862,5.7325 -2.83087,6.8775 z"
       style="fill:#000000;fill-opacity:1;fill-rule:nonzero;stroke:none"
       id="path446" />
    <path
       inkscape:connector-curvature="0"
       d="m 163.36266,365.61433 c 0,16.64062 13.49001,30.13187 30.12813,30.13187"
       style="fill:none;stroke:#ffffff;stroke-width:0.625;stroke-linecap:butt;stroke-linejoin:miter;stroke-miterlimit:4;stroke-dasharray:none;stroke-opacity:1"
       id="path448" />
    <path
       inkscape:connector-curvature="0"
       d="m 218.63916,365.61433 c 0,-13.75488 -11.153,-24.90963 -24.9115,-24.90963"
       style="fill:none;stroke:#000000;stroke-width:0.625;stroke-linecap:butt;stroke-linejoin:miter;stroke-miterlimit:4;stroke-dasharray:none;stroke-opacity:1"
       id="path450" />
    <path
       inkscape:connector-curvature="0"
       d="m 210.87604,365.61433 c 0,-9.56775 -7.75875,-17.32413 -17.32663,-17.32413"
       style="fill:none;stroke:#000000;stroke-width:0.625;stroke-linecap:butt;stroke-linejoin:miter;stroke-miterlimit:4;stroke-dasharray:none;stroke-opacity:1"
       id="path452" />
    <path
       inkscape:connector-curvature="0"
       d="m 89.481406,263.07658 0.004,-50.94976 c -0.11962,-2.29737 -2.33887,-4.15037 -5.3815,-4.19925 l -20.09275,0 c -2.77707,0.0489 -4.9932,1.90188 -5.02982,6.17188 l 0,30.90088 0.003,-0.82275 0,49.79987 c 0.11962,2.29738 2.33887,4.15038 5.3815,4.19925 l 20.09275,0 c 2.77712,-0.0489 4.99337,-1.90187 5.02262,-4.19925 l 0,-30.90087 z"
       style="fill:#000000;fill-opacity:1;fill-rule:nonzero;stroke:none"
       id="path556" />
    <path
       inkscape:connector-curvature="0"
       d="m 84.560786,295.45445 0.0409,-85.07075 m -20.1935,85.26363 0.10075,-85.26363"
       style="fill:#ffffff;fill-opacity:1;fill-rule:nonzero;stroke:#ffffff;stroke-width:1.25;stroke-linecap:butt;stroke-linejoin:miter;stroke-miterlimit:4;stroke-dasharray:none;stroke-opacity:1"
       id="path558" />
  </g>
</svg>
