<?xml version="1.0" encoding="utf-8"?>
<!-- Generator: Adobe Illustrator 17.0.0, SVG Export Plug-In . SVG Version: 6.00 Build 0)  -->
<!DOCTYPE svg PUBLIC "-//W3C//DTD SVG 1.1//EN" "http://www.w3.org/Graphics/SVG/1.1/DTD/svg11.dtd">
<svg version="1.1" id="Layer_1" xmlns="http://www.w3.org/2000/svg" xmlns:xlink="http://www.w3.org/1999/xlink" x="0px" y="0px"
	 width="600px" height="200px" viewBox="0 0 600 200" enable-background="new 0 0 600 200" xml:space="preserve">
<g>
	<g>
		<path fill="#7DCCF3" d="M305.234,52.158v0.373h-0.154h-0.146l0.146,0.998v0.348l-0.12,0.274c0,0-0.313,1.396,0.516,1.669
			c0.832,0.271,0,0.099,0,0.099s-0.166,0.626,0.369,0.974c0,0,0.138,0.397,0.635,1.495c0,0,1.349,1.346,1.948,2.539
			c0.599,1.198,1.397,2.195,1.397,2.195l1.396,1.396v0.995c0,0,1.697,0.299,2.197,1.694c0,0,3.191,0.798,3.693,0.896l0.223-0.448
			c0,0,1.023-0.422,1.049-1.021l1.247-0.45l0.55-0.174l0.549-0.724c0,0,0.797,0.251,0.797-0.399l0.4-0.199
			c0,0,0.75-0.673,1.446-0.522c0.699,0.152,0.499-0.348,0.377-1.547l-0.027-0.322l-0.223-0.026l-0.025-0.547l0.025-0.448
			l-0.575,0.126l-0.198-0.251l0.124-0.323l0.624-0.223l-0.026-0.773c0,0-0.623-0.129-0.575-0.625
			c0.051-0.499-3.716-4.111-6.736-5.082c-3.018-0.973-6.812-4.111-6.983-4.856h-0.251l0.199,0.445l-0.249,0.051l-0.226-0.349
			c0,0-0.351,0-0.452,0c-0.097,0-0.37-0.147-0.37-0.147s0.024-0.625-0.6-0.201l-0.65-0.149v0.299l-0.224,0.052l-0.248,0.097
			c0,0-0.499,0.348-0.85,0.197c0,0,0.45,0.351,0.125,0.796l-0.125,0.402c0,0,0.077,0.225,0,0.299
			c-0.074,0.075-0.225,0.299-0.225,0.299l-0.323,0.373v0.226l0.394-0.102L305.234,52.158z"/>
		<path fill="#7DCCF3" d="M344.656,68.732h-1.196v-1.324l-0.931-1.447h-1.598l-0.399,0.65l-0.668,0.132l-0.929,0.666l-1.865-0.268
			l-1.198,0.399l-0.267-0.796c-0.795,0.267-2.127,1.36-2.127,1.36s-2.261-0.664-1.995-2.142c0,0-0.499,2.44-2.894,1.644
			l-9.182,2.494l0.201-1.198l-2.398,2.092l-0.698-0.199l-3.791,1.095l-9.48,2.295l-0.499-0.203l-0.898,0.4l-1.697,0.597
			l-2.896,0.621h-2.393c0,0-5.01,1.462-6.886,0.046c0,0-0.533-2.793-3.329-0.667c0,0-3.723,3.589,0,7.311
			c0,0,3.329,1.195,4.127,2.659h1.995c0,0,6.389,0.663,8.117,0c0.656-0.254,2.932-1.009,5.779-1.921
			c-3.929,4.124-11.718,12.465-13.197,15.276c0,0-0.998,1.096-1.396,1.892l-0.6,0.799c0,0-0.899,0.273-0.972,0.571l-0.175,0.476
			h0.101l0.273-0.399c0,0,0.376-0.476,0.6-0.178c0,0-0.524,1.199-1.397,1.349c0,0-0.898,0.97-0.824,1.617h-0.349l-0.549,1.05
			c-0.1,0.123-0.149,0.597-0.149,0.597l-0.549,0.523c0,0-4.691,7.584-4.291,8.976l-0.027,0.532c0,0,0.357,0.667,0.625,0.999
			c0.267,0.332,0.732,0.397,0.732,0.397l0.474,0.666v1.193l0.592-0.464l0.93-0.2l0.797,0.068l0.733-0.199l0.265,0.396l0.4,0.732
			c0,0-0.131,0.334,0,0.532c0.136,0.202,0.933,0.599,0.933,0.599s1.131,0.729,0.998,0.529c-0.133-0.199,0.133-0.596,0.133-0.596
			h0.33c0,0,0.067,0.067,0.067,0.331c0,0.265,0,0.265,0,0.265l0.932,0.036l0.6-0.565c0,0-0.399-0.599-0.199-0.599
			c0.199,0,0.465,0,0.665-0.199c0.199-0.2,0.599-0.532,0.599-0.532l0.332,1.33l0.135,0.565l0.532-0.766c0,0,0.265-0.399,0.265-0.597
			c0-0.2,2.729-7.308,3.993-9.105l0.863-1.131c0,0,0.399-0.396,0.199-0.595c-0.199-0.2-0.199-0.335-0.13-0.531
			c0.067-0.2,0.265-0.735,0.465-0.931c0.199-0.203-0.067,0.129,0.731-0.303c0.8-0.429,1.396-1.093,2.596-1.756
			c1.198-0.667,9.38-0.667,9.647-0.799l-0.734,1.594c0,0-0.333,0.529-0.399,0.961c-0.067,0.435-0.4,1.166-0.4,1.166
			s-0.067,0.131-0.067,0.532c0,0.397-0.263,0.661-0.263,0.863c0,0.035-0.275,0.798-0.732,2.085l0.757-0.822l0.772-1.465
			l-0.549,2.857l-0.45,0.502l-0.997,2.355l0.466-3.427c-2.133,6.013-8.342,23.726-10.314,35.325
			c-0.608,3.574-1.299,6.609-1.995,9.163l1.465-3.09l0.797-3.946l0.531-1.63c0,0,0.4-1.56,0.668-2.49
			c0.265-0.931,0.93-2.127,0.93-3.189c0-1.064,0.134-0.931,0.533-1.863c0.112-0.257,0.181-0.442,0.233-0.607
			c0.135-0.432,0.145-0.716,0.432-1.718c0.4-1.383,0.933-2.855,1.2-3.521c0.266-0.663,1.063-3.719,1.063-3.719
			s0.797-5.317,0.931-5.784c0.132-0.464,1.613-3.737,1.613-3.737l1.447-5.325v2.484l-2.528,6.904l-0.267,5.188l-3.685,12.227
			l-0.706,1.997l-0.132,1.196c0,0-0.533,1.327-0.533,1.957c0,0.631-0.531,1.498-0.531,1.498s-1.597,5.448-1.731,6.047
			c-0.133,0.596-0.532,1.66-0.532,1.66l-2.316,4.652v-1.481l1.117-1.576v-2.132c-2.048,7.507-4.123,10.768-4.123,10.768h1.328
			l1.466,1.595v0.663l1.12-0.663v0.663h0.607l0.134-0.532c0,0,1.463-1.325,1.863-1.325c0.397,0,0.397,1.858,0.397,1.858
			l-0.531,0.932l1.33-0.796c0,0,0.133,0.399,0.133,0.796c0,0.4,0,0.4,0,0.4h1.465c0,0,0.004,1.459,2.662-5.979
			c2.659-7.446,7.452-27.776,8.782-32.959c1.329-5.182,4.125-12.892,4.125-12.892v-1.859l1.331-1.463v-1.328l1.198-2.793
			l-0.532-0.663c0,0,0.265-0.932,0.532-1.331c0.264-0.399,0.264-0.399,0.264-0.399l0.666-1.829l0.668-2.026l0.93-1.46l1.066-1.862
			c0,0,3.46-1.591,5.989-2.261c2.529-0.663,4.521,1.33,0,4.923l-0.267-1.465v-1.595v-0.397l-1.069,1.726l-0.529-1.462l-1.064,2.127
			l-0.931,0.664c0,0,0,0.402-0.265,0.8c-0.267,0.397-1.066,0.531-1.066,0.531v-1.198l-0.265-1.064l-0.932,2.659
			c0,0-3.061,3.187-0.933,6.248l1.199,0.661l1.065,0.666l0.666-0.132l1.061,1.991l0.8,1.063c0,0,0.666-0.262,0.666,0.267
			c0,0.534-0.133,1.066-0.133,1.066l1.862-0.27l0.799-0.132l2.033,0.532l1.295-0.532l0.799-0.531c0,0,8.117-5.98,7.45-15.018
			c0,0,0.934-5.313-7.45-7.175l0.4-0.799l-1.731-0.531l-1.064-0.265l-0.267-1.066l-0.265-0.663c0,0-2.129-2.465-1.466-6.215
			c0,0-0.133-1.359-1.463-1.491c0,0,1.73-2.195-1.862-3.093c0,0-3.992-1.161-10.513,15.584c0,0-9.182,3.324-10.779,2.657
			c0,0-2.394-0.132,1.066-6.646c0,0,4.391-10.165,6.653-10.63l0.466-0.667l-1.465,0.403l-0.457,0.199l0.434-0.796
			c2.677-0.829,5.187-1.585,6.878-2.062c5.19-1.463,18.097-4.391,18.761-4.52c0,0,2.13-0.796,4.259-0.663c0,0,0-0.534-1.196-1.33
			C340.532,72.19,341.725,69.799,344.656,68.732z M303.936,153.481c0,0.287-0.199,1.501-0.199,1.501l-0.832,1.795v2.129
			l-1.296,1.395l-0.2,3.187c0,0-1.064,1.527-0.866,1.198c0.2-0.331-0.597,0-0.597,0l1.025-1.73c0,0,0.304-1.727,0.105-2.193
			c-0.201-0.463-0.067-0.796,0-1.06c0.065-0.267,0.532-0.335,0.598-0.535c0.067-0.199,0.135-0.863,0.332-1.26
			c0.201-0.4,0.467-1.327,0.533-1.594c0.067-0.268,0.467-1.264,0.666-1.797c0.199-0.529,0.463-2.126,0.332-2.388
			c-0.133-0.27,0-0.602,0-0.602V150.4c0,0,0,0,0.199-0.333c0.199-0.331,0.267-0.329,0.333-0.864c0.068-0.532,0.2-0.397,0.268-0.796
			c0.07-0.399,0.597-0.93,0.73-1.262c0.133-0.333,0-1.264,0-1.463c0-0.2,0.265-1.463,0.265-1.463l0.534-1.991v3.586l0.733-0.529
			l-0.333,0.596c0,0,0,0.796,0,1.196c0,0.4-0.4,0.332-0.4,0.332l-0.598,0.335l-0.6,1.792l-0.331,1.13v1.064
			C304.338,151.729,303.936,153.19,303.936,153.481z M307.929,144.153c-0.131,0.2-0.531,1.595-0.531,1.926
			c0,0.333,0.264,0.666,0.264,0.666s0.07,0.531-0.132,0.8c-0.199,0.262-0.266,0.361-0.266,0.361s-0.201,0.032-0.383,0.367
			c-0.184,0.332,0,0.93,0,0.93s-0.215,0.464-0.282,0.864c-0.068,0.397,0,0.599,0,0.599l0.282,2.062c0,0-0.415,0-0.547,0
			c-0.133,0-0.733,0.331-0.733,0.331l-0.067,1.195l-1.196,1.198c0,0,0.331-0.534,0.399-0.732c0.066-0.2,0-1.237,0-1.237l0.331-0.889
			l0.399-1.263c0,0,0.333-1.926,0.465-2.391c0.136-0.468,0.599-1.394,0.667-1.794c0.067-0.4,0.282-0.866,0.282-0.866l0.25-1.214
			l0.133-0.648c0,0,0.333-1.26,0.599-1.662c0.265-0.397-0.065-1.127,0-1.327c0.066-0.199,0.465-1.064,0.465-1.064
			S308.063,143.956,307.929,144.153z M308.795,139.118v-0.281v-0.799l0.531,0.544L308.795,139.118z M309.326,136.977v-0.596v-1.198
			l0.45,1.46L309.326,136.977z M309.527,131.046l-0.55,0.996l-0.948,2.941l-0.448,1.695l-0.7,2.44c0,0,0-0.348,0-0.795
			c0-0.451,0.25-1.299,0.299-1.546c0.051-0.252,0.25-1.098,0.25-1.098l0.648-1.692l1.696-5.383L309.527,131.046z M333.228,116.892
			l-0.399,0.65h-0.599l-0.499-0.248h-0.399l-0.5-0.402l1.424,0.078h0.573l0.848-0.577L333.228,116.892z M334.675,114.452V115
			l0.551,0.474l-0.75,0.479v-0.442l-0.348-0.51L334.675,114.452z M334.129,115.848l-0.85,0.104h-0.799h-0.199h-0.249l-0.148,0.441
			h-1.051C330.833,116.393,332.084,114.852,334.129,115.848z M328.421,94.688l-0.332,0.351l-0.497,0.384l-0.251-0.384h-0.451v-0.175
			l-0.445-0.212l0.896-0.699c0.448-0.913,1.08,0,1.08,0l0.218,0.735H328.421z M322.501,92.658c-0.136-0.8,1.896-3.758,3.291-5.254
			c1.399-1.495,2.629,0,2.629,0l-0.134,0.4l-0.133,0.568l-0.497,0.161l-0.2-0.263l-0.265-0.467l-0.333,1.029
			c-1.398-0.1-1.628,0.731-2.429,2.462c-0.798,1.724-1.498,2.657-2.228,2.657C321.469,93.953,322.501,92.658,322.501,92.658z
			 M321.303,95.213c0.599-1.228,1.496-0.1,0.634,0.133C321.077,95.578,321.303,95.213,321.303,95.213z M314.716,112.507
			c0.05-0.197,0.151-0.496,0.25-1.096c0.099-0.597,0.15-0.299,0.496-0.845c0.351-0.55,0.202-0.55,0.252-0.751
			c0.049-0.197-0.252-0.647-0.252-0.647v-0.3c0,0,0.151-0.596,0.252-0.893c0.099-0.3,0.147-0.451,0.249-0.537
			c0.099-0.086,0.349-1.114,0.349-1.114l0.298-0.544l0.75-0.947l0.448,0.996l-0.448,0.647l-0.4,0.961l-1.994,5.219l-0.25,0.499
			C314.716,113.155,314.667,112.706,314.716,112.507z"/>
		<polygon fill="#7DCCF3" points="296.484,156.571 296.484,156.574 296.486,156.571 		"/>
		<path fill="#7DCCF3" d="M355.099,77.239l-1.463-2.393c0,0,1.534,5.651,2.529,6.382h1.332h0.399l0.596,0.529l0.468,0.4l-0.332,0.6
			h-0.934l1.795,0.728h1.134l0.864,0.666c0,0-0.467,0.264,0,0.264c0.467,0,1.597,0,1.597,0s0.267-0.333,0.399,0
			c0.135,0.335,0,0.932,0,0.932l1.199-0.333c0,0,0.332,0.2,0.6,0.333c0.262,0.132,0.463-0.333,0.663,0
			c0.201,0.329,1.132,0.589,1.396,0.693c0.268,0.104,0.268-0.505,1.067,0c0.799,0.503,3.86,1.233,4.122,1.301
			c0.268,0.062,3.063,0,3.063,0s0.729-0.138,2.061,0.029c1.334,0.168,2.794,0,2.794,0s0.268,0.313,0.732,0.074
			c0.466-0.235,0.667-0.235,1.665-0.235c0.998,0,1.663-0.07,1.663-0.07s1.067,0.07,1.465,0c0.397-0.065,0.599-0.331,0.796-0.399
			c0.202-0.067-0.66-0.7-0.66-0.7l0.69-0.364h-0.826l0.463-0.863l1.002-0.264l0.265-0.602v-1.325c0,0,0.399,0,0.532-0.264
			c0.135-0.268,0.332-1.167,0.332-1.167s0.532-0.234,0.532-0.431c0-0.201,0-0.732,0-0.732s-0.597-0.265,0.397-0.66
			c1.001-0.402,1.001-0.402,1.001-0.402V78.37v-1.33l-0.399-0.642c0,0-1.399-2.213-3.989-2.815l-0.271,0.732l0.668,0.067
			l0.263,0.531c0,0-4.456-1.064-5.589-0.998l0.068-0.995h-1.262c0,0-0.403,0.064-0.8,0c-0.4-0.067-0.067,0.064-0.999,0
			c-0.932-0.067-1.463-0.017-1.463-0.017l-1.866-0.713l-1.325-0.397h-1.069l-0.396,0.397l-0.4-0.664c0,0-0.529,0.065-0.799,0
			c-0.133-0.033-0.515-0.033-0.866-0.025c-0.35,0.006-0.664,0.025-0.664,0.025l1.595-0.532l-5.378-0.595h-1.807h-1.196
			c0,0-0.4-0.203-0.8-0.27c-0.399-0.065-0.399-2.194-0.399-2.194l-0.996,0.664l-0.869,0.333l-0.595,0.667l-1.201,0.397l-0.998-0.267
			l0.199,1.263c0,0-0.532-0.199-0.663,0.264c-0.132,0.465-0.465,0.866-0.465,0.866l-1.396,0.067l-0.735,0.4l1.067,0.132
			c0,0,0.399,0.331,0.467,0.532c0.064,0.197,0.064,0.399,0.064,0.796c0,0.397,0,1.196,0,1.396s1.463,3.057,1.463,3.057
			S356.165,79.433,355.099,77.239z"/>
		<path fill="#7DCCF3" d="M355.385,101.844l0.448,0.647h0.348h0.801c0,0,0.1,0.2,0.348,0.351c0.251,0.147,0.853,0,0.853,0
			s0.148,0.133,0.296,0.067c0.151-0.067,0.151-0.067,0.151-0.067v-0.699l1.746-0.099l0.948,0.099v0.3l-0.597,0.483l1.245-0.286
			l0.352,0.286h0.847h1.196l-1.25-0.835l1.599-0.246l1.647-0.65l0.748-0.45l0.548,0.1l0.55,0.35c0,0-0.048,0.052-0.297,0.249
			c-0.252,0.202-0.354,0.249-0.7,0.351c-0.351,0.099-0.299-0.051-0.699,0.296c-0.4,0.352-0.7,0.4-0.7,0.4l0.602,0.149
			c0,0,0-0.051,0.499-0.099c0.497-0.051,1.047-0.351,1.047-0.351l0.249-0.199h0.396l0.502-0.248c0.201,0.248,0.85-0.051,0.85-0.051
			s0.099-0.397,0.249-0.447c0.149-0.052,0.051,0.148,0.397-0.452c0.352-0.596,0.5-0.847,0.5-0.847l0.251-0.196v0.796v0.197
			l0.715-0.197l0.332-0.1c0,0,0-0.048,0.299,0.1c0.3,0.148,0.85-0.048,0.85-0.048l-0.397,0.695l0.745-0.747l0.447-0.249V99.65
			l0.898-0.596h0.502c0,0-0.1,0.397,0,0.45c0.1,0.048,1.347-0.102,1.347-0.102l-2.046,1.246c0,0,4.392-2.045,6.535-4.884
			l-0.245-0.449l0.499-0.545l-1.002,0.094c0,0,0.035-0.029,0.087-0.072l-0.27,0.125l0.036,0.265l0.096,0.148l-0.096,0.451
			c0,0,0.032,0.233-0.069,0.267c-0.099,0.03-0.782,0.017-0.924,0.157c-0.099,0.102-0.244,0.264-0.32,0.35
			c0.094-0.001-0.052,0.057-0.052,0.057s0.025-0.025,0.052-0.057c-0.045,0-0.141,0.014-0.352,0.057
			c-0.629,0.135-1.53,0.201-1.53,0.201l0.265-0.4l-0.1-0.631l0.202,0.165l0.497-0.083v0.341v0.207l0.568-0.315
			c0,0,0.432-0.249,0.564-0.516c0.133-0.265,0.133-0.265,0.133-0.265h0.168v-0.399l0.283-0.412c-0.016,0.033,0,0.077,0.313-0.02
			c0.432-0.133,0.666-0.231,0.666-0.231h0.499l0.184,0.162h0.75l0.547-0.593c0,0,0.251-0.201,0.352-0.402
			c0.097-0.197,0.296-0.697,0.296-0.697v-0.7c0,0-0.046-1.689,1.695-1.543l0.352-0.296v-0.201l0.6-0.499
			c0,0-21.245,3.84-23.172,4.17c-1.93,0.331-10.912,0.265-12.905-2.791l0.583,1.475l-0.123,0.174l0.699,1.482
			c0,0-2.084-1.942-2.509-1.971c0,0-0.4,1.201,0,1.698l-0.174,0.499h-0.226H348.3v0.596c0,0,2.145,6.628,7.533,6.379
			L355.385,101.844z M377.291,95.78l-0.132,0.165l0.065,0.465h0.265v0.267l-0.798,0.365h-0.664c0,0-0.135-0.132,0-0.2
			c0.132-0.064,0.364-0.265,0.396-0.465c0.035-0.199,0.268-0.597,0.268-0.597H377.291z M374.298,94.65l0.164-0.397l0.168-0.2
			l0.547-0.265v0.465h0.452l0.164,0.296l-0.099,0.333h0.729v0.1l-0.457,0.165h-0.307l-0.631,0.267l-0.799,0.432c0,0,0,0,0.033-0.067
			c0.032-0.067,0-0.251,0-0.251l-0.332-0.547L374.298,94.65z"/>
		<path fill="#7DCCF3" d="M381.913,110.863c0.4-1.331,6.788-11.294,6.788-11.294c-1.463,1.192-7.184,8.667-7.184,8.667
			c0.11-1.073,7.26-10.895,9.718-14.245c-2.527,3.087-9.314,12.489-10.002,13.483c-0.481,0.692-0.622,1.346-2.745,3.294v0.003
			c0,0-0.602,0.538-0.848,1.563c-0.249,1.024-0.748,1.222-0.748,1.222l-2.049,1.646l0.927-2.129
			c-1.243,0.996-2.794,2.187-4.765,3.637c-9.58,7.044-17.369,1.063-17.369,1.063l2.73,3.189c-1.463-0.263-3.725-2.126-3.725-2.126
			l0.995,2.259l-1.66-0.661c3.328,6.11,11.977,5.704,11.977,5.704c-2.262,0.921-8.383-0.013-8.383-0.013
			c6.785,3.035,15.299,0.687,18.893-1.84c3.593-2.525,8.782-11.296,8.782-11.296c-0.531,0.931-2.794,2.791-2.794,2.791
			c0.267-1.063,5.323-9.414,5.323-9.414C384.976,106.52,381.913,110.863,381.913,110.863z M379.808,117.042
			c-0.122,0.152-0.798,0.898-0.798,0.898s-0.671,0.948-0.522,1.098c0.149,0.149-0.848,0.197-0.848,0.197s0,0,0.148-0.197
			c0.151-0.202,0.351-0.998,0.351-0.998l1.248-1.795h0.847C380.234,116.244,379.937,116.892,379.808,117.042z M380.186,113.904
			c0,0-0.352,0.648-0.5,0.948c-0.151,0.297-0.676,0.795-0.676,0.795l-0.522,0.597v-0.351v-0.642c0,0,0.599-0.45,0.699-0.773
			c0.099-0.32,0.548-1.024,0.621-1.224c0.08-0.199,1.324-0.696,1.324-0.497C381.132,112.957,380.186,113.904,380.186,113.904z
			 M379.486,112.159c-0.299,0.448-0.902,1.295-0.902,1.295l-0.595,0.697l-1.098,0.7c0,0,0.299-1.096,0.598-1.349
			c0.299-0.249,0.5-0.5,0.699-0.747c0.201-0.249,0.251-0.149,0.822-0.946c0.574-0.799,0.326-0.448,0.574-0.748
			c0.249-0.302,0.799-1.248,0.799-1.248h0.748C381.132,109.814,379.787,111.711,379.486,112.159z"/>
		<path fill="#7DCCF3" d="M392.059,93.071c1.15-0.948,0-0.2,0-0.2s-0.312,0.423-0.824,1.119
			C391.621,93.522,391.91,93.194,392.059,93.071z"/>
		<polygon fill="#7DCCF3" points="457.663,135.482 455.967,135.912 456.367,136.311 458.094,135.912 459.361,135.482 		"/>
		<polygon fill="#7DCCF3" points="459.361,136.311 460.558,135.895 461.555,135.482 459.826,135.482 		"/>
		<path fill="#7DCCF3" d="M465.747,135.05l-1.865,0.432l-1.328,0.413l0.734,0.416l1.061-0.416c0,0,0.4-0.579,0.998-0.413
			c0.602,0.165,1.663,0,1.663,0l1.93-0.432h-1.795H465.747z"/>
		<polygon fill="#7DCCF3" points="485.374,124.154 485.773,124.154 487.436,123.622 485.773,123.622 		"/>
		<polygon fill="#7DCCF3" points="483.447,122.888 485.374,122.159 484.512,122.159 		"/>
		<polygon fill="#7DCCF3" points="451.177,136.311 452.771,136.578 454.037,136.311 451.843,136.311 		"/>
		<path fill="#7DCCF3" d="M482.181,125.416l-1.099,0.297l-0.996,0.412l-1.698,1.483c0,0-0.798,0.099-1.795,0.199
			c-0.998,0.099-1.598,0.399-2.197,0.499c-0.599,0.099-2.294,0.399-2.294,0.399l-0.998,0.199l-1.199-0.396l1.897-1.298l2.494,0.197
			c0,0,0.896-0.397,1.299-0.595c0.397-0.202,2.294-0.687,2.294-0.687l-1.795-0.51c0,0-0.101-0.6,0.898-0.899
			c0.998-0.297,3.895-0.695,3.895-0.695l-5.39,0.197c0,0-0.203,0.3-0.502,0.598c-0.299,0.3,1.299,0-0.299,0.3
			c-1.595,0.3-2.194,0.3-2.194,0.3s-0.258,0.065-0.566,0.167l0.697-0.341l2.127-0.668c0,0-0.864-0.023-0.998,0
			c-0.132,0.022-1.063,0.177-1.331,0.277c-0.264,0.102-0.331,0.331-0.431,0.394c-0.1,0.061-0.236,0-0.236,0s-0.361,0.104-0.728,0
			c-0.367-0.101-0.932-0.164-0.932-0.164s-0.667,0.133-1.063,0.164c-0.402,0.029-0.934-0.03-1.101,0c-0.164,0.029-0.931,0.07-1.23,0
			c-0.299-0.071-0.602,0-0.602,0s-1.43-0.03-1.73,0c-0.299,0.029-1.095,0.006-1.26,0c-0.168-0.003-1.231,0-1.231,0h-1.364
			l-1.731-0.394l-0.59,1.064l-1.869-0.236l-1.069-0.695c-1.124,0.097-6.121-0.406-6.155-0.41c-1.243-0.274-2.435-0.573-2.658-0.754
			l-2.197,0.399c0,0-1.597-1.493-4.788-1.792c0,0-2.297-0.697-3.093-1.595c0,0-5.992-1.196-10.684-3.789l-7.284-3.089l-3.392-1.794
			l-1.898-0.299l-1.095-1.085l-2.696-1.705l-0.899-0.101l-0.4-0.734c0,0-0.497-0.96-1.892-1.26c0,0,2.994-4.552,4.089-5.265h3.094
			c0,0-0.202-0.181,0.7,0c0.896,0.183,2.893,0,2.893,0s1.596-0.516,1.897-0.615c0.299-0.099,3.292-1.795,3.292-1.795v-0.895
			c0,0,0.297-0.5,0.799-0.799c0.497-0.299,1.399-0.796,1.399-0.796l1.196-1.396l1.396-1.424l1.697-0.699h1.396l0.2-0.7
			c0,0,0.599-0.468,1.296-0.468c0.702,0,1.598-0.197,1.598-0.197l0.899-0.4l1.396-1.592l1-0.998l1.895-1.401h-1.895
			c0,0,0.996-0.293,1.692-0.793c0.702-0.499,0.702-0.499,0.702-0.499s0.6-1.093,1.298-1.492c0.698-0.4,1.298-0.7,1.298-0.7v-0.796
			l0.597-0.995l1.298-1.301l0.797-1.789l-1.195,1.293c0,0-1.898,1.797-2.198,1.995c-0.302,0.199-1.498,1.694-1.895,2.092
			c-0.402,0.4-1.498,0.896-1.498,0.896l1.895-2.591l1-1.295l0.895-1.098l1.302-1.193l1.395-1.536c0,0-0.302-0.561,0.299-0.758
			c0.599-0.201-0.997-0.798-0.997-0.798l0.2-1.198l0.598-0.698l0.602,0.998l1.195-0.199c0,0,2.597-2.095,1.598-4.188l-0.799-2.193
			l-3.193-2.493h-0.496l-0.802-1.095l-2.294-0.895h-0.599h-1.298h-1.897l-1.597,0.264l-1.598-0.996l-0.265,0.863l-1.596,0.531
			l-1.731,0.731c0,0-1.928-0.731-2.129-0.731c-0.2,0-1.794,0.2-1.995,0.2c-0.199,0-1.198,0-1.467,0.067
			c-0.264,0.064-0.728-0.067-0.728-0.067s-0.532,0.529-1.001,0.531c-0.328,0-0.724-0.229-0.997-0.2l2.13-1.592v-1.395v-1.196
			l1.799-1.924h1.394v-2.462c0,0-9.981-6.579-22.953-8.372l2.594,1.245h-5.388c0,0,4.264,6.198,7.623,8.632l-6.627-2.7
			c0,0,15.769,9.565,19.164,9.965c-0.2,0.467-1.198,0.597-1.198,0.597s0.065-0.731-0.667-0.597c-0.732,0.133-1.53,0-1.53,0
			l0.599-0.4c0,0,0.4-0.397-1.331,0c-1.727,0.4-2.194,0.4-2.194,0.4c-0.534-0.062-1.531,0.467-1.531,0.467s-0.732,0.065-1.263,0.065
			c-0.535,0-3.46,0.4-4.257,0.599c0,0-0.934-0.199-1.133-0.264c-0.2-0.07-1.398,0-2.193,0.065c-0.799,0.067-2.33,0.531-2.33,0.531
			l-1.534,0.065c0,0-0.928,0-1.13,0c-0.2,0-1.066,0.732-1.794-0.529c0,0-1.537,0.529-1.931,0l0.532,1.325h-1.962l-1.089,0.966
			l1.685,2.491h1.101c0,0,0.7,0.898,0.998,0.999c0.299,0.097,0.499-0.4,0.8,0c0.299,0.399,0.799,0.896,0.799,0.896h1.292
			l1.599-0.599c0,0,0.998,0,1.496,0c0.5,0,1.498,0,1.995,0.101c0.502,0.094,0.8,0.695,1.199,0.497
			c0.399-0.201,1.396-0.02,1.694,0.039c0.302,0.061,1.799,0.239,2.098,0c0.299-0.241,1.698-0.341,2.097-0.442
			c0.399-0.094,0.599,1.219,0.497,0.564c-0.099-0.658,0-0.362,1.799-0.463c1.794-0.102,1.794-0.102,1.794-0.102h0.797v1.198
			c0,0,0,0.7,0,0.999s0,0.896,0,0.896h-1.697c0,0-0.895,4.386-2.092,5.483c0,0-0.9,1.298-3.696,0.697l-0.197-0.597l-1.401,0.197
			V81.16l-1.093,0.1c0,0-0.499,1.694-2.496-0.7c0,0-2.298,0.802-0.5,4.191c1.797,3.387,4.888,3.783,4.888,3.783
			s-7.983,13.829-9.08,14.392c-1.096,0.561-2.095-1.131-3.392,0.661c-1.301,1.795,0.599,3.118,0.197,4.649l-0.998,2.129v1.295
			c0,0-0.097,0.599-0.299,0.899c-0.202,0.299-0.5,0.798-0.5,0.798s-0.297-0.899-0.499,0c-0.199,0.896-1.076,1.794-0.887,2.091
			c0.189,0.299-0.666,1.797-0.666,1.797s-0.191,1.194-0.668,1.694c-0.471,0.5-0.738,1.096-0.738,1.096v1.992
			c0,0-0.632,0.798-0.632,1.099c0,0.297-0.397,0.597-0.499,0.896c-0.101,0.297,0,1.095,0,1.692c0,0.458-0.458,1.459-0.399,1.846
			c0.1,0.647,0.199,0.948,0.199,1.243c0,0.305-0.599,0.702-0.599,0.702l1.93,1.394l1.407,0.996l-0.668,0.499h1.823
			c0,0,0.1,0.497,0.998,0.497c0.899,0,1.898,0,1.898,0h0.898c0,0,0.302-0.695,1.396-0.996c1.096-0.299,1.096-0.496,1.598-0.699
			c0.499-0.196,0.499-0.196,0.499-0.196s0.499,0.496,0.799,0.196c0.299-0.297,0.099-0.696,0.399-1.194
			c0.299-0.497-0.1,0.099,0.299-0.497c0.173-0.261,0.3-0.454,0.396-0.6c0,0,0.902,0,1.201-0.396c0.302-0.4,0.898-0.948,0.898-0.948
			s-0.296,1.344,0.402,0c0.696-1.346,0.696-1.346,0.696-1.346s0,0.197,0.802-0.599c0.796-0.799,1.393-1.396,1.393-1.396
			s-0.4-0.496-0.2-0.796c0.2-0.297,0.8-1.198,1.101-1.396c0.297-0.197,1.096-0.399,1.396-0.497c0.299-0.099,0.097,0.497,0.299-0.099
			c0.199-0.599,0.199-0.599,0.199-0.599l-0.199-0.998l2.796,1.398l2.394,1.394l0.898,0.4c0,0,0.7,1.193,0.998,1.293
			c0.204,0.068,0.915,0.413,1.476,0.721c0.26,0.145,0.493,0.278,0.622,0.377c0.399,0.297,0.799-0.099,1.098-0.202
			c0.299-0.099-1.198-1.193-0.798-1.193c0.397,0,1.895,0.197,2.194,0.497c0.299,0.297,0.599,0.496,1.594,0.898
			c1.003,0.397,2.398,0.995,3.597,1.396c1.198,0.397,2.891,1.592,2.891,1.592l-2.791-0.845l-3.394-1.434H422.2h-0.898
			c0,0,0.998,0.786,1.396,0.986c0.4,0.197,1.099,0.197,1.799,0.895c0.696,0.699,1.293,0.2,1.992,0.999
			c0.702,0.796,2.495,1.494,2.495,1.494s2.195,0.899,2.596,1.096c0.4,0.2,1.997,1.495,2.696,1.295c0.697-0.2,1.697,0.2,2.496,0.599
			c0.796,0.397,1.393,0,1.393,0l1.301,0.796c0.699,0.203,1.496,0,1.496,0l1.997,0.093c0,0-0.302,0.407,0.496,0.806
			c0.799,0.399,2.197-0.299,2.497,0c0.297,0.299,2.297,0.128,2.297,0.128s0.497-0.075,1.396,0.051c0.9,0.12,2.394,0,2.394,0
			s0.497-0.216,1.399,0.051c0.896,0.268,0.497-0.329,1.493-0.528c1.002-0.2,2.5-0.496,2.899-0.496c0.397,0,1.792,0,2.79,0.099
			c0.998,0.097,5.296-0.499,5.296-0.499s1.193-0.203,1.791-0.4c0.597-0.202,2.994-1.695,2.994-1.695s2.597-1.293,4.489-1.293
			l2.398-1.196l-2.094,0.2c0,0,5.986-2.493,8.683-4.687L482.181,125.416z M420.455,95.613l-0.551,0.551h-0.65l0.402-0.725
			l0.55-0.326l0.65-0.397l0.297,0.3L420.455,95.613z M431.081,89.483v-0.349c0,0,0,0,0.152-0.299c0.146-0.302,0.399,0,0.399,0
			L431.081,89.483z M431.882,87.839h-0.249v-0.3l0.502-0.251L431.882,87.839z M434.176,85.696l-0.576,0.899l-0.57,0.246v-0.397
			c0,0,0.297-0.599,0.399-0.748c0.1-0.149,0.747-0.497,0.747-0.497V85.696z M438.719,80.86c0,0-0.652,0.7-0.799,0.851
			c-0.149,0.149-0.55,0.548-0.55,0.548l-0.773,0.296l-0.223,0.3v0.399l-0.351,0.695l-1.048,0.851l-0.252-0.249
			c0,0,0.551-0.75,0.602-0.896c0.049-0.151,0.5-0.651,0.699-0.948c0.202-0.3,0.351-0.845,0.351-0.845s0.947-0.4,1.044-0.548
			c0.102-0.152,1.301-1.479,1.301-1.479V80.86z M435.273,79.564h0.5v0.451c0,0,0.397-0.1,0.898-0.1c0.499,0,0.747-0.049,0.747-0.049
			l0.603-0.547c0,0-0.302-0.478,0-0.563c0.297-0.087,0.747-0.386,0.747-0.386l0.999-0.957l-1.449,2.052c0,0-0.799,0.748-0.901,0.948
			c-0.097,0.199-1.044,0.642-1.044,0.642l-0.351,0.603l-0.5-0.603h-0.8l-1.293,1.203l0.696-0.847V80.86l0.597-0.547l0.551-0.35
			V79.564z M422.5,71.793l0.376-0.376h0.425h0.322l-0.4,0.223h0.4v0.289c0,0-0.447,0.159-0.625,0.135c-0.171-0.023-0.122,0-0.122,0
			H422.5V71.793z M422.366,80.761l0.732-1.064l0.396-0.941V78.17l0.403-1.465v-1.459c-0.132-1.398-0.799-1.663-0.799-1.663v-0.793
			l2.145-0.95l-0.497,0.426l0.497,0.447c0,0,0.326-0.123,0.376-0.225c0.049-0.097,0.349-0.425,0.349-0.497
			c0-0.075,0.123-0.351,0.123-0.425c0-0.074,0.3-0.149,0.3-0.149h1.048l0.476,0.248c0,0,0,0.128-0.123,0.176
			c-0.126,0.049-0.4,0.275-0.4,0.275v0.151l-0.3,0.197l-0.252-0.072l-0.075-0.276l-0.173,0.215c-0.023,0.465,0.848,0.383,0.95,0.335
			c0.099-0.051,0.497-0.149,0.497-0.149s1.047-0.077,1.149-0.152c0.097-0.074,0.648,0,0.648,0l0.077,0.325
			c0,0,0.47-0.023,0.599-0.099c0.123-0.074,0.621,0.099,0.621,0.099s0.75-0.125,0.825-0.148c0.074-0.025,0.373-0.177,0.373-0.177
			l0.052,0.774l0.722,0.023c0.3,0.524,0.052,1.621,0.052,1.621l0.796-0.5l0.2,0.225h0.57v0.376c0,0-0.397,0.397-0.547,0.473
			c-0.151,0.075-0.099,0.499-0.099,0.499l0.425-0.323v0.547c0,0-0.152,0.199-0.326,0.323c-0.174,0.123-0.199-0.023-0.199-0.023
			l-0.348-0.102l-0.276,0.748l-0.323,0.389l-0.351,0.557l0.125,0.052l0.352-0.35l0.821-0.026c0,0-0.051,0.175-0.323,0.474
			c-0.276,0.299-0.326,0.5-0.326,0.5v0.135l-0.171,0.413l0.171,0.074l-0.249,0.397l-0.673,0.699
			c-1.172,0.025,0.342-1.583,0.342-1.583l-2.195,2.005l-0.866-0.332l-1.665-0.465c-0.998-0.067-0.465,1.092-0.465,1.092
			s-0.532-0.097-0.732-0.028c-0.202,0.068-0.732,0-0.732,0h-0.665h-2.295h-0.764V80.761z M412.27,95.065
			c0,0-0.448-0.349-0.448-0.599c0-0.246,0.3-0.297,0.499-0.449c0.202-0.145,0.55-0.097,0.55-0.097s0.496-0.248,0.547-0.449
			c0.052-0.199,0.349-0.847,0.349-0.847l0.028,0.173l0.072,0.449l0.299-0.223c0,0,0.349-0.299,0.55-0.596
			c0.2-0.303,0.848-0.553,1.098-0.901c0.249-0.347,0,0,0.1-0.446c0.103-0.45,0,0,0.399-0.2c0.402-0.2,0.352-0.149,0.352-0.149
			l0.499-0.296l0.615-0.249l0.78-0.352v0.352v0.249h0.3l0.35,0.296l0.748-0.296c0,0,1.198,0.196,2.744,0.844
			c1.547,0.648,0.897,1.395,0.897,1.395l-1.23,0.748l-0.764,0.499c0,0-0.45,0.199-0.65,0.3c-0.199,0.096-1.199,0.347-1.199,0.347
			s-0.499,0.249-0.896,0.499c-0.399,0.249-1,0.798-1,0.798h-1.346l-2.446,0.8h-1.095h-1.148l0.648-1.199l0.451-0.796L412.27,95.065z
			 M390.895,129.734c0,0,0,0-0.57-0.267c-0.571-0.264-0.361-0.463-0.431-0.666c-0.064-0.196-0.132-0.863,0-1.243
			c0.136-0.381,0-0.188,0-0.188l0.934-1.621l-0.3,1.992l0.708,0.331L390.895,129.734z M404.235,104.036
			c0.149-0.399,0.751-0.848,0.751-0.848l0.947-1.744c0,0,0.049,0.898,0.018,1.047c-0.03,0.149-0.117,0.748-0.018,1.196
			c0.102,0.448-0.249,0.745-0.249,0.745l-0.399,0.602l-1.099,0.895l-0.399-0.348C403.787,105.58,404.087,104.432,404.235,104.036z
			 M399.697,103.337c0-0.249,0.348-0.397,0.45-0.596c0.099-0.2,0.447-0.697,0.648-1.298c0.197-0.599,0.249-0.447,0.399-0.896
			c0.103-0.306,0.499-0.558,0.744-0.696c0.119-0.065,0.202-0.1,0.202-0.1v0.896c0,0-0.497,0.696-0.696,1.022
			c-0.2,0.322-0.523,0.97-0.523,0.97l-1.222,0.947C399.697,103.587,399.697,103.587,399.697,103.337z M394.608,114.694
			c0,0,0-0.342,0-0.542c0-0.199,0.099-0.948,0.246-1.264c0.152-0.315,0.4-0.728,0.548-0.977c0.152-0.251,0.785-1.134,0.785-1.134
			v1.282l-0.785,1.145c0,0-0.199,0.4-0.347,0.602c-0.149,0.196,0.049,0.347,0.049,0.347l0.287,0.799L394.608,114.694z
			 M395.903,117.939l-0.5-0.348l0.785-0.499c0,0,0.464-0.599,0.715-0.796c0.251-0.202-0.151-0.448,0-0.973
			c0.149-0.522-0.051-0.471,0-0.871c0.048-0.397,0.399-0.848,0.399-0.848l1.095-0.898l-0.397,0.948c0,0-0.251,1.147-0.397,1.446
			c-0.149,0.297-0.399,1.096-0.51,1.293c-0.105,0.201-0.439,0.947-0.439,0.947L395.903,117.939z M397.601,123.625
			c0,0-0.502-0.103-0.75-0.022c-0.251,0.08-0.449-0.081-0.6-0.531c-0.149-0.448,0-0.299,0-0.299l0.6-0.7h0.6l0.547,0.774
			L397.601,123.625z M399.697,117.939c0.048,0.051-0.4,1.209-0.4,1.209l-0.2,0.635l-0.302,0.608c0,0-0.696,1.485-0.796,1.235
			c-0.1-0.249,0.1-0.396,0-0.547c-0.1-0.148-0.199-0.449-0.199-0.449v-0.548c0,0-0.199-0.448-0.199-0.597
			c0-0.151,0.397-0.336,0.397-0.336l0.397,0.336v0.948l0.399-0.848c0,0,0.152-0.75,0-1.148c-0.145-0.397,0.254-0.447,0.254-0.497
			c0-0.049,0-0.599,0-0.599l0.397-0.596l0.251,0.596C399.697,117.34,399.646,117.89,399.697,117.939z M400.919,114.452
			c0,0-0.226-0.052-0.674-0.149c-0.448-0.102-0.302,0.249-0.35,0.392c-0.049,0.142-0.199,0.853-0.199,0.853
			s-0.051,0.448-0.352,0.302c-0.296-0.152-0.149-0.5-0.273-0.748c-0.125-0.248-0.277-0.351-0.277-0.748
			c0-0.399,0.55-0.898,0.55-0.898l-0.1-0.567c0,0,0.352,0.767,0.452,0.567c0.1-0.2,0.048-0.351,0.209-0.497
			c0.162-0.149,0.687,0,0.687,0l0.421,0.497L400.919,114.452z M408.329,120.381l-1.248,0.2v0.397c0,0,0,0-0.249,0.351
			c-0.249,0.347-0.447,0.148-0.447,0.148s-0.35,0.051-0.422,0.051c-0.071,0-0.727,0.148-0.727,0.148l-0.399,0.251l-1.05-0.051
			c0,0,1.05,0.051-1.147,1.298c-2.195,1.244-1.55-0.599-1.496-0.748c0.049-0.151,0.099-1.195,0.249-1.494
			c0.149-0.302,0.347-0.648,0.347-0.648v-1.396c0,0,0.553-0.848,0.399-0.998c-0.148-0.151,0.6-0.896,0.702-1.047
			c0.1-0.148,0-0.795,0-0.795c-0.3-0.553-0.4-1.447,0.199-1.347c0.6,0.1,2.645,1.942,2.645,1.942l0.278,0.2l0.819,0.551
			c0,0,0.748-0.151,2.095,0.744C410.224,119.037,408.329,120.381,408.329,120.381z M464.416,127.905v-0.003h0.19
			C464.49,127.905,464.416,127.905,464.416,127.905z M465.314,127.807c-0.189,0.062-0.5,0.087-0.7,0.096l0.101-0.551h1.174
			C465.673,127.576,465.492,127.747,465.314,127.807z M468.61,127.707c-0.6,0.299-1.599,0.4-1.599,0.4s-0.101-0.599,0.197-0.7
			c0.16-0.051,0.263-0.395,0.441-0.715l0.393-0.148l2.771-0.335c-0.423,0.371-1.708,0.8-1.708,0.8S469.206,127.406,468.61,127.707z"
			/>
		<path fill="#7DCCF3" d="M420.055,112.258c0,0-0.015-0.02-0.029-0.038C419.838,112.168,420.055,112.258,420.055,112.258z"/>
		<path fill="#7DCCF3" d="M447.201,101.693c-0.201,0.2-0.349,0.648-0.349,0.648l-0.302,0.35l-1.296-0.548l-0.948-0.493
			c0,0-0.796-0.595-1.296,0c-0.499,0.592-1.015,0.841-1.015,0.841v0.531c0,0-1.334,0.931-2.062,0.996l0.597,0.333
			c0,0-4.923,2.525-12.705,3.187c0,0,0.529,0.534-1.248,0.766c-1.778,0.234-2.114-0.213-2.114-0.213l2.114-0.267l-0.515-0.566
			c0,0-0.284-0.067-0.818,0.102c-0.534,0.164-1.18,0.779-1.18,0.779l0.249,0.097l-0.963-0.113v-0.432c0,0,0.364-0.116,0.415-0.135
			c0.048-0.017,0.248-0.181,0.048-0.165c-0.2,0.016-1.911,0.584-1.911,0.584h-0.997l-0.799,0.261l1.449,0.138l1.047,0.299h0.451
			l-2.446,0.297h-1.25h-0.896l0.599-0.397l0.499-0.336c0,0-0.899,0.064-1.098,0c-0.2-0.062-0.95-0.133-1.196,0
			c-0.251,0.138-0.8,0.186-0.999,0.236c-0.202,0.051-0.85,0.1-0.85,0.1l0.505,0.309l0.144,0.089l-0.648,0.199l0.697,0.55
			l0.152,0.347l0.648-0.249c0,0,0.1-0.296,0.351-0.296c0.246,0,1.096-0.051,1.246-0.102c0.149-0.051,1.298,0.102,1.298,0.102
			l-0.199,0.545c0.199,0.4,0.199,0.4,0.199,0.4v0.448h-1.095h-0.452c0,0-0.3-0.299-0.497,0c-0.202,0.3-0.651,0.747-0.651,0.747
			l1.897,1.148l-0.499-0.75c0,0-0.149-0.197-0.149-0.399c0-0.196,0.1-0.348,0.299-0.296c0.2,0.048,0.4,0.249,0.55,0.296
			c0.148,0.052,0.148,0,0.4,0.152c0.199,0.119,0.361,0.325,0.419,0.409c0.09,0.02,0.268,0.075,0.626,0.19
			c1.099,0.347,1.447,0.397,1.447,0.397l-0.297-0.599l-0.85-0.397c0,0,0.054-0.152,0.999-0.051c0.947,0.1,1.496,0.199,1.946,0.199
			c0.449,0,0.65,0.299,0.65,0.299l-0.8,0.3c0,0,0.499-0.199,0.898,0.249c0.399,0.447,0.3,0.596,0.3,0.748
			c0,0.147,0.149-0.352,0.599-0.4c0.451-0.052,0.947,0.048,0.947,0.048s-0.099-0.347,0.251-0.347c0.351,0,0.75-0.049,1.398,0.1
			c0.65,0.147,1.048,0.297,1.246,0.399c0.201,0.099,0.799,0.354,0.951,0.225c0.148-0.126,0.348,0.648,0.548,0.038
			c0.197-0.615,0.548-0.463,0.548-0.463s0.399,0.099,0.65,0.148c0.248,0.052,0.499,0.052,0.996,0.1
			c0.5,0.051-0.651-0.596-0.651-0.596s0.252-0.351,0.853-0.2c0.599,0.149,0.998,0.396,1.196,0.448c0.199,0.048-0.3,0,0.199,0.048
			c0.502,0.052-0.099,0.1,1.199,0.052c1.296-0.052-0.299-0.249-0.299-0.249s-0.302-0.348-0.101-0.449
			c0.2-0.097,0.448-0.349,0.9-0.349c0.448,0,1.246,0,1.594,0c0.351,0,0.702-0.096,1.15-0.197c0.448-0.099,0.845-0.199,0.845-0.199
			h0.851l0.748-0.4l0.648-0.199c0,0-0.148,0.299,0,0.45c0.152,0.149,0.553,0,0.553,0v-0.151c0,0,0.246-0.1,0.645-0.251
			c0.399-0.148,1.298-0.447,1.298-0.447s0.197-0.399,0.399-0.399c0.2,0,1.795-0.597,2.545-1.195c0.75-0.597,2.245-1.944,2.197-4.137
			l0.001-0.551v-0.596l-0.452-0.799h-0.597l-0.349-0.547l0.099-0.447h-0.35l-0.596,0.399l-0.101-0.399
			C447.5,102.044,447.399,101.496,447.201,101.693z"/>
		<path fill="#7DCCF3" d="M413.117,108.235h-0.896v0.535h-0.248v0.449l1.444-0.251c0.303,0.151,0.449,0,0.551,0.251
			c0.097,0.248-0.551,0.248-0.551,0.248c0.899,0.499,0.899,0.499,0.899,0.499l0.1-0.55l-0.149-0.697l0.6-0.484H413.117z"/>
		<path fill="#7DCCF3" d="M410.823,108.072v0.164h-0.697l-0.3-0.164l-0.999-0.248l-0.598-0.204l0.5,0.616l0.997,0.336
			c0,0,0.648,0.412,0.799,0.529c0.146,0.119,0.347,0.218,0.595,0.316c0.252,0.102,0.303-0.316,0.303-0.316l-0.1-0.573l0.65-0.457
			H410.823z"/>
		<polygon fill="#7DCCF3" points="415.563,110.886 416.263,110.886 416.561,110.886 416.862,110.464 416.263,110.464 
			415.764,110.464 414.867,110.761 415.563,111.311 		"/>
		<polygon fill="#7DCCF3" points="436.918,112.807 437.17,113.003 438.218,112.558 437.418,112.558 		"/>
		<path fill="#7DCCF3" d="M200.678,100.033l-0.2,0.467l-1.462,0.463l-0.932,0.8l-0.663,0.328l-0.734,0.467l-0.732,0.333
			l-0.733,0.329l-0.998,0.6h-0.331l-0.466,0.397c0,0-3.927,1.663-4.524,2.191c0,0-0.465-0.196-1,0.4l-0.732,0.067l-1.863,0.568
			l-1.396,0.561l-0.731-0.132c0,0,0.465-0.731,0.465-1.794l0.665-0.597l0.399-0.399l0.2-0.332c0,0-0.067-1.064,0.732-1.531
			l0.132-0.396l0.201-0.267l0.065-0.531l0.932-0.78c0,0,0.534-0.747,3.526-1.148c0,0,0.997-0.465,1.464-0.529
			c0.466-0.065-0.133-0.268,1.532-0.6c1.662-0.332,1.53-2.323,2.793-3.055c1.263-0.732,2.796-1.13,2.796-1.13l0.996-0.864
			l1.266-1.13l0.399-0.8l0.466-1.193l0.531-0.863l-0.666-0.202l0.733-0.663c0,0-0.467-1.064,0.464-1.396l0.334-0.998
			c0,0-1.33-0.596-0.6-1.395l-1.33-1.262l0.133-1.131l0.399-1.727h-0.532c0,0-0.534-1.729-0.268-2.657c0,0-0.798-0.534-0.666-1.066
			l-0.266-0.596c0,0-0.998-0.6-0.864-1.595h-0.599l-1.198-0.732l-0.734-0.861l-0.064-0.399l-1.531-0.4c0,0-0.601-0.93-1.596-1.394
			l-0.6-1.929l-0.264-0.464l0.131-0.336c0,0,0.532-1.989-2.063-0.995l-1.13,0.995l0.131,0.732l-0.798,0.2l-0.398,1.46
			c0,0-0.665,0.402-0.6,1.331l-0.33,0.932l0.397,0.595l-0.597,0.8l0.066,0.528l-0.466,0.402c0,0-1.397,1.662-1.065,2.394
			c0.334,0.728-0.932,1.657-0.932,1.657l-0.6-0.2l-0.398,0.734l-1.197,0.397l-1.13,0.201l-1.134,0.132l-1.795,0.532
			c0,0-1.463,0.132-2.13,0.465c-0.665,0.333-2.661,0.529-2.661,0.529l-1.795,0.399l-0.533-0.796l-0.932,0.202l-0.399-0.402h-0.665
			c0,0-0.268-0.861-1.797-0.331c-1.53,0.531-2.596-0.599-3.261-1.396h-1.33c0,0-0.2,1.33-1.065-0.6l-0.632,0.235
			c0,0-1.896,2.791-1.896,5.681v0.998v0.596c0,0-0.5,1.695,0,3.091c0,0-0.643,0.497-0.222,2.992c0.421,2.49,0.056,2.291,0.987,3.287
			c0.932,0.996,1.031,2.291,2.628,3.289c1.597,0.995,0.998,2.094,4.391,1.792c0,0,1.097-0.595,2.594-0.595
			c1.499,0,1.797,0.499,4.192,0.099c2.395-0.4,2.695,0.55,2.695,0.55s-0.8,5.33-3.993,7.223c0,0-2.029,1.264-0.099,1.33
			c0,0,0.531-1.195,2.594-1.33c0,0,0.668-0.464,0.866,0.864c0,0,0.264,0.332-1.066,0.8h-0.665l-0.664,0.264l-0.466,0.331h-0.398
			l-0.6,0.4h-0.933l-1.263,0.664h-1.396c0,0-1.863,0.666-2.596,0l-0.598,0.294h-0.731l-0.333,0.503h-0.532
			c0,0-1.397,0.534-1.73,0.798c0,0,0.666,0.2,1.264,0.4c0,0,0.465,0.928-1.197,1.064c0,0,0.065,0.597-0.534,0.929
			c0,0,0.666,0.728-0.133,1.459c0,0,0.599,1.462,0.465,2.261c0,0,2.13,2.259,2.928,2.126l0.664-0.399l0.201,0.405l0.799-0.338
			c0,0,0.664,0.596-0.734,0.931c0,0,2.662-0.532,3.194-0.864l0.798-0.331l0.599-0.135l0.133,0.465l0.6-0.2l0.666-0.2
			c0,0,0.199-0.129,0.399-0.129c0.199,0,0.866-0.136,0.866-0.136l0.331,0.136l0.599-0.2c0,0,1.53-0.531,2.695-0.866v0.333
			l0.698-0.333l1.93-0.199l0.397-0.465l0.933-0.064c0,0,0.132-0.4,1.331-0.667l0.998-0.464l0.333-0.467l0.465,0.333l0.465-0.333
			l0.465-0.463l0.465-0.067l0.866-0.333l0.465-0.4l0.732-0.465l0.465-0.464c0,0,0.266,0.201,0,0.863l0.865-0.729l0.599-0.663
			l0.465-0.2v0.529c0,0,0.799-1.13,1.198-1.392h-1.397l1.066-0.867c0,0,0.331-0.064,0.331,0.399l0.532-0.464
			c0,0,0.466-0.864,1.532-1.463l-0.4-0.196l0.4-0.8v-0.866l-0.266-0.132l-0.199-0.529l-0.067-0.333c0,0,1.662-0.93,2.661-1.66
			c0,0,0.4-1.063,0.864-1.063v-0.333v-1.063l0.934-0.534l0.596-0.663l0.8-0.332l1.396-1.462l0.863-0.447c0,0,3.129-2.61,4.059-3.474
			C205.135,97.772,201.609,99.901,200.678,100.033z"/>
		<path fill="#7DCCF3" d="M277.391,61.028l0.152-0.448l-0.301-0.249v-0.402l-0.3-0.693l-0.4,0.046l-0.447-0.747
			c0,0-0.651-0.445-0.901-0.847l-0.549-0.051c0,0-1.746-1.495-2.543-1.843c0,0-0.848-0.698-1.497-1.196
			c-0.65-0.499-2.296-1.945-3.343-2.64c-1.048-0.696-1.199-0.848-1.896-1.446c-0.7-0.597-1.198-1.198-1.647-1.343
			c-0.451-0.151-1.098-0.75-1.098-0.75l-0.249-0.399l-1.048-0.85l-0.5-0.396l-0.198-0.349l-0.748-0.35l-0.101-0.399
			c0,0-0.697-0.4-0.349,0.899c0,0-0.798-0.516-0.949-0.957h-0.998h-0.249l-0.201,0.257l-0.199,0.449l-0.3-0.049l-0.149-0.657h-0.45
			c0,0,0.399,1.502-1.097,0.457v1.546l0.399,0.548c0,0,0.349,1.196,0.548,1.692c0,0-0.05,1.399,0.9,2.742v0.347
			c0,0,0.697,1.149,1.198,1.498c0,0,0.447,0.998,0,1.098c0,0,0.348,1.295,1.047,1.396c0,0,0.798,1.492,0.848,1.94l0.299,0.399
			c0,0,0.65,1,1.148,1.597c0.5,0.599,0.75,1.093,1.097,1.045c0.35-0.052,0,0.348,0,0.348s2.845,2.095,3.595,2.346
			c0.747,0.247,0.849,0.545,1.347,0.946c0.498,0.4,1.545,0.645,2.645,0c0,0,0.249-0.799,1.147-1.299c0,0,1.548-0.995,1.998-1.443
			c0.449-0.45,0.349,0,1.694-0.397l1.149,0.547l0.597-0.249l0.65-0.051l0.65-0.197C277.791,62.474,276.992,61.824,277.391,61.028z"
			/>
		<path fill="#7DCCF3" d="M233.214,92.189c0.094-0.036,0.167-0.067,0.167-0.067C233.32,92.141,233.268,92.166,233.214,92.189z"/>
		<path fill="#7DCCF3" d="M232.98,62.807l-0.063-0.608c0,0-0.036,0.148-0.187,0h-0.049c0,0-0.125,0.622,0.173,0.785L232.98,62.807z"
			/>
		<path fill="#7DCCF3" d="M225.428,100.731l-0.299,0.463c0,0,0.734,0.697,1.729-0.135l0.732-0.861l-0.465-0.197
			C227.125,100.001,225.961,101.269,225.428,100.731z"/>
		<polygon fill="#7DCCF3" points="229.787,96.842 229.42,96.974 228.223,98.236 227.756,98.305 228.624,98.935 228.624,98.437 
			229.021,98.305 229.921,97.473 230.752,96.941 230.752,96.744 231.082,96.146 229.987,96.576 		"/>
		<polygon fill="#7DCCF3" points="231.848,95.314 231.848,94.783 231.517,94.982 230.784,95.314 230.895,95.35 231.582,95.579 		"/>
		<polygon fill="#7DCCF3" points="232.98,92.985 232.647,93.438 232.08,93.721 232.285,93.777 232.681,93.884 233.011,93.721 
			233.612,93.354 233.612,93.155 233.08,93.155 		"/>
		<path fill="#7DCCF3" d="M234.508,92.123c0,0,0.035,0.203,0,0.303c-0.019,0.059-0.193,0.146-0.324,0.204
			c-0.078,0.036-0.14,0.058-0.14,0.059h0.564l0.399-0.5l0.035-0.332l0.099-0.199l0.231-0.199l0.566-0.233h0.335v-0.265l0.198-0.265
			l0.233-0.067l0.133-0.164l0.2-0.132l0.5-0.4l0.3-0.033l0.231-0.399l0.399-0.236l0.267-0.03c0,0,0.165-0.406,0.232-0.487
			c0.067-0.078,0.264-0.213,0.332-0.312c0.066-0.097-0.265-0.199-0.265-0.199h-0.299l-0.267,0.699l-0.267,0.265l-0.498,0.3h-0.5
			l-0.565,0.599l-0.433,0.333c0,0-0.202,0.296-0.4,0.362c-0.199,0.067-0.831,0.2-0.831,0.2l-0.432,0.199v0.261h-0.537l0.405,0.402
			L234.508,92.123z"/>
		<polygon fill="#7DCCF3" points="239.898,87.474 239.605,87.274 239.31,87.772 239.732,87.906 		"/>
		<path fill="#7DCCF3" d="M273.45,77.922c-0.301,0-0.35,0.895-0.35,0.895c-0.252-0.397-0.8-0.895-1.099-1.144
			c-0.301-0.251-0.599-1.992-0.65-0.386c-0.048,1.611-0.098,1.083-0.448,0.332c-0.35-0.747-0.398,0.003-0.398,0.003
			c-1.099-0.049-1.498,0.848-1.498,0.848l-0.7,1.344c-0.599,1.045-0.799,1.697-0.799,1.697c-0.746,0.697-1.046,1.891-1.046,1.891
			l-0.6,0.252l-1.091,2.091l-0.907,1.995l-0.398,0.249c0,0-3.892,6.277-5.888,9.625c-1.715,2.884-2.506,2.793-2.699,2.71
			l-0.045-0.026c0,0-7.786-19.538-7.786-20.536l1.731-0.264l0.067-0.731l0.532-0.932c0,0,0-0.463,0.133-0.664
			c0.135-0.197,0.733-1.195,0.733-1.195s0.065-0.597,0.197-0.931c0.136-0.332,0.335-0.599,0.335-0.599l0.665-0.795l-0.399-0.265
			l0.064-0.996h-0.53c0,0-0.136-0.799-0.735-0.799c-0.599,0-1.064-1.595-2.727-1.063l-0.398-0.107h-0.667h-0.667h-0.863
			c0,0-0.964,0.125-1.416-1.024c-0.448-1.146-3.516-8.146-3.516-8.146s-2.145-4.81-2.345-5.783c-0.199-0.97-0.624-2.017-1.872-1.868
			l-0.398-0.126l-0.299,0.251c0,0-0.499-0.125-0.823,0.1l-0.299-0.052c0,0-1.119,0.306-1.273,1.472c0,0-0.449,2.391,0,3.337
			c0,0,0,1.098,0.299,1.897c0.3,0.798,0.8,2.841,1.047,3.988c0,0-0.698-0.789-0.547-1.247h-0.226l0.126,0.599
			c0,0,0.324,1.643,0.773,1.918c0.449,0.273,0,0.1,0,0.1s0.223,1.541,0.649,2.265v0.577l0.299,0.522v0.473l0.323,0.748v0.471
			l0.224,0.373l0.125,0.476l0.175,0.299l0.25,0.399c0,0,0.136,0.323-0.319,0.674c-1.807,0.463-3.268,0.827-3.598,0.869
			c-0.997,0.133-3.524,0.667-4.323,0.8c-0.798,0.131-5.389,0.995-7.386,1.327c-1.994,0.335-3.924,0.596-4.658,0.732
			c-0.729,0.133-5.121,0.532-5.454,0.065c0,0-1.132,0-1.463-0.201c-0.333-0.197-0.665,0.27-0.665,0.27l-0.667,0.132l-0.663,0.199
			l-0.4,0.399h-1.065v0.332l-1.098,0.732c0,0,2.196,7.178,6.588,8.473l2.293,0.896h1.498h0.899h2.595c0,0,2.295,0.996,3.093,0.697
			c0.798-0.302,2.095,0.055,2.095,0.055s-4.789,6.722-5.488,7.62c-0.698,0.896-1.196,1.395-1.196,1.395l-1.299,0.996l0.132-0.596
			c0,0-1.462,1.062-1.679,1.559l0.252,0.168c0,0,0.629-0.866,0.798-0.929c0.166-0.068,0.166,0.264,0.166,0.264l-0.634,0.898
			l-0.798,1.195l-0.433,0.335c0,0-0.166,0.032-0.199,0.132c-0.033,0.1-0.299,0.564-0.299,0.564l-0.067,0.3l-0.798,0.863l-0.2,0.432
			h-0.333l0.199-0.534l0.168-0.232l0.064-0.496c0,0,0.299-0.2,0.498-0.434c0.2-0.232,0.2-0.464,0.468-0.664
			c0.265-0.197,0.598-0.567,0.598-0.567l0.133-0.399c0,0-0.565,0.399-0.698,0.535c-0.132,0.132-0.132,0.162-0.499,0.598
			c-0.364,0.432-0.764,0.731-0.764,0.831c0,0.1,0.1,0.2-0.101,0.596c-0.198,0.4-0.663,0.465-0.663,0.465s0.03,0.1-0.2,0.3
			c-0.233,0.199-0.467,1.096-0.467,1.096s-0.632-0.099-0.833,0.799c-0.197,0.895-0.829,0.595-0.928,1.028
			c0,0,0.997-0.568,1.462-1.162c0.466-0.599,1.032-1.83,1.563-1.431l-0.731,0.796c0,0-0.199,0.635-0.299,0.734
			c-0.101,0.1-0.333,0.364-0.499,0.531c-0.168,0.167-0.234,0.332-0.335,0.532c-0.099,0.201-2.46,3.189-2.395,3.721
			c0.067,0.532-0.629,0.397-0.629,0.397l-0.101,0.866l-0.632,0.265l-0.267,0.199v-0.132c0,0,0.233-0.497,0.299-1.198
			c0.013-0.129,0.036-0.216,0.067-0.275c0.136-0.251,0.401,0.077,0.401,0.077l0.132-0.564l0.199-0.499l0.3-0.232l0.166-0.232
			l0.199-0.364l0.365-0.4l0.465-0.365l0.566-0.828h-0.332l-0.564,0.46l-0.399,0.434l-0.666,1.098l-0.766,0.996
			c0,0-0.532,0.763-0.665,0.831c-0.134,0.068-0.866,0.698-0.866,0.698v0.497l-0.697,0.368c0,0,0.231,0.661,0,1.095
			c0,0,0.133,0.464,0.465,0.464c0,0,0.03,0.632-0.199,0.996c0,0,0.165,0.365,0.698,0.267c0,0,0.299,0.464,0.831,0.362l-0.299,0.6
			l-0.232,0.7l-0.334,0.232h-0.2l0.299,0.197l0.136,0.17l0.132,0.197c0,0,0.83,0.5,1.198,0c0.365-0.499,0.732-0.2,0.865-0.267
			c0.132-0.067,0.067-0.132,0.599-0.132c0.531,0,0.599,0.202,0.599,0.202s0.698-0.07,1.098-0.038
			c0.399,0.038,0.598-0.396,0.898-0.396c0.3,0,0.632,0.529,0.632,0.529l0.167,0.5h0.099l0.299,0.197l-0.166-0.663l0.433-0.131
			l0.298,0.264l0.335-0.2l0.231-0.297l0.299-0.299l0.299-0.368c0,0,1.387-0.941,3.064-1.795c1.156-0.586,2.452-1.131,3.524-1.293
			c0,0,0.829-0.199,1.197-0.534c0.366-0.331,0.565,0.135,0.565,0.135s0.999-0.497,1.43-0.532c0.432-0.032,0.233,0.332,0.233,0.332
			s-2.561,2.891-4.457,3.09c-1.897,0.199-1.138-0.892-0.966-1.427c0,0-0.699,0.067-0.897,0.595l-0.167,0.368l-0.165,0.03
			l-0.468-0.162l-0.496,0.234l-0.101,0.296c0,0-0.068-0.032-0.332,0c-0.268,0.032-0.334,0.199-0.334,0.199s0,0.599-0.731,0.899
			c-0.731,0.297-1.199,0.497-1.397,0.864c-0.2,0.364-0.499,0.064-0.499,0.064s-0.067,1.198-0.798,0.964c0,0-0.1,0.597,0.267,0.565
			l0.331,0.001l0.2,0.297l0.6,0.702c0,0,1.098,0.828,1.696,0.727c0,0,0.698,0.731,1.73,0.632c1.032-0.1,1.498,0.365,1.498,0.365
			l0.598,0.167l0.998-0.167l0.665-0.168l0.866-0.099l0.631,0.099c0,0,0.697-0.165,1.23-0.064c0,0,1.331-1.032,1.064-0.233
			c-0.265,0.798-1.031,0.832-1.363,0.632l-0.299,0.299l-0.599,0.197h0.566h0.398h0.265l0.402-0.263l0.265,0.263h0.4h0.232
			l0.268-0.232l0.266-0.431c0,0,0.73,0.165,0.866-0.168c0.132-0.332-1.399-0.497,0.431-0.928c1.83-0.434,0.667,0.032,0.667,0.032
			l0.531,0.232l0.366-0.099l0.499-0.232l0.332-0.167l0.998,0.035l1.099-0.333h-1.267l-0.399-0.397l-0.83,0.202l-0.53,0.132
			c0,0-0.767,0.229-0.834,0c-0.064-0.235-0.262-0.203-0.53,0c-0.268,0.197-1,0.197-0.368-0.235c0.635-0.432,0.368,0.333,1.563-0.465
			c0,0,0.599,0.467,1.232,0.132c0.631-0.331,0.399-0.299,1.13-0.065c0.732,0.233,1.398,0.332,1.398,0.332l0.265,0.067l0.167-0.133
			l0.268-0.265c0,0,0.133-0.3,0.697-0.367c0,0-0.333-0.663,1.132-0.761c0,0,0.133,0,0.431-0.303c0,0-1.296,0.233-0.399-0.561
			c0,0,0.633,0,1.199-0.367l0.332-0.3c0,0-0.798-0.164,0-0.829c0.797-0.666,1.195-0.399,1.829-1.263c0,0-1.565,1.096-0.964,0.1
			c0.597-0.996,0.799-0.2,1.196-0.567c0.4-0.362,0.5-0.761,0.5-0.761s-0.801-0.132,0-0.499c0.798-0.365,0.465-0.399,0.465-0.399
			s-1.065-0.333-0.431-0.664c0.63-0.333,0.93-0.864,0.93-0.864l-0.465-0.365l0.465-0.197l0.433-1.331c0,0-0.832-0.497-0.366-1.264
			l-0.332-0.197c0,0-0.666-1.032-0.633-1.23c0.033-0.2-1.266-1.759-2.295-2.292c-1.03-0.531-0.899,0.497-0.899,0.497l-0.265-0.529
			l-0.599-0.1l-0.2-0.132c0,0-0.332-0.534-1.196,0.332c-0.866,0.863-0.499-0.1-0.499-0.1l-0.634,0.133l-0.631-0.033l-0.498,0.033
			l-0.931,0.096l-2.732,0.3l-0.563,0.233l-1.098,0.068l-0.598,0.033l-0.635,0.232l-0.398,0.067h-0.299c0,0-0.666-0.964-0.832-0.996
			c-0.165-0.033,0.065-0.399,0.065-0.399s-0.931,0.264-0.131-0.368c0.797-0.631,0.765-0.064,0.765-0.064l0.467-0.465l0.331-0.2
			l0.232-0.566l0.501-0.264c0,0,0.664-0.033,1.531-0.434c0.865-0.399,1.163-0.333,1.163-0.333l-0.697-0.131l-0.966,0.297
			c0,0-0.2-0.497-0.298-0.596c-0.101-0.099,0.698-0.699,0.964-1.198c0.266-0.497,1.098-1.095,1.528-1.36
			c0,0-0.497-0.102,0.333-0.467c0,0,0.233-0.732,0.499-0.964c0.267-0.232,0.601-0.697,0.601-0.697l0.331-0.696l0.93-0.265
			l-0.1-0.332l0.2-0.333l0.202,0.032c0,0-0.334-0.464,0.564-0.431c0,0,0.267-0.1,0.267-0.696c0,0,0.232,0.196,0.632-0.632
			l0.299-0.201c0,0,0.542-0.827,1.532-1.196c-0.316,0.106-0.901,0.222-0.001-0.828l0.794,0.094
			c-0.128-0.018-0.522-0.115,0.105-0.626l0.3-0.331l0.465-0.434l0.832-0.465c0,0-0.101-0.365,0.664-0.629l0.499-0.302
			c0,0-0.564-0.432,0.368-0.728l0.796-0.136l0.301-0.563l0.265-0.632l0.531-0.102l0.434-0.132l0.399-0.032v-0.199l0.632-0.102
			l0.299,0.534l-0.5,0.197l-0.464,0.067l0.399,0.532l0.333,0.067c0,0,0.299,0.133,0.366,0.232c0.065,0.1,2.627,6.564,2.828,7.371
			l1.067,1.602v0.993c0,0,0.397,0.866,0.995,1.528c0,0,0.068,1.333,0.399,1.86v0.532h0.4v0.799v0.465l0.463,0.197l0.536,0.931v0.664
			c0,0,0.632,1.816,1.515,4.357c-0.018,0.032-0.034,0.07-0.055,0.097c-0.398,0.532-4.254,5.58-4.79,6.047c0,0,0.467,0.861,0.2,0.993
			c-0.265,0.133-3.193,1.995-3.46,3.06l-1.064,0.064l-0.599,0.867l-0.399,0.332l0.333,0.661l2.129-1.592
			c0,0-0.068-1.131,1.196-1.594c1.264-0.467,1.728-1.729,3.126-2.061c0,0-1.862-0.201,0.335-0.667
			c0.353-0.073,0.624-0.122,0.841-0.151l-1.95,2.43l-0.489,0.178l-0.2,0.467c0,0-0.004,0.165-0.072,0.309l-0.128,0.157
			c-0.199,0.133-1.064,0.731-1.064,0.731l-1.263,0.531l-0.268,0.531l-0.199,0.4v0.596l-0.2,0.336l-0.865,0.132l-0.799,0.464
			c0,0-0.465,0.332-0.666,0.332c0.077,0,0.201,0,0.201,0l0.826,0.634c-0.112-0.081-0.449-0.3-0.561,0.029
			c-0.132,0.4,0.732,0.4,0.732,0.4l0.038,0.302l-0.031,0.064l-1.082,1.031c-0.332-0.177-0.75-0.387-0.921-0.41
			c-0.299-0.044-0.7,0.652-0.7,0.652l-0.998,1.085l-1.596,1.396v0.597h0.508c-0.307,0.309-0.572,0.551-0.683,0.615
			c-0.103,0.055-0.421,0.261-0.8,0.519c0.023-0.197,0.046-0.365,0.025-0.386c-0.049-0.046-0.2-0.448-0.397-0.3
			c-0.2,0.152-0.252,0.3-0.6,0.551c-0.028,0.019-0.076,0.081-0.136,0.161l-0.838,0.113l0.049-0.45l0.299-0.2h-0.946l-0.4,0.422
			l0.025-0.569l-0.822,0.147l-0.084,0.114l-2.214,3.077l-0.823,0.599h-0.175l0.55-1.175l-0.774,0.948l-0.252,0.523v0.422
			l0.651-0.497l0.499-0.075l0.737-0.645l0.737-0.225c0,0,0.297-0.249,0.372-0.201c0.075,0.054-0.075,0.725-0.075,0.725l-0.472,0.271
			l0.149,0.226l1.175-1.099l0.695-0.734l0.801-0.986l0.397-0.148l0.286,0.122c-0.266,0.445-0.593,1.005-0.928,1.599
			c-1.256,1.433-3.147,3.548-4.007,4.263l-0.415,0.115l-0.932,0.995v0.684l-1.587,1.253l0.322-0.706l-1.129,0.828l-0.349,0.516
			l-0.982-1.047l-1.198,1.395h1.198l-0.6,0.599l-1.131,0.729l-0.798,0.268v0.465h0.798c1.176-0.215,4.983-2.593,8.271-4.752v-0.001
			c2.849-1.875,5.301-3.589,5.301-3.589c1.518-1.352,6.922-6.086,11.544-10.13l2.529-1.829l-0.877,0.381
			c2.283-1.995,4.188-3.661,5.06-4.423c0.491,1.42,0.949,2.741,1.328,3.843h-0.322l0.527,0.589c0.357,1.041,0.625,1.829,0.751,2.201
			c0.152,0.657,0.418,0.808,0.418,0.808c0.302,2.204,2.796,8.061,2.796,8.061h0.599l0.499,0.602l0.698,1.892l0.699,0.898
			l0.898,0.796v0.899l1.497,0.95l0.4,0.742l0.696,0.799c0.8,0.248,0.957,0.798,0.957,0.798l0.891-0.55l0.25-0.896l1.595,0.248
			l-0.297-0.399l0.148-0.249l0.05-0.493h0.648c0,0-0.048-0.505-0.048-0.699c0-0.203,0.298-0.203,0.598-0.251
			c0.298-0.049,0.499,0.201,0.499,0.201l0.55,0.545l0.498-0.747l0.648-0.35l0.399-0.6l0.349,0.151l0.199,0.499l0.65-0.896
			c0,0-0.249-0.3-0.249-0.499c0-0.2-0.349-0.996-0.349-0.996l-0.649-1.247l-0.997-1.394l-0.448-0.947
			c-0.349-0.4-5.641-9.295-5.641-9.295l-0.648-1.47c0,0-0.199-0.7-0.249-1.048c-0.049-0.348-0.299-0.4-0.299-0.4l-0.25-0.996
			l-1.397-3.136l-0.698-0.302l0.049-0.798l-0.1,0.251l-0.297,0.201c0,0-0.25-0.75-0.25-1c0-0.248,0.149-0.499,0.349-0.645
			c0.199-0.152,0.4-0.302,0.4-0.302s-0.451-0.447-0.499-0.597c-0.05-0.149-0.152-0.297-0.152-0.297l0.051-0.648
			c0,0,0.65-1.146,0.85-1.247c0.199-0.1,0.298-0.4,0.298-0.4v-0.944l-1.096,1.344l-0.998,1.247c0,0,0.998-1.247,0.697-1.769
			c-0.296-0.519,0.724,0,0.724,0s0.27-0.329,0.007-0.74c-0.26-0.413,0.068-0.531,0.068-0.531l0.866-0.737l0.661,0.4l0.136-0.4
			v-0.494c0,0,0.663-0.432,1.13-0.566c0.465-0.131,0.798-0.336,0.798-0.336l0.199,0.902l0.865-0.831l0.6-1.128l-1.108,1.128v-0.531
			l-0.03-0.265l-0.859,0.265l0.333-0.731l0.866-1.263h1.33l0.996-0.422l-0.066-0.973c-1.463,2.192-1.529,0-1.529,0
			c-0.467-1.862,2.661-2.339,2.661-2.339h-0.798l0.465-2.446l1.065-0.29l0.065-0.149l0.666-1.553l-0.798,0.264l1.596-1.595
			l0.998-0.996l0.334-0.928l0.598-1.465l-0.865,0.732l-0.067,0.597l-0.332,0.731l-0.666,0.467v-0.798l0.932-1.527l0.731-1.264
			l0.4-0.4l0.798-2.857l-0.199-0.267l0.598-0.863c1.147-2.593,0.55-4.734,0-5.631C273.45,79.217,273.747,77.922,273.45,77.922z
			 M226.66,137.375l0.232-0.332l0.167-0.102c0.02,0.023,0.046,0.041,0.071,0.06L226.66,137.375z M232.531,130.462l0.03-0.064
			l0.005,0.033C232.553,130.44,232.542,130.45,232.531,130.462z M239.434,125.326c0,0-0.123-0.068-0.294-0.162l0.473-0.191
			L239.434,125.326z M241.576,123.119c0.156-0.284,0.287-0.494,0.287-0.494L241.576,123.119z"/>
		<path fill="#7DCCF3" d="M236.223,124.518l0.948-0.35c0,0,0.45-0.296,0.5-0.447c0.049-0.154,0.349-0.448,0.349-0.448v-0.848
			c0,0,0-0.202,0.249-0.352c0.25-0.147,0.25-0.147,0.25-0.147l0.478-0.399c0,0-0.629,0.248-0.977-0.251l-2.495,2.941l0.399,0.3
			H236.223z"/>
		<path fill="#7DCCF3" d="M233.43,126.512v0.35h0.546l1.799-1.847h-0.7C234.527,125.317,233.43,126.512,233.43,126.512z"/>
		<polygon fill="#7DCCF3" points="220.504,138.869 219.806,138.473 219.256,139.168 218.908,139.423 218.908,139.817 
			219.356,139.817 220.104,139.144 		"/>
		<path fill="#7DCCF3" d="M210.875,145.449c0,0-0.35,0.248-0.499,0.397c-0.15,0.151-0.8,0.597-0.8,0.597v0.3l0.65-0.3
			c0,0,0.049-0.2,0.299-0.347c0.25-0.149,0.599-0.3,0.599-0.3l0.848-0.348H210.875z"/>
		<polygon fill="#7DCCF3" points="216.711,144.021 217.577,143.686 218.31,142.625 216.711,143.355 		"/>
		<polygon fill="#7DCCF3" points="212.321,146.098 211.972,146.744 212.878,146.744 215.383,145.152 213.785,145.449 		"/>
		<path fill="#7DCCF3" d="M469.258,116.493c0.149,0,0.499,0.049,1.193,0c0.702-0.048,0.702-0.1,1,0c0.3,0.101,0.85-0.057,0.85-0.057
			l0.845-0.544h-2.242l-1.349,0.303l-1.201,0.297l-0.848,0.75h0.848C468.356,117.243,469.104,116.493,469.258,116.493z"/>
		<path fill="#7DCCF3" d="M481.63,112.41c0.2,0,0.7-0.051,0.7-0.051l-0.7-0.499c0,0-1.395,0.845-1.544,0.947
			c-0.148,0.099-0.996,0.496-0.996,0.496l0.996,0.3l0.597,0.397l0.947-0.798l-0.648-0.271l0.152-0.275
			C481.134,112.657,481.432,112.41,481.63,112.41z"/>
		<path fill="#7DCCF3" d="M478.039,114.001c0,0,0.597,0.302,0.647,0.499c0.051,0.201,0.403,0.249,0.403,0.249l0.747-0.374
			l-1.15-0.619L478.039,114.001z"/>
		<path fill="#7DCCF3" d="M491.361,108.235c0,0-0.499,0.036-0.896,0.484c-0.4,0.448-0.7,0.4-0.998,0.748
			c-0.3,0.347-0.999,0.696-0.999,0.696h0.548c0,0,0.948-0.596,1.099-0.645c0.148-0.051,1.325-0.399,1.56-0.674
			c0.235-0.273,0.984-0.824,0.984-0.824s0.399-0.148,0.65-0.497c0.248-0.348,0.548-0.7,0.548-0.7l-1.198,0.7L491.361,108.235z"/>
		<path fill="#7DCCF3" d="M483.229,112.456c0,0,0.847-0.046,0.896,0c0.054,0.051,0.702,0,0.702,0l0.196-0.596l-1.295,0.299
			L483.229,112.456z"/>
		<path fill="#7DCCF3" d="M546.554,122.888l0.387-0.231C546.557,122.676,546.554,122.888,546.554,122.888z"/>
		<path fill="#7DCCF3" d="M567.707,114.852l0.599-0.998l-1.195,0.2l1.595-1.098l1.698-0.597l-2.993,1.047
			c0,0-1.201,0.349-1.599,0.648c-0.4,0.297-2.596,0.397-2.596,0.397l-1.125,0.196l-0.935,0.135h-1.133l-0.697-0.531l-1.099-0.845
			h-1.795c0,0-2.494,0.855-3.392,0l1.595-1.646c0,0-4.394-0.499-5.586-0.499l0.297-1.098l-1.498,0.597l-1.895,0.102l0.799-0.699
			c0,0-2.793-0.696-3.593-0.996c0,0-11.879-3.287-14.571-4.285l-3.133-0.998l-10.844-3.248v0.001
			c-0.49-0.22-0.993-0.409-0.993-0.409l-1.898-1.063h-1.196l-2.691-1.063c0,0-0.467-0.306-0.764-1.093
			c1.782-1.844,3.571-3.743,4.652-5.037c0,0,2.994-3.835,3.444-4.533h-0.847l-0.299-0.3l0.745-0.299l0.4-0.246l1.05-1.496h-0.65
			l0.597-0.697c0,0,0.449-0.2,0.651-0.249c0.199-0.051,0.648-0.397,0.648-0.397l0.651-1.199l-0.899,0.948l-0.4,0.201
			c0,0,0.844-1.346,0.898-1.496c0.048-0.151,0.5-1.048,0.5-1.048s0.197-0.248,0.447-0.248c0.248,0,0.65-0.151,0.65-0.3
			c0-0.149-0.049-0.449-0.049-0.449s0.1-0.399,0.299-0.697c0.2-0.296,0.851-1.395,0.851-1.395s2.324-3.361,3.537-6.756
			c0.091-0.255,0.173-0.512,0.252-0.767l-0.995,1.692l-0.651-0.995c0,0-0.648,0.049,0.151-0.351
			c0.795-0.399,1.146-0.795,1.146-0.795l0.697-1.296l0.284-1.099l0.515-1.694c0,0,0.251-0.497,0-0.647
			c-0.249-0.152-0.197-1.144-0.197-1.144s0.067-0.468-0.318-1.333c0,0-1.063,0.399-1.995,1.198
			c-0.931,0.795-8.119,9.102-8.716,9.499l-1.198,0.332l-0.4,0.532l0.333,0.666l-0.8,0.664l-0.466,0.532v-0.598l-0.531,0.598v0.597
			l-0.532,0.729c0,0-0.799,0.667-0.998,0.932c-0.197,0.264-0.735,0.6-0.735,0.6l-0.793,1.195l-3.196,3.122l-1.599,1.794
			l-1.395,0.996v-0.664c0,0-0.6,0.133-0.6,0.399c0,0.265-0.196,0.399-0.332,0.664c-0.131,0.268-0.464,0.267-0.599,0.535
			c-0.13,0.264-1.196,0.394-1.13,0.928c0.068,0.531-0.001,0.931-0.001,0.931l-0.931,0.531l-0.667,0.866l-0.795,0.331v-0.534
			l-1.333,1.198l-1.396,1.127c0,0-9.048,6.847-10.379,7.112h0.934l-0.934,0.6c0,0-8.782,4.317-10.247,5.049
			c-1.462,0.731-11.045,6.073-15.504,2.271c0,0,1.185,1.9,0.886,2.397l0.798,0.798l0.896,0.748l0.6,0.597l0.748,0.697l-0.1,0.299
			l-0.599-0.249l0.55,0.598l1.697,1.447l0.799,0.545l1.248,1.147l1.148,0.297h0.644l-0.544-0.644l0.996-0.152l1.7-0.497l1.546-0.347
			c0,0,0.448-0.099,0.948-0.099c0.497,0,0.993-0.052,1.293-0.101c0.299-0.049,0.798-0.1,0.798-0.1l-1.098-0.199
			c0,0-0.496-0.2-0.647-0.2c-0.149,0,0.798-0.249,0.798-0.249h1.298h0.75l0.848-0.252c0,0-0.102,0.107,0.648-0.244
			c0.748-0.352,1.248-0.352,1.248-0.352l1.347-0.847c0,0,0.599-0.297,0.8-0.297c0.197,0-0.152-0.449-0.152-0.449l0.75-0.798
			l0.799-0.249h0.397c0,0,0.799-0.297,0.999-0.297c0.199,0,0.648,0,0.648,0s0.8-0.448,1.048-0.448c0.248,0,1.795-0.203,1.795-0.203
			l1.198,0.249h0.448l0.95-0.944l1.182-0.985l1.992-0.616c0,0,1.169-1.338,1.666-1.338c0.497,0,2.994-0.999,2.994-0.999l2.994-1.595
			l1.795-0.996l1.496,0.597c0,0,0.477,0.342,1.285,0.915c0.155,0.212,0.489,0.658,0.713,0.88c0.299,0.299,0.299,0.299,0.299,0.299
			s0.146-0.1,0.342-0.213c0.69,0.486,1.483,1.048,2.352,1.655c0,0,0.499,0.551,0.796,0.65c0.302,0.101,0.8,0.428,1.199,0.763
			c0.402,0.336,1.697,1.131,1.697,1.131l5.989,3.112l1.697,0.454l1.101-0.454l-1.9-0.618c0,0,1.198-0.201,1.9,0
			c0.693,0.197,1.994,0.342,2.294,0.618c0.299,0.278,3.988,1.277,3.988,1.277l1.101,0.496l1.895,0.497h1.798l1.498,2.191
			c0,0,1.195-0.397,1.495,0c0.3,0.4,2.696,1.299,2.996,1.497c0.299,0.201,1.298,0,1.298,0l1.098,0.898h1.298l2.394,1.496v0.299
			h-1.199h-0.897l0.799,1.03c0,0,0.197-0.067,0.599,0c0.397,0.065,1.792,0.131,2.294,0c0.5-0.133,1.9,0,1.9,0l0.596,0.077
			l-0.708,0.422c0.223-0.012,0.564,0.036,1.106,0.231c1.498,0.534,1.798,0.534,2.295,0.734c0.499,0.197,0.998,0.032,1.399,0.265
			c0.397,0.235,1.797,0.267,1.797,0.267l1.595-0.532h1.596h0.597l-0.896,0.532l1.897-0.267l1.098-0.999c0,0,1.997,0.036,4.491-1.858
			s2.195-3.091,3.892-4.091c1.699-0.993,4.692-2.289,6.189-2.688C573.997,114.252,569.707,113.756,567.707,114.852z
			 M465.346,110.996h-1.33l1.33-0.333V110.996z M469.471,114.186l-1.663-0.331h-1.862l1.26-0.602l1.799-0.467l2.396,0.467
			L469.471,114.186z M473.064,108.672c0,0-1.399,0.399-1.93,0.531c-0.532,0.132-1.063,0.529-1.333,0.729
			c-0.262,0.2-1.528,0.731-1.528,0.731l-1.928,0.333l-0.399-0.168l0.399-0.165l0.996-0.531c0,0,0.535,0.065,0.8,0.065
			c0.265,0,1.465-0.581,1.465-0.581l0.397-0.349l0.867-0.595l1.463-0.437h1.727L473.064,108.672z M478.786,108.936l-1.662,0.938
			l-0.802,0.258l-0.795-0.516h1.13c0,0,0.467,0.258,0.397,0c-0.065-0.258,0.602-0.545,0.602-0.911c0-0.362,0.863-0.768,0.863-0.768
			l0.665-0.658l1.199,0.341L478.786,108.936z M479.851,105.314c0,0-1.199-0.102-1.331,0.299c-0.132,0.4-0.132,0.4-0.132,0.4
			s0.731,0.396-0.132,0.863c-0.869,0.465-1.399,0.4-1.399,0.4l-0.199-0.4l-1.396,0.4c0,0,0.664-0.799,0.928-0.799
			c0.268,0,0.268,0,0.268,0v-1.195l1.331-0.531c0,0,1.398-0.135,1.731-0.267c0.331-0.133,1.063-0.467,1.46-0.599
			c0.4-0.133,2.133-0.532,2.133-0.532L479.851,105.314z"/>
		<path fill="#7DCCF3" d="M529.684,115.848c-0.296-0.699-0.998,0-0.998,0l-1.396-0.798c0,0-0.9,0-1.198,0
			c-0.296,0-1.598-0.799-1.598-0.799l-1.695-0.798h-0.399h-0.999l4.492,2.394l7.585,2.391l-1.997-1.299
			C531.482,116.94,529.984,116.543,529.684,115.848z"/>
		<polygon fill="#7DCCF3" points="535.774,118.737 534.076,118.239 536.072,119.385 538.567,120.532 541.061,120.532 
			539.063,120.033 		"/>
		<polygon fill="#7DCCF3" points="560.023,112.857 561.555,111.794 560.625,112.324 559.355,112.324 558.76,112.324 
			557.963,112.857 559.095,113.187 		"/>
	</g>
	<g>
		<path fill="#7DCCF3" d="M52.117,89.888c0,0,0.402-0.196,1.084-0.671l-5.818,3.608l-3.41,2.201l-1.503,0.802l-1.804,1.202
			l9.324-5.586L52.117,89.888z"/>
		<path fill="#7DCCF3" d="M86.495,69.888c0.001-0.102,0.903-0.4,0.903-0.702c0-0.299,0.553-0.101,0.553-0.602
			c0-0.494,0.342-0.755,0.349-0.76c-0.206,0.151-0.349,0.263-0.349,0.263l-1.757,0.7l-0.8,0.799l-1.783,1.117l1.293-0.216
			C84.903,70.487,86.495,69.986,86.495,69.888z"/>
		<path fill="#7DCCF3" d="M48.267,122.768c-0.112-0.215-0.581-0.286-0.581-0.286h-0.451h-0.841l0.19,0.19l1.102,0.197l1.17,0.194
			C48.855,123.064,48.375,122.984,48.267,122.768z"/>
		<path fill="#7DCCF3" d="M53.201,89.217c0.604-0.421,1.282-0.889,1.428-0.989C53.738,88.841,53.201,89.217,53.201,89.217z"/>
		<path fill="#7DCCF3" d="M59.619,85.235l1.817-1.52c-2.757,1.754-5.267,3.457-6.774,4.491l2.551-1.343L59.619,85.235z"/>
		<path fill="#7DCCF3" d="M82.735,72.19c0,0-0.674-0.518,0.101-1.001c0.166-0.104,0.291-0.183,0.392-0.245l-2.95,1.847h1.105
			L82.735,72.19z"/>
		<path fill="#7DCCF3" d="M64.733,82.306l2.407-1.304c0,0,0.302-0.299,0.803-0.497c0.502-0.202,1.204-0.703,1.204-0.703l1.304-0.796
			l2.106-0.905l1.304-1.153l2.857-1.553l2.03-0.8l1.53-1.802l-2.808,1.604l-1.103,0.699l-4.813,2.906
			c-2.704,1.151-6.606,3.476-10.115,5.712l1.088-0.329L64.733,82.306z"/>
		<path fill="#7DCCF3" d="M89.203,67.882c0.903-0.202,2.054-0.599,2.054-0.599l1.956-2.106l3.88-2.303l1.536-0.502v-1.35
			l2.182-0.552c0,0-0.98-0.5,0-0.299c0.976,0.197,1.631-1.354,1.631-1.354l0.951-1.05l-0.552,0.303l-3.01,2.203l-7.721,4.804
			c0,0-1.705,1.304-2.206,1.607c-0.347,0.207-1.143,0.795-1.604,1.137C88.301,67.824,88.304,68.085,89.203,67.882z"/>
		<polygon fill="#7DCCF3" points="103.396,57.768 103.394,57.768 103.396,57.768 		"/>
		<path fill="#7DCCF3" d="M148.672,153.117c0-1.005,0-0.703,0-1.402c0-0.7-0.602-0.602-0.602-0.602v-2.394l-1.503-7.021
			c0,0,0,0-0.603-0.399c-0.602-0.402,0-0.902,0-0.902l-0.602-3.506v-0.603v-0.7l-0.7-3.004c-0.503-2.606-1.104-3.103-1.104-3.103
			c0-0.802-0.703-5.207-0.703-5.207l-0.402-1.105c0-0.699,0-2.803,0-2.803c0-1.202-1.102-4.108-1.102-4.108s0,0-0.122-0.7
			c-0.125-0.7,0-0.709,0-0.709l-0.18-0.89c0,0,0.401-0.603,0-1.003c-0.399-0.403,0-0.502,0-0.502s-0.201-1.101-0.481-1.402
			c-0.278-0.297,0.18-0.802-0.021-1.203c-0.2-0.399,0.102-0.399,0-0.799c-0.099-0.4,0-0.702,0-0.702v-1.201v-1.101l-0.601-2.507
			v-1.352v-0.55c0,0,0-0.602,0-0.9c0-0.303-0.601-0.703-0.601-0.703v-0.599v-1.305c-0.401-2.403-2.005-9.911-3.71-16.021
			c-1.707-6.109-2.108-25.24-2.307-31.35c-0.201-6.111-3.41-5.509-3.41-5.509l-1.304-0.017h-1.205l-2.506,1.52l-1.906,0.502
			c0,0-1.805,0.602-2.707,0.803c-0.901,0.199-1.304,0.999-1.304,0.999l-1.204,0.503l-1.704,0.497c0,0-1.303,0.502-1.702,0.502
			c-0.402,0-1.005,0.702-1.005,0.702l-0.7,1.003l-1.707,0.697l-2.406,1.103c0,0-2.808,2.003-3.31,2.301
			c-0.302,0.183-0.71,0.542-0.989,0.802h1.088l0.501-0.397l0.604-0.305c0,0,1.603-0.399,3.811-1.501c0,0-3.31,2.303-3.911,2.604
			c-0.603,0.3-4.566,2.801-4.566,2.801l-0.976,1.404h-0.98l-0.5,1.202l-0.702,0.502c0,0-0.402-0.202-0.7,0
			c-0.301,0.2-1.606,0.602-1.606,0.602s-1.428,0.299-1.568,0.602c-0.138,0.296-0.539,0.999-0.989,1.399
			c-0.452,0.402-0.653,0.102-1.002,0.705c-0.353,0.599-0.754,0.998-0.754,0.998s-2.205,1.203-2.507,1.404
			c-0.203,0.136-0.362,0.325-0.538,0.583c-0.207,0.338-0.452,0.732-0.264,0.419c0.096-0.162,0.182-0.296,0.264-0.419
			c0.126-0.203,0.238-0.383,0.238-0.383l-1.253,0.4l-0.553,0.518l-0.903,0.683c0,0-0.978,0.102-1.592,0.4
			c-0.613,0.302-0.212-0.599-0.613,0.302c-0.4,0.905-0.601,1.003-0.903,1.201c-0.3,0.201-1.504,0.802-1.504,0.802l-3.134,1.504
			l-1.48,1.302c0,0-1.605-0.201-2.005,0.451c-0.401,0.65-1.504,1.45-1.504,1.45v0.603l-0.857,0.352l-0.848,0.348l-1.503,0.901
			c0,0,1.002-0.399,0,0.4c-1.005,0.803-1.504,1.304-1.504,1.304h-2.208c0,0-0.702-0.902-1.102,0
			c-0.402,0.902-0.702,0.051-1.304,1.077c-0.601,1.025-4.012,3.48-4.012,3.48H59.72c0,0-0.502,0.451-0.803,0.751
			c-0.3,0.3-1.703,0.451-2.004,1.075c-0.303,0.629-1.204,1.73-1.605,1.831c-0.402,0.1-0.402,0-1.505,0.499
			c-1.103,0.499-3.509,1.805-3.509,1.805l-5.114,2.802l-2.308,2.204c0,0-0.301-0.203-1.304,0.602
			c-1.002,0.802-2.106,1.853-2.106,1.853l-2.105,0.648c0,0-2.308,1.203-2.709,1.504c-0.4,0.304-0.701,0.402-1.102,0.6
			c-0.402,0.201,4.011-3.677,4.011-3.677l1.304-1.128c0,0-4.012,2.504-5.415,3.606c-1.404,1.102-3.913,1.801-3.913,1.801l-0.6,0.583
			l-1.103,0.721l-0.502,1.301c1.404,0,1.204,1.72,1.204,1.72l-0.702,1.388l-1.003,0.7v0.702v0.5l1.003,0.302
			c-0.2,2.903,1.805,2.703,1.805,2.703l-1.805,1.602c0.399,0.499,0.5,2.203,0.5,2.203c1.096,0,2.963,0.409,4.618,0.835l-0.042-0.297
			c0,0-0.603-0.715-0.753-0.892c-0.149-0.175-0.412-0.535-0.149-0.423c0,0,0.299,0.151,0.45,0.151c0.152,0,0.415,0.273,0.415,0.273
			h0.582h0.282c0,0,0.338-0.161,0.527-0.048c0.188,0.112,0.188,0,0.188,0l0.299-0.186l0.3-0.465l0.339-0.7
			c0,0-0.6,0.564-0.713,0.629c-0.112,0.064-0.299,0.122-0.452,0c-0.151-0.122-0.489-0.065-0.702-0.028
			c-0.214,0.038-0.426,0.038-0.613,0c-0.19-0.038-0.3-0.152-0.584-0.377c-0.283-0.225-0.806,0-0.806,0v-0.338l0.336-0.376
			l1.279-0.526c1.467-0.113,0.977,0.6,0.977,0.6c0.266-0.149,1.243-0.713,2.221-0.264c0.977,0.452,0.902,0.19,0.927,0.075
			c0.023-0.112,0.427-0.263,0.576-0.487c0.152-0.225,0.376-0.663,0.376-0.663l0.603,0.471l0.452,0.041
			c1.24-0.26,0.223,0.79,0.223,0.79s0,0,0.753,0.149c0.751,0.149,0,0,0.114,0c0.112,0,0.262,0.075,0.789,0.261
			c0.526,0.189,0.338,0.228,0.452,0.075c0.112-0.148,0.563-0.45,0.976-0.373c0.415,0.074,0.566,0.297,0.566,0.297l-0.151,0.68
			l-0.79,0.036c0,0-1.241-0.377-1.542-0.528c-0.299-0.148-0.828-0.113-0.828-0.113l-0.902,0.377l-0.413-0.187
			c0,0-0.075-0.451-0.302-0.451c-0.224,0-0.186,0.149-0.186,0.149l0.186,0.452l-0.224,0.264l-0.728,0.336l-0.176,0.683
			c0,0,0.828-0.493,1.128-0.571c0.302-0.075,0.754-0.261,1.204-0.261c0.451,0,1.166,0.149,1.354,0.186
			c0.188,0.038,0.601,0.154,0.828,0.191c0.224,0.035,1.052,0.035,1.428,0.071c0.376,0.038,1.09,0.077,1.09,0.077l0.79,0.489
			l-0.939,0.148c0,0-0.302-0.072-0.605-0.329c-0.298-0.26-0.6,0.03-0.713,0c-0.114-0.032-1.09,0.144-1.467,0.181
			c-0.376,0.038-0.526,0-0.676-0.181c-0.149-0.183-0.339-0.159-0.339-0.159l-0.188,0.679l-0.413,0.223h-0.49
			c0,0-0.376,0-0.751-0.035c-0.377-0.041-0.565,0-0.676-0.041c-0.114-0.035-0.56-0.148-0.56-0.148v0.261l-0.42,0.452l-0.075,0.302
			l0.3,0.212l0.194,0.409l0.471-0.158h0.703l2.206,0.703l0.801,0.7l0.804-0.202c1.303-0.599,2.807,0.702,2.807,0.702l1.303,0.399
			l-0.492-0.151c0,0,0,0,0.415-0.35c0.419-0.352,0.53,0.049,0.53,0.049s0,0,0.399,0.151c0.401,0.149,0.404,0,0.552,0
			c0.151,0,0.603,0,0.803,0c0.201,0,0.402-0.049,0.702-0.299c0.3-0.254,0.953,0,0.953,0l0.803-0.452c0,0-0.451-0.351-0.602-0.576
			c-0.15-0.226-0.552,0-1.027-0.212l0.475,0.212l0.552,0.576c0,0-0.402,0-0.552,0c-0.151,0-0.704-0.2-0.704-0.2h-1.052h-0.2
			l-0.501-0.376c0,0-0.55-0.026-1.104,0c-0.55,0.026-1.228-0.626-1.228-0.626s-0.925-0.399-1.979-0.051
			c-1.053,0.351-0.953-1.253-0.953-1.253l1.455,0.303c0,0,0,0,0.351,0.099c0.351,0.1,0.299,0.1,1.127,0.2
			c0.826,0.102,0.227,0,0.227,0h0.751l0.804,0.551c0,0,0,0,0.449,0.102c0.451,0.099,0.451,0,0.451,0h0.303l0.85,0.251l0.479,0.213
			c-0.476-0.212-0.829-0.866-1.329-1.067c-0.502-0.199-0.73,0-0.73,0l-0.376-0.399h0.752c1.104,0.1,2.709,1,2.909,1.002
			c0.2,0,0.451-0.052,0.603-0.251c0.149-0.2,0.55,0.251,0.55,0.251l0.302,0.9c0,0,0.753,0.299,1.053,0.052
			c0.302-0.249,0.35-0.277,0.35-0.277s0.803-0.026,1.153,0c0.352,0.026-0.1,0.576-0.1,0.576l0.903,0.503
			c0,0,0.553,0.647,1.003,0.548c0.452-0.1,0.401-0.201,0.803-0.5c0.402-0.303,0.603-0.151,1.154-0.151
			c0.55,0,1.203,0.052,1.504,0.103c0.3,0.048,0.249,0.597,0.2,0.799c-0.05,0.201-0.099,0.351-0.099,0.351s0.199-0.051,0.751,0.1
			c0.55,0.149,0.553,0,0.802,0.052c0.251,0.048,0.341,0.299,0.341,0.299s-0.291,0.648-0.09,0.903c0.201,0.248,0,0.497,0,0.497v0.454
			h-0.803c0,0-0.903,0-1.304-0.404c-0.4-0.4-0.551-0.399-0.551-0.399h-0.703c0,0-0.65-0.051-1.655-0.249
			c-1.003-0.202-1.051-0.252-1.051-0.252l-0.603,0.252c0,0-0.451-0.252-0.65-0.403c-0.202-0.149-1.005-0.199-1.005-0.199
			s0.101,0.3,0,0.602h-0.601l-0.101-0.618h0.202c0,0,0.149-0.184,0.2-0.784c0.051-0.603,0,0-0.2-0.201
			c-0.202-0.202-0.602-0.251-1.006-0.402c-0.4-0.149-0.099-0.3-0.55-0.55c-0.451-0.252-0.25,0.4,0.051,0.55
			c0.299,0.151,0.202,0.402,0.299,0.603c0.102,0.2,0.2,0.497,0.2,0.497l-0.7,0.287l-0.553-0.084c0,0-0.393,0.19-0.679,0l0.531,0.352
			c0.529,0.046,2.072,0.553,3.535,1.073l0.225-0.326c0,0,0.2,0,0.45,0c0.251,0,0.905,0,0.905,0s0.097-0.499,0.652,0
			c0.55,0.5,1.553,0.655,1.553,0.655s0.151-0.404,0.603,0c0.449,0.397,0.449,0.397,0.449,0.397h-0.802h-0.702
			c0,0-0.855-0.2-1.027-0.397c-0.176-0.204-0.726-0.239-0.726-0.239s0.062,0.268-0.147,0.425c0.948,0.348,1.65,0.616,1.65,0.616
			l0.802,0.299h1.003l1.153-0.703c0,0-0.049-0.148,0.252,0.202c0.301,0.351,0.65,0.451,0.65,0.451s0.403-0.302,0.552,0
			c0.152,0.299,0,0.051,0.152,0.299c0.149,0.249,0.049,0.351-0.201,0.351c-0.249,0-0.483,0.152-0.569,0
			c-0.085-0.149-0.584-0.099-0.584-0.099v0.3h0.9l0.704,0.102v0.497l0.904,0.102l0.699,0.102l1.605,0.5
			c3.11,0.702,2.206,3.606,2.206,3.606s1.505-0.2,2.106,0.199c0.601,0.403,1.105,2.806,1.105,2.806l1.001,2.804l0.502,3.705
			l0.802,1.199v1.106l0.401,1.302c0.401,0.898,1.404,5.807,1.404,5.807v0.7l0.702,0.7v1.304l0.501,1.299v1.405l0.401,1.601
			c0.803,1.505,1.706,8.415,1.706,8.415l0.701,0.6v0.4v0.699l0.702,0.502l0.402,0.603l-0.402,0.5l0.803,0.199l1.404,0.703
			c1.704,0.603,2.909-0.703,3.107-2.404c0.202-1.704,0.705-2.904,4.012-9.415c3.309-6.512,7.923-14.624,7.923-14.624l1.104,0.503
			l1.001,0.197h0.6l1.005,0.7v0.203l1.604,0.1l1.504,0.399l0.601,0.602l0.903,0.102l1.002-0.102l0.702,0.102l-0.702,0.802l0.906,0.5
			l0.8-0.303l1.304,1.204c0,0,0.602,0,1.002-0.099c0.402-0.099,1.103,0,1.103,0v0.8l0.553,0.102l0.553,0.099l1.302,0.402
			l0.701,0.199l0.803,0.102l0.502,0.597v-0.499l0.801,0.399l0.504,0.505v0.599l1.001,0.1l0.601,0.403l0.702,0.602l0.501-0.503
			l0.703,0.201l0.401,0.1l1.707,0.5l-1.707,0.6l0.803,0.2l0.801,0.2l1.707,0.302h0.501v0.503l0.702,0.097l0.5,0.502
			c0.503,0.2,3.511,2.103,3.511,2.103l0.803,0.297l0.4,0.203l2.206,1.103c2.508,1.501,4.815,2.601,4.815,2.601h1.103
			c0,0,0,0,0.3-0.099c0.301-0.1,1.304-0.5,1.304-0.5s0.702-0.302,1.003-0.502c0.302-0.202,0.904,0,0.904,0l1.605-0.603l2.104-0.7
			c2.21-0.497,3.009-3.405,3.009-3.405C149.575,156.02,148.672,154.118,148.672,153.117z M36.651,114.556h-0.699h-1.004h-1.016
			l-0.413-0.802h0.827h2.107l0.803,0.802H36.651z M88.301,75.795c0.501-0.202,1.103-0.4,1.103-0.4v-0.502l1.202-0.599
			c0,0,0,0,0.652-0.404c0.653-0.396,1.306-1,1.306-1s0.951-0.699,1.204-1.101c0.252-0.402,1.662-0.602,1.662-0.602l1.664-0.999
			l1.536-1.404l1.203-0.699c0,0,0.502-0.702,0.98-1.202c0.476-0.503,0.976-0.803,0.976-0.803l2.757-0.902c0,0,0.903-0.902,1.203-1
			c0.302-0.099,2.108-1.702,2.108-1.702l0.803-0.602l0.603-0.497h1.003v-0.402l1.001-0.503l1.53-1.101l1.679-0.553l1.404-1.25h1.353
			l-4.436,2.706l-2.53,1.801l-7.021,4.407l-2.431,1.702l-1.831,1.402c0,0-1.556,1.502-1.888,1.701
			c-0.331,0.203-1.072,0.603-1.664,0.803c-0.592,0.2-1.112,0.799-1.662,1c-0.553,0.203-1.204,1-1.204,1l-2.257,0.902l-2.005,1.302
			h-0.903C87.398,76.295,87.799,75.998,88.301,75.795z M63.731,89.717l3.809-1.701c0,0,1.505-1.005,2.156-1.153
			c0.65-0.149,1.152-1.302,1.152-1.302l5.015-2.178l-2.105,1.527l-1.003,0.651l-0.865,0.551l-1.743,0.751
			c0,0-1.907,1.552-2.405,1.826c-0.504,0.277-0.904,1.128-2.91,1.831C62.828,91.221,63.731,89.717,63.731,89.717z M79.804,77.112
			c-0.38,0.248-0.771,0.474-1.126,0.66l0.069-0.074C78.748,77.697,79.358,77.367,79.804,77.112z M42.67,104.193
			c0,0,0.501-0.854,0.602-1.157c0.101-0.297,0.802-0.599,0.802-0.599s2.81-1.102,3.31-1.504c0.504-0.397,0.504-0.397,1.103-0.648
			c0.603-0.252,2.106-1.853,2.106-1.853l1.705-0.703c0,0,1.404-1.102,1.705-1.401c0.302-0.3,0.6,0,0.6,0l1.304-0.902l5.719-3.982
			l0.6,0.426l-0.6,0.449c0,0-5.815,4.108-6.821,5.108L52.8,98.432c0,0-1.905,1.202-2.407,1.853
			c-0.502,0.648-1.604,0.648-1.604,0.648l-1.905,0.753c0,0-2.108,1.553-2.509,1.852c-0.401,0.302-1.002,0.684-1.002,0.684
			l-0.803,0.518L42.67,104.193z M47.888,118.361h-1.054h-0.44c0,0-0.465,0.3-0.29,0.349c0.177,0.048-0.474,0.252-0.474,0.252
			l-0.101-0.252l-0.051-0.55l-0.576-0.802h1.201c0,0,1.231,0.174,1.382,0.239c0.149,0.062,0.402,0.264,0.402,0.264V118.361z
			 M63.631,125.175c0,0,0,0.296-0.774,0.367c-0.773,0.065-0.23-0.421-0.079-0.606c0.15-0.187,0.051-0.165,0-0.315
			c-0.049-0.149-0.603-0.3-0.603-0.3s0,0,0.152-0.451c0.15-0.449,0.249,0,0.249,0l0.604,0.737c0,0,0.199-0.135,0.349-0.307
			c0.151-0.174,0.303,0.071,0.803-0.229c0.502-0.302,0.859,0.229,0.859,0.229s0.044,0.122,0,0.307
			c-0.044,0.19-0.31,0.329-0.31,0.329l-0.55,0.239c0,0-0.201-0.054-0.249-0.239c-0.051-0.187-0.452,0-0.452,0V125.175z
			 M66.387,128.327c0,0-0.199-0.152-0.399-0.302c-0.202-0.148-0.553-0.202-0.904-0.249c-0.351-0.052-0.65-0.151-0.901-0.251
			c-0.253-0.1-0.302-0.2-0.302-0.348c0-0.151,0.302-0.238,0.302-0.238l0.251,0.136c0,0,0,0,0.199-0.136
			c0.201-0.131,0.249-0.065,0.558-0.215c0.307-0.149,0.444,0,0.896,0.215c0.452,0.22,0.049,0.238,0.299,0.534
			C66.639,127.776,66.387,128.327,66.387,128.327z M74.41,112.625v0.629c0,0-0.6,0.299-0.701,0.5c-0.1,0.2-0.3,0.403-0.3,0.403
			l-0.452,0.248c0,0-0.15,0.049-0.252,0.351c-0.1,0.3-0.35,0.65-0.35,0.65s-0.2,0.202-0.702,0.8c-0.502,0.603,0,0.354,0,0.553
			c0,0.2,0,0.654,0,0.654s-0.603,0.197-0.703,0.248c-0.1,0.048-0.55,0.201-0.75,0.349c-0.202,0.151-0.202,0.7-0.202,0.7
			s-0.149,0.402-0.401,0.452l-0.4,0.302c0,0-0.654,0.249-0.953,0.249c-0.301,0-0.452,0-0.452,0s0,0-0.4-0.151
			c-0.063-0.022-0.106-0.038-0.14-0.048l-0.011,0.048c0,0-0.176-0.106,0.011-0.048l0.089-0.352h-0.553h-0.752H63.48
			c0,0,0-0.751-1.955-0.9c-1.958-0.151-6.319-2.556-7.522-2.255c-1.204,0.302-10.079-3.004-11.434-3.383
			c-1.353-0.373-3.684-1.424-3.684-1.424l-0.376-2.106h0.753c1.805-0.75,1.503-2.553,1.503-2.553h1.104l0.8-0.497l0.702-0.302
			l1.204-0.7l0.602-0.1l1.304-0.75l1.504-0.854l0.201-0.5l0.702-0.402c0,0,0.702-0.7,1.403-1.504c0.703-0.802,0.903,0,0.903,0
			l0.703-0.648L52.8,99.36l1.001-0.928l0.503,0.5l1.203-0.5l1.804-1.077l1.807-1.305c0,0,0.4-0.503,0.702-0.703
			c0.301-0.199,2.006-1.623,2.707-2.325c0,0,0,0,0.701-0.702c0.702-0.702,0.503,0,1.003-0.449c0.502-0.448,0.904,0,0.904,0
			s0.702-0.252,2.005-0.851c1.304-0.6,0.902-0.499,0.902-0.499s0.3-0.602,0.501-1.254c0.201-0.653,0.303-0.577,0.303-0.577
			s0.7,0.026,1.002,0c0.3-0.025,0.803-0.673,0.803-0.673l1.102-1.153h0.5c0,0,0.703,0.751,0.806,0
			c0.099-0.751,0.901-0.554,0.901-0.554s0.602-0.7,0.7-1.074c0.102-0.374,0.903-0.325,0.903-0.325
			c1.104-0.3,3.711-0.451,3.711-0.451l0.39-1.076l0.814-0.578l0.499,0.578c0,0,1.105-1.179,1.757-1.077
			c0.651,0.1,1.705-1.402,1.705-1.402l1.955-1.302c0,0,0,0-0.401,0.1c-0.401,0.1-1.554,0.602-1.554,0.602s-1.705-0.502-1.705,0.202
			c0,0.702-2.357,1.199-2.357,1.199l-2.607,1.101l0.101-0.499c0,0,0.5-0.4,0.877-0.702c0,0,0.05-0.032,0.122-0.075
			c0.688-0.39,3.445-1.446,3.865-1.727c0.451-0.302,1.254-0.8,1.705-1.302c0.45-0.499,0.927-0.6,0.927-0.6v0.702l1.127-0.203
			l0.903-0.1l0.553,0.602l0.851-0.4c1.504-0.6,9.828-6.609,9.828-6.609l0.453-1.652c0,0,0.351-0.252,0.499-0.351
			c0.152-0.102,0.953-0.202,0.953-0.202s0.302-0.449,0.351-0.7c0.051-0.254,0.202-0.602,0.301-0.851
			c0.101-0.252,0.504-0.049,0.504-0.049l0.148,0.548c0,0,0.853-0.199,1.254-0.4c0.402-0.2,0.252-0.046,1.403-0.553
			c1.154-0.499,0.853-0.547,0.853-0.547l0.051-0.403c0,0,0,0,0.4-0.2c0.402-0.2,0.853-0.402,1.005-0.502
			c0.149-0.097,1.203-0.548,1.354-0.65c0.15-0.103,0.65-0.403,0.752-0.551c0.102-0.148,0.602-0.451,0.853-0.6
			c0.251-0.149,0.301-0.149,0.553-0.351c0.249-0.2,0.7-0.299,0.7-0.299v-0.654h0.901l0.553-0.5l0.702-0.551l1.304-0.151l0.652-0.497
			l1.052-0.403l0.504-0.65c0,0,0,0,0.047-0.251c0.051-0.254,0.152-0.2,0.499-0.302c0.349-0.1,0,0.251,0,0.251l0.303-0.102v-0.197
			l0.654-0.505l0.802-0.249c0,0-0.802,0.951-0.954,1.104c-0.149,0.151-0.805,0.6-0.805,0.6s-0.149,0.352-0.547,0.703
			c-0.402,0.347-0.251,0.297-0.251,0.297s-0.253,0.303-0.753,0.753c-0.502,0.451-0.351,0.502-0.351,0.502v0.451l-0.504,0.351
			c0,0,0,0-0.401,0.051c-0.399,0.048,0,0.248,0,0.248h-0.249v0.149h-0.352c0,0-0.452,0.503-0.702,0.753
			c-0.252,0.247-0.301,0.399-0.301,0.399l-0.552,0.452h0.2c0.45,0.7-2.258,3.555-3.31,4.457c-1.053,0.899-5.766,6.409-5.766,6.409
			c-0.802,0.901-4.062,4.556-4.062,4.556l-0.102,0.753c0,0,0,0-0.249,0.2c-0.25,0.199-0.151,0.151-0.352,0.3
			c-0.2,0.149-0.25,0.349-0.402,0.499c-0.148,0.151-0.5,0.578-0.5,0.578v0.323c0,0,0,0-0.15,0.103
			c-0.151,0.1-0.401,0.299-0.758,0.45c-0.356,0.149-0.346,0.553-0.496,0.651c-0.149,0.099-0.3,0.499-0.401,0.651
			c-0.1,0.149-0.493,0.551-0.493,0.551s-0.56,0.703-0.674,0.751c-0.112,0.049-0.488,0.65-0.636,0.751
			c-0.153,0.1-0.255,0.451-0.353,0.653c-0.102,0.199-0.352,0.422-0.352,0.422l-0.65,0.428v0.302l-0.455,0.399l0.253,0.252
			l-0.652,0.451l-0.478,0.248L90.96,91.87l-0.654,0.449c0,0-0.25,0.505-0.451,0.786c-0.2,0.284-0.302,0-0.302,0l0.051,0.442h0.201
			h0.2c0,0,0.201-0.225,0.6-0.378c0.404-0.148,0.352,0,0.352,0l-0.449,0.378l-0.502,0.476v0.552l-0.3,0.399l-0.202-0.2
			c0,0-0.151-0.049-0.151-0.199c0-0.152,0.353-0.552,0.353-0.552h-0.753l-0.653,0.751l-0.35,0.5v0.351l-0.553,0.402
			c0,0-0.65,0.651-0.903,0.802c-0.251,0.151-0.4,0.548-0.4,0.548l-0.727,0.703v0.548l-0.465,0.503c0,0-1.165,0.75-1.214,1.153
			c-0.05,0.399-0.803,1.25-0.953,1.852c-0.151,0.602-1.954,1.452-2.406,2.085c-0.452,0.638-0.301,1.069-0.301,1.069
			c-0.702,0.252-0.364,1.051-0.364,1.051h-0.691c0,0-0.149,1.053-0.351,1.153c-0.201,0.099-0.55,0.468-0.55,0.468v0.464h-0.55
			C77.168,109.056,74.41,112.625,74.41,112.625z M100.484,84.108c-0.049,0.151-0.299,0.351-0.299,0.351h-0.353v-0.351l0.2-0.402
			l0.252-0.349c0,0,0.301-0.299,0.55-0.351c0.252-0.051,0.252-0.051,0.252-0.051l0.402-0.65l0.299,0.249v0.4l-0.249,0.252
			l-0.727,0.249l-0.328,0.352C100.484,83.809,100.535,83.957,100.484,84.108z M99.332,85.235l-0.4,0.326h-0.15l-0.152-0.4
			l0.302-0.251L99.332,85.235z M97.076,87.414c-0.102,0.2-0.257,0.803-0.257,0.803v0.296h-0.396h-0.501c0,0-0.051,0-0.201,0.252
			c-0.149,0.249-0.929,0.8-0.966,0.951c-0.037,0.148-0.338,0.5-0.338,0.5l-0.201,0.303h-0.45v-0.655l0.45-0.397l0.539-0.049
			l0.674-0.729v-0.623l0.592-0.1h0.253l0.544-1.102C96.819,86.863,97.175,87.214,97.076,87.414z M93.414,91.019l-0.351,0.851
			l-0.299-0.199l0.325-0.653H93.414z M92.563,92.32v0.403l-0.253,0.251l-0.15,0.574l-0.45,0.277l-0.453,0.248l-0.601,0.702h-0.35
			l0.299-0.351l0.352-0.551l0.553-0.348c0,0,0.3-0.403,0.451-0.605c0.15-0.197,0.25-0.4,0.25-0.4L92.563,92.32z M86.796,98.73
			l0.602,0.052l0.903-0.351v1.002c0,0-0.402,0.2-0.35,0.299c0.051,0.101-0.502,0.3-0.502,0.3l-0.502,0.252h-0.452v-0.252
			c0.503-0.049,0.903-0.673,0.903-0.673L86.796,98.73z M84.69,100.933l0.652,0.3c0.199,0.853-0.903,1.204-0.903,1.204v-0.251
			l0.463-0.8L84.69,100.933z M77.294,111.726l0.176-0.374l0.302-0.477l0.299-0.402l0.201-0.102l0.175-0.499l0.352-0.374l0.226-0.303
			l0.177-0.174l0.225-0.402l0.026-0.523l0.324-0.133l1.054-0.919l0.201-0.402l0.049-0.799l0.2-0.201c0,0,0.277,0,0.452-0.151
			c0.176-0.151,0.251-0.374,0.351-0.374c0.1,0,0.352-0.152,0.352-0.152l0.301-0.742v0.895v0.452l-0.902,0.674l-0.904,0.902
			l-0.977,0.818v0.911h-0.603v0.448l-0.376,0.451h-0.376v0.753c0,0-0.075,0.3-0.376,0.6c-0.302,0.299-0.302,0.299-0.302,0.299
			l-0.601,0.677h-0.601v0.523l-0.125-0.7L77.294,111.726z M91.684,143.803l-0.575,0.951c0,0-0.504,0.999-0.652,1.25
			c-0.152,0.251-0.853,1.177-1.08,1.802c-0.225,0.626-0.351,1.83-1.053,2.482c-0.701,0.65-1.53,2.074-1.53,2.074l0.702-13.471
			c0.378-0.023,0.653,0.154,0.653,0.154l0.476,0.323c0,0,0.401-0.048,0.8,0.251c0.404,0.302,1.429,0.55,1.405,1.705
			c-0.025,1.151,1.228,2.027,1.228,2.027L91.684,143.803z M95.447,110.825l-0.691,0.903c0,0,0.212,0,0,0.373
			c-0.212,0.376-0.513,0.902-0.513,0.902s-0.378,0.449-0.604,0.902c-0.225,0.449-0.225,1.201-0.225,1.201l-0.376,1.051l-0.601,0.225
			c0,0-0.629,2.253-1.18,2.478v0.755l-1.077,1.726c0,0-1.428,2.103-1.58,2.33c-0.15,0.225-0.65,0.75-0.65,0.75l-0.629,1.128
			l-0.526,0.599c0,0-0.226,1.802-1.955,2.704c0,0-0.45,1.802-0.45,2.481l-0.377,0.973l-0.376,0.829l-0.075,1.277
			c0,0-0.9,14.793-1.036,18.252c-0.01,0.28-0.017,0.484-0.017,0.603l-0.752-0.905v-0.901v-1.05c0,0,0.299,0,0-0.376
			c-0.301-0.378-0.301-1.072-0.301-1.072s-0.753-1.859-0.528-2.913c0.225-1.048-0.226-2.926-0.826-3.004l0.601-0.75l-1.127-1.802
			v-0.676v-0.931v-0.345v-0.753c0,0-0.45-1.65-0.828-2.178c0,0-0.526-2.256-1.052-2.781v-2.629l0.526-0.448h-1.053l-0.45-0.828
			v-0.673v-0.455l1.128,0.603l0.3-0.603l-0.075-1.201l0.452-0.676l-0.676-0.374h-1.128v-0.977l0.45-0.676v-0.902v-1.127
			c0,0,0.376-1.201,0.903-1.502h0.677l-0.225-0.526l0.451-0.676c0,0,1.881-1.427,1.881-1.955H80.14l0.563-0.751l0.678-0.374h0.601
			v-0.452v-0.673c0,0,1.279-1.805,1.957-2.104l0.376-0.901l0.903-0.828l0.524-0.6v-0.378l0.377-0.374l0.676-0.826v-0.376
			l1.155-0.608l0.35-0.668l0.676-0.753v-0.597c0,0,1.702-1.698,2.28-1.752c0,0-1.831-1.03,1.104-1.328c0,0-1.203-1.505,0-1.805
			l1.355-0.523v-0.529l0.902-0.597l0.6-0.455c0,0,0.453-1.276,1.13-1.276c0,0,0.45-1.802,1.127-2.176l1.053-1.053V94.15l0.601-0.302
			l0.828-0.449v-0.377v-0.525l0.752-0.903l0.377-0.674l0.826-0.75l0.529-0.452l0.449-0.751l0.452-0.674l0.678-0.603l0.676-0.825
			c0,0,0.526-1.578,1.278-1.804v-0.825l1.279-0.751l0.601-0.605c0,0,0.226-0.223,0.527-0.447c0.301-0.228,0.603-0.976,0.603-0.976
			l0.977-1.731l0.676-0.447v-0.603l0.526-0.6l0.677-0.603l0.753-0.523v1.2c0,0,0.45,0.603,0,1.729c0,0-1.053,2.179-1.053,2.854
			l-0.526,1.955l-0.752,0.6l-0.075,0.753c0,0-2.557,3.827-2.86,4.656l-0.676,0.3c0,0-2.556,3.382-3.083,4.808l-0.828,0.525
			c0,0-3.76,5.935-3.76,6.609l-0.602,0.902c0,0,0,0.525,0,0.753c0,0.223-0.678,0.751-0.678,0.751S95.447,109.175,95.447,110.825z
			 M125.457,153.229l-0.717-0.263c0,0-0.036,0-0.036,0.263c0,0.263-0.449,0.563-0.449,0.563l-1.093-0.413
			c0,0-0.713-0.261-0.862-0.412c-0.152-0.152-0.303-0.338-0.493-0.377c-0.186-0.036-0.788-0.264-0.901-0.302
			c-0.112-0.038-0.036-0.489-0.188-0.674c-0.148-0.188-0.526-0.75-0.526-0.75s-0.527-0.413-0.79-0.451
			c-0.265-0.038-0.678-0.19-0.94-0.116c-0.262,0.078-0.225,0.378-0.302,0.567c-0.075,0.186-0.93-0.377-0.93-0.377l-0.235-0.449
			L116.393,150c0,0-0.753-0.49-0.904-0.676c-0.148-0.191-0.487-0.605-0.487-0.605s-0.413-0.036-0.413,0.246c0,0.281-0.564,0-0.564,0
			l-0.785-0.545c0,0-0.307-0.712-0.421-0.789c-0.113-0.074-0.526-0.374-0.75-0.187c-0.228,0.187-0.828,0.676-0.828,0.676
			l-1.467-0.563l-1.88-0.49l-0.451-0.335c0,0-0.49-0.228-0.791-0.228c-0.299,0-0.714-0.149-0.714-0.149l-1.017-0.415l-0.864-0.748
			c0,0-1.656,0.187-3.086-1.054l0.603,0.338h0.941c0,0,0.676,0,0.787,0c0.114,0,2.522,0.412,2.522,0.412h1.806l0.712,0.305
			c0,0,1.392-1.166,0.867,0.262l0.677,0.524l0.6,0.225l0.64,0.302l0.339,0.415l1.017-0.229l0.526-0.147l0.225,0.789
			c0,0,0.827,0.149,1.052,0.336c0.227,0.187,1.317,0.639,1.468,0.789c0.149,0.148,1.45,1.051,1.476,1.089
			c0.027,0.038,1.419-0.112,1.72,0c0.302,0.112,1.015,0.452,1.015,0.452l0.751,0.451l0.64,0.822c0,0,0.489,0,0.639,0
			c0.151,0,0.866,0.377,0.866,0.377s0.265-0.225,0.488,0c0.225,0.228,0.979,0.341,1.093,0.415c0.111,0.075,0.901,0.489,1.015,0.6
			C125.57,152.778,125.457,153.229,125.457,153.229z M128.088,155.407h-0.866l-0.225-0.616l-1.491-0.548h0.889
			c0,0,0.339-0.149,0.565,0c0.225,0.148,0.038,0.038,0.225,0.148c0.189,0.116,0.226,0.078,0.413,0.264
			c0.189,0.188,0.489,0.489,0.489,0.489V155.407z M137.641,146.305c-1.805,0.099-3.51-2.806-3.51-2.806
			c1.103,2.606,0.3,3.107,0.3,3.107l0.703,1.299c-0.802,0.102-9.227-3.705-10.43-4.204c-1.203-0.5-11.332-4.31-13.638-5.309
			c-2.308-1.002-14.241-5.108-14.241-5.108c-0.101-1.601,1.402-4.807,1.402-4.807l0.705-0.702c0,0,0.4-0.902,0.4-1.302
			c0-0.402,0.7-1.003,0.7-1.003s0.303-0.397,0.703-0.7c0.4-0.299,0-1.002,0-1.002s0.4-0.799,0.602-1.201
			c0.201-0.4,0.4-0.6,0.603-0.902c0.199-0.3,0.4-0.8,0.8-1.201c0.402-0.402,0-1.402,0-1.402l1.003-1.201v-1.103c0,0,0,0,0-0.4
			c0-0.402,0.601-0.402,0.601-0.402l0.603-0.7c0,0,0-0.4,0-1.102c0-0.703,0.701,0,0.701,0v-0.702l1.105-1.102v-0.9l0.499-0.799
			v-0.403v-0.8l0.702-0.502l1.104-3.506c0,0,0.3-0.799,0.499-1.218c0.202-0.415,0.402-0.883,0.402-0.883l0.802-0.802
			c0,0,0-1.504,0-1.901c0-0.403,0-1.202,0-1.202s0.503-0.805,0.702-1.205c0.201-0.399,0.802-0.8,0.802-0.8v-1l0.702-0.602v-1.101
			v-0.603l1.504-2.101l0.504-1.203v-0.6l1.002-1.304v-0.9c0.704-0.099,2.005-1.501,2.005-1.501h-0.803v-0.4
			c0,0,0.302-0.703,0.903-1.103c0.602-0.399,0-0.6,0-0.6v-0.802v-0.5h1.134l0.372-0.7c-1.105-1.302,0.6-1.302,0.6-1.302
			c0.201-0.4,1.604-4.407,1.604-4.407l0.603-1.302l0.802-1.704l0.4-1.098l0.903-1.006v-0.6v-0.599l0.602-0.5v-0.502v-0.702
			c0.702-0.702,1.806-3.506,1.806-3.506c1.455,0.4,0.449,0.951,0.449,0.951l0.05,0.554v0.7c0,0,0.402-0.451,0.502,0.547
			c0.101,1.003-0.703,0-0.703,0c0,0.403,0.602,1.656,0.602,1.656l-0.651,0.2h0.249l0.099,0.951l0.252,0.45h-0.702l0.252,0.551
			l0.198,0.452l0.102,0.403l-0.051,0.748v0.599l0.1,0.402l-0.049,0.352l-0.252,0.399l-0.049,0.554l0.349,0.397l0.1,0.4
			c-0.449,0.149-0.351,1.002-0.351,1.002v0.851l0.051,0.953l0.151,0.4L127.661,80l-0.049,0.503l0.2,0.4v0.602l0.151,0.4l0.3,0.75
			l-0.102,1.003l0.051,0.251l0.051,0.55l0.402,0.901l0.2,0.451l-0.2,0.751l0.099,0.853l0.352,0.551l-0.602,0.048l0.1,0.303
			l0.201,0.75l0.401,0.6l0.15,0.753l-0.201,0.35l0.153,0.302l0.449,0.5l0.252,1.054l-0.351,0.296l0.351,0.351
			c0,0.303,0.751,1.553,0.751,1.553l-0.6,0.251l0.249,0.451l0.25,0.552l-0.45,0.299l0.751,0.754
			c1.153,1.051-0.101,0.998-0.101,0.998c0.803,0.602,0.655,1.705,0.655,1.705l0.399,0.451l0.199,0.85l-0.101,0.352l-0.099,0.399
			v0.853c0.099,0.799-0.15,1.802-0.15,1.802l0.502,0.299l0.351,1.154l-0.3,1.051v0.499l0.55,1.005l-0.453,0.648l0.251,0.35
			l0.052,2.656c0,0,0.351,0.651,0.25,2.404c-0.1,1.752,0.952,3.154,0.952,3.154v1.402l-0.352,0.653l0.254,1.85v0.6l0.25,0.602
			l-0.05,0.953l-0.402,0.4l0.351,0.55l0.502,0.351c0,1.003-0.603,1.353-0.302,1.652c0.302,0.303,0.527,1.027,0.527,1.027
			l-0.075,1.692l0.487,0.787l0.076,0.975l0.075,1.053l0.302,0.679l0.299,1.053l-0.037,0.674l0.3,0.3l0.227,0.828l0.226,0.486
			c0,0.338-0.301,1.992-0.301,1.992c0.489,0.112,0.789,0.902,0.789,0.902c-0.901,0.563,0.076,1.54,0.076,1.54
			c-0.227,0.902,0.489,2.288,0.489,2.288V146.305z"/>
		<polygon fill="#7DCCF3" points="40.179,97.354 38.86,98.232 39.693,97.675 		"/>
	</g>
	<g>
		<g>
			<path fill="#7DCCF3" d="M445.331,147.117l-0.48,2.275h-1.321c-3.125,0-5.523,0.837-7.197,2.506
				c-1.675,1.675-2.51,3.699-2.51,6.077c0,1.641,0.429,2.949,1.293,3.925c0.864,0.977,2.014,1.467,3.457,1.467
				c0.741,0,1.615-0.199,2.622-0.6c1.005-0.402,1.929-0.941,2.775-1.622l-0.387,2.923c-1.872,1.05-3.66,1.575-5.361,1.575
				c-2.044,0-3.719-0.699-5.021-2.101c-1.305-1.398-1.958-3.203-1.958-5.41c0-3.239,1.131-5.887,3.387-7.94
				c2.255-2.05,5.249-3.074,8.977-3.074H445.331z"/>
			<path fill="#7DCCF3" d="M449.105,153.514l-1.669,11.899h-2.248l1.668-11.899H449.105z M447.103,149.792
				c0-0.362,0.128-0.671,0.383-0.924c0.255-0.255,0.56-0.383,0.913-0.383c0.352,0,0.657,0.128,0.911,0.383
				c0.257,0.252,0.383,0.561,0.383,0.924c0,0.355-0.126,0.658-0.383,0.912c-0.254,0.252-0.558,0.383-0.911,0.383
				c-0.354,0-0.658-0.131-0.913-0.383C447.23,150.45,447.103,150.147,447.103,149.792z"/>
			<path fill="#7DCCF3" d="M457.122,153.514l-0.242,1.76h-2.369l-1.159,6.502c-0.06,0.326-0.09,0.603-0.09,0.828
				c0,0.776,0.419,1.161,1.257,1.161c0.621,0,1.347-0.235,2.178-0.709l-0.132,2.198c-0.828,0.354-1.653,0.529-2.471,0.529
				c-0.976,0-1.747-0.247-2.31-0.742c-0.567-0.493-0.848-1.15-0.848-1.959c0-0.2,0.018-0.403,0.055-0.61l1.251-7.198h-2.098
				l0.274-1.76h2.176l0.437-2.427h2.223l-0.434,2.427H457.122z"/>
			<path fill="#7DCCF3" d="M467.624,153.514l-8.546,17.986h-2.393l3.253-6.844l-2.32-11.142h2.246l1.654,8.186l3.757-8.186H467.624z
				"/>
			<path fill="#7DCCF3" d="M496.493,147.349l-8.768,18.217h-0.899l-3.518-12.814l-6.15,12.814h-0.935l-4.288-18.217h2.274
				l3.002,12.787l6.108-12.787h0.912l3.544,13.004l6.216-13.004H496.493z"/>
			<path fill="#7DCCF3" d="M504.611,153.514l-1.678,11.899h-2.249l0.219-1.375l-0.055-0.065c-1.043,1.112-2.111,1.669-3.208,1.669
				c-1.087,0-2.011-0.458-2.774-1.376c-0.764-0.916-1.147-2.026-1.147-3.328c0-2.261,0.71-4.121,2.132-5.586
				c1.42-1.466,3.402-2.197,5.949-2.197C502.837,153.156,503.773,153.277,504.611,153.514z M501.175,161.973l0.973-6.867
				c-0.241-0.017-0.474-0.025-0.699-0.025c-1.769,0-3.115,0.563-4.038,1.685c-0.924,1.125-1.385,2.382-1.385,3.77
				c0,0.956,0.223,1.74,0.667,2.348c0.444,0.607,1.011,0.911,1.692,0.911c0.545,0,1.141-0.268,1.791-0.806
				C500.824,162.45,501.157,162.112,501.175,161.973z"/>
			<path fill="#7DCCF3" d="M509.949,153.514l-0.302,2.106l0.061,0.043c1.269-1.553,2.584-2.329,3.95-2.329
				c0.922,0,1.639,0.339,2.148,1.017c0.509,0.674,0.764,1.547,0.764,2.617c0,0.302-0.026,0.616-0.077,0.945l-1.143,7.5h-2.224
				l1.089-7.581c0.044-0.265,0.065-0.512,0.065-0.737c0-0.616-0.131-1.095-0.39-1.421c-0.261-0.326-0.586-0.492-0.974-0.492
				c-0.225,0-0.48,0.057-0.763,0.17c-0.278,0.11-0.579,0.284-0.899,0.515c-0.32,0.232-0.716,0.589-1.186,1.06
				c-0.473,0.473-0.719,0.776-0.738,0.905l-1.089,7.581h-2.221l1.67-11.899H509.949z"/>
			<path fill="#7DCCF3" d="M530.339,147.349l-2.545,18.065c-0.873,0.246-1.885,0.371-3.041,0.371c-2.013,0-3.561-0.476-4.643-1.433
				c-1.083-0.96-1.624-2.316-1.624-4.075c0-1.723,0.703-3.341,2.114-4.853c1.411-1.514,3.321-2.268,5.735-2.268h0.945l0.811-5.808
				H530.339z M525.789,163.872l1.231-8.844h-0.584c-1.686,0-3.049,0.51-4.08,1.534c-1.035,1.021-1.553,2.242-1.553,3.663
				c0,1.18,0.339,2.094,1.025,2.733c0.68,0.645,1.653,0.966,2.923,0.966C525.209,163.924,525.554,163.905,525.789,163.872z"/>
			<path fill="#7DCCF3" d="M540.404,162.308l-0.323,2.147c-1.209,0.886-2.535,1.33-3.976,1.33c-1.501,0-2.707-0.522-3.618-1.569
				c-0.911-1.047-1.366-2.442-1.366-4.182c0-1.94,0.547-3.57,1.639-4.895c1.092-1.324,2.427-1.982,4.005-1.982
				c1.209,0,2.214,0.463,3.019,1.388c0.802,0.928,1.203,2.123,1.203,3.588c0,0.362-0.026,0.732-0.078,1.114h-7.433
				c-0.07,0.396-0.101,0.777-0.101,1.137c0,1.093,0.3,1.96,0.9,2.594c0.6,0.631,1.35,0.948,2.258,0.948
				C537.638,163.924,538.928,163.385,540.404,162.308z M533.824,157.679h4.987c0-0.827-0.189-1.481-0.563-1.959
				c-0.375-0.477-0.905-0.718-1.586-0.718C535.365,155.002,534.42,155.894,533.824,157.679z"/>
			<path fill="#7DCCF3" d="M546.628,153.514l-0.349,2.264l0.051,0.054c0.709-1.011,1.27-1.678,1.684-2.002
				c0.416-0.329,0.908-0.494,1.479-0.494c0.354,0,0.683,0.061,0.983,0.18v2.549c-0.473-0.268-0.937-0.4-1.385-0.4
				c-0.439,0-0.834,0.109-1.18,0.328c-0.345,0.219-0.764,0.69-1.256,1.409c-0.493,0.721-0.75,1.158-0.764,1.314l-0.932,6.699h-2.249
				l1.67-11.899H546.628z"/>
			<path fill="#7DCCF3" d="M560.055,162.308l-0.323,2.147c-1.209,0.886-2.533,1.33-3.973,1.33c-1.502,0-2.71-0.522-3.621-1.569
				c-0.911-1.047-1.365-2.442-1.365-4.182c0-1.94,0.544-3.57,1.637-4.895c1.092-1.324,2.426-1.982,4.006-1.982
				c1.208,0,2.214,0.463,3.016,1.388c0.803,0.928,1.203,2.123,1.203,3.588c0,0.362-0.026,0.732-0.077,1.114h-7.43
				c-0.068,0.396-0.103,0.777-0.103,1.137c0,1.093,0.299,1.96,0.899,2.594c0.599,0.631,1.353,0.948,2.259,0.948
				C557.29,163.924,558.581,163.385,560.055,162.308z M553.476,157.679h4.988c0-0.827-0.188-1.481-0.565-1.959
				c-0.376-0.477-0.906-0.718-1.586-0.718C555.016,155.002,554.072,155.894,553.476,157.679z"/>
			<path fill="#7DCCF3" d="M566.277,153.514l-0.351,2.264l0.052,0.054c0.709-1.011,1.273-1.678,1.686-2.002
				c0.415-0.329,0.906-0.494,1.476-0.494c0.355,0,0.681,0.061,0.984,0.18v2.549c-0.474-0.268-0.938-0.4-1.388-0.4
				c-0.441,0-0.831,0.109-1.176,0.328c-0.348,0.219-0.764,0.69-1.257,1.409c-0.494,0.721-0.748,1.158-0.766,1.314l-0.931,6.699
				h-2.249l1.669-11.899H566.277z"/>
		</g>
	</g>
</g>
</svg>
