<?xml version="1.0" encoding="utf-8"?>
<!-- Generator: Adobe Illustrator 17.0.0, SVG Export Plug-In . SVG Version: 6.00 Build 0)  -->
<!DOCTYPE svg PUBLIC "-//W3C//DTD SVG 1.1//EN" "http://www.w3.org/Graphics/SVG/1.1/DTD/svg11.dtd">
<svg version="1.1" id="Layer_1" xmlns="http://www.w3.org/2000/svg" xmlns:xlink="http://www.w3.org/1999/xlink" x="0px" y="0px"
	 width="600px" height="200px" viewBox="0 0 600 200" enable-background="new 0 0 600 200" xml:space="preserve">
<g>
	<g>
		<g>
			<path fill="#231916" d="M186.046,153.239c0,0.519-0.176,0.954-0.512,1.292c-0.282,0.303-0.689,0.467-1.174,0.507
				c-0.428-0.039-0.834-0.18-1.155-0.446c-0.309-0.338-0.467-0.805-0.467-1.353v-28.534c-3.321,7.634-5.414,11.558-6.227,11.8
				c-0.409,0.095-0.834,0.062-1.283-0.175c-0.385-0.299-0.634-0.637-0.746-1.014c-0.067-0.44,0.024-0.908,0.282-1.388
				c3.643-5.925,6.209-11.879,7.701-17.86h-5.727c-0.552-0.039-0.971-0.18-1.228-0.446c-0.306-0.338-0.44-0.744-0.44-1.24
				c0.034-0.444,0.167-0.84,0.44-1.155c0.325-0.309,0.731-0.451,1.228-0.451h6v-9.601c0-0.564,0.133-0.976,0.4-1.24
				c0.337-0.311,0.749-0.452,1.222-0.452c0.452,0.039,0.834,0.18,1.174,0.452c0.337,0.338,0.512,0.743,0.512,1.24v9.601h5.278
				c0.522,0,0.907,0.135,1.165,0.388c0.307,0.338,0.464,0.745,0.464,1.218c-0.045,0.44-0.191,0.84-0.464,1.178
				c-0.285,0.334-0.685,0.508-1.165,0.508h-5.278v1.454c2.384,4.234,4.398,7.887,6.002,10.954c0.228,0.378,0.273,0.79,0.115,1.224
				c-0.115,0.485-0.385,0.811-0.84,0.952c-0.525,0.237-0.964,0.266-1.286,0.124c-0.388-0.124-0.695-0.467-0.965-1.077
				c-0.861-1.9-1.871-3.998-3.027-6.292V153.239z M195.127,116.412c-0.507,0-0.913-0.176-1.162-0.508
				c-0.258-0.332-0.403-0.683-0.403-1.048c0-0.479,0.146-0.858,0.403-1.122c0.294-0.265,0.689-0.396,1.162-0.396h13.206
				c-0.079-0.079-0.115-0.106-0.158-0.106c-0.045-0.039-0.076-0.052-0.124-0.052c-1.186-0.631-1.862-0.963-2.029-0.963
				c-3.057-1.394-4.634-2.205-4.753-2.475c-0.221-0.367-0.267-0.778-0.121-1.23c0.188-0.49,0.476-0.805,0.846-0.965
				c0.406-0.18,0.858-0.202,1.353-0.05c0.846,0.411,2.369,1.089,4.55,2.029c0.406,0.141,0.798,0.338,1.167,0.554
				c5.83-1.545,9.099-2.599,9.755-3.209c0.045-0.039,0.057-0.112,0.057-0.231c-0.036-0.079-0.07-0.107-0.103-0.107h-22.281
				c-0.519,0-0.907-0.175-1.177-0.513c-0.267-0.332-0.4-0.676-0.4-1.043c0-0.479,0.133-0.857,0.4-1.122
				c0.285-0.27,0.682-0.405,1.177-0.405h25.302c1.016,0.102,1.717,0.378,2.078,0.867c0.382,0.479,0.519,1.021,0.403,1.624
				c-0.088,0.591-0.613,1.296-1.629,2.114c-1.759,1.427-4.938,2.825-9.557,4.178c0.115,0,0.203,0.006,0.228,0.05
				c0.485,0.266,0.789,0.61,0.901,1.054h10.443c1.168,0.164,2.029,0.52,2.587,1.072c0.491,0.541,0.749,1.139,0.795,1.73
				c0.024,1.579-1.104,3.208-3.382,4.94c-1.535,1.116-3.637,2.187-6.339,3.201c-0.494,0.18-0.901,0.216-1.24,0.114
				c-0.382-0.114-0.676-0.344-0.901-0.728c-0.215-0.462-0.282-0.867-0.164-1.235c0.143-0.378,0.412-0.676,0.795-0.919
				c3.543-1.488,5.954-2.847,7.24-4.087c0.137-0.209,0.1-0.446-0.112-0.66c-0.261-0.226-0.789-0.355-1.58-0.355h-8.365v3.653
				c-0.024,2.255-0.394,3.94-1.061,5.045c-0.416,0.699-0.968,1.145-1.668,1.409c-1.656,0.576-4.125,0.463-7.419-0.338
				c-0.564-0.168-0.901-0.473-1.071-0.822c-0.148-0.423-0.152-0.813-0.057-1.207c0.34-0.84,1.037-1.162,2.087-0.948
				c2.244,0.537,3.891,0.616,4.938,0.282c0.391-0.106,0.676-0.45,0.913-1.054c0.17-0.608,0.273-1.421,0.273-2.475v-3.191
				c-3.215,2.616-6.124,4.612-8.705,5.998c-5.35,2.734-8.593,3.811-9.721,3.203c-0.367-0.265-0.619-0.608-0.722-1.071
				c-0.118-0.479-0.067-0.892,0.158-1.23c0.315-0.423,0.701-0.676,1.174-0.801c4.871-1.353,9.357-3.484,13.434-6.455H195.127z
				 M207.205,130.783c-0.237,1.663-0.525,2.942-0.904,3.828c-1.125,2.537-3.676,4.217-7.644,5.006
				c-0.631,0.097-1.174-0.066-1.623-0.512v14.14c0,0.535-0.164,0.958-0.498,1.291c-0.294,0.321-0.701,0.462-1.174,0.462
				c-0.449,0-0.843-0.135-1.183-0.4c-0.288-0.338-0.44-0.772-0.44-1.353v-21.322c0-1.06,0.34-1.917,1.016-2.633
				c0.698-0.796,1.644-1.155,2.806-1.112h25.023c1.353-0.044,2.311,0.338,2.909,1.112c0.619,0.743,0.925,1.629,0.958,2.683v17.822
				c0,1.483-0.288,2.565-0.892,3.28c-0.743,0.971-1.85,1.523-3.361,1.67c-1.759,0.164-3.967,0.056-6.676-0.282
				c-0.573-0.095-1.013-0.344-1.353-0.71c-0.225-0.384-0.316-0.79-0.27-1.253c0.103-0.529,0.339-0.89,0.676-1.11
				c0.407-0.271,0.898-0.384,1.456-0.338c2.502,0.366,4.204,0.502,5.108,0.4c0.855-0.13,1.453-0.475,1.793-1.077
				c0.145-0.311,0.236-0.857,0.236-1.692v-10.728h-7.085c-1.423,0-2.439-0.344-3.039-1.049c-0.676-0.874-1.004-1.861-1.004-2.971
				v-3.151H207.205z M204.114,130.783h-5.457c-0.518-0.029-0.907,0.129-1.174,0.467c-0.291,0.379-0.449,0.744-0.449,1.122v4.487
				c0.043-0.044,1.171-0.394,3.427-1.071c1.871-0.778,3.039-2.097,3.473-3.929C204.023,131.403,204.069,131.053,204.114,130.783z
				 M203.228,149.18c-0.895-0.029-1.595-0.277-2.069-0.739c-0.564-0.508-0.834-1.162-0.789-1.962v-3.794
				c0-0.744,0.237-1.41,0.743-1.956c0.576-0.637,1.286-0.948,2.114-0.892h14.349c0.822,0,1.483,0.282,1.963,0.892
				c0.485,0.598,0.737,1.251,0.737,1.956v3.794c-0.048,0.676-0.309,1.324-0.795,1.905c-0.485,0.531-1.116,0.796-1.905,0.796H203.228
				z M204.903,142.459c-0.494-0.039-0.862,0.085-1.116,0.338c-0.218,0.265-0.337,0.632-0.337,1.112v1.415
				c0,0.479,0.125,0.805,0.394,0.946c0.248,0.197,0.619,0.276,1.058,0.276h11.062c0.458,0,0.746-0.102,0.892-0.338
				c0.191-0.214,0.309-0.507,0.34-0.884v-1.415c-0.03-0.435-0.115-0.813-0.282-1.049c-0.191-0.266-0.491-0.4-0.949-0.4H204.903z
				 M223.171,135.327v-2.954c-0.045-0.378-0.203-0.739-0.452-1.077c-0.291-0.338-0.676-0.512-1.137-0.512h-6.461v2.424
				c0,0.678,0.158,1.196,0.494,1.568c0.385,0.338,0.925,0.529,1.635,0.552H223.171z"/>
			<path fill="#231916" d="M264.949,130.213c1.419,3.338,2.081,6.969,1.962,10.893c-0.148,4.973-2.132,8.659-5.954,11.022
				c-3.552,1.983-7.746,2.124-12.584,0.44c-3.327-1.156-5.093-2.261-5.311-3.315c-0.091-0.485,0-0.953,0.27-1.41
				c0.34-0.444,0.695-0.721,1.062-0.834c0.564-0.067,1.083,0.052,1.577,0.39c1.168,0.761,2.527,1.369,4.095,1.855
				c3.552,1.28,6.697,1.122,9.436-0.44c1.15-0.745,2.099-1.805,2.797-3.152c0.045-0.158,0.079-0.255,0.112-0.276
				c1.844-4.601,1.522-9.67-0.946-15.173h-26.791c-0.54-0.039-0.971-0.18-1.241-0.444c-0.282-0.338-0.434-0.744-0.434-1.224
				c0.027-0.457,0.185-0.834,0.434-1.172c0.34-0.311,0.767-0.446,1.241-0.446h24.941c-0.901-1.388-1.92-2.78-3.088-4.161
				c-0.34-0.378-0.507-0.969-0.507-1.753c0-0.857,0.455-1.624,1.341-2.301l16.452-11.203c0.052-0.141-0.124-0.207-0.491-0.207
				h-33.258c-0.585,0-1.058-0.187-1.398-0.502c-0.255-0.338-0.407-0.739-0.452-1.184c0.079-0.507,0.249-0.907,0.519-1.162
				c0.34-0.316,0.78-0.461,1.331-0.461h36.118c0.934-0.068,1.69,0.135,2.299,0.62c0.598,0.529,0.88,1.206,0.846,2.017
				c-0.045,0.801-0.407,1.479-1.128,2.031l-17.003,11.568c-0.767,0.576-1.15,1.083-1.183,1.591c0,0.44,0.121,0.789,0.388,1.048
				c1.089,1.325,2.035,2.678,2.857,4.06h21.077c0.507,0,0.901,0.129,1.171,0.394c0.294,0.338,0.452,0.744,0.452,1.224
				c-0.046,0.45-0.185,0.823-0.452,1.162c-0.294,0.332-0.698,0.507-1.171,0.507H264.949z"/>
			<path fill="#231916" d="M313.09,104.262c0.637,0.716,0.958,1.658,0.958,2.813v7.68c-0.048,1.319-0.455,2.396-1.235,3.213
				c-0.789,0.743-1.808,1.11-3.088,1.11h-13.849v33.936c0,0.513-0.164,0.946-0.494,1.285c-0.294,0.299-0.682,0.473-1.174,0.502
				c-0.452-0.029-0.846-0.191-1.171-0.44c-0.3-0.338-0.452-0.789-0.452-1.347v-45.775c-0.033-1.421,0.361-2.498,1.183-3.191
				c0.78-0.728,1.811-1.072,3.079-1.072h13.103C311.258,103.015,312.307,103.445,313.09,104.262z M310.751,109.392v-1.415
				c-0.034-1.313-0.689-1.962-1.963-1.923h-10.949c-1.328,0.029-1.99,0.699-1.962,1.985v1.353H310.751z M295.877,112.685v3.338
				h12.563c1.55-0.085,2.311-0.874,2.311-2.386v-0.953H295.877z M299.984,137.588c-0.598,0.085-1.022,0-1.286-0.237
				c-0.413-0.214-0.631-0.575-0.676-1.049c-0.07-0.581,0.009-1.015,0.282-1.353c0.303-0.405,0.725-0.648,1.283-0.676h0.846
				c1.195-0.981,2.527-2.097,3.992-3.365c-1.465-1.348-3.027-2.56-4.713-3.603c-0.494-0.321-0.81-0.676-0.953-1.06
				c-0.152-0.366-0.118-0.772,0.118-1.24c0.221-0.405,0.51-0.683,0.88-0.851c0.498-0.135,0.983-0.079,1.468,0.191
				c0.112,0.016,0.361,0.215,0.719,0.553c1.016-1.427,2.032-2.938,3.045-4.545c0.334-0.49,0.74-0.743,1.174-0.801
				c0.452-0.067,0.855,0.035,1.24,0.282c0.337,0.334,0.564,0.705,0.676,1.072c0.034,0.716-1.183,2.637-3.655,5.79
				c0.676,0.535,1.423,1.149,2.251,1.849c1.11-1.309,2.181-2.661,3.197-4.054c0.303-0.473,0.664-0.772,1.134-0.885
				c0.364-0.073,0.77,0,1.222,0.215c0.382,0.303,0.619,0.641,0.737,1.008c0.221,1.326-2.023,4.228-6.749,8.722l5.347-0.631
				c-0.531-0.886-0.801-1.467-0.801-1.736c0.045-0.407,0.246-0.773,0.631-1.112c0.373-0.309,0.776-0.44,1.235-0.4
				c0.434,0.097,0.828,0.361,1.167,0.739c1.204,1.309,2.272,2.956,3.212,4.979c0.221,0.535,0.276,0.981,0.158,1.348
				c-0.112,0.462-0.394,0.801-0.834,1.014c-0.473,0.237-0.925,0.266-1.286,0.125c-0.167-0.085-0.643-0.676-1.465-1.815
				L299.984,137.588z M306.478,146.818c-1.969-0.033-3.373-0.508-4.149-1.45c-0.983-1.195-1.465-2.57-1.465-4.133v-0.789
				c0.042-0.564,0.197-1.014,0.467-1.353c0.288-0.334,0.682-0.525,1.168-0.525c0.455,0.096,0.867,0.259,1.228,0.525
				c0.31,0.287,0.452,0.749,0.452,1.353v0.05c0.042,0.942,0.315,1.686,0.789,2.251c0.564,0.479,1.307,0.743,2.247,0.789h3.315
				v-3.552c0.03-0.552,0.188-1.015,0.458-1.353c0.288-0.282,0.676-0.469,1.168-0.502c0.434,0.034,0.828,0.197,1.156,0.44
				c0.337,0.344,0.519,0.812,0.519,1.415v3.585c-0.046,0.08-0.046,0.136,0,0.193c-0.303,3.867-2.863,7.261-7.692,10.193
				c-1.556,0.564-2.569,0.712-3.033,0.502c-0.403-0.197-0.685-0.502-0.828-0.946c-0.264-1.089,0.164-1.815,1.292-2.154
				c2.569-0.78,4.601-2.301,6.066-4.539H306.478z M319.693,136.911c-0.585,0.029-1.025-0.052-1.286-0.271
				c-0.367-0.241-0.567-0.585-0.619-1.064c-0.033-0.564,0.067-1.015,0.337-1.353c0.261-0.39,0.689-0.598,1.298-0.626h0.609
				c0.907-0.745,1.878-1.624,2.93-2.639c-1.732-1.488-3.564-2.869-5.514-4.099c-0.485-0.299-0.81-0.637-0.958-1.014
				c-0.088-0.405-0.088-0.84,0.064-1.285c0.27-0.412,0.592-0.689,0.953-0.84c0.631-0.237,1.532,0.102,2.639,1.014
				c0.722-1.128,1.398-2.272,2.075-3.429c0.343-0.461,0.743-0.737,1.177-0.839c0.394-0.091,0.801,0.021,1.259,0.276
				c0.367,0.299,0.61,0.637,0.71,1.014c0,0.631-0.892,2.249-2.672,4.826c0.698,0.519,1.517,1.195,2.457,2.024
				c1.128-1.376,2.16-2.83,3.091-4.325c0.294-0.461,0.676-0.739,1.116-0.839c0.373-0.17,0.795-0.102,1.253,0.162
				c0.361,0.265,0.625,0.587,0.771,0.954c0,0.039,0,0.067,0,0.106c0.155,1.579-1.917,4.415-6.184,8.485l5.954-0.44
				c-0.179-0.338-0.388-0.643-0.61-0.913c-0.337-0.407-0.495-0.846-0.449-1.353c0.073-0.434,0.291-0.807,0.671-1.049
				c0.388-0.309,0.794-0.44,1.234-0.4c0.458,0.153,0.846,0.423,1.183,0.773c2.396,2.971,3.418,5.074,3.079,6.359
				c-0.139,0.446-0.44,0.784-0.889,1.01c-0.479,0.197-0.925,0.208-1.292,0.062c-0.406-0.153-0.743-0.497-1.01-1.072
				c-0.073-0.146-0.133-0.237-0.157-0.276L319.693,136.911z M324.13,119.078c-1.489-0.029-2.611-0.434-3.315-1.224
				c-0.898-0.902-1.338-2.035-1.286-3.434v-7.346c0-1.324,0.406-2.374,1.228-3.207c0.673-0.587,1.626-0.892,2.86-0.892h13.03
				c1.295,0,2.351,0.406,3.127,1.224c0.649,0.728,0.983,1.686,1.016,2.938v41.709c0,1.207-0.17,2.272-0.491,3.214
				c-0.337,0.913-1.071,1.647-2.175,2.126c-0.819,0.377-1.877,0.541-3.154,0.512c-3.318-0.197-5.226-0.71-5.714-1.522
				c-0.158-0.411-0.228-0.874-0.182-1.353c0.34-1.083,1.128-1.517,2.369-1.29c2.311,0.648,3.861,0.817,4.662,0.558
				c0.552-0.338,0.907-0.689,1.064-1.054c0.228-0.649,0.34-1.292,0.34-1.969v-28.99H324.13z M327.379,143.299
				c0.822,0,1.401-0.214,1.741-0.676c0.343-0.44,0.501-0.958,0.501-1.562v-0.84c0.039-0.575,0.194-1.008,0.446-1.347
				c0.3-0.311,0.695-0.475,1.18-0.514c0.446,0.039,0.828,0.193,1.168,0.446c0.337,0.355,0.512,0.811,0.512,1.415v1.788
				c0,1.195-0.34,2.238-1.016,3.129c-0.822,0.975-2.041,1.466-3.649,1.466h-5.005v6.405c0,0.506-0.157,0.952-0.497,1.284
				c-0.309,0.299-0.698,0.475-1.183,0.502c-0.44-0.027-0.828-0.197-1.162-0.434c-0.294-0.361-0.452-0.807-0.452-1.353v-13.024
				c0-0.552,0.124-0.958,0.385-1.224c0.343-0.299,0.749-0.467,1.228-0.467c0.455,0.056,0.846,0.197,1.183,0.467
				c0.34,0.334,0.497,0.744,0.497,1.224v3.315H327.379z M337.509,109.527v-1.143c-0.091-1.585-0.861-2.369-2.369-2.329h-10.307
				c-1.38,0-2.056,0.699-2.029,2.103v1.369H337.509z M322.805,112.583v1.19c-0.027,1.448,0.704,2.193,2.205,2.249h12.499v-3.44
				H322.805z"/>
			<path fill="#231916" d="M350.127,111.637c0.309-0.338,0.676-0.502,1.137-0.502c0.479,0.027,0.886,0.197,1.225,0.44
				c0.337,0.388,0.479,0.805,0.461,1.313c-0.125,0.913-0.218,2.34-0.337,4.267c-0.989,10.171-1.823,15.555-2.52,16.103
				c-0.34,0.23-0.767,0.332-1.259,0.293c-0.434-0.129-0.795-0.338-1.065-0.676c-0.221-0.467-0.282-0.93-0.158-1.415
				c1.037-5.277,1.735-11.445,2.075-18.538C349.72,112.415,349.866,111.975,350.127,111.637z M357.891,153.245
				c0,0.535-0.176,0.958-0.516,1.291c-0.285,0.321-0.692,0.468-1.165,0.525c-0.434-0.056-0.84-0.197-1.174-0.462
				c-0.3-0.338-0.452-0.778-0.452-1.353v-50.076c0-0.558,0.137-0.971,0.394-1.235c0.34-0.311,0.746-0.452,1.231-0.452
				c0.449,0.039,0.849,0.18,1.165,0.452c0.34,0.338,0.516,0.743,0.516,1.235V153.245z M364.34,126.458
				c0.073,0.576-0.012,1.044-0.282,1.417c-0.258,0.378-0.631,0.579-1.11,0.608c-0.458,0.068-0.861,0-1.253-0.214
				c-0.328-0.294-0.552-0.734-0.676-1.286l-1.786-11.908c-0.073-0.563,0-1.008,0.225-1.347c0.34-0.411,0.694-0.637,1.071-0.676
				c0.525-0.073,0.971,0,1.356,0.208c0.325,0.311,0.552,0.739,0.676,1.297L364.34,126.458z M370.078,143.88
				c-0.118,0-0.164,0.017-0.164,0.062c-5.511,2.436-8.817,3.315-9.946,2.639c-0.376-0.265-0.579-0.649-0.607-1.128
				c-0.091-0.49,0-0.902,0.218-1.234c0.255-0.411,0.676-0.649,1.229-0.676c6.36-1.533,11.902-4.201,16.615-8.029
				c0.406-0.298,0.852-0.429,1.331-0.4c0.458,0.039,0.807,0.243,1.064,0.608c0.273,0.413,0.407,0.813,0.407,1.19
				c-0.191,0.762-2.463,2.498-6.843,5.232v7.977c5.153-1.477,8.189-2.367,9.087-2.7c0.525-0.158,0.976-0.158,1.34,0
				c0.34,0.141,0.622,0.451,0.852,0.884c0.152,0.508,0.152,0.919,0,1.286c-0.158,0.394-0.452,0.676-0.907,0.919
				c-0.701,0.243-1.392,0.502-2.069,0.772c-10.352,3.01-16.209,4.031-17.565,3.101c-0.364-0.293-0.567-0.676-0.612-1.139
				c-0.073-0.508,0.021-0.948,0.276-1.286c0.264-0.366,2.363-0.778,6.291-1.222V143.88z M380.175,103.152
				c0-0.576,0.137-0.987,0.391-1.257c0.349-0.277,0.743-0.435,1.234-0.435c0.452,0.029,0.84,0.199,1.171,0.435
				c0.346,0.343,0.503,0.755,0.503,1.257v2.187h15.396c0.513,0,0.91,0.13,1.174,0.384c0.294,0.338,0.452,0.762,0.452,1.235
				c-0.039,0.45-0.188,0.823-0.452,1.162c-0.294,0.338-0.683,0.513-1.174,0.513h-34.137c-0.552-0.039-0.958-0.185-1.228-0.45
				c-0.288-0.334-0.446-0.745-0.446-1.224c0.039-0.462,0.185-0.834,0.446-1.166c0.343-0.311,0.749-0.452,1.228-0.452h15.441V103.152
				z M367.564,122.253c-1.013-0.073-1.759-0.361-2.248-0.84c-0.594-0.603-0.88-1.319-0.84-2.137v-4.662
				c0.034-0.817,0.303-1.545,0.789-2.132c0.619-0.67,1.404-0.992,2.299-0.946h28.699c0.873,0.027,1.571,0.344,2.154,0.946
				c0.525,0.587,0.77,1.315,0.77,2.132v4.662c0,0.79-0.285,1.483-0.84,2.075c-0.558,0.564-1.256,0.852-2.084,0.902H367.564z
				 M376.208,125.578c0.5,0,0.907,0.13,1.171,0.4c0.279,0.334,0.431,0.745,0.431,1.218c-0.024,0.462-0.176,0.852-0.431,1.185
				c-0.315,0.338-0.698,0.502-1.171,0.502h-9.23c-0.552-0.029-0.965-0.197-1.228-0.434c-0.3-0.338-0.458-0.767-0.458-1.253
				c0.046-0.434,0.188-0.822,0.458-1.16c0.33-0.294,0.743-0.458,1.228-0.458H376.208z M376.208,132.08
				c0.5,0,0.907,0.124,1.171,0.394c0.279,0.332,0.431,0.745,0.431,1.218c-0.024,0.469-0.176,0.852-0.431,1.19
				c-0.315,0.338-0.698,0.496-1.171,0.496h-9.23c-0.552-0.029-0.965-0.197-1.228-0.435c-0.3-0.338-0.458-0.743-0.458-1.251
				c0.046-0.434,0.188-0.817,0.458-1.155c0.33-0.299,0.743-0.457,1.228-0.457H376.208z M374.804,114.602h-5.469
				c-0.525,0-0.907,0.118-1.174,0.39c-0.303,0.338-0.44,0.761-0.394,1.245v1.591c0.027,0.496,0.188,0.84,0.458,1.06
				c0.288,0.191,0.676,0.293,1.11,0.293h5.469V114.602z M385.571,114.602h-7.471v4.579h7.471V114.602z M383.475,134.38
				c0,0.529-0.158,0.969-0.503,1.307c-0.297,0.294-0.676,0.446-1.171,0.496c-0.452-0.05-0.834-0.191-1.174-0.463
				c-0.291-0.332-0.452-0.772-0.452-1.34v-8.75c0-0.564,0.137-0.971,0.391-1.234c0.349-0.311,0.743-0.452,1.234-0.452
				c0.452,0.039,0.84,0.197,1.171,0.452c0.346,0.338,0.503,0.743,0.503,1.234V134.38z M388.82,143.88
				c2.994-1.946,5.475-3.964,7.413-6.004c0.379-0.407,0.813-0.626,1.304-0.626c0.409-0.039,0.801,0.102,1.171,0.44
				c0.34,0.332,0.503,0.739,0.503,1.201c-0.039,1.297-2.757,3.801-8.186,7.515c2.654,2.701,5.711,4.437,9.205,5.215
				c0.558,0.237,0.958,0.535,1.174,0.914c0.197,0.366,0.203,0.778,0.061,1.222c-0.152,0.496-0.409,0.813-0.789,0.964
				c-0.446,0.214-0.907,0.253-1.398,0.112c-5.684-1.618-10.276-4.938-13.761-10.007c-2.469-3.828-3.582-6.129-3.315-6.9
				c0.112-0.407,0.394-0.726,0.846-0.952c0.44-0.197,0.849-0.203,1.235-0.062c0.449,0.197,0.789,0.535,1.007,1.015
				C386.305,139.984,387.479,141.98,388.82,143.88z M396.639,125.578c0.512,0,0.91,0.13,1.18,0.4
				c0.288,0.334,0.446,0.745,0.446,1.218c-0.039,0.462-0.188,0.852-0.446,1.185c-0.3,0.338-0.689,0.502-1.18,0.502h-8.981
				c-0.558-0.029-0.986-0.197-1.235-0.434c-0.309-0.338-0.455-0.767-0.455-1.253c0.027-0.434,0.185-0.822,0.455-1.16
				c0.34-0.294,0.743-0.458,1.235-0.458H396.639z M396.639,132.08c0.512,0,0.91,0.124,1.18,0.394
				c0.288,0.332,0.446,0.745,0.446,1.218c-0.039,0.469-0.188,0.852-0.446,1.19c-0.3,0.338-0.689,0.496-1.18,0.496h-8.981
				c-0.558-0.029-0.986-0.197-1.235-0.435c-0.309-0.338-0.455-0.743-0.455-1.251c0.027-0.434,0.185-0.817,0.455-1.155
				c0.34-0.299,0.743-0.457,1.235-0.457H396.639z M388.877,119.18h5.733c0.406-0.039,0.722-0.175,0.946-0.4
				c0.234-0.181,0.346-0.513,0.346-0.953v-1.591c-0.046-0.461-0.137-0.845-0.276-1.183c-0.203-0.311-0.537-0.452-1.016-0.452h-5.733
				V119.18z"/>
			<path fill="#231916" d="M422.996,133.117c-5.044,6.46-10.158,10.966-15.311,13.468c-0.531,0.265-1.031,0.311-1.477,0.164
				c-0.406-0.168-0.728-0.473-0.949-0.823c-0.337-1.071-0.027-1.826,0.898-2.316c5.056-2.747,9.321-6.225,12.809-10.493h-11.799
				c-0.555-0.039-0.964-0.197-1.231-0.446c-0.298-0.338-0.455-0.749-0.455-1.24c0.039-0.444,0.185-0.845,0.455-1.178
				c0.334-0.287,0.746-0.428,1.231-0.428h9.16v-20.702h-7.807c-0.564-0.052-0.971-0.193-1.24-0.462
				c-0.288-0.334-0.452-0.739-0.452-1.218c0.045-0.44,0.191-0.84,0.452-1.162c0.343-0.293,0.749-0.462,1.24-0.462h7.807v-2.402
				c0-0.575,0.136-0.98,0.379-1.251c0.337-0.282,0.743-0.44,1.247-0.44c0.434,0.034,0.828,0.18,1.165,0.44
				c0.34,0.338,0.497,0.745,0.497,1.251v2.402h24.344v-2.402c0-0.575,0.137-0.98,0.4-1.251c0.334-0.282,0.74-0.44,1.226-0.44
				c0.446,0.034,0.828,0.18,1.165,0.44c0.334,0.338,0.516,0.745,0.516,1.251v2.402h7.519c0.531,0,0.919,0.135,1.189,0.4
				c0.294,0.338,0.437,0.745,0.437,1.224c-0.03,0.444-0.188,0.844-0.437,1.184c-0.316,0.338-0.716,0.496-1.189,0.496h-7.519v20.702
				h9.77c0.512,0,0.919,0.118,1.174,0.388c0.297,0.334,0.449,0.744,0.449,1.218c-0.027,0.44-0.179,0.84-0.449,1.174
				c-0.294,0.338-0.676,0.513-1.174,0.513h-12.408c3.364,3.929,7.695,7.284,12.972,10.103c0.473,0.27,0.789,0.614,0.946,1.066
				c0.046,0.434-0.021,0.851-0.176,1.24c-0.297,0.405-0.631,0.67-0.998,0.782c-0.449,0.102-0.922,0.035-1.398-0.237
				c-6.6-3.546-11.811-7.875-15.626-12.956H422.996z M430.264,143.029h-11.404c-0.57-0.029-0.977-0.17-1.228-0.435
				c-0.316-0.338-0.464-0.743-0.464-1.222c0.039-0.452,0.197-0.846,0.464-1.185c0.337-0.299,0.743-0.44,1.228-0.44h11.404v-3.985
				c0-0.581,0.112-0.987,0.379-1.253c0.337-0.287,0.743-0.44,1.247-0.44c0.434,0.029,0.828,0.197,1.149,0.44
				c0.343,0.334,0.5,0.751,0.5,1.253v3.985h10.892c0.537,0,0.937,0.112,1.192,0.372c0.297,0.338,0.449,0.744,0.449,1.253
				c-0.043,0.434-0.179,0.834-0.449,1.172c-0.3,0.321-0.701,0.485-1.192,0.485h-10.892v6.821h18.538
				c0.531,0,0.919,0.135,1.189,0.388c0.294,0.338,0.434,0.744,0.434,1.236c-0.027,0.45-0.185,0.822-0.434,1.16
				c-0.309,0.334-0.698,0.508-1.189,0.508h-39.973c-0.552-0.039-0.958-0.18-1.228-0.446c-0.3-0.338-0.434-0.743-0.434-1.222
				c0.027-0.462,0.173-0.835,0.434-1.174c0.337-0.309,0.743-0.45,1.228-0.45h18.159V143.029z M443.958,113.66v-4.537h-24.344v4.537
				H443.958z M443.958,121.757v-4.804h-24.344v4.804H443.958z M443.958,129.825v-4.759h-24.344v4.759H443.958z"/>
			<path fill="#231916" d="M487.44,106.359c-2.29,2.363-5.578,4.973-9.879,7.815c-7.692,4.533-12.157,6.568-13.424,6.116
				c-0.452-0.197-0.761-0.535-0.901-1.015c-0.155-0.529-0.155-0.969,0-1.347c0.185-0.406,0.525-0.734,1.007-0.954
				c5.469-2.125,9.727-4.199,12.748-6.23c3.491-2.249,6.697-4.826,9.657-7.763c0.791-0.744,1.71-1.099,2.763-1.099
				c1.043-0.056,1.923,0.276,2.639,0.948c3.027,2.79,6.294,5.344,9.754,7.583c3.376,1.9,7.525,3.863,12.466,5.892
				c0.567,0.191,0.928,0.469,1.065,0.851c0.152,0.502,0.152,1.049,0,1.624c-0.185,0.49-0.458,0.807-0.822,0.948
				c-0.716,0.23-2.881-0.547-6.466-2.352c-8.232-4.458-13.889-8.203-16.955-11.23c-0.637-0.531-1.201-0.767-1.68-0.739
				C488.763,105.451,488.117,105.751,487.44,106.359z M498.353,149.625c1.168-2.255,2.317-4.838,3.491-7.753
				c1.759-4.797,2.751-7.261,3.021-7.402c0.407-0.237,0.795-0.299,1.189-0.174c0.479,0.18,0.825,0.467,1.068,0.851
				c0.406,0.846-1.31,5.684-5.12,14.478h9.833c0.519,0,0.919,0.135,1.177,0.384c0.294,0.328,0.446,0.739,0.446,1.241
				c-0.039,0.44-0.179,0.834-0.446,1.172c-0.297,0.321-0.703,0.485-1.177,0.485h-44.247c-0.558-0.029-0.964-0.17-1.219-0.434
				c-0.297-0.338-0.452-0.745-0.452-1.224c0.03-0.446,0.182-0.846,0.452-1.185c0.321-0.282,0.746-0.44,1.219-0.44h20.182v-17.63
				h-21.972c-0.558-0.027-0.962-0.197-1.235-0.434c-0.309-0.338-0.449-0.745-0.449-1.251c0.045-0.435,0.197-0.817,0.449-1.157
				c0.346-0.299,0.746-0.461,1.235-0.461h21.972v-8.356H474.11c-0.567-0.039-0.973-0.186-1.222-0.446
				c-0.309-0.338-0.458-0.743-0.458-1.222c0.03-0.462,0.188-0.84,0.458-1.174c0.337-0.309,0.743-0.45,1.222-0.45h30.98
				c0.521,0,0.91,0.135,1.18,0.384c0.309,0.338,0.452,0.761,0.452,1.24c-0.045,0.45-0.188,0.822-0.452,1.156
				c-0.294,0.338-0.688,0.512-1.18,0.512h-14.043v8.356h21.911c0.521,0,0.907,0.129,1.177,0.4c0.294,0.338,0.452,0.743,0.452,1.218
				c-0.046,0.467-0.197,0.851-0.452,1.189c-0.294,0.338-0.698,0.496-1.177,0.496h-21.911v17.63H498.353z M470.931,136.026
				c0.152-0.428,0.407-0.739,0.783-0.981c0.406-0.237,0.834-0.299,1.286-0.146c0.428,0.112,0.767,0.411,1.016,0.89
				c3.558,7.228,5.114,11.501,4.668,12.854c-0.203,0.378-0.512,0.649-0.964,0.801c-0.458,0.114-0.862,0.079-1.229-0.062
				c-0.446-0.264-0.746-0.631-0.898-1.139c-1.353-4.436-2.824-8.068-4.444-10.892C470.971,136.911,470.886,136.461,470.931,136.026z
				"/>
			<path fill="#231916" d="M546.676,104.837c-0.625,0-1.286,0.209-1.962,0.655c-1.984,1.471-4.683,3.066-8.077,4.786h20.373
				c0.531,0,0.925,0.135,1.192,0.384c0.291,0.338,0.434,0.743,0.434,1.239c-0.024,0.446-0.188,0.823-0.434,1.157
				c-0.312,0.338-0.7,0.512-1.192,0.512h-21.107c-0.564-0.039-0.971-0.187-1.229-0.446c-0.309-0.338-0.464-0.745-0.464-1.224
				c0-0.197,0.039-0.359,0.064-0.5c-7.713,3.247-12.044,4.628-12.969,4.132c-0.449-0.18-0.692-0.519-0.743-0.998
				c-0.067-0.492-0.027-0.937,0.118-1.303c0.243-0.378,0.588-0.61,1.071-0.722c8.847-2.622,16.227-6.016,22.181-10.211
				c0.783-0.535,1.708-0.778,2.745-0.778c1.107-0.039,2.002,0.164,2.706,0.616c5.532,3.546,13.127,6.647,22.8,9.263
				c0.564,0.027,0.922,0.23,1.062,0.614c0.225,0.473,0.328,0.965,0.276,1.444c-0.139,0.535-0.343,0.857-0.61,1.014
				c-0.676,0.287-2.921-0.164-6.749-1.415c-8.298-2.91-14.207-5.481-17.674-7.719C547.85,104.95,547.247,104.793,546.676,104.837z
				 M529.048,131.787c-1.468-0.057-2.493-0.462-3.091-1.24c-0.637-0.834-0.946-1.753-0.907-2.809v-7.109
				c-0.039-1.206,0.343-2.158,1.125-2.847c0.746-0.801,1.717-1.172,2.872-1.172h35.714c1.235-0.045,2.211,0.316,2.927,1.11
				c0.704,0.79,1.083,1.753,1.11,2.909v7.109c-0.027,1.122-0.406,2.087-1.11,2.853c-0.801,0.796-1.759,1.196-2.927,1.196H529.048z
				 M532.2,153.819c-1.45-0.046-2.481-0.45-3.085-1.251c-0.637-0.817-0.937-1.759-0.907-2.786v-10.711
				c-0.03-1.195,0.337-2.16,1.131-2.875c0.746-0.774,1.708-1.162,2.86-1.162h29.187c1.235-0.056,2.205,0.322,2.921,1.1
				c0.703,0.801,1.083,1.759,1.11,2.938v10.711c-0.027,1.099-0.407,2.053-1.11,2.848c-0.801,0.789-1.759,1.189-2.921,1.189H532.2z
				 M545.257,119.89h-15.111c-0.631-0.034-1.083,0.13-1.347,0.514c-0.3,0.293-0.458,0.71-0.458,1.285v4.663
				c0.052,0.704,0.203,1.251,0.458,1.629c0.219,0.338,0.671,0.496,1.347,0.496h15.111V119.89z M562.13,142.859v-2.745
				c0-0.479-0.164-0.908-0.5-1.286c-0.34-0.338-0.858-0.502-1.574-0.502H533.31c-0.637-0.039-1.083,0.112-1.34,0.502
				c-0.312,0.282-0.464,0.722-0.464,1.286v2.745H562.13z M531.505,146.141v2.226c0.046,0.716,0.191,1.263,0.464,1.63
				c0.212,0.338,0.676,0.529,1.34,0.529h26.746c0.625-0.056,1.147-0.248,1.504-0.591c0.34-0.356,0.525-0.892,0.57-1.568v-2.226
				H531.505z M532.645,121.705c-0.039-0.421,0.118-0.799,0.455-1.137c0.34-0.339,0.722-0.502,1.174-0.502
				c0.449,0,0.862,0.197,1.241,0.563c3,3.062,4.465,5.215,4.437,6.468c-0.125,0.438-0.358,0.782-0.74,1.048
				c-0.412,0.237-0.807,0.332-1.174,0.276c-0.449-0.102-0.849-0.407-1.189-0.886c-0.967-1.623-2.175-3.139-3.652-4.606
				C532.876,122.563,532.673,122.157,532.645,121.705z M555.715,128.476h7.719c0.631-0.027,1.149-0.208,1.51-0.562
				c0.337-0.379,0.525-0.886,0.57-1.562v-4.663c0-0.479-0.164-0.919-0.503-1.285c-0.337-0.338-0.855-0.514-1.577-0.514h-14.88v8.587
				h5.927c-0.227-0.095-0.431-0.23-0.582-0.4c-0.291-0.405-0.455-0.801-0.455-1.16c0.048-0.491,0.252-0.937,0.637-1.303
				c0.822-0.716,1.647-1.595,2.475-2.639c1.538-1.871,2.502-2.819,2.881-2.869c0.409-0.091,0.81-0.023,1.177,0.23
				c0.452,0.299,0.701,0.676,0.728,1.116c0.045,0.502-0.067,0.931-0.34,1.29c-0.403,0.458-1.08,1.269-2.029,2.425
				c-0.928,1.083-1.786,2.029-2.581,2.875C556.082,128.213,555.86,128.381,555.715,128.476z"/>
		</g>
		<g>
			<path fill="#231916" d="M189.128,172.685h-3.916c-0.949,0-1.568,0.601-1.568,1.522c0,0.913,0.619,1.514,1.568,1.514h2.854v0.676
				c0,2.029-1.365,5.232-4.992,5.232c-4.149,0-5.627-3.849-5.627-7.131c0-3.546,1.708-7.134,5.523-7.134
				c1.996,0,3.057,0.767,3.907,1.383c0.546,0.398,1.019,0.734,1.589,0.734c0.861,0,1.541-0.676,1.541-1.538
				c0-1.392-2.888-3.452-6.879-3.452c-6.236,0-9.023,5.023-9.023,10.006c0,4.81,2.715,9.997,8.677,9.997
				c5.538,0,8.468-3.275,8.468-9.466C191.251,173.392,190.617,172.685,189.128,172.685z"/>
			<path fill="#231916" d="M202.043,166.207c-0.4-1.135-1.107-1.714-2.075-1.714c-0.976,0-1.674,0.579-2.074,1.711l-5.842,15.578
				l-0.043,0.112c-0.152,0.43-0.303,0.87-0.303,1.195c0,0.822,0.655,1.407,1.541,1.407c0.737,0,1.262-0.388,1.553-1.153l1.11-3.097
				h8.11l1.116,3.097c0.291,0.764,0.807,1.153,1.541,1.153c0.898,0,1.553-0.585,1.553-1.407c0-0.303-0.139-0.703-0.285-1.125
				L202.043,166.207z M203.001,177.371h-6.072l3.039-8.529L203.001,177.371z"/>
			<path fill="#231916" d="M227.593,166.622c-0.34-1.844-1.553-2.129-2.245-2.129c-1.128,0-1.796,0.491-2.111,1.529l-3.634,12.442
				l-3.621-12.445c-0.316-1.034-0.983-1.526-2.111-1.526c-0.692,0-1.917,0.285-2.251,2.132l-2.566,15.12
				c-0.079,0.44-0.134,0.831-0.134,1.128c0,0.983,0.589,1.623,1.511,1.623c1.237,0,1.589-0.752,1.668-1.371l1.935-13.288l3.967,13.4
				c0.261,0.855,0.785,1.259,1.601,1.259c0.828,0,1.338-0.391,1.604-1.262l3.982-13.409l1.914,13.297
				c0.088,0.622,0.44,1.374,1.674,1.374c0.925,0,1.519-0.64,1.519-1.623c0-0.297-0.066-0.692-0.139-1.128L227.593,166.622z"/>
			<path fill="#231916" d="M241.324,166.207c-0.401-1.135-1.101-1.714-2.072-1.714c-0.977,0-1.674,0.579-2.075,1.711l-5.836,15.578
				l-0.048,0.112c-0.152,0.43-0.303,0.87-0.303,1.195c0,0.822,0.652,1.407,1.553,1.407c0.728,0,1.249-0.388,1.538-1.153l1.119-3.097
				h8.101l1.119,3.097c0.288,0.764,0.801,1.153,1.538,1.153c0.901,0,1.553-0.585,1.553-1.407c0-0.325-0.155-0.761-0.3-1.177
				L241.324,166.207z M242.282,177.371h-6.063l3.03-8.544L242.282,177.371z"/>
			<path fill="#231916" d="M262.835,164.493c-0.955,0-1.598,0.676-1.598,1.674v12.342l-8.784-12.602
				c-0.601-0.874-1.037-1.413-1.993-1.413c-0.683,0-1.489,0.321-1.489,1.814v16.515c0,0.998,0.643,1.674,1.598,1.674
				c0.949,0,1.592-0.676,1.592-1.674v-12.339l8.781,12.609c0.67,0.986,1.095,1.404,1.993,1.404c0.676,0,1.492-0.315,1.492-1.805
				v-16.524C264.427,165.169,263.784,164.493,262.835,164.493z"/>
			<path fill="#231916" d="M268.758,164.493c-0.965,0-1.602,0.676-1.602,1.674v16.655c0,0.998,0.637,1.674,1.602,1.674
				c0.946,0,1.586-0.676,1.586-1.674v-16.655C270.344,165.169,269.704,164.493,268.758,164.493z"/>
			<path fill="#231916" d="M282.134,166.207c-0.4-1.135-1.098-1.714-2.069-1.714c-0.971,0-1.662,0.579-2.063,1.711l-5.86,15.596
				l-0.061,0.167c-0.146,0.428-0.267,0.819-0.267,1.122c0,0.822,0.637,1.407,1.538,1.407c0.509,0,1.192-0.203,1.541-1.153
				l1.116-3.097h8.11l1.126,3.097c0.279,0.764,0.801,1.153,1.538,1.153c0.889,0,1.538-0.585,1.538-1.407
				c0-0.325-0.152-0.764-0.3-1.195L282.134,166.207z M283.102,177.371h-6.072l3.036-8.529L283.102,177.371z"/>
			<g>
				<path fill="#FF8300" d="M309.935,179.928c-0.473,0-0.94,0.282-1.468,0.582c-0.861,0.503-1.911,1.119-3.579,1.119
					c-3.661,0-5.326-3.703-5.326-7.131c0-3.546,1.686-7.134,5.46-7.134c1.662,0,2.463,0.652,3.094,1.168
					c0.437,0.358,0.849,0.689,1.408,0.689c0.782,0,1.383-0.658,1.383-1.544c0-1.262-2.354-3.185-5.884-3.185
					c-6.054,0-8.811,5.19-8.811,10.006c0,4.81,2.721,9.997,8.678,9.997c3.361,0,6.406-1.447,6.406-3.045
					C311.294,180.562,310.736,179.928,309.935,179.928z"/>
				<path fill="#FF8300" d="M326.966,164.493c-0.989,0-1.599,0.71-1.599,1.838v6.709h-9.051v-6.709c0-1.128-0.607-1.838-1.59-1.838
					s-1.601,0.71-1.601,1.838v16.342c0,1.128,0.619,1.823,1.601,1.823s1.59-0.694,1.59-1.823v-6.767h9.051v6.767
					c0,1.128,0.61,1.823,1.599,1.823c0.983,0,1.592-0.694,1.592-1.823v-16.342C328.559,165.202,327.949,164.493,326.966,164.493z"/>
				<path fill="#FF8300" d="M339.647,167.69c0.958,0,1.577-0.594,1.577-1.522c0-0.916-0.619-1.511-1.577-1.511h-6.685
					c-1.037,0-1.674,0.655-1.674,1.695v16.288c0,1.053,0.637,1.695,1.674,1.695h6.685c0.958,0,1.577-0.591,1.577-1.513
					c0-0.913-0.619-1.517-1.577-1.517h-5.168v-5.293h4.671c0.965,0,1.565-0.582,1.565-1.513c0-0.94-0.6-1.522-1.565-1.522h-4.671
					v-5.287H339.647z"/>
				<path fill="#FF8300" d="M351.913,167.69c0.958,0,1.577-0.594,1.577-1.522c0-0.916-0.619-1.511-1.577-1.511h-6.685
					c-1.031,0-1.674,0.655-1.674,1.695v16.288c0,1.053,0.643,1.695,1.674,1.695h6.685c0.958,0,1.577-0.591,1.577-1.513
					c0-0.913-0.619-1.517-1.577-1.517h-5.168v-5.293h4.671c0.956,0,1.565-0.601,1.565-1.513c0-0.922-0.609-1.522-1.565-1.522h-4.671
					v-5.287H351.913z"/>
				<path fill="#FF8300" d="M362.389,175.94h0.064c3.576-0.143,5.541-2.199,5.541-5.775c0-3.452-3.148-5.508-6.188-5.508h-4.313
					c-1.031,0-1.674,0.655-1.674,1.695v16.47c0,0.998,0.637,1.674,1.601,1.674c0.946,0,1.583-0.676,1.583-1.674v-6.045l6.442,7.046
					c0.261,0.288,0.682,0.673,1.383,0.673c0.831,0,1.486-0.582,1.486-1.331c0-0.516-0.158-0.913-0.558-1.347L362.389,175.94z
					 M361.753,173.355h-2.748v-5.824h2.687c1.808,0,3.118,1.168,3.118,2.784C364.81,172.5,363.948,173.355,361.753,173.355z"/>
				<path fill="#FF8300" d="M391.064,164.493c-0.949,0-1.595,0.676-1.595,1.674v11.192c0,2.633-1.729,4.271-4.531,4.271
					c-2.802,0-4.537-1.638-4.537-4.271v-11.192c0-0.998-0.643-1.674-1.602-1.674c-0.949,0-1.589,0.676-1.589,1.674v10.285
					c0,7,4.841,8.044,7.728,8.044c2.884,0,7.725-1.043,7.725-8.044v-10.285C392.663,165.169,392.023,164.493,391.064,164.493z"/>
				<path fill="#FF8300" d="M401.668,164.656h-4.598c-1.031,0-1.674,0.655-1.674,1.695v16.47c0,0.998,0.643,1.674,1.598,1.674
					c0.949,0,1.592-0.676,1.592-1.674v-5.517h3.167c3.615,0,6.454-2.766,6.454-6.297
					C408.207,167.262,405.52,164.656,401.668,164.656z M405.016,171.008c0,1.987-1.444,3.424-3.428,3.424h-3.003v-6.9h2.894
					C404.085,167.532,405.016,169.328,405.016,171.008z"/>
			</g>
			<path fill="#231916" d="M425.065,164.656h-6.606c-1.037,0-1.674,0.655-1.674,1.695v16.47c0,0.998,0.637,1.674,1.589,1.674
				c0.958,0,1.595-0.676,1.595-1.674v-6.809h4.459c0.955,0,1.574-0.601,1.574-1.513c0-0.922-0.619-1.522-1.574-1.522h-4.459v-5.287
				h5.095c0.953,0,1.565-0.594,1.565-1.522C426.63,165.251,426.017,164.656,425.065,164.656z"/>
			<path fill="#231916" d="M436.039,164.493c-5.702,0-8.687,5.041-8.687,10.006c0,4.971,2.984,9.997,8.687,9.997
				c5.693,0,8.675-5.026,8.675-9.997C444.713,169.534,441.732,164.493,436.039,164.493z M436.039,181.63
				c-3.931,0-5.338-3.685-5.338-7.131c0-3.455,1.407-7.134,5.338-7.134c3.931,0,5.326,3.679,5.326,7.134
				C441.365,177.945,439.97,181.63,436.039,181.63z"/>
			<path fill="#231916" d="M460.588,164.493c-0.949,0-1.583,0.676-1.583,1.674v11.192c0,2.633-1.747,4.271-4.54,4.271
				c-2.803,0-4.544-1.638-4.544-4.271v-11.192c0-0.998-0.634-1.674-1.599-1.674c-0.952,0-1.595,0.676-1.595,1.674v10.285
				c0,7,4.853,8.044,7.738,8.044c2.881,0,7.722-1.043,7.722-8.044v-10.285C462.187,165.169,461.553,164.493,460.588,164.493z"/>
			<path fill="#231916" d="M478.781,164.493c-0.956,0-1.599,0.676-1.599,1.674v12.336l-8.775-12.596
				c-0.679-0.995-1.104-1.413-1.999-1.413c-0.683,0-1.492,0.321-1.492,1.814v16.515c0,0.998,0.646,1.674,1.598,1.674
				c0.956,0,1.599-0.676,1.599-1.674v-12.329l8.778,12.599c0.676,0.986,1.101,1.404,1.996,1.404c0.683,0,1.492-0.315,1.492-1.805
				v-16.524C480.379,165.169,479.736,164.493,478.781,164.493z"/>
			<path fill="#231916" d="M489.484,164.656h-4.565c-1.04,0-1.674,0.655-1.674,1.695v16.288c0,1.053,0.634,1.695,1.674,1.695h4.886
				c5.138,0,8.471-3.904,8.471-9.946C498.277,169.549,495.557,164.656,489.484,164.656z M494.929,174.39
				c0,1.662-0.4,7.082-5.596,7.082h-2.906v-13.94h2.739C494.362,167.532,494.929,172.321,494.929,174.39z"/>
			<path fill="#231916" d="M509.354,166.207c-0.403-1.135-1.101-1.714-2.075-1.714c-0.971,0-1.671,0.579-2.072,1.711l-5.838,15.578
				l-0.037,0.112c-0.161,0.43-0.312,0.87-0.312,1.195c0,0.801,0.664,1.407,1.538,1.407c0.74,0,1.262-0.388,1.55-1.153l1.107-3.097
				h8.129l1.107,3.097c0.282,0.764,0.801,1.153,1.538,1.153c0.898,0,1.55-0.585,1.55-1.407c0-0.291-0.13-0.689-0.264-1.092
				L509.354,166.207z M510.313,177.371h-6.066l3.03-8.529L510.313,177.371z"/>
			<path fill="#231916" d="M526.449,164.656h-9.366c-0.946,0-1.565,0.595-1.565,1.511c0,0.928,0.619,1.522,1.565,1.522h3.084v15.132
				c0,0.998,0.643,1.674,1.599,1.674c0.95,0,1.592-0.676,1.592-1.674V167.69h3.091c0.949,0,1.565-0.594,1.565-1.522
				C528.014,165.251,527.398,164.656,526.449,164.656z"/>
			<path fill="#231916" d="M530.862,164.493c-0.955,0-1.598,0.676-1.598,1.674v16.655c0,0.998,0.643,1.674,1.598,1.674
				c0.952,0,1.592-0.676,1.592-1.674v-16.655C532.454,165.169,531.814,164.493,530.862,164.493z"/>
			<path fill="#231916" d="M543.155,164.493c-5.702,0-8.687,5.041-8.687,10.006c0,4.971,2.985,9.997,8.687,9.997
				c5.693,0,8.678-5.026,8.678-9.997C551.833,169.534,548.848,164.493,543.155,164.493z M543.155,181.63
				c-3.931,0-5.335-3.685-5.335-7.131c0-3.455,1.404-7.134,5.335-7.134c3.931,0,5.326,3.679,5.326,7.134
				C548.481,177.945,547.086,181.63,543.155,181.63z"/>
			<path fill="#231916" d="M567.711,164.493c-0.956,0-1.602,0.676-1.602,1.674v12.338l-8.781-12.599
				c-0.67-0.995-1.101-1.413-1.993-1.413c-0.676,0-1.492,0.321-1.492,1.814v16.515c0,0.998,0.643,1.674,1.601,1.674
				c0.958,0,1.592-0.676,1.592-1.674V170.48l8.781,12.612c0.676,0.986,1.104,1.404,1.993,1.404c0.682,0,1.492-0.315,1.492-1.805
				v-16.524C569.303,165.169,568.669,164.493,567.711,164.493z"/>
		</g>
	</g>
	<g>
		<g>
			<path fill="#231916" d="M151.742,20.274c-0.461-0.432-1.24-0.446-2.226-0.153c-1.777,0.005-4.38,1.853-6.557,3.752
				c-5.96,4.337-12.832,10.857-14.186,12.261c-3.218,3.336-6.357,7.337-9.168,11.421c-1.802,1.84-3.52,4.394-4.208,6.385
				c0,0,0.029,0.011,0.084,0.044c-2.383,3.992-4.321,7.776-5.526,10.775l-1.611,3.834c-0.248,0.59-0.49,1.175-0.731,1.747
				c-0.56,0.94-0.957,1.983-1.24,3.079c-1.186,2.991-2.243,6.057-2.877,9.222l-0.103,0.511c-0.452,1.131-0.823,2.281-0.823,3.444
				c0,0.044,0,0.075,0,0.128h0.006l-0.186,0.852c-0.898,3.84-1.906,8.131-2.148,10.293c-0.013,0.014-0.021,0.017-0.021,0.039
				l-0.164,0.319l0.148,0.077c-0.014,0.089-0.027,0.203-0.03,0.284h0.073c0,0.003-0.006,0.003-0.006,0.017
				c0,0.382,0.305,0.682,0.689,0.682c0.382,0,0.689-0.3,0.689-0.682c0-0.017-0.009-0.037-0.009-0.044
				c0.016-0.382,0.086-0.93,0.191-1.573c0.086-0.25,0.194-0.487,0.246-0.779l0.409-1.69l0.473-1.974
				c0.262-1.318,0.481-2.599,0.669-3.896c0.064-0.258,0.121-0.511,0.185-0.746l1.116-4.981c0.111-0.54,0.267-1.066,0.394-1.603
				c0.064,0.009,0.141,0.046,0.141,0.046c0.015-0.039,0.023-0.087,0.036-0.123l0.015-0.007c0.667-1.331,0.992-2.977,1.327-4.719
				c0.035-0.19,0.07-0.388,0.106-0.582c0.837-2.292,1.802-4.55,2.738-6.762l0.783-1.896c0.041,0.026,0.083,0.044,0.083,0.044
				c0.98-1.194,1.539-2.769,2.087-4.278l1.022-2.537l1.225-2.484l0.563-1.13c1.689-2.983,3.675-6.153,5.863-9.259
				c0.026,0.018,0.062,0.038,0.062,0.038c2.341-3.215,4.685-6.112,7.15-9.139c0.168-0.202,0.343-0.376,0.513-0.554
				c3.543-2.505,7.225-5.74,10.971-9.707c0.34-0.376,0.722-0.763,1.137-1.163c3.885-3.022,7.343-5.308,8.911-5.745
				c0.109,0.096,0.221,0.244,0.31,0.501c-0.825,4.372-4.149,9.568-6.91,13.844l-0.352,0.567c-1.762,1.938-3.494,3.967-4.771,6.43
				c-0.036,0.07-0.061,0.134-0.061,0.216c0,0.17,0.085,0.323,0.23,0.429c0.027,0.035,0.07,0.026,0.112,0.044
				c-3.206,4.936-6.4,9.337-10.04,13.793l0.058,0.068c-0.043,0.096-0.086,0.187-0.086,0.311c0,0.38,0.306,0.682,0.688,0.682
				c0.071,0,0.135-0.017,0.193-0.041l0.058,0.064c0.772-0.443,1.538-0.846,2.299-1.259c0.892-0.355,1.777-0.848,2.666-1.404
				c4.037-2.062,7.568-3.637,10.04-4.513c1.514-0.312,3.218-0.396,3.779,0.158c0.034,0.016,0.027,0.057,0.039,0.094
				c-0.157,1.374-1.774,3.961-4.477,7.228c-0.643,0.635-1.322,1.29-1.853,2.04c-0.003,0-0.012,0.014-0.012,0.018
				c-0.006,0.003-0.025,0.024-0.034,0.039c-0.039,0.045-0.039,0.106-0.052,0.17c-0.349,0.39-0.689,0.772-1.074,1.192l-0.889,0.854
				c-0.039,0.044-0.046,0.094-0.07,0.158c-0.043,0.052-0.088,0.098-0.13,0.142c-0.379,0.282-0.722,0.549-0.722,0.549
				c-1.969,1.45-4.004,2.959-5.511,4.9l-0.321,0.425c-0.197,0.261-0.388,0.496-0.573,0.726c-3.348,2.748-7.017,5.347-11.136,7.817
				c-1.592,0.779-3.034,1.617-4.19,2.47l0.062,0.098c-0.106,0.126-0.176,0.273-0.176,0.452c0,0.382,0.305,0.685,0.689,0.685
				c0.199,0,0.368-0.088,0.497-0.214c0.475-0.267,0.942-0.539,1.41-0.808c0.058-0.003,0.132,0.014,0.193-0.026l2.519-1.362
				l2.064-1.095c4.203-1.677,8.99-2.738,12.645-2.457c0.2,0.17,0.328,0.397,0.37,0.699c0.015,0.083,0.015,0.17,0.015,0.259
				c0,0.628-0.27,1.354-0.719,1.894c-0.07,0.094-0.112,0.202-0.112,0.308c0,0.132,0.055,0.259,0.148,0.368
				c-1.911,2.697-5.581,5.578-9.281,7.881c-0.185,0.124-0.387,0.226-0.569,0.353c-2.552,1.538-6.45,3.024-10.203,3.894l0.029,0.083
				c-0.291,0.071-0.519,0.328-0.519,0.649c0,0.384,0.312,0.692,0.688,0.692c0.116,0,0.212-0.034,0.305-0.08
				c0.071-0.014,0.148-0.041,0.212-0.058c0.021,0.061,0,0.128,0.044,0.185c0.155,0.215,0.426,0.321,0.675,0.196
				c0.766-0.425,1.752-0.707,2.695-0.975l1.973-0.622c1.051-0.421,1.937-1.022,2.78-1.639c0.778-0.379,1.503-0.763,2.141-1.145
				c0.978-0.598,2.281-1.432,3.652-2.427c2.448-1.435,5.235-3.525,6.548-6.175c1.168-1.659,1.832-3.386,1.532-5.027l-0.1-0.487
				l-0.461-0.088c-1.398-0.294-3.039-0.314-4.795-0.148c-0.312-0.021-0.603-0.039-0.825-0.114c-0.17-0.057-0.367-0.035-0.51,0.09
				c-0.133,0.103-0.255,0.17-0.391,0.23c-0.41,0.064-0.828,0.138-1.244,0.223c-0.125,0-0.237,0-0.373-0.003l-1.682,0.103
				c-0.246,0.045-0.467,0.152-0.704,0.238c0.243-0.167,0.475-0.341,0.704-0.512c0.735-0.488,1.356-0.89,1.356-0.89
				c0.548-0.387,0.984-0.769,1.382-1.149c2.766-2.155,5.323-4.374,7.631-6.747c2.141-2.181,5.005-5.282,7.149-8.186
				c1.216-1.033,2.529-2.888,2.675-4.509c0.243-0.62,0.379-1.192,0.379-1.686c0-0.18-0.009-0.327-0.039-0.466
				c-0.146-0.696-0.564-1.186-1.235-1.462c-0.992-0.406-3.191,0.152-5.793,1.145c-2.251,0.209-4.358,1.485-6.409,2.849
				c-1.504,0.73-2.945,1.474-4.201,2.135c-0.021-0.023-0.006-0.083-0.036-0.092c-0.015-0.014-0.021-0.014-0.036-0.023
				c0.336-0.437,0.661-0.872,0.989-1.309c2.584-2.965,5.268-6.204,6.803-9.642c0.974-1.501,1.956-3.054,2.951-4.686l1.902-2.988
				c0.228-0.378,0.467-0.746,0.713-1.118l2.69-3.1l0,0l0.025-0.033c0.088-0.089,0.127-0.214,0.127-0.341
				c0-0.085-0.067-0.155-0.121-0.235c1.453-2.422,3.066-5.37,3.352-8.118c0.258-0.914,0.476-1.821,0.546-2.677l0.03-0.344
				L151.742,20.274z"/>
			<path fill="#231916" d="M92.583,60.358L92.583,60.358l-0.007,0.011C92.576,60.369,92.576,60.358,92.583,60.358z"/>
			<path fill="#231916" d="M97.905,55.652l-0.325-0.348l-0.441,0.155c-1.412,0.49-2.909,1.465-4.363,2.662
				c-0.405,0.279-0.776,0.617-1.119,0.975c-0.323,0.297-0.649,0.598-0.954,0.919l0.617-1.257c0.71-1.28,1.491-2.71,1.491-4.18
				c0-0.125-0.015-0.247-0.043-0.375c0.048-0.155,0.1-0.317,0.155-0.471c0.775-1.742,1.236-3.79,1.626-5.667l0.312-1.503
				l0.326-1.385c0.476-1.965,0.964-4.001,0.964-6.068c0-0.234-0.014-0.449-0.024-0.676c-0.009-0.203-0.144-0.385-0.337-0.469
				c-0.029-0.011-0.05,0.011-0.085,0c-0.008-0.241-0.008-0.493-0.043-0.713c-0.106-0.99-0.355-1.768-0.781-2.228
				c-0.415-0.449-0.944-0.635-1.568-0.534c-0.977,0.153-2.442,1.727-3.992,3.782l-0.476,0.587c-1.098,1.236-1.949,2.68-2.728,4.119
				c-0.369,0.578-0.719,1.134-1.054,1.685c0.28-1.291,0.587-2.556,0.896-3.793c0.497-2.06,1.001-4.172,1.394-6.416
				c0.584-2.111,1.18-4.48,1.18-6.58c0-0.493-0.03-0.96-0.105-1.404c-0.02-0.128-0.147-0.159-0.232-0.241
				c0.115-1.4,0.256-3.062,0.256-4.659c0-1.853-0.185-3.571-0.789-4.637c-0.118-0.216-0.375-0.284-0.61-0.216l-0.042-0.171
				l-0.434-0.107c-0.785-0.168-1.821,0.682-2.962,2.114l-0.012-0.047c-1.133,0.23-2.242,2.363-3.47,4.917l-0.528,1.065
				c-1.018,1.899-1.952,4.026-2.756,6.238c-1.119,2.529-2.016,4.858-2.504,6.444c-1.19,3.267-1.445,6.429-1.462,9.65
				c-0.417,6.493,0.127,12.753,0.824,17.436c0.746,5.042,4.087,11.551,6.949,15.96c0.02,0.029,0.047,0.073,0.064,0.111
				c0.185,0.488,0.394,0.954,0.682,1.235c0.052,0.045,0.083,0.103,0.138,0.152c0.385,0.714,0.812,1.553,1.272,2.51
				c0.014,0.064,0.027,0.109,0.044,0.164l0.71,2.05l0.669,1.089c0.845,2.117,1.679,4.553,2.396,7.239
				c0.052,0.271,0.115,0.552,0.197,0.805c0.203,0.812,0.399,1.64,0.575,2.49c0,0.021-0.006,0.033-0.006,0.043
				c0,0.38,0.308,0.681,0.691,0.681c0.379,0,0.681-0.3,0.681-0.681c0-0.082-0.014-0.147-0.043-0.214l0.1-0.017
				c-0.44-2.153-0.987-4.176-1.568-6.078l-0.27-1.573c-0.191-0.695-0.534-1.313-0.916-1.875c-1.571-4.226-3.242-7.41-4.214-8.91
				c-0.212-0.323-0.423-0.67-0.639-1.008l-0.071-0.209c-0.896-1.961-1.908-4.017-3.239-5.878l0.021-0.016
				c-0.114-0.193-0.214-0.423-0.326-0.622c-0.839-1.856-1.55-3.74-2.017-5.498c-0.085-0.434-0.182-0.872-0.218-1.275
				c-0.023-0.256-0.08-0.845-0.08-0.845s-0.071,0-0.089,0c-0.095-0.476-0.191-0.987-0.279-1.495
				c-0.082-0.567-0.153-1.148-0.221-1.744c-0.24-2.084-0.416-4.357-0.5-6.743c0.041-0.598,0.092-1.216,0.183-1.797
				c0,0-0.111-0.032-0.226-0.061c-0.044-3.932,0.218-8.103,0.998-12.19c0.071,0.009,0.13,0.014,0.13,0.014s0.02-0.098,0.02-0.126
				c0.185-2.135,0.986-3.879,1.838-5.722c0.505-1.065,1.016-2.173,1.413-3.391l0.006-0.003c0-0.015,0.008-0.032,0.011-0.036
				c0,0-0.102-0.044-0.231-0.085c2.548-5.543,5.957-11.344,7.522-12.603c0.2,0.915,0.384,1.826,0.487,2.81
				c0.403,3.505,0.318,7.301,0.041,10.114c-0.239,2.446-0.702,4.736-1.212,6.941l-0.391,1.286c-0.672,2.096-1.363,4.267-1.72,6.442
				c-0.003,0.034-0.006,0.064-0.006,0.08c0,0.196,0.115,0.337,0.274,0.426c-0.123,0.663-0.265,1.301-0.361,1.972
				c-0.018,0.064-0.035,0.115-0.035,0.193c0,0.384,0.305,0.685,0.685,0.685c0.226,0,0.412-0.125,0.54-0.282l0.108,0.029
				c4.176-7.3,7.687-12.014,8.988-12.78h0.006c0.262-0.034,0.469,0.047,0.639,0.262c0.114,0.132,0.179,0.339,0.256,0.538
				c0.035,0.158,0.077,0.308,0.098,0.507c0.043,0.417,0.064,0.939,0.043,1.51c-0.029,0.237-0.064,0.464-0.138,0.64h0.003
				c-0.003,0.023-0.006,0.023-0.014,0.041c-0.021,0.064-0.03,0.111-0.03,0.153c0,0.127,0.052,0.234,0.124,0.339
				c-0.164,2.352-0.679,5.51-1.532,9.155c-1.203,5.203-3.27,10.446-6.161,15.939c-0.776,1.194-1.442,2.386-1.885,3.488l0.068,0.041
				c-0.009,0.006-0.015,0.03-0.015,0.047c0,0.381,0.307,0.682,0.681,0.682c0.186,0,0.341-0.065,0.466-0.177l0.086,0.043
				c0.077-0.138,0.147-0.276,0.221-0.419c0.014-0.005,0.023,0,0.033-0.007c0,0,0.127-0.129,0.243-0.252c0,0.003,0,0.009,0,0.026
				c0-0.023,0.003-0.026,0.012-0.029c0.173-0.18,0.35-0.373,0.35-0.373l0.102-0.148c0.047-0.088,0.08-0.196,0.08-0.299
				c0-0.046-0.061-0.07-0.071-0.115c0.115-0.228,0.223-0.44,0.337-0.683c0.164,0.029,0.343-0.032,0.469-0.141
				c1.022-0.937,1.483-2.155,1.842-3.393c0.821-1.022,1.721-2,2.642-2.897c0.114,0.006,0.214-0.014,0.319-0.094
				c0.013-0.011,0.016-0.03,0.044-0.044l0.476-0.493c0.216-0.215,0.472-0.475,0.743-0.744c0.816-0.66,1.62-1.209,2.413-1.638
				c0.143-0.021,0.285-0.044,0.42-0.017c0.432,0.061,0.758,0.733,0.901,1.421c0.05,1.738-0.517,3.984-1.385,6.259l-0.303,0.555
				l-0.476,0.998l-2.142,4.321c-1.108,1.686-2.627,3.506-4.224,5.068c-0.174,0.125-0.291,0.322-0.291,0.554
				c0,0.379,0.302,0.681,0.681,0.681c0.182,0,0.34-0.064,0.461-0.177l0.055,0.053c0.391-0.384,0.776-0.789,1.158-1.2l0.714-0.662
				c1.083-0.969,2.202-1.976,2.84-3.321c0.03-0.065,0.044-0.127,0.044-0.191c0-0.096-0.035-0.182-0.077-0.266
				c0.353-0.555,0.685-1.096,0.949-1.607c0.766-1.485,1.942-3.951,2.702-6.483l0.3-0.596l0.096-0.225
				c0.25-0.584,0.457-1.119,0.457-1.545v-0.03L98.9,60.444C99.132,58.547,98.927,56.8,97.905,55.652z"/>
		</g>
		<path fill="#231916" d="M76.327,155.809c-0.294-0.188-0.66-0.124-0.835,0.17l-0.484,0.789l-0.353,0.578l-0.181,0.252
			c-0.412-0.212-0.934-0.167-1.289,0.184c-0.085,0.091-0.143,0.135-0.212,0.198l0.303-0.496l0.752-1.277
			c0.17-0.293,0.052-0.638-0.238-0.82c-0.299-0.168-0.69-0.041-0.866,0.253l-0.696,1.192l-0.517,0.852l-0.549,1.107l-0.335,0.694
			l-1.413,2l-1.301,1.753l-0.598,1.065l-1.253,2.002c-0.026,0.041-0.011,0.091-0.026,0.149l-0.437,0.594l-0.881,1.236l-0.98,1.385
			c-0.34,0.546-0.672,1.045-1.077,1.442c0.029-0.127,0.071-0.252,0.148-0.372c0,0-0.179,0.284-0.399,0.61
			c-0.212,0.17-0.446,0.311-0.714,0.402l-0.144,0.038c-0.148,0.006-0.284,0.05-0.412,0.114l-2.141,0.569
			c-0.646,0.114-1.016-0.038-1.752-0.334c-0.035-0.004-1.735-0.6-1.735-0.6l-2.624-1.015c-0.887-0.437-1.882-0.854-3.007-1.26
			c-0.179-0.235-0.432-0.411-0.731-0.449c-0.15-0.018-0.3,0.003-0.443,0.046c-0.362-0.106-0.716-0.23-1.103-0.344l-0.811-0.311
			l-1.072-0.39c-1.731-0.467-3.669-0.229-4.932,0.619c-0.785,0.509-1.263,1.269-1.359,2.106c-0.115,1.084,0.481,2.131,1.68,2.939
			c0.135,0.088,2.079,1.489,2.079,1.489l1.453,0.869l1.03,0.582l2.144,1.193l0.921,0.463l0.887,0.387l0.462,0.232
			c0.025,0.021,0.026,0.043,0.049,0.064c1.462,1.153,2.936,1.515,4.384,1.404l2.014,0.1c1.231-0.039,2.374-0.722,3.387-1.313
			l0.484-0.294c0.005,0,1.645-1.028,1.645-1.028l1.134-1.04l2.434-3.25l0.235-0.349l0.673-1.36l0.462-0.983l0.657-1.083l2.401-3.828
			c1.115-0.748,1.967-2.213,2.639-3.453l0.757-1.319c0.026-0.043,0.009-0.103,0.033-0.148l2.015-2.789l0.381-0.634l0.426-0.707
			C76.684,156.405,76.612,155.985,76.327,155.809z M40.862,170.667c0.038-0.293,0.167-0.526,0.315-0.719
			c-0.044,0.553-0.02,1.253,0.162,1.912C41.034,171.519,40.814,171.12,40.862,170.667z M45.399,174.734l-1.24-0.731l-0.258-0.185
			c0.305-0.043,0.576-0.152,0.83-0.319c0.05,0.089,0.108,0.17,0.165,0.276c0.225,0.355,0.46,0.708,0.696,1.067L45.399,174.734z
			 M45.583,169.03l-0.744,0.978c-0.42-0.434-0.867-0.843-1.404-1.154c0.696-0.083,1.447-0.038,2.163,0.156h0.006
			C45.592,169.024,45.59,169.024,45.583,169.03z M47.592,170.412c-0.047-0.24-0.117-0.49-0.208-0.737l0.071,0.03
			c0.149,0.044,0.279,0.088,0.42,0.132C47.76,170.008,47.691,170.221,47.592,170.412z M49.513,176.983l-0.776-0.397
			c0.13-0.191,0.23-0.405,0.23-0.637c0-0.044,0-0.105-0.013-0.15c-0.05-0.405-0.08-0.831-0.08-1.281c0-0.633,0.077-1.236,0.2-1.827
			c0.199,0.896,0.329,1.833,0.44,2.768l0.218,1.62L49.513,176.983z M51.452,173.41c-0.023-0.146-0.059-0.294-0.087-0.44
			c0.085,0.043,0.185,0.097,0.27,0.138C51.573,173.207,51.514,173.312,51.452,173.41z M53.033,177.751
			c0.05-0.037,0.094-0.058,0.141-0.087c0.017,0.044,0.035,0.087,0.058,0.118C53.167,177.756,53.098,177.779,53.033,177.751z
			 M57.014,176.968c-0.012,0.044-0.012,0.086-0.012,0.129c-0.657,0.361-1.309,0.611-1.959,0.728l1.063-0.857
			c0.318-0.284,0.611-0.538,0.91-0.76c0.004,0.08,0.048,0.141,0.048,0.221C57.064,176.607,57.042,176.798,57.014,176.968z
			 M57.512,173.566c-0.045,0.014-0.079,0.039-0.123,0.043c-0.452-0.173-0.954-0.416-1.474-0.685l1.048,0.361
			c0.271,0.107,0.526,0.198,0.773,0.279C57.66,173.563,57.587,173.548,57.512,173.566z M59.418,175.366
			c-0.077,0.071-0.161,0.136-0.241,0.212c-0.077-0.508-0.22-0.992-0.446-1.435c-0.108-0.198-0.267-0.35-0.455-0.452
			c0.341,0.055,0.696,0.062,1.128,0l0.71-0.193C59.791,174.092,59.511,174.76,59.418,175.366z M62.489,175.75l-0.849,0.772
			c0.015-0.044,0.046-0.064,0.059-0.106c0.018-0.044,0.014-0.099,0.024-0.144c0.512-0.481,0.989-0.962,1.438-1.431L62.489,175.75z
			 M65.02,172.304l-0.23,0.366l-0.125,0.147c0.006-0.147-0.013-0.32-0.082-0.475l0.3-0.44c-0.096,0.143-0.232,0.238-0.376,0.321
			c-0.05-0.087-0.1-0.173-0.184-0.25c-0.123-0.111-0.259-0.182-0.411-0.227c0.127-0.141,0.273-0.266,0.387-0.417
			c0.158,0.147,0.349,0.258,0.584,0.297c0.17,0.024,0.339-0.003,0.503-0.064L65.02,172.304z M69.154,163.912l0.021-0.035
			l1.192-1.614C69.987,162.919,69.53,163.601,69.154,163.912z"/>
		<path d="M136.734,168.684c-0.015-0.077-0.042-0.141-0.073-0.208l0.009-0.984l-0.009-2.426l-0.728-3.666l-0.248-0.966
			c-1.047-4.112-3.252-4.626-4.926-4.344c-2.619,0.458-4.712,2.107-5.726,3.057l-0.262,0.199c-0.752,0.443-1.427,0.961-2.037,1.51
			c-0.625,0.447-1.277,0.798-1.965,1.099c-0.208-0.098-0.426-0.144-0.66-0.103c-0.306,0.046-0.59,0.241-0.744,0.526
			c-0.044,0.071-0.115,0.135-0.185,0.212c-0.062,0.03-0.144,0.05-0.208,0.085l-0.644,0.255c-0.112-0.034-0.232-0.036-0.39-0.03
			c-0.262,0.03-0.467,0.209-0.617,0.443l-0.596,0.237l-0.696,0.335l-1.858,0.769c-1.413,0.367-2.852,0.42-4.075,0.42
			c-0.176,0-0.334-0.014-0.503-0.029c-0.02-0.011-0.048-0.027-0.091-0.045c-0.175-0.039-0.344-0.023-0.511,0.021
			c-1.112-0.114-1.962-0.416-2.617-0.965l-0.067-0.294c-0.076-0.308-0.353-0.532-0.64-0.69c-0.045-0.035-0.126-0.032-0.18-0.042
			c-0.156-0.243-0.291-0.502-0.42-0.781c-1.018-2.284-0.986-4.926-0.957-7.472l0.015-1.312c0.006-0.347-0.27-0.607-0.619-0.611
			c-0.339,0-0.616,0.264-0.616,0.611v0.014c-0.202-0.191-0.461-0.32-0.754-0.32h-0.399c-0.51,0-0.925,0.367-1.05,0.834
			c-0.07-0.024-0.13-0.045-0.217-0.032c-0.337,0.044-0.555,0.432-0.511,0.775l0.261,2.02l0.055,0.729l0.32,1.421l0.217,0.805
			c0.451,2.154,0.975,3.773,1.658,5.196c0.035,0.08,0.058,0.167,0.091,0.236c0.009,0.003,0.03,0.015,0.03,0.023
			c0.033,0.066,0.056,0.135,0.091,0.205c1.065,2.052,2.314,3.35,3.84,3.949c0.388,0.152,0.89,0.323,1.433,0.485
			c0.22,0.206,0.481,0.338,0.766,0.335c0.127-0.012,0.241-0.044,0.378-0.057c1.154,0.215,2.411,0.284,3.511-0.087
			c1.796-0.622,3.585-1.488,5.094-2.273l2.179-1.274l2.243-1.287c1.418-0.698,2.707-1.309,4.116-1.606l0.34-0.071
			c0.751-0.168,1.879-0.423,2.363-0.07c0.061,0.044,0.256,0.179,0.305,0.685l0.734,4.621c0.279,1.28,0.216,2.583,0.171,3.973v0.299
			c-0.393,1.714-0.366,3.45,0.168,5.158c0.047,0.167,0.153,0.294,0.282,0.408c0.071,0.297,0.171,0.607,0.29,0.908l0.194,0.511
			c0.343,0.917,0.773,2.043,1.389,2.604c0.43,0.414,0.858,0.419,1.128,0.359c0.561-0.114,1.022-0.635,1.429-1.559
			c0-0.003,0.613-2.466,0.613-2.466l0.321-1.551l0.121-0.414c0.303-1.054,0.622-2.128,0.631-3.291l-0.049-3.382
			C136.752,169.776,136.792,169.235,136.734,168.684z M102.88,156.153c-0.036-0.257-0.068-0.493-0.102-0.752l-0.02-0.217
			c0.033-0.033,0.085-0.053,0.121-0.083C102.88,155.447,102.88,155.809,102.88,156.153z M104.185,163.275
			c0-0.014-0.008-0.039-0.008-0.055c0,0.015,0.015,0.041,0.029,0.044C104.192,163.275,104.192,163.275,104.185,163.275z
			 M104.227,165.601c0.065-0.026,0.135-0.054,0.22-0.082c0.058,0.232,0.114,0.466,0.185,0.694
			C104.497,166.028,104.356,165.815,104.227,165.601z M108.095,166.708c-0.09-0.021-0.184-0.039-0.269-0.024
			c0,0-0.716,0.094-0.719,0.109c-0.12-0.337-0.218-0.676-0.325-1.022c0.44,0.19,0.892,0.312,1.35,0.398
			C108.109,166.346,108.095,166.52,108.095,166.708z M112.212,168.854c-0.152,0.044-0.293,0.071-0.441,0.112
			c0.199-0.171,0.37-0.343,0.532-0.534c0.135,0.107,0.285,0.167,0.44,0.205C112.565,168.71,112.389,168.795,112.212,168.854z
			 M112.268,166.85c-0.015-0.014-0.023-0.033-0.043-0.041c-0.468-0.384-1.163-0.312-1.55,0.168
			c-0.061,0.071-0.155,0.129-0.232,0.199c-0.006-0.023-0.006-0.036-0.014-0.055c-0.143-0.197-0.179-0.478-0.114-0.754
			c0-0.021,0-0.024,0-0.038c0.937,0,1.987-0.044,3.065-0.215L112.268,166.85z M114.977,167.71c0.129-0.087,0.262-0.171,0.399-0.278
			c0.035,0.018,0.079,0.015,0.12,0.029C115.319,167.546,115.161,167.629,114.977,167.71z M118.086,166.114
			c0.071-0.084,0.156-0.15,0.227-0.237c0.044,0.005,0.077,0.023,0.121,0.026h0.006L118.086,166.114z M119.547,165.262l0.382-0.364
			c0.156-0.126,0.346-0.276,0.517-0.446l0.011,0.003c0.073,0.061,0.147,0.098,0.225,0.143L119.547,165.262z M123.211,163.322
			l0.598-0.487c0.005-0.016,0.024-0.023,0.03-0.03c0.055,0.071,0.102,0.136,0.173,0.2
			C123.748,163.108,123.471,163.196,123.211,163.322z M126.31,162.306l-0.262,0.059c0.369-0.323,0.866-0.639,1.412-0.934
			c-0.007,0.224,0.036,0.449,0.164,0.655C127.162,162.133,126.702,162.216,126.31,162.306z M128.728,158.466
			c-0.588,0.212-1.184,0.455-1.77,0.749c0.672-0.496,1.363-0.951,2.076-1.262C128.914,158.123,128.833,158.296,128.728,158.466z
			 M130.965,157.318c0.558-0.102,1.231-0.091,1.868,0.385c-0.507-0.02-1.053,0.026-1.599,0.112
			c-0.061-0.176-0.157-0.346-0.312-0.494C130.944,157.321,130.956,157.318,130.965,157.318z M131.178,168.497l-0.403-2.597
			c0.425,1.176,0.57,2.257,0.461,2.938C131.217,168.724,131.205,168.604,131.178,168.497z M131.05,160.641l-0.631,0.643
			c-0.159-0.138-0.327-0.279-0.499-0.394c0.071-0.209,0.179-0.398,0.273-0.596c0.384-0.12,0.751-0.214,1.09-0.264
			c0.136-0.027,0.23-0.033,0.34-0.047c0.009,0.016,0.021,0.041,0.046,0.047C131.454,160.251,131.235,160.469,131.05,160.641z
			 M132.027,163.348c0.024-0.003,0.073-0.02,0.085-0.023c0.061,0.379,0.279,0.722,0.655,0.874c0.197,0.088,0.412,0.085,0.619,0.041
			c0.034,0.869-0.009,1.773-0.094,2.681c-0.218-1.233-0.688-2.509-1.255-3.555C132.036,163.366,132.027,163.359,132.027,163.348z
			 M132.279,176.671c-0.094-0.49-0.221-0.975-0.221-1.448c0-1.145,0.27-2.284,0.822-3.447c0.149,0.326,0.455,0.581,0.853,0.639
			c0.036,0.003,0.064-0.014,0.094-0.014c-0.024,0.084-0.052,0.162-0.073,0.249c-0.455,1.26-0.934,2.634-0.934,4.022
			c0,0.027,0,0.061,0,0.089C132.646,176.715,132.476,176.674,132.279,176.671z M133.889,180.931
			c-0.306,0.74-0.543,0.828-0.546,0.828c-0.221-0.212-0.428-0.594-0.625-0.999c0.355-0.124,0.652-0.406,0.752-0.766l0.197-0.682
			c0-0.029,0.006-0.064,0.018-0.086c0.173,0.1,0.385,0.15,0.585,0.147L133.889,180.931z M135.436,167.731
			c-0.006,0.003-0.015,0.003-0.021,0.003c0.006-0.085,0.015-0.17,0.027-0.256L135.436,167.731z"/>
		<g>
			<path fill="#FF8300" d="M153.883,112.298c-0.594-1.938-1.692-3.638-3.218-4.839c-1.483-1.165-5.065-3.365-6.815-3.885
				c-1.019-0.302-2.075-0.384-3.136-0.372c-1.632-0.523-3.588-0.972-5.918-1.333c-3.015-0.493-5.825-0.297-8.536-0.126l-2.207,0.126
				l-5.91,0.4l-0.362,0.038c-0.362-0.121-0.731-0.171-1.093-0.171c-0.332,0.003-0.631,0.117-0.887,0.299l-3.781,0.244l-0.766,0.061
				c-0.578-0.15-1.172-0.273-1.797-0.334c-0.532-0.046-1.042,0.198-1.375,0.598l-2.416,0.205c-2.011,0.205-4.057,0.406-6.056,0.507
				c-0.3-0.097-0.587-0.208-0.939-0.273c-0.972-0.199-1.905-0.191-2.809-0.084c-0.164-0.064-0.331-0.115-0.511-0.124
				c-1.689-0.068-3.2,0.224-4.675,0.507c-1.009,0.188-1.96,0.353-2.927,0.403c-0.168-0.05-0.331-0.091-0.487-0.176
				c-0.622-0.33-1.321-0.173-1.814,0.261c-0.742,0.023-1.48,0.023-2.222,0c-0.074-0.007-0.155-0.033-0.215-0.047
				c-0.426-0.171-0.863-0.14-1.253,0.03c-2.093-0.068-4.137-0.198-6.06-0.417l-0.692-0.083l-2.528-0.205
				c-0.544,0-1.104-0.008-1.662-0.021c-0.689-0.152-1.383-0.284-2.044-0.409l-2.995-0.593c-1.497-0.3-3.143-0.596-4.862-0.726
				l-0.558-0.17c-2.294-0.767-4.663-1.571-7.425-1.571h-0.864c-1.263,0-2.602,0-3.98,0.047c-0.268-0.096-0.567-0.155-0.875-0.096
				l-0.444,0.082c-0.265,0.047-0.519,0.094-0.775,0.143c-0.914,0.079-1.824,0.17-2.724,0.334c-0.491,0.085-0.957,0.206-1.398,0.323
				c-3.688-0.029-9.609,4.275-10.893,5.748c-2.994,3.402-3.368,7.681-3.698,11.471c-0.133,1.573-0.265,3.089-0.561,4.505
				c-0.155,0.731,0.238,1.462,0.902,1.791c0.28,2.85,1.065,5.71,3.165,8.383c0.127,0.161,2.029,2.545,4.157,4.301
				c0.058,0.262,0.144,0.517,0.329,0.731c3.03,3.6,6.994,6.113,10.962,8.294c1.299,0.924,2.569,1.668,3.782,2.181l1.165,0.722
				c2.895,1.894,6.13,3.984,9.102,4.41c0.781,0.3,1.626,0.482,2.499,0.607c5.244,2.435,9.621,3.307,15.282,3.03l2.699-0.007
				c2.378,0.582,4.927,0.561,7.157-0.056c2.289-0.127,4.598-0.508,6.934-1.391c2.015-0.394,4.193-1.06,6.074-2.001
				c1.078-0.114,2.222-0.396,3.364-0.766c1.404-0.214,2.76-0.778,3.958-1.291l2.101-0.79l1.817-0.49
				c4.301-1.189,9.17-2.507,13.047-4.976l2.599-1.604c2.881-1.749,5.811-3.581,8.323-5.918c0.052-0.041,0.106-0.058,0.17-0.089
				c1.595-0.993,2.939-2.228,4.222-3.439c0.983-0.896,1.893-1.747,2.906-2.475c0.983-0.72,1.874-1.401,2.821-2.204
				c0.37-0.024,0.74-0.152,1.025-0.432c0.655-0.637,1.189-1.338,1.635-2.085c0.358-0.376,0.728-0.767,1.122-1.197
				c1.101-1.208,1.774-2.426,2.314-3.621c1.131-1.526,1.844-3.443,2.008-5.529c0.476-0.294,0.801-0.784,0.785-1.378
				C155.127,114.427,154.62,113.364,153.883,112.298z M35.237,124.759c-0.112,0.038-0.227,0.053-0.332,0.125
				c-0.226,0.134-0.45,0.33-0.64,0.576c-0.062-0.698-0.087-1.404-0.1-2.147c0.402-0.763,0.822-1.512,1.25-2.256
				c0.062,0.123,0.124,0.23,0.194,0.352C35.443,122.533,35.319,123.664,35.237,124.759z M85.716,114.556
				c1.811-2.325,3.52-4.53,4.662-6.602c0.041-0.07,0.035-0.147,0.054-0.212c0.329-0.03,0.645-0.066,0.968-0.124l-1.882,2.398
				l-4.465,5.578c-1.35,1.586-2.536,3.6-3.685,5.535c-0.663,1.118-1.345,2.242-2.05,3.303
				C80.627,121.111,83.266,117.686,85.716,114.556z M88.076,123.282c-0.282,1.105-0.581,2.191-0.828,3.32
				c-0.033-0.127-0.071-0.27-0.107-0.405C87.198,125.339,87.61,124.28,88.076,123.282z M65.266,107.759
				c1.5,0.296,3.101,0.423,4.742,0.453c0.021,0,0.035,0.012,0.061,0.015c-0.849,0.282-1.715,0.599-2.596,0.966
				c-0.128-0.408-0.403-0.752-0.817-0.981c-0.548-0.302-1.226-0.197-1.736,0.147C65.069,108.19,65.195,107.979,65.266,107.759z
				 M64.28,108.807c0.211-0.082,0.372-0.211,0.525-0.355c-0.141,0.121-0.282,0.247-0.382,0.4l0.103-0.159
				c-0.226,0.212-0.826,0.411-1.53,0.582L64.28,108.807z M62.166,114.749c0.221-0.152,0.434-0.318,0.666-0.479
				c0.13,0.089,0.278,0.175,0.443,0.22c1.304,0.428,2.686,0.425,4.076,0.252c-0.041,0.03-0.077,0.044-0.118,0.071
				c-0.754,0.479-1.472,1.06-2.179,1.714c-0.062-0.552-0.389-1.063-0.93-1.318c-0.796-0.377-1.742-0.054-2.151,0.725
				c-0.036,0.068-0.052,0.132-0.077,0.209c0.002-0.03,0-0.041,0.006-0.074c-0.007,0.041-0.035,0.077-0.048,0.118
				C61.942,115.665,62.045,115.193,62.166,114.749z M61.129,136.455c0.162,0.042,0.327,0.071,0.497,0.086
				c0.489,0.041,0.966-0.176,1.312-0.529c0.156-0.167,0.271-0.369,0.35-0.581c0.12,1.052,0.27,2.113,0.471,3.148
				c-0.517-0.464-1.076-0.907-1.723-1.276c-0.043-0.036-0.07-0.074-0.108-0.086c0.012,0.003,0.017,0.012,0.03,0.032
				c-0.065-0.042-0.128-0.109-0.207-0.148c-0.297-0.138-0.621-0.175-0.923-0.13C60.957,136.822,61.06,136.651,61.129,136.455z
				 M60.278,105.003l0.049,0.029c-0.062-0.014-0.126-0.038-0.184-0.041C60.185,104.994,60.235,104.999,60.278,105.003z
				 M54.373,104.564c0.065-0.012,0.114-0.044,0.164-0.076l0.334,0.079c0.073,0.026,0.143,0,0.214,0.003
				c0.015,0.007,0.024,0.026,0.041,0.036c-0.281,0-0.554-0.032-0.828-0.014C54.323,104.577,54.347,104.57,54.373,104.564z
				 M47.563,117.511c0.112-0.061,0.227-0.118,0.338-0.173c-0.338,0.285-0.67,0.584-1.001,0.881c-0.018-0.074-0.07-0.144-0.098-0.212
				L47.563,117.511z M43.306,106.819c0.174-0.082,0.367-0.165,0.622-0.255c-0.268,0.241-0.531,0.498-0.795,0.752
				C43.22,107.16,43.27,106.993,43.306,106.819z M35.47,121.599c-0.076,0.277-0.141,0.534-0.218,0.79
				c0.049-0.494,0.111-1.003,0.18-1.492l0,0c0.166-0.152,0.285-0.335,0.372-0.531C35.689,120.783,35.576,121.196,35.47,121.599z
				 M37.997,128.54c-0.197-0.426-0.555-0.723-0.971-0.869c0.645-1.721,1.156-3.474,1.621-5.218c0.103-0.364,0.209-0.73,0.314-1.106
				c-0.014,0.379-0.044,0.746-0.044,1.128c0,1.679,0.108,3.377,0.306,5.064c-0.241,0.285-0.409,0.625-0.409,1.001
				c0,0.238,0.048,0.469,0.153,0.702c0.216,0.455,0.49,0.912,0.74,1.377c0.064,0.303,0.156,0.61,0.235,0.925
				C39.183,130.647,38.494,129.668,37.997,128.54z M41.629,109.194c-0.199,0.085-0.382,0.194-0.535,0.358
				c-2.989,3.154-4.233,6.979-5.276,10.754c0.17-0.429,0.138-0.919-0.076-1.341c0.611-3.282,1.623-6.474,2.992-8.767
				c0.683-0.752,1.376-1.518,2.116-2.31c0.462,0.302,1.03,0.343,1.526,0.138c-0.114,0.121-0.234,0.205-0.341,0.325
				C41.814,108.593,41.693,108.892,41.629,109.194z M43.121,129.118c-0.135-0.155-0.256-0.322-0.385-0.467
				c-0.185-1.107-0.317-2.236-0.403-3.355c0.311-0.098,0.596-0.253,0.892-0.391C43.155,126.323,43.114,127.73,43.121,129.118z
				 M42.944,114.958c0.249-1.316,0.537-2.597,0.914-3.764c0.021-0.068,0.021-0.132,0.03-0.203l2.552-1.09
				C45.208,111.575,44.055,113.263,42.944,114.958z M46.406,128.86c0-2.169,0.12-4.298,0.247-6.115
				c0.631-0.507,1.248-1.022,1.853-1.55c-0.407,2.363-0.42,4.835-0.426,6.918l-0.007,1.148l0.044,2.197c0,0.061,0,0.145,0.006,0.223
				c-0.127,0.712-0.221,1.394-0.221,2.045c0,0.475,0.045,0.945,0.13,1.391c-0.464-0.57-0.928-1.128-1.386-1.701
				C46.483,131.946,46.406,130.405,46.406,128.86z M49.568,144.119c-0.467-0.252-0.934-0.503-1.404-0.76
				c-0.322-0.225-0.631-0.434-0.978-0.702c0.435,0.179,0.922,0.141,1.347-0.073c0.563,0.625,1.116,1.265,1.627,1.899L49.568,144.119
				z M49.436,111.446c0.893-1.192,1.838-2.342,2.86-3.446c1.508-0.159,3.041-0.126,4.576-0.021
				C54.36,108.895,51.847,109.955,49.436,111.446z M55.438,116.572c-0.397,0.469-0.781,0.948-1.162,1.451
				c-0.052-0.3-0.107-0.603-0.18-0.896C54.532,116.924,54.984,116.745,55.438,116.572z M55.02,139.907
				c-0.234-0.05-0.475-0.106-0.717-0.168c-0.224-1.087-0.334-2.264-0.397-3.414c0.426,0.854,0.883,1.703,1.363,2.519
				C55.19,139.209,55.119,139.567,55.02,139.907z M56.121,132.624c-0.015,0.194-0.036,0.385-0.058,0.581
				c-0.285-0.62-0.562-1.224-0.839-1.829c0.235-0.39,0.488-0.766,0.717-1.156c0.17-0.293,0.339-0.552,0.511-0.846
				C56.32,130.405,56.226,131.499,56.121,132.624z M58.212,121.464c-0.106,0.118-0.214,0.243-0.32,0.37l-1.483,1.72
				c-0.811,0.981-1.526,2.073-2.205,3.191c0.079-0.823,0.158-1.662,0.221-2.511c0.205-0.42,0.387-0.805,0.616-1.249
				c0.963-1.896,2.037-3.427,3.257-4.785C58.22,119.258,58.179,120.363,58.212,121.464z M67.786,148.656
				c-0.355-0.49-0.923-0.699-1.483-0.639c0.026-0.112,0.093-0.234,0.093-0.353c0-0.241-0.056-0.516-0.184-0.748
				c-0.441-0.854-1.124-1.647-1.953-2.39c0.036-0.634-0.27-1.256-0.86-1.56c-1.859-0.992-3.356-2.716-4.648-4.718
				c0.065-0.318,0.129-0.643,0.178-0.98c0.2,0.106,0.371,0.276,0.623,0.28c0.088,0.009,0.167-0.027,0.246-0.043
				c-0.071,0.087-0.152,0.147-0.202,0.237c-0.155,0.273-0.23,0.548-0.23,0.842c0,0.537,0.259,1.049,0.735,1.367
				c1.682,1.128,3.079,2.59,4.563,4.129l2.916,2.895c0,0.003,1.304,1.014,1.304,1.014c1.973,1.453,3.259,2.543,3.923,3.309
				C70.519,150.705,68.666,149.828,67.786,148.656z M66.027,127.667c0.048,0.114,0.112,0.235,0.112,0.37
				c0,0.112-0.039,0.205-0.064,0.316L66.027,127.667z M66.198,130.392c0.045-0.021,0.105-0.021,0.155-0.027
				c-0.03,0.499-0.052,0.984-0.071,1.494C66.253,131.349,66.226,130.864,66.198,130.392z M69.976,141.36
				c0.408,0.89,0.881,1.733,1.392,2.542c-0.415-0.208-0.851-0.417-1.242-0.631C70.048,142.333,69.982,141.397,69.976,141.36z
				 M71.652,132.538c-0.027-0.144-0.035-0.294-0.035-0.426c0-0.634,0.247-1.025,0.482-1.272c0.147-0.146,0.305-0.257,0.441-0.305
				c0,0.426,0.168,0.817,0.432,1.148c0.033,0.884,0.097,1.79,0.212,2.756l0.485,2.533C72.7,135.522,71.901,134.101,71.652,132.538z
				 M70.317,127.73c-0.014-0.332-0.034-0.658-0.034-0.981c0-0.503,0.015-0.995,0.041-1.468c0-0.023,0-0.057,0-0.08
				c0-0.826-0.616-1.519-1.441-1.635c-0.851-0.1-1.638,0.458-1.823,1.292c-0.109,0.514-0.198,1.022-0.279,1.532
				c-0.256-0.016-0.503,0.02-0.751,0.144c-0.027,0.005-0.047,0.041-0.076,0.049l-0.058-0.767c-0.057-0.901-0.831-1.498-1.744-1.448
				c-0.225,0.024-0.428,0.085-0.62,0.196c0.02-0.496,0.044-0.996,0.08-1.479c0.247-0.124,0.481-0.291,0.644-0.54
				c1.582-2.349,3.086-3.92,4.727-4.945c2.325-1.456,4.936-1.79,7.696-2.104c-1.427,1.891-2.831,3.802-4.207,5.715
				c-0.519,0.725-0.403,1.753,0.305,2.304c0.299,0.223,0.651,0.297,0.994,0.294C72.213,126.008,71.098,127.159,70.317,127.73z
				 M77.262,152.077v0.007c-0.196-0.018-0.38-0.046-0.572-0.064c-0.041-0.962-0.569-1.917-1.341-2.831
				c0.851,0.323,1.811,0.676,2.824,1.022C77.597,150.674,77.263,151.325,77.262,152.077z M77.868,146.613
				c0.161-0.639,0.256-1.307,0.278-2.023c0.525,1.106,1.122,2.026,1.814,2.763C79.221,147.1,78.52,146.849,77.868,146.613z
				 M82.089,144.808c-2.099-2.552-3.242-9.415-3.858-14.145c0.359-0.293,0.702-0.594,1.034-0.923l2.936,13.298
				C82.195,143.636,82.159,144.244,82.089,144.808z M84.308,148.639c0.214-0.18,0.406-0.408,0.494-0.705
				c0.168-0.529,0.29-1.051,0.39-1.597c0.564-0.359,0.884-1.04,0.725-1.726l-0.437-1.996c-0.027-1.793-0.212-3.623-0.416-5.432
				c-0.209-1.891-0.414-3.75-0.414-5.501c0-0.382,0.032-0.763,0.053-1.139c0.364,2.278,0.601,4.632,0.814,7.058
				c0.34,3.819,0.702,7.748,1.741,11.538C86.378,149.083,85.373,148.895,84.308,148.639z M87.467,127.497
				c-0.006-0.024-0.006-0.043-0.015-0.068c0.441-0.509,1.074-0.61,1.732-0.353c0.346,0.141,0.591,0.425,0.732,0.766
				c-0.003,0.055-0.036,0.102-0.036,0.166c-0.014,0.355-0.011,0.707-0.021,1.08c-0.202,0.137-0.426,0.241-0.652,0.305
				c-0.061-0.531-0.362-1.039-0.893-1.283C87.881,127.899,87.624,127.685,87.467,127.497z M89.869,143.052l-0.138,1.802
				c-0.451-2.484-0.713-5.033-0.937-7.546c-0.185-2.044-0.376-4.105-0.67-6.171c0.35-0.106,0.649-0.358,0.858-0.689
				c0.238-0.099,0.451-0.264,0.617-0.51l0.253-0.382c-0.068,2.16-0.038,4.326,0.006,6.435
				C89.913,138.311,89.964,140.716,89.869,143.052z M91.786,129.726c-0.549,0.083-1.033-0.164-1.403-0.548
				c0.064-0.599,0.412-1.168,1.022-1.404c0.637-0.253,1.306-0.003,1.743,0.464C93.073,128.986,92.526,129.602,91.786,129.726z
				 M93.137,129.562c0.011-0.426,0.011-0.87,0.034-1.295c0.052,0.053,0.088,0.099,0.121,0.149
				C93.258,128.703,93.222,129.006,93.137,129.562z M93.322,128.181c-0.127-0.329-0.259-0.684-0.259-0.684
				c-0.28-0.723-1.024-1.149-1.792-1.043c-0.257,0.044-0.475,0.164-0.678,0.298c0.479-2.087,1.019-4.176,1.559-6.219
				c0.425-1.574,0.829-3.168,1.218-4.783c0.329,0.356,0.833,0.614,1.31,0.607v0.003h-0.023l0.023,0.004
				c0.005,0.367,0.055,0.717,0.082,1.065c-0.347,0.297-0.569,0.726-0.569,1.227c0,0.006,0,0.032,0,0.05
				c0.009,0.259,0.009,0.535,0.009,0.808c0,2.749-0.419,5.585-0.833,8.344C93.369,127.858,93.343,128.14,93.322,128.181z
				 M94.089,150.894c-0.173,0.08-0.314,0.168-0.462,0.296c-0.079,0.023-0.15,0.039-0.234,0.043c0.729-1.659,1.199-3.427,1.533-5.258
				C94.703,148.108,94.414,150.064,94.089,150.894z M94.301,111.587c0.184-0.935,0.348-1.871,0.496-2.821
				c0.106,0.999,0.247,1.997,0.39,2.992C94.904,111.616,94.605,111.552,94.301,111.587z M98.061,107.061
				c-0.029,0.194-0.029,0.485-0.015,0.996c-0.033-0.338-0.077-0.679-0.12-0.996C97.968,107.061,98.013,107.061,98.061,107.061z
				 M99.444,149.485c-0.082,0.121-0.12,0.239-0.165,0.367c-0.268,0.059-0.558,0.146-0.827,0.212
				c-0.111-0.045-0.228-0.088-0.326-0.159c-0.121-0.08-0.253-0.12-0.385-0.164c0.029-0.147,0.05-0.32,0.086-0.485
				c0.56,0.212,1.153,0.229,1.759,0.103C99.538,149.402,99.488,149.438,99.444,149.485z M112.316,109.586
				c0.121,0.091,0.249,0.199,0.375,0.299c0.307,0.64,0.599,1.462,0.848,2.554c-0.625-0.268-1.236-0.564-1.867-0.88
				C111.842,110.836,112.054,110.167,112.316,109.586z M108.691,107.168c0.298-0.05,0.597-0.106,0.894-0.171
				c0.077,0.082,0.143,0.167,0.214,0.25c-0.426,0.722-0.76,1.539-1.028,2.428c-1.108-0.735-2.244-1.401-3.402-1.932L108.691,107.168
				z M104.007,114.086c1.767,2.175,2.348,4.576,2.924,7.326c0.179,0.905,0.382,1.806,0.61,2.724l-0.553,0.826
				c-0.045-0.144-0.088-0.297-0.134-0.464l-0.59-1.791l-0.206-0.572c-0.303-0.881-0.56-1.577-1.419-2.768
				c-0.077-0.202-0.128-0.384-0.218-0.594c-0.326-0.754-0.501-2.087-0.501-3.307C103.919,114.962,103.95,114.489,104.007,114.086z
				 M105.334,133.887c0.453-0.942,0.974-1.833,1.522-2.715c0.024,0.006,0.038,0.032,0.052,0.045
				c-0.651,3.531-1.673,6.987-2.866,10.458c-0.496,0.523-1.442,1.53-2.425,2.468c0.503-1.341,0.942-2.678,1.368-3.999
				C103.712,137.946,104.386,135.859,105.334,133.887z M104.254,129.094c0.015-0.264,0.047-0.554,0.071-0.827l0.349,0.209
				C104.532,128.689,104.386,128.88,104.254,129.094z M101.993,109.934l1.157,0.666c-0.381,0.141-0.689,0.293-1.019,0.435
				c-0.041,0.007-0.076,0.03-0.105,0.045c-0.155,0.073-0.332,0.132-0.49,0.211l-0.097-1.871
				C101.578,109.618,101.751,109.806,101.993,109.934z M100.301,131.631l0.379-4.854c0.161-0.13,0.307-0.287,0.411-0.467
				c0.061,2.822-0.425,6.001-1.107,9.125C100.084,134.154,100.19,132.882,100.301,131.631z M109.23,143.703l-1.973,3.834
				c-0.086,0.162-0.098,0.332-0.112,0.503c-1.051,0.514-2.12,0.999-3.173,1.398c-0.015-0.036-0.023-0.056-0.05-0.086
				c-0.557-0.632-1.485-0.691-2.143-0.223c-0.02,0-0.029-0.003-0.035-0.021c-0.255-0.177-0.546-0.237-0.846-0.267
				c0.619-0.334,1.249-0.776,1.909-1.333c0.164,0.191,0.357,0.365,0.603,0.482c0.807,0.348,1.741,0.008,2.128-0.766
				c0.93-1.841,1.859-3.503,2.798-5.082l1.78-1.404c0.32-0.253,0.652-0.507,0.986-0.763
				C110.507,141.228,109.876,142.483,109.23,143.703z M109.626,134.245c0.173-0.725,0.328-1.448,0.462-2.17
				c0.334,0.118,0.675,0.215,1.028,0.296C110.615,132.973,110.125,133.604,109.626,134.245z M112.7,144.165
				c0.143-0.256,0.276-0.514,0.417-0.784l0.25,0.231C113.146,143.804,112.928,143.992,112.7,144.165z M114.802,128.416
				c-0.038,0.041-0.082,0.08-0.115,0.121c-0.22,0.047-0.419,0.13-0.603,0.279c-0.851,0.622-2.07,0.511-3.101,0.068
				c0.648-0.234,1.078-0.834,1.078-1.517c0-0.08-0.006-0.155-0.006-0.232l-0.041-0.278c-0.264-1.959-0.726-5.408-0.824-8.881
				l1.289,1.263c0.484,0.469,1.01,0.722,1.485,0.893c0.12,0.191,0.247,0.399,0.355,0.608c0.007,0.387,0.02,0.755,0.02,1.16
				c0,1.313-0.026,2.724-0.083,4.289c0,0-0.023,0.347-0.023,0.384c0,0.71,0.469,1.306,1.113,1.533
				C115.155,128.178,114.957,128.278,114.802,128.416z M119.747,110.44c-0.03,0.384-0.057,0.763-0.064,1.137
				c-0.702-0.749-1.462-1.43-2.245-2.075C118.186,109.873,118.951,110.19,119.747,110.44z M118.293,139.655
				c-0.356,0.29-0.713,0.576-1.074,0.851c0.455-0.899,0.831-1.919,1.171-2.982c0.171,0.297,0.44,0.549,0.887,0.716
				c0.214,0.074,0.413,0.127,0.604,0.135C119.349,138.804,118.823,139.252,118.293,139.655z M119.47,134.168
				c-0.087,0.034-0.15,0.102-0.234,0.141c0.211-1.018,0.389-2.082,0.525-3.218c0.132,0.558,0.282,1.103,0.429,1.656
				C119.896,133.329,119.66,133.801,119.47,134.168z M122.4,140.589c0.259-0.212,0.519-0.418,0.781-0.617
				c0.021,0.047,0.057,0.088,0.074,0.141L122.4,140.589z M124.045,121.381c-0.152-0.93-0.279-1.824-0.425-2.722
				c0.091,0.262,0.205,0.516,0.296,0.796c0.446,1.245,0.904,2.486,1.381,3.72l-0.732,1.324
				C124.4,123.457,124.224,122.409,124.045,121.381z M127.012,132.371c-0.631,0.578-1.298,1.131-1.943,1.695
				c0.085-0.89,0.12-1.779,0.12-2.654c0-0.403-0.029-0.793-0.049-1.189c0.743-1.321,1.764-3.17,1.764-3.17l0.055-0.094
				c0.622,1.241,1.272,2.458,2.062,3.581C128.594,130.906,127.843,131.544,127.012,132.371z M128.108,136.07
				c0.33-0.417,0.708-0.81,1.096-1.203c0.055,0.123,0.135,0.229,0.223,0.337C128.991,135.483,128.56,135.801,128.108,136.07z
				 M128.745,108.096c-0.125-0.673-0.37-1.31-0.689-1.926c0.694,0.055,1.398,0.138,2.087,0.23c-0.011,0.043-0.03,0.086-0.03,0.129
				c0,0.162,0.03,0.323,0.07,0.488c0.773,2.531,1.526,5.088,2.184,7.666c-0.097-0.086-0.182-0.194-0.309-0.256
				c-0.334-0.196-0.71-0.237-1.065-0.167L128.745,108.096z M132.218,129.347c-0.321-1.624-0.7-3.384-1.119-5.211
				c0.276,0.722,1.001,1.108,1.735,1.017c0.13,0.601,0.273,1.178,0.416,1.726C132.867,127.884,132.533,128.667,132.218,129.347z
				 M142.376,109.039c-0.413-0.346-0.84-0.698-1.262-1.06C141.563,108.27,141.988,108.616,142.376,109.039z M140.586,125.134
				c-0.17,0.147-0.319,0.294-0.498,0.448c-0.358,0.299-0.531,0.702-0.57,1.128c-0.649,0.578-1.295,1.148-1.947,1.726
				c0.012-0.321,0.036-0.655,0.036-0.978c0-0.325-0.024-0.663-0.046-0.996c0.922-1.412,2.075-2.86,3.236-4.23
				c0.285,0.33,0.546,0.687,0.84,1.007C141.269,123.857,140.941,124.496,140.586,125.134z M138.324,120.063
				c0.027-0.353,0.064-0.699,0.079-1.067c0.121,0.179,0.255,0.349,0.376,0.541C138.624,119.709,138.472,119.89,138.324,120.063z
				 M142.497,115.427l-2.763-3.2c-0.971-1.107-1.938-2.246-2.872-3.374c1.253,0.933,2.478,1.93,3.725,2.989
				c0.977,0.813,1.971,1.627,2.993,2.419L142.497,115.427z M144.811,118.175c-0.054-0.07-0.109-0.13-0.173-0.202l1.256-1.36
				C145.524,117.127,145.172,117.641,144.811,118.175z M146.85,109.87c0.194,0.105,0.4,0.238,0.634,0.426
				c0.015,0.303,0.021,0.617,0.021,0.951C147.28,110.786,147.077,110.315,146.85,109.87z M151.047,116.597l-0.094,0.234
				c-0.012-0.467-0.021-0.936-0.034-1.404c0.049-0.047,0.091-0.105,0.134-0.171c0.021,0.338,0.07,0.666,0.045,1.005
				C151.099,116.37,151.062,116.485,151.047,116.597z"/>
			<path fill="#FFFFFF" d="M66.621,127.341L66.621,127.341L66.621,127.341z M77.741,111.852c-1.244,0.94-2.997,1.485-4.698,1.999
				l-3.179,1.107c-1.922,0.876-4.522,3.15-5.385,5.344c-0.234,0.575-0.393,1.556-0.393,2.599c0,1.374,0.281,2.85,1.062,3.632
				c0.369,0.385,0.869,0.643,1.474,0.807c2.017,0.511,4.739-0.376,6.025-1.163c2.533-1.554,4.321-4.237,5.171-7.728l0.046-0.187
				c0.508-2.087,0.907-3.737,0.763-6.005c-0.017-0.2-0.14-0.382-0.326-0.457C78.117,111.716,77.902,111.731,77.741,111.852"/>
			<g>
				<path fill="#FFFFFF" d="M91.829,112.187c-0.17,0.047-0.297,0.174-0.353,0.343c-0.499,1.492-1.221,2.965-1.909,4.378
					l-1.274,2.712c-1.227,2.866-2.272,6.152-0.734,8.793c0.812,1.388,2.05,2.853,4.471,1.923c3.376-1.289,4.185-4.648,4.185-7.594
					c0-1.909-0.339-3.632-0.552-4.546c-0.391-1.665-1.726-4.703-3.329-5.924C92.186,112.171,92.002,112.142,91.829,112.187"/>
			</g>
			<g>
				<path fill="#FFFFFF" d="M102.802,113.206c-0.207-0.079-0.448-0.011-0.59,0.171c-0.17,0.174-0.176,0.473-0.035,0.681
					c0.164,0.24,0.496,1.453,0.653,2.05l0.269,0.885l0.638,2.047c0.341,1.24,0.696,2.537,1.526,3.743l0.901,1.435
					c1.385,2.298,3.292,5.428,5.877,5.918c1.148,0.212,2.311-0.124,3.455-1.001c2.372-1.832,1.072-6.523-0.32-8.643
					c-1.68-2.572-4.448-4.172-5.945-4.9l-3.051-1.317c-0.005,0-1.071-0.341-1.071-0.341c-0.54-0.149-1.427-0.4-1.583-0.613
					C103.354,113.085,103.035,113.064,102.802,113.206"/>
			</g>
		</g>
	</g>
</g>
</svg>
